M48
;Layer_Color=9474304
;FILE_FORMAT=2:4
INCH,TZ
;TYPE=PLATED
T01F00S00C0.0118
T04F00S00C0.0335
T05F00S00C0.0354
T06F00S00C0.0394
T07F00S00C0.0433
T08F00S00C0.0630
T09F00S00C0.1063
T10F00S00C0.1339
;TYPE=NON_PLATED
T11F00S00C0.1260
%
T01
X5906Y4331
X7087
X8268
X7677Y5512
X8268Y6693
X7087
X7677Y7874
X6496
X5315
X4724Y6693
X9449
X10630
X11811
X12992
X14173
X15354
X16535
X17717
X18898
X20079
X21260
X22441
X23622
X23031Y7874
X21850
X20669
X19488
X18307
X17126
X15945
X14764
X13583
X12402
X11220
X10039
X8858
Y5512
X10039
X11220
X12402
X13583
X14764
X15945
X17126
X18307
X19488
X20079Y4331
X21260
X22441
X23622
X24026Y5138
X23031Y5512
X18898Y4331
X17717
X16535
X15354
X14173
X12992
X11811
X10630
X9449
X24990Y4547
X25984Y4331
X25925Y5148
X26575Y5512
X27756
X28346Y4331
X29528
X30709
X30502Y6112
X29744Y5915
X28937Y6378
X29173Y8071
X31535Y6624
X32795Y7313
X33425Y7805
X35531Y6870
X34928Y6154
X36024Y5512
X38386
X39567
X39449Y7746
X39065Y7382
X25984Y6693
X24803
X25000Y5778
X24213Y7874
X27165Y4331
X40748Y5512
X41929
X43110
X44291
X45285Y5719
X46211Y5128
X47136Y5719
X47835Y5512
X49016
X50197
X51378
X52559
X53740
X54921
X55374Y7461
X53159Y7510
X41289Y8140
X58465Y7874
X59646
Y5512
X60236Y4331
X61417
X59055
X57874
X56102Y5512
X62392Y7648
X62008Y10236
X60748Y10089
X59970
X60236Y11417
X61417
X62008Y12598
X60827
X58799Y13366
X58376Y13376
X57953
X57874Y11417
X59055
X57283Y10236
X56368Y9262
X55512Y9055
X56831Y8504
X55748Y14636
Y15285
X56161Y16093
X55699Y17441
X59646Y17323
X59577Y16132
X59163Y16112
X60236Y16142
X61545Y16211
X62323
X62008Y19685
X61417Y20866
X62008Y22047
X59646
X59055Y23228
Y20866
X59331Y20226
X58465Y19685
X57874Y20866
X55246Y17303
X55226Y16801
Y16339
Y15896
X52963Y15807
X52648Y15305
X52943Y14705
X53711Y13789
X54961Y12510
X53661Y11033
X53209Y11014
X52913Y11407
X52244Y10118
X52254Y8415
X52913Y8780
X47835Y9154
X47815Y11211
X46033Y11959
X46850Y13996
X46841Y14715
X47372Y16181
X48435
X49508
X49951Y16348
X50207Y15581
X50689Y15285
X49715Y15276
X50561Y16978
Y18022
X52953Y17657
X52461Y16348
X52136Y15886
X46270Y16181
X45276Y16191
X44262
X42303Y16142
X42313Y15344
X42303Y14567
X42687Y14321
X43061Y14065
X43445Y13799
X43819Y13543
X44242Y13533
X44961Y13927
X43553Y11161
X43140Y11555
X42726Y11860
X43307Y9902
X40108Y8573
X40492Y13032
X40906Y13307
X40472Y15650
X45955Y17589
X44291Y22047
X44882Y23228
X48238Y23494
X48218Y22854
X48986Y22244
X49537Y22254
X50374Y21929
X50965Y22264
X51693Y22874
X51663Y23465
X38248Y22943
X38001Y23190
X38248Y22323
X36604Y23455
X33071Y23228
X33661Y22047
X27756
X27874Y22376
Y22996
X27627Y23243
X26230Y23508
X24803Y23228
X25394Y22047
X24213
X24783Y12126
Y11467
Y10876
X24902Y8917
X24508
Y8317
X24902
X25295
X25689
X26083
X26476
X26870
X27264
X27657
X28051
X28445
X28839
X29498Y8287
X29528Y9154
X29183
X28770Y8967
X28051Y8917
X27657
X27264
X26870
X26476
X26083
X25689
X25295
X27293Y11142
X28012Y11132
X28681Y10876
X29419Y10856
X30433Y11860
X31467Y10876
X31732Y10571
X32795Y9990
X33425Y9370
X33543Y11270
X34301Y10630
X34241Y14023
X35335Y14449
X35846Y14468
X35856Y13957
X36437Y14468
X36969Y14498
X37461Y14528
X37943Y14547
X38435Y14587
X38189Y15207
X37706Y15700
X37283Y16152
X38661Y16358
X39272Y18238
X37894Y18248
X38681Y12756
X39252Y12343
X39478Y10344
X38484Y10354
X37953Y9951
X38356Y8701
X37313Y8652
X36978Y8386
X36516Y8376
X36181Y8671
X31929Y16909
X30945Y16220
X29911Y16909
X22510Y15945
X21821
X21146Y15947
X20486Y15937
X20807Y15394
X21467Y15384
X22165Y15374
X22496Y14821
X21807
X21132Y14823
X20472Y14813
X20079Y15384
X18898Y16142
X17579Y16437
X16644Y16417
X15837Y16250
X15354Y16142
X14941Y16211
X15354Y15138
X15413Y14104
X13888Y13888
X12923
X12136Y13898
X12402Y12598
X13583
X14764
X15945
X17126
X16663Y13081
X17618
X18376Y13130
X18307Y12598
X19016Y13110
X20472Y13002
X21128Y13177
X21797Y13187
X21850Y12598
X22441Y11417
X23287Y11467
X23278Y10886
X24016Y10876
X24006Y11476
Y12126
X23287Y12136
X21260Y11417
X20079
X18898
X17717
X16535
X15354
X14173
X12992
X11811
X10630
X9449
X9252Y10512
X9249Y10183
X9026Y9695
X9291Y9439
X9557Y9173
X9823Y8878
X10098Y8602
X10335Y8317
X10728
X11122
X11516
X11909
X12303
X12697
X13091
X13484
X13878
X14272
X14665
X15059
X15453
X15846
X16240
X16634
X17028
X17421
X17815
X18209
X18602
X18996
X19390
X19783
X20177
X20571
X20965
X21358
X21752
X22146
X22539
X22933
X23327
X23720
X24114
Y8917
X23720
X23327
X22933
X22539
X22146
X21752
X21358
X20965
X20571
X20177
X19783
X19390
X18996
X18602
X18209
X17815
X17421
X17028
X16634
X16240
X15846
X15453
X15059
X14665
X14272
X13878
X13484
X13091
X12697
X12303
X11909
X11516
X11122
X10659Y9134
X10344Y9429
X10069Y9695
X9803Y9961
X10039Y10236
X11220
X12402
X13583
X14764
X15945
X17126
X18307
X19488
X20138Y10108
X20108Y17667
X18307Y17323
X17126
X15741Y17483
X13937Y17047
X13583Y17323
X13307Y17047
X12402Y17323
X8858
X9449Y18504
X8858Y19685
X9449Y20866
X8858Y22047
X9449Y23228
X14764Y22047
X17126
X17461Y22303
Y22923
X17214Y23170
X15817Y23435
X18307Y22047
X23031
X23622Y23228
X22441
X23474Y14774
X10039Y14961
X8858
X9449Y16142
Y13780
X10630
X11220Y12598
X10039
X8858
X8661Y10787
X8670Y10460
X8671Y9951
X8022Y9547
X7372
X7087Y9055
X8268
X8002Y11201
X7372
X7677Y12598
X6496
X5315
X5906Y13780
X7087
X8268
X7677Y14961
X6496
X5315
X5906Y16142
X7087
X8268
X7677Y17323
X6496
X5315
X5906Y18504
X7087
X8268
X7677Y19685
X6496
X5315
X5906Y20866
X7087
X8268
X7677Y22047
X6496
X5315
X4724Y23228
Y20866
Y18504
Y16142
Y13780
X8268Y23228
X7677Y24409
X6496
X5315
X5906Y25591
X7087
X8268
X6496Y26772
X5315
X5906Y27953
X7087
X7677Y29134
X6496
X5315
X4724Y30315
Y32677
X7087
X7677Y33858
Y31496
X6496
X4724Y27953
Y25591
X10039Y29134
X11220
X12264Y29783
X11811Y30315
X10630
X11220Y31496
X10039
X10630Y32677
X11811
X11220Y33858
X10039
X8858
X13583
X15945
Y31496
X16240Y29783
X15945Y29134
X14764
X14636Y29783
X14173Y30315
X13583Y31496
Y29134
X14173Y27953
X12992
X11811
X13583Y26772
X14764
X15354Y25591
X14173
X14764Y24409
X17923Y24744
X17953Y25472
X17648Y25413
X17944Y25840
X17638Y26368
X18258Y26772
X19055
X19488Y26772
X18937Y26230
X20669Y26772
X21850
X23031
X23622Y27953
Y30315
X21850Y29134
X20669
X20974Y29774
X19350
X19488Y29134
X18307
X17805Y29774
X17717Y30315
X18898
X20669Y31496
Y33858
X23031
X22441Y25591
X23031Y24409
X25394
X25984Y25591
X24803
X25394Y26772
X24213
Y29134
X25394
X25039Y29774
X24803Y30315
X24213Y31496
X24803Y32677
X24213Y33858
X26575
X27756
Y31496
X26575
X26644Y29793
X26575Y29134
X28169Y29783
X28346Y30315
X29528
X29783Y29774
X30118Y29134
X31299
X31368Y29783
X31299Y31496
Y33858
X32480
X33661
X34843
Y31496
X35433Y30315
X35443Y29783
X36024Y29134
X37205
X37028Y29774
X36614Y30315
X34252
X34843Y29134
Y26772
X33661
X32480
X31299
X30118
X29482Y26797
X29370Y26254
X28685Y26797
X28051Y26441
X28357Y25913
X28366Y25545
X28061Y25486
X28337Y24817
X33071Y25591
X33661Y24409
X34843
X36614Y25591
X38435Y25433
X38740Y25492
X38731Y25860
X38425Y26388
X39109Y26724
X38711Y24764
X38386Y29134
X38593Y29783
X38386Y31496
Y33858
X33071Y27953
X39907Y26724
X39803Y26181
X40748Y26772
X41929
X43110
X44291
X44882Y27953
X44291Y29134
X44882Y30315
X44291Y31496
Y33858
X45472
X46654
X50197
X51378
X51634Y32657
X53740Y33858
X53150Y30315
X53740Y29134
X54921
Y26772
X53740
X52559
X51378
X50197
X49016
X50787Y27953
X51968
X53150
X52559Y29134
X51378
X50197
X41929
X41742Y29783
X41339Y30315
X40157
X40148Y29783
X40748Y29134
X43110Y33858
X44882Y25591
X44291Y24409
X58465
X59646
X60827
X62008
Y26772
X60827
X61417Y27953
X60236
X60827Y29134
X62008
X61417Y30315
X60236
X59646Y31496
X58494Y31742
X59055Y32677
X57402Y32667
X57283Y33858
X57854Y34409
X59646Y33858
X62008Y31496
X59646Y29134
X59055Y25591
X55512Y27953
Y30315
T04
X5567Y9260
Y11228
T05
X58214Y17706
Y18607
X60111Y19001
Y19804
Y20607
Y21411
X60812Y21009
Y20206
Y19403
Y21812
X58214Y22206
Y23107
T06
X23190Y32703
X23978
X33515Y32713
X34302
X43850Y32683
X44637
T07
X28921Y5118
X29921
X30921
X31921
X32921
X33921
X44472Y7274
X49055Y7350
X50787
Y8350
Y9350
Y10350
Y11350
X49055
Y10350
Y9350
Y8350
X44472Y8274
Y9675
Y10675
X46293Y23035
X47293
X21476Y31667
Y32667
Y33667
X19902
Y32667
Y31667
X18327
Y32667
Y33667
X16752
Y32667
Y31667
X15177
Y32667
Y33667
X12815
Y32667
Y31667
X25591Y31667
Y32667
Y33667
X27165
Y32667
Y31667
X28740
Y32667
Y33667
X30315
Y32667
Y31667
X31890
Y32667
Y33667
X35965
Y32667
Y31667
X37539
Y32667
Y33667
X39114
Y32667
Y31667
X40689
Y32667
Y33667
X42264
Y32667
Y31667
X46063
Y32667
Y33667
X47638
Y32667
Y31667
X49213
Y32667
Y33667
X50787
Y32667
Y31667
X52953
Y32667
Y33667
X54528
Y32667
Y31667
X50498Y24622
X49498
X47293Y24591
X46293
X56102Y31667
Y32667
Y33667
T08
X60462Y17208
Y23606
T09
X8839Y24498
Y27333
X58465Y26929
Y29764
T10
X5898Y5929
X61016
X5898Y33488
X61016
T11
X61812Y17907
Y22907
M30
