G04*
G04 #@! TF.GenerationSoftware,Altium Limited,Altium Designer,22.4.2 (48)*
G04*
G04 Layer_Color=8388736*
%FSLAX44Y44*%
%MOMM*%
G71*
G04*
G04 #@! TF.SameCoordinates,C02FB5F5-7DDD-4E4A-B98E-A3E591FA83C8*
G04*
G04*
G04 #@! TF.FilePolarity,Negative*
G04*
G01*
G75*
%ADD54C,0.7032*%
%ADD55O,0.6532X1.9032*%
%ADD56R,1.5532X0.6032*%
%ADD57R,1.5532X0.8032*%
G04:AMPARAMS|DCode=58|XSize=3.5032mm|YSize=1.9032mm|CornerRadius=0.3141mm|HoleSize=0mm|Usage=FLASHONLY|Rotation=180.000|XOffset=0mm|YOffset=0mm|HoleType=Round|Shape=RoundedRectangle|*
%AMROUNDEDRECTD58*
21,1,3.5032,1.2750,0,0,180.0*
21,1,2.8750,1.9032,0,0,180.0*
1,1,0.6282,-1.4375,0.6375*
1,1,0.6282,1.4375,0.6375*
1,1,0.6282,1.4375,-0.6375*
1,1,0.6282,-1.4375,-0.6375*
%
%ADD58ROUNDEDRECTD58*%
G04:AMPARAMS|DCode=59|XSize=3.5032mm|YSize=1.9032mm|CornerRadius=0.3141mm|HoleSize=0mm|Usage=FLASHONLY|Rotation=90.000|XOffset=0mm|YOffset=0mm|HoleType=Round|Shape=RoundedRectangle|*
%AMROUNDEDRECTD59*
21,1,3.5032,1.2750,0,0,90.0*
21,1,2.8750,1.9032,0,0,90.0*
1,1,0.6282,0.6375,1.4375*
1,1,0.6282,0.6375,-1.4375*
1,1,0.6282,-0.6375,-1.4375*
1,1,0.6282,-0.6375,1.4375*
%
%ADD59ROUNDEDRECTD59*%
G04:AMPARAMS|DCode=60|XSize=1.2032mm|YSize=1.3032mm|CornerRadius=0.1766mm|HoleSize=0mm|Usage=FLASHONLY|Rotation=180.000|XOffset=0mm|YOffset=0mm|HoleType=Round|Shape=RoundedRectangle|*
%AMROUNDEDRECTD60*
21,1,1.2032,0.9500,0,0,180.0*
21,1,0.8500,1.3032,0,0,180.0*
1,1,0.3532,-0.4250,0.4750*
1,1,0.3532,0.4250,0.4750*
1,1,0.3532,0.4250,-0.4750*
1,1,0.3532,-0.4250,-0.4750*
%
%ADD60ROUNDEDRECTD60*%
G04:AMPARAMS|DCode=61|XSize=1.2032mm|YSize=1.3032mm|CornerRadius=0.1766mm|HoleSize=0mm|Usage=FLASHONLY|Rotation=90.000|XOffset=0mm|YOffset=0mm|HoleType=Round|Shape=RoundedRectangle|*
%AMROUNDEDRECTD61*
21,1,1.2032,0.9500,0,0,90.0*
21,1,0.8500,1.3032,0,0,90.0*
1,1,0.3532,0.4750,0.4250*
1,1,0.3532,0.4750,-0.4250*
1,1,0.3532,-0.4750,-0.4250*
1,1,0.3532,-0.4750,0.4250*
%
%ADD61ROUNDEDRECTD61*%
%ADD62R,1.1032X1.2032*%
%ADD63R,1.2032X1.8032*%
%ADD64R,0.6032X1.5532*%
%ADD65R,1.7032X2.1032*%
%ADD66R,0.8200X0.4500*%
%ADD67O,0.8200X0.4500*%
%ADD68O,0.6000X1.6500*%
%ADD69R,0.6000X1.6500*%
G04:AMPARAMS|DCode=70|XSize=1.3032mm|YSize=1.2032mm|CornerRadius=0.1766mm|HoleSize=0mm|Usage=FLASHONLY|Rotation=270.000|XOffset=0mm|YOffset=0mm|HoleType=Round|Shape=RoundedRectangle|*
%AMROUNDEDRECTD70*
21,1,1.3032,0.8500,0,0,270.0*
21,1,0.9500,1.2032,0,0,270.0*
1,1,0.3532,-0.4250,-0.4750*
1,1,0.3532,-0.4250,0.4750*
1,1,0.3532,0.4250,0.4750*
1,1,0.3532,0.4250,-0.4750*
%
%ADD70ROUNDEDRECTD70*%
%ADD71R,0.7932X0.6532*%
G04:AMPARAMS|DCode=72|XSize=0.7932mm|YSize=0.6532mm|CornerRadius=0.1354mm|HoleSize=0mm|Usage=FLASHONLY|Rotation=90.000|XOffset=0mm|YOffset=0mm|HoleType=Round|Shape=RoundedRectangle|*
%AMROUNDEDRECTD72*
21,1,0.7932,0.3825,0,0,90.0*
21,1,0.5225,0.6532,0,0,90.0*
1,1,0.2707,0.1913,0.2612*
1,1,0.2707,0.1913,-0.2612*
1,1,0.2707,-0.1913,-0.2612*
1,1,0.2707,-0.1913,0.2612*
%
%ADD72ROUNDEDRECTD72*%
G04:AMPARAMS|DCode=73|XSize=1.3032mm|YSize=1.2032mm|CornerRadius=0.2016mm|HoleSize=0mm|Usage=FLASHONLY|Rotation=270.000|XOffset=0mm|YOffset=0mm|HoleType=Round|Shape=RoundedRectangle|*
%AMROUNDEDRECTD73*
21,1,1.3032,0.8000,0,0,270.0*
21,1,0.9000,1.2032,0,0,270.0*
1,1,0.4032,-0.4000,-0.4500*
1,1,0.4032,-0.4000,0.4500*
1,1,0.4032,0.4000,0.4500*
1,1,0.4032,0.4000,-0.4500*
%
%ADD73ROUNDEDRECTD73*%
G04:AMPARAMS|DCode=74|XSize=0.8032mm|YSize=1.1032mm|CornerRadius=0.1466mm|HoleSize=0mm|Usage=FLASHONLY|Rotation=270.000|XOffset=0mm|YOffset=0mm|HoleType=Round|Shape=RoundedRectangle|*
%AMROUNDEDRECTD74*
21,1,0.8032,0.8100,0,0,270.0*
21,1,0.5100,1.1032,0,0,270.0*
1,1,0.2932,-0.4050,-0.2550*
1,1,0.2932,-0.4050,0.2550*
1,1,0.2932,0.4050,0.2550*
1,1,0.2932,0.4050,-0.2550*
%
%ADD74ROUNDEDRECTD74*%
G04:AMPARAMS|DCode=75|XSize=1.3032mm|YSize=0.8032mm|CornerRadius=0.1316mm|HoleSize=0mm|Usage=FLASHONLY|Rotation=0.000|XOffset=0mm|YOffset=0mm|HoleType=Round|Shape=RoundedRectangle|*
%AMROUNDEDRECTD75*
21,1,1.3032,0.5400,0,0,0.0*
21,1,1.0400,0.8032,0,0,0.0*
1,1,0.2632,0.5200,-0.2700*
1,1,0.2632,-0.5200,-0.2700*
1,1,0.2632,-0.5200,0.2700*
1,1,0.2632,0.5200,0.2700*
%
%ADD75ROUNDEDRECTD75*%
%ADD76R,0.4500X0.8200*%
%ADD77O,0.4500X0.8200*%
G04:AMPARAMS|DCode=78|XSize=0.6mm|YSize=1.7mm|CornerRadius=0.1245mm|HoleSize=0mm|Usage=FLASHONLY|Rotation=180.000|XOffset=0mm|YOffset=0mm|HoleType=Round|Shape=RoundedRectangle|*
%AMROUNDEDRECTD78*
21,1,0.6000,1.4510,0,0,180.0*
21,1,0.3510,1.7000,0,0,180.0*
1,1,0.2490,-0.1755,0.7255*
1,1,0.2490,0.1755,0.7255*
1,1,0.2490,0.1755,-0.7255*
1,1,0.2490,-0.1755,-0.7255*
%
%ADD78ROUNDEDRECTD78*%
G04:AMPARAMS|DCode=79|XSize=1.3032mm|YSize=1.2032mm|CornerRadius=0.1766mm|HoleSize=0mm|Usage=FLASHONLY|Rotation=0.000|XOffset=0mm|YOffset=0mm|HoleType=Round|Shape=RoundedRectangle|*
%AMROUNDEDRECTD79*
21,1,1.3032,0.8500,0,0,0.0*
21,1,0.9500,1.2032,0,0,0.0*
1,1,0.3532,0.4750,-0.4250*
1,1,0.3532,-0.4750,-0.4250*
1,1,0.3532,-0.4750,0.4250*
1,1,0.3532,0.4750,0.4250*
%
%ADD79ROUNDEDRECTD79*%
G04:AMPARAMS|DCode=80|XSize=1.5032mm|YSize=1.7032mm|CornerRadius=0.1991mm|HoleSize=0mm|Usage=FLASHONLY|Rotation=0.000|XOffset=0mm|YOffset=0mm|HoleType=Round|Shape=RoundedRectangle|*
%AMROUNDEDRECTD80*
21,1,1.5032,1.3050,0,0,0.0*
21,1,1.1050,1.7032,0,0,0.0*
1,1,0.3982,0.5525,-0.6525*
1,1,0.3982,-0.5525,-0.6525*
1,1,0.3982,-0.5525,0.6525*
1,1,0.3982,0.5525,0.6525*
%
%ADD80ROUNDEDRECTD80*%
G04:AMPARAMS|DCode=81|XSize=1.3032mm|YSize=1.2032mm|CornerRadius=0.2016mm|HoleSize=0mm|Usage=FLASHONLY|Rotation=180.000|XOffset=0mm|YOffset=0mm|HoleType=Round|Shape=RoundedRectangle|*
%AMROUNDEDRECTD81*
21,1,1.3032,0.8000,0,0,180.0*
21,1,0.9000,1.2032,0,0,180.0*
1,1,0.4032,-0.4500,0.4000*
1,1,0.4032,0.4500,0.4000*
1,1,0.4032,0.4500,-0.4000*
1,1,0.4032,-0.4500,-0.4000*
%
%ADD81ROUNDEDRECTD81*%
%ADD82R,0.6032X0.6832*%
G04:AMPARAMS|DCode=83|XSize=1.5032mm|YSize=1.7032mm|CornerRadius=0.1991mm|HoleSize=0mm|Usage=FLASHONLY|Rotation=90.000|XOffset=0mm|YOffset=0mm|HoleType=Round|Shape=RoundedRectangle|*
%AMROUNDEDRECTD83*
21,1,1.5032,1.3050,0,0,90.0*
21,1,1.1050,1.7032,0,0,90.0*
1,1,0.3982,0.6525,0.5525*
1,1,0.3982,0.6525,-0.5525*
1,1,0.3982,-0.6525,-0.5525*
1,1,0.3982,-0.6525,0.5525*
%
%ADD83ROUNDEDRECTD83*%
%ADD84R,5.8032X1.8532*%
%ADD85R,1.0032X2.9032*%
G04:AMPARAMS|DCode=86|XSize=1.75mm|YSize=1.2mm|CornerRadius=0.175mm|HoleSize=0mm|Usage=FLASHONLY|Rotation=0.000|XOffset=0mm|YOffset=0mm|HoleType=Round|Shape=RoundedRectangle|*
%AMROUNDEDRECTD86*
21,1,1.7500,0.8500,0,0,0.0*
21,1,1.4000,1.2000,0,0,0.0*
1,1,0.3500,0.7000,-0.4250*
1,1,0.3500,-0.7000,-0.4250*
1,1,0.3500,-0.7000,0.4250*
1,1,0.3500,0.7000,0.4250*
%
%ADD86ROUNDEDRECTD86*%
%ADD87R,0.6532X0.7932*%
%ADD88R,2.7032X1.9032*%
%ADD89C,1.6112*%
%ADD90R,1.6112X1.6112*%
%ADD91C,2.6032*%
%ADD92C,3.4032*%
%ADD93C,1.8000*%
G04:AMPARAMS|DCode=94|XSize=1.8mm|YSize=1.8mm|CornerRadius=0.5mm|HoleSize=0mm|Usage=FLASHONLY|Rotation=180.000|XOffset=0mm|YOffset=0mm|HoleType=Round|Shape=RoundedRectangle|*
%AMROUNDEDRECTD94*
21,1,1.8000,0.8000,0,0,180.0*
21,1,0.8000,1.8000,0,0,180.0*
1,1,1.0000,-0.4000,0.4000*
1,1,1.0000,0.4000,0.4000*
1,1,1.0000,0.4000,-0.4000*
1,1,1.0000,-0.4000,-0.4000*
%
%ADD94ROUNDEDRECTD94*%
%ADD95C,1.6532*%
G04:AMPARAMS|DCode=96|XSize=1.8mm|YSize=1.8mm|CornerRadius=0.5mm|HoleSize=0mm|Usage=FLASHONLY|Rotation=270.000|XOffset=0mm|YOffset=0mm|HoleType=Round|Shape=RoundedRectangle|*
%AMROUNDEDRECTD96*
21,1,1.8000,0.8000,0,0,270.0*
21,1,0.8000,1.8000,0,0,270.0*
1,1,1.0000,-0.4000,-0.4000*
1,1,1.0000,-0.4000,0.4000*
1,1,1.0000,0.4000,0.4000*
1,1,1.0000,0.4000,-0.4000*
%
%ADD96ROUNDEDRECTD96*%
%ADD97C,3.9032*%
G04:AMPARAMS|DCode=98|XSize=1.7032mm|YSize=3.2032mm|CornerRadius=0.4766mm|HoleSize=0mm|Usage=FLASHONLY|Rotation=90.000|XOffset=0mm|YOffset=0mm|HoleType=Round|Shape=RoundedRectangle|*
%AMROUNDEDRECTD98*
21,1,1.7032,2.2500,0,0,90.0*
21,1,0.7500,3.2032,0,0,90.0*
1,1,0.9532,1.1250,0.3750*
1,1,0.9532,1.1250,-0.3750*
1,1,0.9532,-1.1250,-0.3750*
1,1,0.9532,-1.1250,0.3750*
%
%ADD98ROUNDEDRECTD98*%
G04:AMPARAMS|DCode=99|XSize=1.7032mm|YSize=3.2032mm|CornerRadius=0.4766mm|HoleSize=0mm|Usage=FLASHONLY|Rotation=180.000|XOffset=0mm|YOffset=0mm|HoleType=Round|Shape=RoundedRectangle|*
%AMROUNDEDRECTD99*
21,1,1.7032,2.2500,0,0,180.0*
21,1,0.7500,3.2032,0,0,180.0*
1,1,0.9532,-0.3750,1.1250*
1,1,0.9532,0.3750,1.1250*
1,1,0.9532,0.3750,-1.1250*
1,1,0.9532,-0.3750,-1.1250*
%
%ADD99ROUNDEDRECTD99*%
%ADD100C,6.2032*%
%ADD101R,1.8532X1.8532*%
%ADD102C,1.8532*%
G36*
X482933Y125409D02*
X483064Y125384D01*
X483190Y125341D01*
X483309Y125282D01*
X483420Y125208D01*
X483520Y125120D01*
X483608Y125020D01*
X483682Y124909D01*
X483741Y124790D01*
X483783Y124663D01*
X483810Y124533D01*
X483818Y124400D01*
Y105400D01*
X483810Y105267D01*
X483783Y105136D01*
X483741Y105010D01*
X483682Y104891D01*
X483608Y104780D01*
X483520Y104680D01*
X483420Y104592D01*
X483309Y104518D01*
X483190Y104459D01*
X483064Y104417D01*
X482933Y104390D01*
X482800Y104382D01*
X469800D01*
X469667Y104390D01*
X469537Y104417D01*
X469410Y104459D01*
X469291Y104518D01*
X469180Y104592D01*
X469080Y104680D01*
X468992Y104780D01*
X468918Y104891D01*
X468859Y105010D01*
X468816Y105136D01*
X468791Y105267D01*
X468782Y105400D01*
Y109382D01*
X464800D01*
X464667Y109390D01*
X464537Y109416D01*
X464411Y109459D01*
X464352Y109488D01*
X464291Y109518D01*
X464180Y109592D01*
X464080Y109680D01*
Y109680D01*
X464080D01*
X463993Y109780D01*
X463918Y109891D01*
X463889Y109951D01*
X463859Y110010D01*
X463817Y110136D01*
X463791Y110267D01*
X463782Y110400D01*
X463782Y119400D01*
Y119400D01*
D01*
X463791Y119533D01*
X463816Y119663D01*
X463859Y119790D01*
X463888Y119848D01*
X463918Y119909D01*
X463992Y120020D01*
X464080Y120120D01*
X464080D01*
Y120120D01*
X464180Y120208D01*
X464291Y120282D01*
X464351Y120312D01*
X464410Y120341D01*
X464537Y120384D01*
X464667Y120409D01*
X464800Y120418D01*
D01*
X464800D01*
X468782D01*
Y124400D01*
X468791Y124533D01*
X468816Y124663D01*
X468859Y124790D01*
X468918Y124909D01*
X468992Y125020D01*
X469080Y125120D01*
X469180Y125208D01*
X469291Y125282D01*
X469410Y125341D01*
X469537Y125384D01*
X469667Y125409D01*
X469800Y125418D01*
X482800D01*
X482933Y125409D01*
D02*
G37*
G36*
X541933D02*
X542064Y125384D01*
X542190Y125341D01*
X542309Y125282D01*
X542420Y125208D01*
X542520Y125120D01*
X542608Y125020D01*
X542682Y124909D01*
X542741Y124790D01*
X542784Y124663D01*
X542809Y124533D01*
X542818Y124400D01*
Y120419D01*
X546800D01*
X546933Y120410D01*
X547063Y120384D01*
X547189Y120341D01*
X547248Y120312D01*
X547309Y120282D01*
X547420Y120208D01*
X547520Y120120D01*
Y120120D01*
X547520D01*
X547608Y120020D01*
X547682Y119909D01*
X547711Y119849D01*
X547741Y119790D01*
X547783Y119664D01*
X547809Y119533D01*
X547818Y119400D01*
X547818Y110400D01*
Y110400D01*
D01*
X547809Y110267D01*
X547784Y110136D01*
X547741Y110010D01*
X547712Y109951D01*
X547682Y109891D01*
X547608Y109780D01*
X547520Y109680D01*
X547520D01*
Y109680D01*
X547420Y109592D01*
X547309Y109518D01*
X547249Y109488D01*
X547190Y109459D01*
X547064Y109417D01*
X546933Y109390D01*
X546800Y109382D01*
D01*
X546800D01*
X542818D01*
Y105400D01*
X542809Y105267D01*
X542784Y105136D01*
X542741Y105010D01*
X542682Y104891D01*
X542608Y104780D01*
X542520Y104680D01*
X542420Y104592D01*
X542309Y104518D01*
X542190Y104459D01*
X542064Y104417D01*
X541933Y104390D01*
X541800Y104382D01*
X528800D01*
X528667Y104390D01*
X528536Y104417D01*
X528410Y104459D01*
X528291Y104518D01*
X528180Y104592D01*
X528080Y104680D01*
X527992Y104780D01*
X527918Y104891D01*
X527859Y105010D01*
X527817Y105136D01*
X527791Y105267D01*
X527782Y105400D01*
Y124400D01*
X527791Y124533D01*
X527817Y124663D01*
X527859Y124790D01*
X527918Y124909D01*
X527992Y125020D01*
X528080Y125120D01*
X528180Y125208D01*
X528291Y125282D01*
X528410Y125341D01*
X528536Y125384D01*
X528667Y125409D01*
X528800Y125418D01*
X541800D01*
X541933Y125409D01*
D02*
G37*
D54*
X472300Y110400D02*
G03*
X472300Y110400I-2500J0D01*
G01*
Y119400D02*
G03*
X472300Y119400I-2500J0D01*
G01*
X544300Y110400D02*
G03*
X544300Y110400I-2500J0D01*
G01*
Y119400D02*
G03*
X544300Y119400I-2500J0D01*
G01*
D55*
X825496Y185549D02*
D03*
Y253549D02*
D03*
X818996Y185549D02*
D03*
Y253549D02*
D03*
X812496Y185549D02*
D03*
Y253549D02*
D03*
X805996Y185549D02*
D03*
Y253549D02*
D03*
X799496Y185549D02*
D03*
Y253549D02*
D03*
X792996Y185549D02*
D03*
Y253549D02*
D03*
X786496Y185549D02*
D03*
Y253549D02*
D03*
X779996Y185549D02*
D03*
Y253549D02*
D03*
X773496Y185549D02*
D03*
Y253549D02*
D03*
X766996Y185549D02*
D03*
Y253549D02*
D03*
X760496Y185549D02*
D03*
Y253549D02*
D03*
X753996Y185549D02*
D03*
Y253549D02*
D03*
X747496Y185549D02*
D03*
Y253549D02*
D03*
X740996Y185549D02*
D03*
Y253549D02*
D03*
D56*
X1010259Y404758D02*
D03*
Y411258D02*
D03*
Y417758D02*
D03*
Y398258D02*
D03*
Y391758D02*
D03*
X951758D02*
D03*
Y398258D02*
D03*
Y417758D02*
D03*
Y411258D02*
D03*
Y404758D02*
D03*
Y385258D02*
D03*
Y378758D02*
D03*
Y372258D02*
D03*
Y365758D02*
D03*
Y346258D02*
D03*
Y352757D02*
D03*
Y359258D02*
D03*
X1010259D02*
D03*
Y352757D02*
D03*
Y346258D02*
D03*
Y365758D02*
D03*
Y372258D02*
D03*
Y378758D02*
D03*
Y385258D02*
D03*
X1272259Y448258D02*
D03*
Y454758D02*
D03*
Y461258D02*
D03*
Y441758D02*
D03*
Y435258D02*
D03*
X1213758D02*
D03*
Y441758D02*
D03*
Y461258D02*
D03*
Y454758D02*
D03*
Y448258D02*
D03*
Y428758D02*
D03*
Y422258D02*
D03*
Y415758D02*
D03*
Y409258D02*
D03*
Y389757D02*
D03*
Y396258D02*
D03*
Y402758D02*
D03*
X1272259D02*
D03*
Y396258D02*
D03*
Y389757D02*
D03*
Y409258D02*
D03*
Y415758D02*
D03*
Y422258D02*
D03*
Y428758D02*
D03*
D57*
X951758Y425258D02*
D03*
Y338758D02*
D03*
X1010259D02*
D03*
Y425258D02*
D03*
X1213758Y468758D02*
D03*
Y382258D02*
D03*
X1272259D02*
D03*
Y468758D02*
D03*
D58*
X822750Y327250D02*
D03*
X752000D02*
D03*
X1066500Y244000D02*
D03*
X1067500Y183000D02*
D03*
X932500Y244000D02*
D03*
Y182000D02*
D03*
X546000Y165000D02*
D03*
X483050Y332950D02*
D03*
X1565500Y545250D02*
D03*
X1173750Y145000D02*
D03*
X407500Y128750D02*
D03*
X634750Y130750D02*
D03*
X1566200Y585550D02*
D03*
D59*
X1114750Y431250D02*
D03*
X1088200Y430950D02*
D03*
X133000Y578000D02*
D03*
X421584Y577496D02*
D03*
X182542D02*
D03*
X660626D02*
D03*
X132450Y443700D02*
D03*
D60*
X1037390Y504180D02*
D03*
Y520180D02*
D03*
X922890Y504680D02*
D03*
Y520680D02*
D03*
X508390Y246680D02*
D03*
Y262680D02*
D03*
X1543390Y300180D02*
D03*
Y284180D02*
D03*
X1523390Y299930D02*
D03*
Y283930D02*
D03*
X873360Y458070D02*
D03*
Y474070D02*
D03*
X1130110Y478070D02*
D03*
Y494070D02*
D03*
X1247640Y519930D02*
D03*
Y503930D02*
D03*
X468210Y451560D02*
D03*
Y435560D02*
D03*
X263424Y469928D02*
D03*
Y485928D02*
D03*
X263170Y435638D02*
D03*
Y451638D02*
D03*
X502212Y435638D02*
D03*
Y451638D02*
D03*
X502466Y469928D02*
D03*
Y485928D02*
D03*
X229168Y451560D02*
D03*
Y435560D02*
D03*
X741508Y469928D02*
D03*
Y485928D02*
D03*
X707252Y451560D02*
D03*
Y435560D02*
D03*
X741254Y435638D02*
D03*
Y451638D02*
D03*
X786390Y285680D02*
D03*
Y301680D02*
D03*
X819140Y285930D02*
D03*
Y301930D02*
D03*
X494890Y169430D02*
D03*
Y185430D02*
D03*
X512890Y169430D02*
D03*
Y185430D02*
D03*
X717360Y276070D02*
D03*
Y260070D02*
D03*
X963610Y202570D02*
D03*
Y186570D02*
D03*
X963500Y221000D02*
D03*
Y237000D02*
D03*
X1503140Y489430D02*
D03*
Y505430D02*
D03*
X1483360Y297570D02*
D03*
Y281570D02*
D03*
X1543140Y489430D02*
D03*
Y505430D02*
D03*
X1036610Y244570D02*
D03*
Y228570D02*
D03*
X1463140Y281430D02*
D03*
Y297430D02*
D03*
X884890Y401430D02*
D03*
Y417430D02*
D03*
D61*
X1376930Y422610D02*
D03*
X1360930D02*
D03*
X1172820Y489640D02*
D03*
X1188820D02*
D03*
X1206570D02*
D03*
X1222570D02*
D03*
X1129180Y370610D02*
D03*
X1113180D02*
D03*
X900570Y445140D02*
D03*
X916570D02*
D03*
X935070D02*
D03*
X951070D02*
D03*
X1360820Y440890D02*
D03*
X1376820D02*
D03*
X1188430Y508610D02*
D03*
X1172430D02*
D03*
X1222430D02*
D03*
X1206430D02*
D03*
X1113320Y388890D02*
D03*
X1129320D02*
D03*
X916430Y463610D02*
D03*
X900430D02*
D03*
X950750Y463500D02*
D03*
X934750D02*
D03*
X855320Y457390D02*
D03*
X839320D02*
D03*
X1146930Y279860D02*
D03*
X1130930D02*
D03*
X1146930Y297860D02*
D03*
X1130930D02*
D03*
X1146930Y315860D02*
D03*
X1130930D02*
D03*
X1146930Y333860D02*
D03*
X1130930D02*
D03*
X1146930Y351860D02*
D03*
X1130930D02*
D03*
X1234930Y279860D02*
D03*
X1218930D02*
D03*
X1234930Y297860D02*
D03*
X1218930D02*
D03*
X1234930Y315860D02*
D03*
X1218930D02*
D03*
X1234930Y333860D02*
D03*
X1218930D02*
D03*
X1234930Y351860D02*
D03*
X1218930D02*
D03*
X1322930Y279860D02*
D03*
X1306930D02*
D03*
X1322930Y297860D02*
D03*
X1306930D02*
D03*
X1322930Y315860D02*
D03*
X1306930D02*
D03*
X1322930Y333860D02*
D03*
X1306930D02*
D03*
X1322930Y351860D02*
D03*
X1306930D02*
D03*
X1175930Y415360D02*
D03*
X1159930D02*
D03*
X1529320Y203640D02*
D03*
X1545320D02*
D03*
X1132820Y519890D02*
D03*
X1148820D02*
D03*
X539742Y435796D02*
D03*
X523742D02*
D03*
X300700D02*
D03*
X284700D02*
D03*
X468272Y470120D02*
D03*
X484272D02*
D03*
X229230D02*
D03*
X245230D02*
D03*
X778784Y435796D02*
D03*
X762784D02*
D03*
X707314Y470120D02*
D03*
X723314D02*
D03*
X871180Y204010D02*
D03*
X887180D02*
D03*
X871180Y241010D02*
D03*
X887180D02*
D03*
X871180Y186010D02*
D03*
X887180D02*
D03*
X871180Y168010D02*
D03*
X887180D02*
D03*
X313680Y304610D02*
D03*
X329680D02*
D03*
X349180Y326610D02*
D03*
X365180D02*
D03*
X330070Y323140D02*
D03*
X314070D02*
D03*
X365320Y344390D02*
D03*
X349320D02*
D03*
X1044821Y145035D02*
D03*
X1028821D02*
D03*
X530320Y332890D02*
D03*
X514320D02*
D03*
X1020930Y207110D02*
D03*
X1036930D02*
D03*
X1095320Y380890D02*
D03*
X1079320D02*
D03*
X1343500Y422500D02*
D03*
X1327500D02*
D03*
D62*
X1431250Y344000D02*
D03*
Y364000D02*
D03*
Y384000D02*
D03*
Y404000D02*
D03*
Y424000D02*
D03*
Y444000D02*
D03*
D63*
X1443250Y467000D02*
D03*
X1463250D02*
D03*
X1483250D02*
D03*
X1503250D02*
D03*
X1523250D02*
D03*
X1543250D02*
D03*
X1563250D02*
D03*
X1583250D02*
D03*
Y321000D02*
D03*
X1563250D02*
D03*
X1543250D02*
D03*
X1523250D02*
D03*
X1503250D02*
D03*
X1483250D02*
D03*
X1463250D02*
D03*
X1443250D02*
D03*
D64*
X492800Y141900D02*
D03*
X499300D02*
D03*
X505800D02*
D03*
X512300D02*
D03*
X518800D02*
D03*
D65*
X495800Y114900D02*
D03*
X515800D02*
D03*
D66*
X288888Y516204D02*
D03*
X527930D02*
D03*
X766972D02*
D03*
D67*
X288888Y521204D02*
D03*
Y526204D02*
D03*
X274088Y516204D02*
D03*
Y521204D02*
D03*
Y526204D02*
D03*
X513130D02*
D03*
Y521204D02*
D03*
Y516204D02*
D03*
X527930Y526204D02*
D03*
Y521204D02*
D03*
X752172Y526204D02*
D03*
Y521204D02*
D03*
Y516204D02*
D03*
X766972Y526204D02*
D03*
Y521204D02*
D03*
D68*
X1489250Y637500D02*
D03*
X1482750D02*
D03*
X1476250D02*
D03*
X1469750D02*
D03*
X1463250D02*
D03*
X1456750D02*
D03*
X1450250D02*
D03*
X1443750D02*
D03*
X1489250Y579500D02*
D03*
X1482750D02*
D03*
X1476250D02*
D03*
X1469750D02*
D03*
X1463250D02*
D03*
X1456750D02*
D03*
X1450250D02*
D03*
D69*
X1443750D02*
D03*
D70*
X1426700Y617480D02*
D03*
Y600480D02*
D03*
X490800Y246520D02*
D03*
Y263520D02*
D03*
X473800Y246520D02*
D03*
Y263520D02*
D03*
X530866Y560306D02*
D03*
Y577306D02*
D03*
X291824Y560306D02*
D03*
Y577306D02*
D03*
X769908Y560306D02*
D03*
Y577306D02*
D03*
X848950Y227230D02*
D03*
Y210230D02*
D03*
X699950Y276230D02*
D03*
Y259230D02*
D03*
X284050Y265770D02*
D03*
Y282770D02*
D03*
X378450Y302230D02*
D03*
Y285230D02*
D03*
X1442950Y506730D02*
D03*
Y489730D02*
D03*
X1018800Y228270D02*
D03*
Y245270D02*
D03*
D71*
X476900Y167500D02*
D03*
X455100D02*
D03*
D72*
X458150Y243600D02*
D03*
Y264700D02*
D03*
D73*
X1165000Y280150D02*
D03*
X1181000D02*
D03*
X1253000D02*
D03*
X1269000D02*
D03*
X1340000D02*
D03*
X1356000D02*
D03*
X1165000Y298150D02*
D03*
X1181000D02*
D03*
X1253000D02*
D03*
X1269000D02*
D03*
X1340000D02*
D03*
X1356000D02*
D03*
X1165000Y316150D02*
D03*
X1181000D02*
D03*
X1253000D02*
D03*
X1269000D02*
D03*
X1340000D02*
D03*
X1356000D02*
D03*
X1165000Y334150D02*
D03*
X1181000D02*
D03*
X1253000D02*
D03*
X1269000D02*
D03*
X1340000D02*
D03*
X1356000D02*
D03*
X1165000Y352150D02*
D03*
X1181000D02*
D03*
X1253000D02*
D03*
X1269000D02*
D03*
X1340000D02*
D03*
X1356000D02*
D03*
X1176500Y396850D02*
D03*
X1160500D02*
D03*
X1580250Y203850D02*
D03*
X1564250D02*
D03*
X1579750Y242350D02*
D03*
X1563750D02*
D03*
X1580000Y223100D02*
D03*
X1564000D02*
D03*
X887250Y222500D02*
D03*
X871250D02*
D03*
X887250Y259500D02*
D03*
X871250D02*
D03*
X1079750Y144750D02*
D03*
X1063750D02*
D03*
X565000Y333000D02*
D03*
X549000D02*
D03*
D74*
X1154960Y445020D02*
D03*
X1177960Y454520D02*
D03*
Y435520D02*
D03*
X979500Y238000D02*
D03*
X1002500Y247500D02*
D03*
Y228500D02*
D03*
X979460Y196770D02*
D03*
X1002460Y206270D02*
D03*
Y187270D02*
D03*
X923000Y392000D02*
D03*
Y411000D02*
D03*
X900000Y401500D02*
D03*
D75*
X559500Y245250D02*
D03*
X533500Y264250D02*
D03*
Y254750D02*
D03*
Y245250D02*
D03*
X559500Y264250D02*
D03*
D76*
X346750Y285100D02*
D03*
D77*
X351750D02*
D03*
X356750D02*
D03*
X346750Y299900D02*
D03*
X351750D02*
D03*
X356750D02*
D03*
D78*
X1110680Y511750D02*
D03*
X1104180D02*
D03*
X1097680D02*
D03*
X1091180D02*
D03*
X1110680Y465250D02*
D03*
X1104180D02*
D03*
X1097680D02*
D03*
X1091180D02*
D03*
D79*
X522312Y501200D02*
D03*
X539312D02*
D03*
X283270D02*
D03*
X300270D02*
D03*
X765032Y501504D02*
D03*
X782032D02*
D03*
X764980Y166550D02*
D03*
X747980D02*
D03*
X576770Y212950D02*
D03*
X593770D02*
D03*
X576770Y230950D02*
D03*
X593770D02*
D03*
X576770Y248950D02*
D03*
X593770D02*
D03*
D80*
X522230Y456714D02*
D03*
X541230D02*
D03*
X522230Y480844D02*
D03*
X541230D02*
D03*
X481318Y490952D02*
D03*
X462318D02*
D03*
X481318Y515082D02*
D03*
X462318D02*
D03*
X481318Y538958D02*
D03*
X462318D02*
D03*
X242276Y490952D02*
D03*
X223276D02*
D03*
X242276Y515082D02*
D03*
X223276D02*
D03*
X242276Y538958D02*
D03*
X223276D02*
D03*
X283188Y456714D02*
D03*
X302188D02*
D03*
X283188Y480844D02*
D03*
X302188D02*
D03*
X720360Y515082D02*
D03*
X701360D02*
D03*
X720360Y538958D02*
D03*
X701360D02*
D03*
X720360Y490952D02*
D03*
X701360D02*
D03*
X761272Y480844D02*
D03*
X780272D02*
D03*
X761272Y456714D02*
D03*
X780272D02*
D03*
D81*
X448908Y451884D02*
D03*
Y435884D02*
D03*
X209866Y451884D02*
D03*
Y435884D02*
D03*
X687950Y451884D02*
D03*
Y435884D02*
D03*
X838650Y302000D02*
D03*
Y286000D02*
D03*
D82*
X443174Y563960D02*
D03*
Y577160D02*
D03*
X204132Y563960D02*
D03*
Y577160D02*
D03*
X682216Y563960D02*
D03*
Y577160D02*
D03*
D83*
X463642Y561626D02*
D03*
Y580626D02*
D03*
X487264Y561626D02*
D03*
Y580626D02*
D03*
X510886Y561626D02*
D03*
Y580626D02*
D03*
X271844Y561626D02*
D03*
Y580626D02*
D03*
X248222Y561626D02*
D03*
Y580626D02*
D03*
X224600Y561626D02*
D03*
Y580626D02*
D03*
X702684Y561626D02*
D03*
Y580626D02*
D03*
X726306Y561626D02*
D03*
Y580626D02*
D03*
X749928Y561626D02*
D03*
Y580626D02*
D03*
X399110Y305450D02*
D03*
Y286450D02*
D03*
X304390Y265550D02*
D03*
Y284550D02*
D03*
X328390Y265550D02*
D03*
Y284550D02*
D03*
X423110Y305450D02*
D03*
Y286450D02*
D03*
X423390Y245550D02*
D03*
Y264550D02*
D03*
X399390Y245550D02*
D03*
Y264550D02*
D03*
D84*
X572206Y534062D02*
D03*
Y575562D02*
D03*
X333164Y534062D02*
D03*
Y575562D02*
D03*
X811248Y534062D02*
D03*
Y575562D02*
D03*
D85*
X356750Y257500D02*
D03*
X378750D02*
D03*
D86*
X627000Y282900D02*
D03*
X679500D02*
D03*
X627000Y250900D02*
D03*
X679500D02*
D03*
D87*
X442750Y265400D02*
D03*
Y243600D02*
D03*
D88*
X301000Y230000D02*
D03*
X261000D02*
D03*
D89*
X1155970Y547800D02*
D03*
X1247370D02*
D03*
X1133070D02*
D03*
X1270270D02*
D03*
X1196570Y596000D02*
D03*
X1206770Y613800D02*
D03*
X1186370D02*
D03*
X1216970Y596000D02*
D03*
X1176170D02*
D03*
X1227170Y613800D02*
D03*
X1237370Y596000D02*
D03*
X945970Y548000D02*
D03*
X1037370D02*
D03*
X923070D02*
D03*
X1060270D02*
D03*
X986570Y596200D02*
D03*
X996770Y614000D02*
D03*
X976370D02*
D03*
X1006970Y596200D02*
D03*
X966170D02*
D03*
X1017170Y614000D02*
D03*
X1027370Y596200D02*
D03*
D90*
X1165970Y613800D02*
D03*
X955970Y614000D02*
D03*
D91*
X1120420Y604900D02*
D03*
X1282920D02*
D03*
X910420Y605100D02*
D03*
X1072920D02*
D03*
D92*
X1138170Y639200D02*
D03*
X1265170D02*
D03*
X928170Y639400D02*
D03*
X1055170D02*
D03*
D93*
X1263750Y144000D02*
D03*
X1289150D02*
D03*
X1339950D02*
D03*
X1365350D02*
D03*
X1314550D02*
D03*
X1338500Y547950D02*
D03*
Y598750D02*
D03*
Y624150D02*
D03*
Y573350D02*
D03*
X1384000Y548200D02*
D03*
Y599000D02*
D03*
Y624400D02*
D03*
Y573600D02*
D03*
X861600Y130000D02*
D03*
X836200D02*
D03*
X785400D02*
D03*
X760000D02*
D03*
X810800D02*
D03*
D94*
X1390750Y144000D02*
D03*
X734600Y130000D02*
D03*
D95*
X530800Y141900D02*
D03*
X480800D02*
D03*
D96*
X1338500Y649550D02*
D03*
X1384000Y649800D02*
D03*
D97*
X183000Y266000D02*
D03*
Y338000D02*
D03*
X316000Y186000D02*
D03*
X244000D02*
D03*
D98*
X123000Y234500D02*
D03*
Y369500D02*
D03*
D99*
X347500Y126000D02*
D03*
X212500D02*
D03*
D100*
X1549800Y150600D02*
D03*
Y650600D02*
D03*
X149800D02*
D03*
Y150600D02*
D03*
D101*
X362990Y635540D02*
D03*
X300144Y635330D02*
D03*
X331640Y635584D02*
D03*
X203878Y634822D02*
D03*
X236348Y635070D02*
D03*
X268140Y635330D02*
D03*
X539186D02*
D03*
X507182D02*
D03*
X442920Y634822D02*
D03*
X570682Y635584D02*
D03*
X475390Y635070D02*
D03*
X809724Y635584D02*
D03*
X778228Y635330D02*
D03*
X681962Y634822D02*
D03*
X714432Y635070D02*
D03*
X746224Y635330D02*
D03*
D102*
X362990Y660940D02*
D03*
Y686340D02*
D03*
X300144Y660730D02*
D03*
Y686130D02*
D03*
X331640Y660984D02*
D03*
Y686384D02*
D03*
X203878Y660222D02*
D03*
Y685622D02*
D03*
X236348Y660470D02*
D03*
Y685870D02*
D03*
X268140Y660730D02*
D03*
Y686130D02*
D03*
X539186Y660730D02*
D03*
Y686130D02*
D03*
X507182Y660730D02*
D03*
Y686130D02*
D03*
X442920Y660222D02*
D03*
Y685622D02*
D03*
X570682Y660984D02*
D03*
Y686384D02*
D03*
X475390Y660470D02*
D03*
Y685870D02*
D03*
X809724Y660984D02*
D03*
Y686384D02*
D03*
X778228Y660730D02*
D03*
Y686130D02*
D03*
X681962Y660222D02*
D03*
Y685622D02*
D03*
X714432Y660470D02*
D03*
Y685870D02*
D03*
X746224Y660730D02*
D03*
Y686130D02*
D03*
M02*
