G04*
G04 #@! TF.GenerationSoftware,Altium Limited,Altium Designer,22.4.2 (48)*
G04*
G04 Layer_Physical_Order=2*
G04 Layer_Color=3707366*
%FSLAX44Y44*%
%MOMM*%
G71*
G04*
G04 #@! TF.SameCoordinates,C02FB5F5-7DDD-4E4A-B98E-A3E591FA83C8*
G04*
G04*
G04 #@! TF.FilePolarity,Positive*
G04*
G01*
G75*
%ADD104C,1.4080*%
%ADD106C,2.4000*%
%ADD107C,3.2000*%
%ADD108C,1.6000*%
G04:AMPARAMS|DCode=109|XSize=1.6mm|YSize=1.6mm|CornerRadius=0.4mm|HoleSize=0mm|Usage=FLASHONLY|Rotation=180.000|XOffset=0mm|YOffset=0mm|HoleType=Round|Shape=RoundedRectangle|*
%AMROUNDEDRECTD109*
21,1,1.6000,0.8000,0,0,180.0*
21,1,0.8000,1.6000,0,0,180.0*
1,1,0.8000,-0.4000,0.4000*
1,1,0.8000,0.4000,0.4000*
1,1,0.8000,0.4000,-0.4000*
1,1,0.8000,-0.4000,-0.4000*
%
%ADD109ROUNDEDRECTD109*%
%ADD110C,1.4500*%
G04:AMPARAMS|DCode=111|XSize=1.6mm|YSize=1.6mm|CornerRadius=0.4mm|HoleSize=0mm|Usage=FLASHONLY|Rotation=270.000|XOffset=0mm|YOffset=0mm|HoleType=Round|Shape=RoundedRectangle|*
%AMROUNDEDRECTD111*
21,1,1.6000,0.8000,0,0,270.0*
21,1,0.8000,1.6000,0,0,270.0*
1,1,0.8000,-0.4000,-0.4000*
1,1,0.8000,-0.4000,0.4000*
1,1,0.8000,0.4000,0.4000*
1,1,0.8000,0.4000,-0.4000*
%
%ADD111ROUNDEDRECTD111*%
%ADD112C,3.7000*%
G04:AMPARAMS|DCode=113|XSize=1.5mm|YSize=3mm|CornerRadius=0.375mm|HoleSize=0mm|Usage=FLASHONLY|Rotation=90.000|XOffset=0mm|YOffset=0mm|HoleType=Round|Shape=RoundedRectangle|*
%AMROUNDEDRECTD113*
21,1,1.5000,2.2500,0,0,90.0*
21,1,0.7500,3.0000,0,0,90.0*
1,1,0.7500,1.1250,0.3750*
1,1,0.7500,1.1250,-0.3750*
1,1,0.7500,-1.1250,-0.3750*
1,1,0.7500,-1.1250,0.3750*
%
%ADD113ROUNDEDRECTD113*%
G04:AMPARAMS|DCode=114|XSize=1.5mm|YSize=3mm|CornerRadius=0.375mm|HoleSize=0mm|Usage=FLASHONLY|Rotation=180.000|XOffset=0mm|YOffset=0mm|HoleType=Round|Shape=RoundedRectangle|*
%AMROUNDEDRECTD114*
21,1,1.5000,2.2500,0,0,180.0*
21,1,0.7500,3.0000,0,0,180.0*
1,1,0.7500,-0.3750,1.1250*
1,1,0.7500,0.3750,1.1250*
1,1,0.7500,0.3750,-1.1250*
1,1,0.7500,-0.3750,-1.1250*
%
%ADD114ROUNDEDRECTD114*%
%ADD115C,6.0000*%
%ADD117C,1.6500*%
%ADD118C,0.5000*%
G36*
X1558969Y699130D02*
X1565427Y697399D01*
X1571604Y694841D01*
X1577394Y691498D01*
X1582698Y687428D01*
X1587426Y682700D01*
X1591496Y677396D01*
X1594838Y671606D01*
X1597397Y665429D01*
X1599127Y658971D01*
X1600000Y652343D01*
Y649000D01*
X1600000D01*
X1600000Y594000D01*
X1600000Y201250D01*
X1600000Y150500D01*
X1599967Y147178D01*
X1599041Y140599D01*
X1597269Y134196D01*
X1594682Y128077D01*
X1591322Y122345D01*
X1587247Y117097D01*
X1582527Y112422D01*
X1577239Y108399D01*
X1571474Y105096D01*
X1565330Y102568D01*
X1558910Y100859D01*
X1552322Y99998D01*
X1549000Y99998D01*
X1549000Y99998D01*
X1549000Y99998D01*
X151000Y99998D01*
X147657D01*
X141028Y100870D01*
X134571Y102601D01*
X128394Y105159D01*
X122604Y108502D01*
X117300Y112572D01*
X112572Y117300D01*
X108502Y122604D01*
X105159Y128394D01*
X102601Y134571D01*
X100870Y141028D01*
X99998Y147657D01*
Y151000D01*
X99998D01*
Y648997D01*
X100000Y649000D01*
Y652343D01*
X100873Y658971D01*
X102603Y665429D01*
X105162Y671606D01*
X108504Y677396D01*
X112575Y682700D01*
X117302Y687428D01*
X122606Y691498D01*
X128396Y694841D01*
X134573Y697399D01*
X141031Y699130D01*
X147660Y700002D01*
X151002D01*
X151005Y700000D01*
X152258Y700000D01*
X1548995D01*
X1548997Y700002D01*
X1552340D01*
X1558969Y699130D01*
D02*
G37*
%LPC*%
G36*
X811144Y697174D02*
X810994D01*
Y687654D01*
X820514D01*
Y687804D01*
X819779Y690549D01*
X818358Y693009D01*
X816349Y695018D01*
X813889Y696439D01*
X811144Y697174D01*
D02*
G37*
G36*
X808454D02*
X808304D01*
X805559Y696439D01*
X803099Y695018D01*
X801090Y693009D01*
X799669Y690549D01*
X798934Y687804D01*
Y687654D01*
X808454D01*
Y697174D01*
D02*
G37*
G36*
X572103D02*
X571952D01*
Y687654D01*
X581472D01*
Y687804D01*
X580737Y690549D01*
X579316Y693009D01*
X577307Y695018D01*
X574847Y696439D01*
X572103Y697174D01*
D02*
G37*
G36*
X569412D02*
X569262D01*
X566517Y696439D01*
X564057Y695018D01*
X562048Y693009D01*
X560627Y690549D01*
X559892Y687804D01*
Y687654D01*
X569412D01*
Y697174D01*
D02*
G37*
G36*
X333060D02*
X332910D01*
Y687654D01*
X342430D01*
Y687804D01*
X341695Y690549D01*
X340274Y693009D01*
X338265Y695018D01*
X335805Y696439D01*
X333060Y697174D01*
D02*
G37*
G36*
X330370D02*
X330219D01*
X327475Y696439D01*
X325015Y695018D01*
X323006Y693009D01*
X321585Y690549D01*
X320850Y687804D01*
Y687654D01*
X330370D01*
Y697174D01*
D02*
G37*
G36*
X364411Y697130D02*
X364260D01*
Y687610D01*
X373780D01*
Y687760D01*
X373045Y690505D01*
X371624Y692965D01*
X369615Y694974D01*
X367155Y696395D01*
X364411Y697130D01*
D02*
G37*
G36*
X361720D02*
X361570D01*
X358825Y696395D01*
X356365Y694974D01*
X354356Y692965D01*
X352935Y690505D01*
X352200Y687760D01*
Y687610D01*
X361720D01*
Y697130D01*
D02*
G37*
G36*
X779649Y696920D02*
X779498D01*
Y687400D01*
X789018D01*
Y687551D01*
X788283Y690295D01*
X786862Y692755D01*
X784853Y694764D01*
X782393Y696185D01*
X779649Y696920D01*
D02*
G37*
G36*
X776958D02*
X776807D01*
X774063Y696185D01*
X771603Y694764D01*
X769594Y692755D01*
X768173Y690295D01*
X767438Y687551D01*
Y687400D01*
X776958D01*
Y696920D01*
D02*
G37*
G36*
X747645D02*
X747494D01*
Y687400D01*
X757014D01*
Y687551D01*
X756279Y690295D01*
X754858Y692755D01*
X752849Y694764D01*
X750389Y696185D01*
X747645Y696920D01*
D02*
G37*
G36*
X744954D02*
X744803D01*
X742059Y696185D01*
X739599Y694764D01*
X737590Y692755D01*
X736169Y690295D01*
X735434Y687551D01*
Y687400D01*
X744954D01*
Y696920D01*
D02*
G37*
G36*
X540606D02*
X540456D01*
Y687400D01*
X549976D01*
Y687551D01*
X549241Y690295D01*
X547820Y692755D01*
X545811Y694764D01*
X543351Y696185D01*
X540606Y696920D01*
D02*
G37*
G36*
X537916D02*
X537766D01*
X535021Y696185D01*
X532561Y694764D01*
X530552Y692755D01*
X529131Y690295D01*
X528396Y687551D01*
Y687400D01*
X537916D01*
Y696920D01*
D02*
G37*
G36*
X508602D02*
X508452D01*
Y687400D01*
X517972D01*
Y687551D01*
X517237Y690295D01*
X515816Y692755D01*
X513807Y694764D01*
X511347Y696185D01*
X508602Y696920D01*
D02*
G37*
G36*
X505912D02*
X505761D01*
X503017Y696185D01*
X500557Y694764D01*
X498548Y692755D01*
X497127Y690295D01*
X496392Y687551D01*
Y687400D01*
X505912D01*
Y696920D01*
D02*
G37*
G36*
X301565D02*
X301414D01*
Y687400D01*
X310934D01*
Y687551D01*
X310199Y690295D01*
X308778Y692755D01*
X306769Y694764D01*
X304309Y696185D01*
X301565Y696920D01*
D02*
G37*
G36*
X298874D02*
X298724D01*
X295979Y696185D01*
X293519Y694764D01*
X291510Y692755D01*
X290089Y690295D01*
X289354Y687551D01*
Y687400D01*
X298874D01*
Y696920D01*
D02*
G37*
G36*
X269561D02*
X269410D01*
Y687400D01*
X278930D01*
Y687551D01*
X278195Y690295D01*
X276774Y692755D01*
X274765Y694764D01*
X272305Y696185D01*
X269561Y696920D01*
D02*
G37*
G36*
X266870D02*
X266719D01*
X263975Y696185D01*
X261515Y694764D01*
X259506Y692755D01*
X258085Y690295D01*
X257350Y687551D01*
Y687400D01*
X266870D01*
Y696920D01*
D02*
G37*
G36*
X715853Y696660D02*
X715702D01*
Y687140D01*
X725222D01*
Y687290D01*
X724487Y690035D01*
X723066Y692495D01*
X721057Y694504D01*
X718597Y695925D01*
X715853Y696660D01*
D02*
G37*
G36*
X713162D02*
X713011D01*
X710267Y695925D01*
X707807Y694504D01*
X705798Y692495D01*
X704377Y690035D01*
X703642Y687290D01*
Y687140D01*
X713162D01*
Y696660D01*
D02*
G37*
G36*
X476810D02*
X476660D01*
Y687140D01*
X486180D01*
Y687290D01*
X485445Y690035D01*
X484024Y692495D01*
X482015Y694504D01*
X479555Y695925D01*
X476810Y696660D01*
D02*
G37*
G36*
X474120D02*
X473969D01*
X471225Y695925D01*
X468765Y694504D01*
X466756Y692495D01*
X465335Y690035D01*
X464600Y687290D01*
Y687140D01*
X474120D01*
Y696660D01*
D02*
G37*
G36*
X237768D02*
X237618D01*
Y687140D01*
X247138D01*
Y687290D01*
X246403Y690035D01*
X244982Y692495D01*
X242973Y694504D01*
X240513Y695925D01*
X237768Y696660D01*
D02*
G37*
G36*
X235078D02*
X234928D01*
X232183Y695925D01*
X229723Y694504D01*
X227714Y692495D01*
X226293Y690035D01*
X225558Y687290D01*
Y687140D01*
X235078D01*
Y696660D01*
D02*
G37*
G36*
X683382Y696412D02*
X683232D01*
Y686892D01*
X692752D01*
Y687042D01*
X692017Y689787D01*
X690596Y692247D01*
X688587Y694256D01*
X686127Y695677D01*
X683382Y696412D01*
D02*
G37*
G36*
X680692D02*
X680542D01*
X677797Y695677D01*
X675337Y694256D01*
X673328Y692247D01*
X671907Y689787D01*
X671172Y687042D01*
Y686892D01*
X680692D01*
Y696412D01*
D02*
G37*
G36*
X444341D02*
X444190D01*
Y686892D01*
X453710D01*
Y687042D01*
X452975Y689787D01*
X451554Y692247D01*
X449545Y694256D01*
X447085Y695677D01*
X444341Y696412D01*
D02*
G37*
G36*
X441650D02*
X441499D01*
X438755Y695677D01*
X436295Y694256D01*
X434286Y692247D01*
X432865Y689787D01*
X432130Y687042D01*
Y686892D01*
X441650D01*
Y696412D01*
D02*
G37*
G36*
X205299D02*
X205148D01*
Y686892D01*
X214668D01*
Y687042D01*
X213933Y689787D01*
X212512Y692247D01*
X210503Y694256D01*
X208043Y695677D01*
X205299Y696412D01*
D02*
G37*
G36*
X202608D02*
X202458D01*
X199713Y695677D01*
X197253Y694256D01*
X195244Y692247D01*
X193823Y689787D01*
X193088Y687042D01*
Y686892D01*
X202608D01*
Y696412D01*
D02*
G37*
G36*
X820514Y685114D02*
X810994D01*
Y675594D01*
X811144D01*
X813889Y676329D01*
X816349Y677750D01*
X818358Y679759D01*
X819779Y682219D01*
X820514Y684963D01*
Y685114D01*
D02*
G37*
G36*
X808454D02*
X798934D01*
Y684963D01*
X799669Y682219D01*
X801090Y679759D01*
X803099Y677750D01*
X805559Y676329D01*
X808304Y675594D01*
X808454D01*
Y685114D01*
D02*
G37*
G36*
X581472D02*
X571952D01*
Y675594D01*
X572103D01*
X574847Y676329D01*
X577307Y677750D01*
X579316Y679759D01*
X580737Y682219D01*
X581472Y684963D01*
Y685114D01*
D02*
G37*
G36*
X569412D02*
X559892D01*
Y684963D01*
X560627Y682219D01*
X562048Y679759D01*
X564057Y677750D01*
X566517Y676329D01*
X569262Y675594D01*
X569412D01*
Y685114D01*
D02*
G37*
G36*
X342430D02*
X332910D01*
Y675594D01*
X333060D01*
X335805Y676329D01*
X338265Y677750D01*
X340274Y679759D01*
X341695Y682219D01*
X342430Y684963D01*
Y685114D01*
D02*
G37*
G36*
X330370D02*
X320850D01*
Y684963D01*
X321585Y682219D01*
X323006Y679759D01*
X325015Y677750D01*
X327475Y676329D01*
X330219Y675594D01*
X330370D01*
Y685114D01*
D02*
G37*
G36*
X373780Y685070D02*
X364260D01*
Y675550D01*
X364411D01*
X367155Y676285D01*
X369615Y677706D01*
X371624Y679715D01*
X373045Y682175D01*
X373780Y684920D01*
Y685070D01*
D02*
G37*
G36*
X361720D02*
X352200D01*
Y684920D01*
X352935Y682175D01*
X354356Y679715D01*
X356365Y677706D01*
X358825Y676285D01*
X361570Y675550D01*
X361720D01*
Y685070D01*
D02*
G37*
G36*
X789018Y684860D02*
X779498D01*
Y675340D01*
X779649D01*
X782393Y676075D01*
X784853Y677496D01*
X786862Y679505D01*
X788283Y681965D01*
X789018Y684709D01*
Y684860D01*
D02*
G37*
G36*
X776958D02*
X767438D01*
Y684709D01*
X768173Y681965D01*
X769594Y679505D01*
X771603Y677496D01*
X774063Y676075D01*
X776807Y675340D01*
X776958D01*
Y684860D01*
D02*
G37*
G36*
X757014D02*
X747494D01*
Y675340D01*
X747645D01*
X750389Y676075D01*
X752849Y677496D01*
X754858Y679505D01*
X756279Y681965D01*
X757014Y684709D01*
Y684860D01*
D02*
G37*
G36*
X744954D02*
X735434D01*
Y684709D01*
X736169Y681965D01*
X737590Y679505D01*
X739599Y677496D01*
X742059Y676075D01*
X744803Y675340D01*
X744954D01*
Y684860D01*
D02*
G37*
G36*
X549976D02*
X540456D01*
Y675340D01*
X540606D01*
X543351Y676075D01*
X545811Y677496D01*
X547820Y679505D01*
X549241Y681965D01*
X549976Y684709D01*
Y684860D01*
D02*
G37*
G36*
X537916D02*
X528396D01*
Y684709D01*
X529131Y681965D01*
X530552Y679505D01*
X532561Y677496D01*
X535021Y676075D01*
X537766Y675340D01*
X537916D01*
Y684860D01*
D02*
G37*
G36*
X517972D02*
X508452D01*
Y675340D01*
X508602D01*
X511347Y676075D01*
X513807Y677496D01*
X515816Y679505D01*
X517237Y681965D01*
X517972Y684709D01*
Y684860D01*
D02*
G37*
G36*
X505912D02*
X496392D01*
Y684709D01*
X497127Y681965D01*
X498548Y679505D01*
X500557Y677496D01*
X503017Y676075D01*
X505761Y675340D01*
X505912D01*
Y684860D01*
D02*
G37*
G36*
X310934D02*
X301414D01*
Y675340D01*
X301565D01*
X304309Y676075D01*
X306769Y677496D01*
X308778Y679505D01*
X310199Y681965D01*
X310934Y684709D01*
Y684860D01*
D02*
G37*
G36*
X298874D02*
X289354D01*
Y684709D01*
X290089Y681965D01*
X291510Y679505D01*
X293519Y677496D01*
X295979Y676075D01*
X298724Y675340D01*
X298874D01*
Y684860D01*
D02*
G37*
G36*
X278930D02*
X269410D01*
Y675340D01*
X269561D01*
X272305Y676075D01*
X274765Y677496D01*
X276774Y679505D01*
X278195Y681965D01*
X278930Y684709D01*
Y684860D01*
D02*
G37*
G36*
X266870D02*
X257350D01*
Y684709D01*
X258085Y681965D01*
X259506Y679505D01*
X261515Y677496D01*
X263975Y676075D01*
X266719Y675340D01*
X266870D01*
Y684860D01*
D02*
G37*
G36*
X725222Y684600D02*
X715702D01*
Y675080D01*
X715853D01*
X718597Y675815D01*
X721057Y677236D01*
X723066Y679245D01*
X724487Y681705D01*
X725222Y684449D01*
Y684600D01*
D02*
G37*
G36*
X713162D02*
X703642D01*
Y684449D01*
X704377Y681705D01*
X705798Y679245D01*
X707807Y677236D01*
X710267Y675815D01*
X713011Y675080D01*
X713162D01*
Y684600D01*
D02*
G37*
G36*
X486180D02*
X476660D01*
Y675080D01*
X476810D01*
X479555Y675815D01*
X482015Y677236D01*
X484024Y679245D01*
X485445Y681705D01*
X486180Y684449D01*
Y684600D01*
D02*
G37*
G36*
X474120D02*
X464600D01*
Y684449D01*
X465335Y681705D01*
X466756Y679245D01*
X468765Y677236D01*
X471225Y675815D01*
X473969Y675080D01*
X474120D01*
Y684600D01*
D02*
G37*
G36*
X247138D02*
X237618D01*
Y675080D01*
X237768D01*
X240513Y675815D01*
X242973Y677236D01*
X244982Y679245D01*
X246403Y681705D01*
X247138Y684449D01*
Y684600D01*
D02*
G37*
G36*
X235078D02*
X225558D01*
Y684449D01*
X226293Y681705D01*
X227714Y679245D01*
X229723Y677236D01*
X232183Y675815D01*
X234928Y675080D01*
X235078D01*
Y684600D01*
D02*
G37*
G36*
X692752Y684352D02*
X683232D01*
Y674832D01*
X683382D01*
X686127Y675567D01*
X688587Y676988D01*
X690596Y678997D01*
X692017Y681457D01*
X692752Y684201D01*
Y684352D01*
D02*
G37*
G36*
X680692D02*
X671172D01*
Y684201D01*
X671907Y681457D01*
X673328Y678997D01*
X675337Y676988D01*
X677797Y675567D01*
X680542Y674832D01*
X680692D01*
Y684352D01*
D02*
G37*
G36*
X453710D02*
X444190D01*
Y674832D01*
X444341D01*
X447085Y675567D01*
X449545Y676988D01*
X451554Y678997D01*
X452975Y681457D01*
X453710Y684201D01*
Y684352D01*
D02*
G37*
G36*
X441650D02*
X432130D01*
Y684201D01*
X432865Y681457D01*
X434286Y678997D01*
X436295Y676988D01*
X438755Y675567D01*
X441499Y674832D01*
X441650D01*
Y684352D01*
D02*
G37*
G36*
X214668D02*
X205148D01*
Y674832D01*
X205299D01*
X208043Y675567D01*
X210503Y676988D01*
X212512Y678997D01*
X213933Y681457D01*
X214668Y684201D01*
Y684352D01*
D02*
G37*
G36*
X202608D02*
X193088D01*
Y684201D01*
X193823Y681457D01*
X195244Y678997D01*
X197253Y676988D01*
X199713Y675567D01*
X202458Y674832D01*
X202608D01*
Y684352D01*
D02*
G37*
G36*
X1449252Y657040D02*
X1447247D01*
X1445395Y656273D01*
X1444455Y655332D01*
X1443889Y654891D01*
X1442799Y655329D01*
X1442105Y656023D01*
X1440253Y656790D01*
X1438248D01*
X1436395Y656023D01*
X1434977Y654605D01*
X1434210Y652753D01*
Y650748D01*
X1434977Y648895D01*
X1436395Y647477D01*
X1438248Y646710D01*
X1440253D01*
X1442105Y647477D01*
X1443045Y648418D01*
X1443611Y648859D01*
X1444701Y648421D01*
X1445395Y647727D01*
X1447247Y646960D01*
X1449252D01*
X1451105Y647727D01*
X1452523Y649145D01*
X1453290Y650997D01*
Y653002D01*
X1452523Y654855D01*
X1451105Y656273D01*
X1449252Y657040D01*
D02*
G37*
G36*
X811144Y671774D02*
X808304D01*
X805559Y671039D01*
X803099Y669618D01*
X801090Y667609D01*
X799669Y665149D01*
X798934Y662404D01*
Y659563D01*
X799669Y656819D01*
X801090Y654359D01*
X803099Y652350D01*
X805559Y650929D01*
X808304Y650194D01*
X811144D01*
X813889Y650929D01*
X816349Y652350D01*
X818358Y654359D01*
X819779Y656819D01*
X820514Y659563D01*
Y662404D01*
X819779Y665149D01*
X818358Y667609D01*
X816349Y669618D01*
X813889Y671039D01*
X811144Y671774D01*
D02*
G37*
G36*
X572103D02*
X569262D01*
X566517Y671039D01*
X564057Y669618D01*
X562048Y667609D01*
X560627Y665149D01*
X559892Y662404D01*
Y659563D01*
X560627Y656819D01*
X562048Y654359D01*
X564057Y652350D01*
X566517Y650929D01*
X569262Y650194D01*
X572103D01*
X574847Y650929D01*
X577307Y652350D01*
X579316Y654359D01*
X580737Y656819D01*
X581472Y659563D01*
Y662404D01*
X580737Y665149D01*
X579316Y667609D01*
X577307Y669618D01*
X574847Y671039D01*
X572103Y671774D01*
D02*
G37*
G36*
X333060D02*
X330219D01*
X327475Y671039D01*
X325015Y669618D01*
X323006Y667609D01*
X321585Y665149D01*
X320850Y662404D01*
Y659563D01*
X321585Y656819D01*
X323006Y654359D01*
X325015Y652350D01*
X327475Y650929D01*
X330219Y650194D01*
X333060D01*
X335805Y650929D01*
X338265Y652350D01*
X340274Y654359D01*
X341695Y656819D01*
X342430Y659563D01*
Y662404D01*
X341695Y665149D01*
X340274Y667609D01*
X338265Y669618D01*
X335805Y671039D01*
X333060Y671774D01*
D02*
G37*
G36*
X364411Y671730D02*
X361570D01*
X358825Y670995D01*
X356365Y669574D01*
X354356Y667565D01*
X352935Y665105D01*
X352200Y662361D01*
Y659520D01*
X352935Y656775D01*
X354356Y654315D01*
X356365Y652306D01*
X358825Y650885D01*
X361570Y650150D01*
X364411D01*
X367155Y650885D01*
X369615Y652306D01*
X371624Y654315D01*
X373045Y656775D01*
X373780Y659520D01*
Y662361D01*
X373045Y665105D01*
X371624Y667565D01*
X369615Y669574D01*
X367155Y670995D01*
X364411Y671730D01*
D02*
G37*
G36*
X779649Y671520D02*
X776807D01*
X774063Y670785D01*
X771603Y669364D01*
X769594Y667355D01*
X768173Y664895D01*
X767438Y662150D01*
Y659309D01*
X768173Y656565D01*
X769594Y654105D01*
X771603Y652096D01*
X774063Y650675D01*
X776807Y649940D01*
X779649D01*
X782393Y650675D01*
X784853Y652096D01*
X786862Y654105D01*
X788283Y656565D01*
X789018Y659309D01*
Y662150D01*
X788283Y664895D01*
X786862Y667355D01*
X784853Y669364D01*
X782393Y670785D01*
X779649Y671520D01*
D02*
G37*
G36*
X747645D02*
X744803D01*
X742059Y670785D01*
X739599Y669364D01*
X737590Y667355D01*
X736169Y664895D01*
X735434Y662150D01*
Y659309D01*
X736169Y656565D01*
X737590Y654105D01*
X739599Y652096D01*
X742059Y650675D01*
X744803Y649940D01*
X747645D01*
X750389Y650675D01*
X752849Y652096D01*
X754858Y654105D01*
X756279Y656565D01*
X757014Y659309D01*
Y662150D01*
X756279Y664895D01*
X754858Y667355D01*
X752849Y669364D01*
X750389Y670785D01*
X747645Y671520D01*
D02*
G37*
G36*
X540606D02*
X537766D01*
X535021Y670785D01*
X532561Y669364D01*
X530552Y667355D01*
X529131Y664895D01*
X528396Y662150D01*
Y659309D01*
X529131Y656565D01*
X530552Y654105D01*
X532561Y652096D01*
X535021Y650675D01*
X537766Y649940D01*
X540606D01*
X543351Y650675D01*
X545811Y652096D01*
X547820Y654105D01*
X549241Y656565D01*
X549976Y659309D01*
Y662150D01*
X549241Y664895D01*
X547820Y667355D01*
X545811Y669364D01*
X543351Y670785D01*
X540606Y671520D01*
D02*
G37*
G36*
X508602D02*
X505761D01*
X503017Y670785D01*
X500557Y669364D01*
X498548Y667355D01*
X497127Y664895D01*
X496392Y662150D01*
Y659309D01*
X497127Y656565D01*
X498548Y654105D01*
X500557Y652096D01*
X503017Y650675D01*
X505761Y649940D01*
X508602D01*
X511347Y650675D01*
X513807Y652096D01*
X515816Y654105D01*
X517237Y656565D01*
X517972Y659309D01*
Y662150D01*
X517237Y664895D01*
X515816Y667355D01*
X513807Y669364D01*
X511347Y670785D01*
X508602Y671520D01*
D02*
G37*
G36*
X301565D02*
X298724D01*
X295979Y670785D01*
X293519Y669364D01*
X291510Y667355D01*
X290089Y664895D01*
X289354Y662150D01*
Y659309D01*
X290089Y656565D01*
X291510Y654105D01*
X293519Y652096D01*
X295979Y650675D01*
X298724Y649940D01*
X301565D01*
X304309Y650675D01*
X306769Y652096D01*
X308778Y654105D01*
X310199Y656565D01*
X310934Y659309D01*
Y662150D01*
X310199Y664895D01*
X308778Y667355D01*
X306769Y669364D01*
X304309Y670785D01*
X301565Y671520D01*
D02*
G37*
G36*
X269561D02*
X266719D01*
X263975Y670785D01*
X261515Y669364D01*
X259506Y667355D01*
X258085Y664895D01*
X257350Y662150D01*
Y659309D01*
X258085Y656565D01*
X259506Y654105D01*
X261515Y652096D01*
X263975Y650675D01*
X266719Y649940D01*
X269561D01*
X272305Y650675D01*
X274765Y652096D01*
X276774Y654105D01*
X278195Y656565D01*
X278930Y659309D01*
Y662150D01*
X278195Y664895D01*
X276774Y667355D01*
X274765Y669364D01*
X272305Y670785D01*
X269561Y671520D01*
D02*
G37*
G36*
X715853Y671260D02*
X713011D01*
X710267Y670525D01*
X707807Y669104D01*
X705798Y667095D01*
X704377Y664635D01*
X703642Y661890D01*
Y659049D01*
X704377Y656305D01*
X705798Y653845D01*
X707807Y651836D01*
X710267Y650415D01*
X713011Y649680D01*
X715853D01*
X718597Y650415D01*
X721057Y651836D01*
X723066Y653845D01*
X724487Y656305D01*
X725222Y659049D01*
Y661890D01*
X724487Y664635D01*
X723066Y667095D01*
X721057Y669104D01*
X718597Y670525D01*
X715853Y671260D01*
D02*
G37*
G36*
X476810D02*
X473969D01*
X471225Y670525D01*
X468765Y669104D01*
X466756Y667095D01*
X465335Y664635D01*
X464600Y661890D01*
Y659049D01*
X465335Y656305D01*
X466756Y653845D01*
X468765Y651836D01*
X471225Y650415D01*
X473969Y649680D01*
X476810D01*
X479555Y650415D01*
X482015Y651836D01*
X484024Y653845D01*
X485445Y656305D01*
X486180Y659049D01*
Y661890D01*
X485445Y664635D01*
X484024Y667095D01*
X482015Y669104D01*
X479555Y670525D01*
X476810Y671260D01*
D02*
G37*
G36*
X237768D02*
X234928D01*
X232183Y670525D01*
X229723Y669104D01*
X227714Y667095D01*
X226293Y664635D01*
X225558Y661890D01*
Y659049D01*
X226293Y656305D01*
X227714Y653845D01*
X229723Y651836D01*
X232183Y650415D01*
X234928Y649680D01*
X237768D01*
X240513Y650415D01*
X242973Y651836D01*
X244982Y653845D01*
X246403Y656305D01*
X247138Y659049D01*
Y661890D01*
X246403Y664635D01*
X244982Y667095D01*
X242973Y669104D01*
X240513Y670525D01*
X237768Y671260D01*
D02*
G37*
G36*
X683382Y671012D02*
X680542D01*
X677797Y670277D01*
X675337Y668856D01*
X673328Y666847D01*
X671907Y664387D01*
X671172Y661643D01*
Y658801D01*
X671907Y656057D01*
X673328Y653597D01*
X675337Y651588D01*
X677797Y650167D01*
X680542Y649432D01*
X683382D01*
X686127Y650167D01*
X688587Y651588D01*
X690596Y653597D01*
X692017Y656057D01*
X692752Y658801D01*
Y661643D01*
X692017Y664387D01*
X690596Y666847D01*
X688587Y668856D01*
X686127Y670277D01*
X683382Y671012D01*
D02*
G37*
G36*
X444341D02*
X441499D01*
X438755Y670277D01*
X436295Y668856D01*
X434286Y666847D01*
X432865Y664387D01*
X432130Y661643D01*
Y658801D01*
X432865Y656057D01*
X434286Y653597D01*
X436295Y651588D01*
X438755Y650167D01*
X441499Y649432D01*
X444341D01*
X447085Y650167D01*
X449545Y651588D01*
X451554Y653597D01*
X452975Y656057D01*
X453710Y658801D01*
Y661643D01*
X452975Y664387D01*
X451554Y666847D01*
X449545Y668856D01*
X447085Y670277D01*
X444341Y671012D01*
D02*
G37*
G36*
X205299D02*
X202458D01*
X199713Y670277D01*
X197253Y668856D01*
X195244Y666847D01*
X193823Y664387D01*
X193088Y661643D01*
Y658801D01*
X193823Y656057D01*
X195244Y653597D01*
X197253Y651588D01*
X199713Y650167D01*
X202458Y649432D01*
X205299D01*
X208043Y650167D01*
X210503Y651588D01*
X212512Y653597D01*
X213933Y656057D01*
X214668Y658801D01*
Y661643D01*
X213933Y664387D01*
X212512Y666847D01*
X210503Y668856D01*
X208043Y670277D01*
X205299Y671012D01*
D02*
G37*
G36*
X1464003Y657040D02*
X1461998D01*
X1460145Y656273D01*
X1458727Y654855D01*
X1457960Y653002D01*
Y650997D01*
X1458727Y649145D01*
X1460145Y647727D01*
X1461998Y646960D01*
X1464003D01*
X1465855Y647727D01*
X1467273Y649145D01*
X1468040Y650997D01*
Y653002D01*
X1467273Y654855D01*
X1465855Y656273D01*
X1464003Y657040D01*
D02*
G37*
G36*
X1388000Y660396D02*
X1380000D01*
X1378293Y660172D01*
X1376702Y659513D01*
X1375336Y658464D01*
X1374287Y657098D01*
X1373628Y655507D01*
X1373404Y653800D01*
Y645800D01*
X1373628Y644093D01*
X1374287Y642502D01*
X1375336Y641136D01*
X1376702Y640087D01*
X1378293Y639428D01*
X1380000Y639204D01*
X1388000D01*
X1389707Y639428D01*
X1391298Y640087D01*
X1392664Y641136D01*
X1393713Y642502D01*
X1394372Y644093D01*
X1394596Y645800D01*
Y653800D01*
X1394372Y655507D01*
X1393713Y657098D01*
X1392664Y658464D01*
X1391298Y659513D01*
X1389707Y660172D01*
X1388000Y660396D01*
D02*
G37*
G36*
X1342500Y660146D02*
X1334500D01*
X1332793Y659922D01*
X1331202Y659263D01*
X1329836Y658214D01*
X1328787Y656848D01*
X1328128Y655257D01*
X1327904Y653550D01*
Y645550D01*
X1328128Y643843D01*
X1328787Y642252D01*
X1329836Y640886D01*
X1331202Y639837D01*
X1332793Y639178D01*
X1334500Y638954D01*
X1342500D01*
X1344207Y639178D01*
X1345798Y639837D01*
X1347164Y640886D01*
X1348213Y642252D01*
X1348872Y643843D01*
X1349096Y645550D01*
Y653550D01*
X1348872Y655257D01*
X1348213Y656848D01*
X1347164Y658214D01*
X1345798Y659263D01*
X1344207Y659922D01*
X1342500Y660146D01*
D02*
G37*
G36*
X811144Y646374D02*
X808304D01*
X805559Y645639D01*
X803099Y644218D01*
X801090Y642209D01*
X799669Y639749D01*
X798934Y637005D01*
Y634163D01*
X799669Y631419D01*
X801090Y628959D01*
X803099Y626950D01*
X805559Y625529D01*
X808304Y624794D01*
X811144D01*
X813889Y625529D01*
X816349Y626950D01*
X818358Y628959D01*
X819779Y631419D01*
X820514Y634163D01*
Y637005D01*
X819779Y639749D01*
X818358Y642209D01*
X816349Y644218D01*
X813889Y645639D01*
X811144Y646374D01*
D02*
G37*
G36*
X572103D02*
X569262D01*
X566517Y645639D01*
X564057Y644218D01*
X562048Y642209D01*
X560627Y639749D01*
X559892Y637005D01*
Y634163D01*
X560627Y631419D01*
X562048Y628959D01*
X564057Y626950D01*
X566517Y625529D01*
X569262Y624794D01*
X572103D01*
X574847Y625529D01*
X577307Y626950D01*
X579316Y628959D01*
X580737Y631419D01*
X581472Y634163D01*
Y637005D01*
X580737Y639749D01*
X579316Y642209D01*
X577307Y644218D01*
X574847Y645639D01*
X572103Y646374D01*
D02*
G37*
G36*
X333060D02*
X330219D01*
X327475Y645639D01*
X325015Y644218D01*
X323006Y642209D01*
X321585Y639749D01*
X320850Y637005D01*
Y634163D01*
X321585Y631419D01*
X323006Y628959D01*
X325015Y626950D01*
X327475Y625529D01*
X330219Y624794D01*
X333060D01*
X335805Y625529D01*
X338265Y626950D01*
X340274Y628959D01*
X341695Y631419D01*
X342430Y634163D01*
Y637005D01*
X341695Y639749D01*
X340274Y642209D01*
X338265Y644218D01*
X335805Y645639D01*
X333060Y646374D01*
D02*
G37*
G36*
X364411Y646330D02*
X361570D01*
X358825Y645595D01*
X356365Y644174D01*
X354356Y642165D01*
X352935Y639705D01*
X352200Y636960D01*
Y634119D01*
X352935Y631375D01*
X354356Y628915D01*
X356365Y626906D01*
X358825Y625485D01*
X361570Y624750D01*
X364411D01*
X367155Y625485D01*
X369615Y626906D01*
X371624Y628915D01*
X373045Y631375D01*
X373780Y634119D01*
Y636960D01*
X373045Y639705D01*
X371624Y642165D01*
X369615Y644174D01*
X367155Y645595D01*
X364411Y646330D01*
D02*
G37*
G36*
X779649Y646120D02*
X776807D01*
X774063Y645385D01*
X771603Y643964D01*
X769594Y641955D01*
X768173Y639495D01*
X767438Y636750D01*
Y633909D01*
X768173Y631165D01*
X769594Y628705D01*
X771603Y626696D01*
X774063Y625275D01*
X776807Y624540D01*
X779649D01*
X782393Y625275D01*
X784853Y626696D01*
X786862Y628705D01*
X788283Y631165D01*
X789018Y633909D01*
Y636750D01*
X788283Y639495D01*
X786862Y641955D01*
X784853Y643964D01*
X782393Y645385D01*
X779649Y646120D01*
D02*
G37*
G36*
X747645D02*
X744803D01*
X742059Y645385D01*
X739599Y643964D01*
X737590Y641955D01*
X736169Y639495D01*
X735434Y636750D01*
Y633909D01*
X736169Y631165D01*
X737590Y628705D01*
X739599Y626696D01*
X742059Y625275D01*
X744803Y624540D01*
X747645D01*
X750389Y625275D01*
X752849Y626696D01*
X754858Y628705D01*
X756279Y631165D01*
X757014Y633909D01*
Y636750D01*
X756279Y639495D01*
X754858Y641955D01*
X752849Y643964D01*
X750389Y645385D01*
X747645Y646120D01*
D02*
G37*
G36*
X540606D02*
X537766D01*
X535021Y645385D01*
X532561Y643964D01*
X530552Y641955D01*
X529131Y639495D01*
X528396Y636750D01*
Y633909D01*
X529131Y631165D01*
X530552Y628705D01*
X532561Y626696D01*
X535021Y625275D01*
X537766Y624540D01*
X540606D01*
X543351Y625275D01*
X545811Y626696D01*
X547820Y628705D01*
X549241Y631165D01*
X549976Y633909D01*
Y636750D01*
X549241Y639495D01*
X547820Y641955D01*
X545811Y643964D01*
X543351Y645385D01*
X540606Y646120D01*
D02*
G37*
G36*
X508602D02*
X505761D01*
X503017Y645385D01*
X500557Y643964D01*
X498548Y641955D01*
X497127Y639495D01*
X496392Y636750D01*
Y633909D01*
X497127Y631165D01*
X498548Y628705D01*
X500557Y626696D01*
X503017Y625275D01*
X505761Y624540D01*
X508602D01*
X511347Y625275D01*
X513807Y626696D01*
X515816Y628705D01*
X517237Y631165D01*
X517972Y633909D01*
Y636750D01*
X517237Y639495D01*
X515816Y641955D01*
X513807Y643964D01*
X511347Y645385D01*
X508602Y646120D01*
D02*
G37*
G36*
X301565D02*
X298724D01*
X295979Y645385D01*
X293519Y643964D01*
X291510Y641955D01*
X290089Y639495D01*
X289354Y636750D01*
Y633909D01*
X290089Y631165D01*
X291510Y628705D01*
X293519Y626696D01*
X295979Y625275D01*
X298724Y624540D01*
X301565D01*
X304309Y625275D01*
X306769Y626696D01*
X308778Y628705D01*
X310199Y631165D01*
X310934Y633909D01*
Y636750D01*
X310199Y639495D01*
X308778Y641955D01*
X306769Y643964D01*
X304309Y645385D01*
X301565Y646120D01*
D02*
G37*
G36*
X269561D02*
X266719D01*
X263975Y645385D01*
X261515Y643964D01*
X259506Y641955D01*
X258085Y639495D01*
X257350Y636750D01*
Y633909D01*
X258085Y631165D01*
X259506Y628705D01*
X261515Y626696D01*
X263975Y625275D01*
X266719Y624540D01*
X269561D01*
X272305Y625275D01*
X274765Y626696D01*
X276774Y628705D01*
X278195Y631165D01*
X278930Y633909D01*
Y636750D01*
X278195Y639495D01*
X276774Y641955D01*
X274765Y643964D01*
X272305Y645385D01*
X269561Y646120D01*
D02*
G37*
G36*
X715853Y645860D02*
X713011D01*
X710267Y645125D01*
X707807Y643704D01*
X705798Y641695D01*
X704377Y639235D01*
X703642Y636491D01*
Y633649D01*
X704377Y630905D01*
X705798Y628445D01*
X707807Y626436D01*
X710267Y625015D01*
X713011Y624280D01*
X715853D01*
X718597Y625015D01*
X721057Y626436D01*
X723066Y628445D01*
X724487Y630905D01*
X725222Y633649D01*
Y636491D01*
X724487Y639235D01*
X723066Y641695D01*
X721057Y643704D01*
X718597Y645125D01*
X715853Y645860D01*
D02*
G37*
G36*
X476810D02*
X473969D01*
X471225Y645125D01*
X468765Y643704D01*
X466756Y641695D01*
X465335Y639235D01*
X464600Y636491D01*
Y633649D01*
X465335Y630905D01*
X466756Y628445D01*
X468765Y626436D01*
X471225Y625015D01*
X473969Y624280D01*
X476810D01*
X479555Y625015D01*
X482015Y626436D01*
X484024Y628445D01*
X485445Y630905D01*
X486180Y633649D01*
Y636491D01*
X485445Y639235D01*
X484024Y641695D01*
X482015Y643704D01*
X479555Y645125D01*
X476810Y645860D01*
D02*
G37*
G36*
X237768D02*
X234928D01*
X232183Y645125D01*
X229723Y643704D01*
X227714Y641695D01*
X226293Y639235D01*
X225558Y636491D01*
Y633649D01*
X226293Y630905D01*
X227714Y628445D01*
X229723Y626436D01*
X232183Y625015D01*
X234928Y624280D01*
X237768D01*
X240513Y625015D01*
X242973Y626436D01*
X244982Y628445D01*
X246403Y630905D01*
X247138Y633649D01*
Y636491D01*
X246403Y639235D01*
X244982Y641695D01*
X242973Y643704D01*
X240513Y645125D01*
X237768Y645860D01*
D02*
G37*
G36*
X683382Y645612D02*
X680542D01*
X677797Y644877D01*
X675337Y643456D01*
X673328Y641447D01*
X671907Y638987D01*
X671172Y636242D01*
Y633401D01*
X671907Y630657D01*
X673328Y628197D01*
X675337Y626188D01*
X677797Y624767D01*
X680542Y624032D01*
X683382D01*
X686127Y624767D01*
X688587Y626188D01*
X690596Y628197D01*
X692017Y630657D01*
X692752Y633401D01*
Y636242D01*
X692017Y638987D01*
X690596Y641447D01*
X688587Y643456D01*
X686127Y644877D01*
X683382Y645612D01*
D02*
G37*
G36*
X444341D02*
X441499D01*
X438755Y644877D01*
X436295Y643456D01*
X434286Y641447D01*
X432865Y638987D01*
X432130Y636242D01*
Y633401D01*
X432865Y630657D01*
X434286Y628197D01*
X436295Y626188D01*
X438755Y624767D01*
X441499Y624032D01*
X444341D01*
X447085Y624767D01*
X449545Y626188D01*
X451554Y628197D01*
X452975Y630657D01*
X453710Y633401D01*
Y636242D01*
X452975Y638987D01*
X451554Y641447D01*
X449545Y643456D01*
X447085Y644877D01*
X444341Y645612D01*
D02*
G37*
G36*
X205299D02*
X202458D01*
X199713Y644877D01*
X197253Y643456D01*
X195244Y641447D01*
X193823Y638987D01*
X193088Y636242D01*
Y633401D01*
X193823Y630657D01*
X195244Y628197D01*
X197253Y626188D01*
X199713Y624767D01*
X202458Y624032D01*
X205299D01*
X208043Y624767D01*
X210503Y626188D01*
X212512Y628197D01*
X213933Y630657D01*
X214668Y633401D01*
Y636242D01*
X213933Y638987D01*
X212512Y641447D01*
X210503Y643456D01*
X208043Y644877D01*
X205299Y645612D01*
D02*
G37*
G36*
X1056996Y657940D02*
X1053344D01*
X1049762Y657227D01*
X1046388Y655830D01*
X1043351Y653801D01*
X1040769Y651219D01*
X1038740Y648182D01*
X1037343Y644808D01*
X1036630Y641226D01*
Y637574D01*
X1037343Y633992D01*
X1038740Y630618D01*
X1040769Y627581D01*
X1043351Y624999D01*
X1046388Y622970D01*
X1049762Y621572D01*
X1053344Y620860D01*
X1056996D01*
X1060578Y621572D01*
X1063952Y622970D01*
X1066989Y624999D01*
X1069571Y627581D01*
X1071600Y630618D01*
X1072998Y633992D01*
X1073710Y637574D01*
Y641226D01*
X1072998Y644808D01*
X1071600Y648182D01*
X1069571Y651219D01*
X1066989Y653801D01*
X1063952Y655830D01*
X1060578Y657227D01*
X1056996Y657940D01*
D02*
G37*
G36*
X929996D02*
X926344D01*
X922762Y657227D01*
X919388Y655830D01*
X916351Y653801D01*
X913769Y651219D01*
X911740Y648182D01*
X910342Y644808D01*
X909630Y641226D01*
Y637574D01*
X910342Y633992D01*
X911740Y630618D01*
X913769Y627581D01*
X916351Y624999D01*
X919388Y622970D01*
X922762Y621572D01*
X926344Y620860D01*
X929996D01*
X933578Y621572D01*
X936952Y622970D01*
X939989Y624999D01*
X942571Y627581D01*
X944600Y630618D01*
X945997Y633992D01*
X946710Y637574D01*
Y641226D01*
X945997Y644808D01*
X944600Y648182D01*
X942571Y651219D01*
X939989Y653801D01*
X936952Y655830D01*
X933578Y657227D01*
X929996Y657940D01*
D02*
G37*
G36*
X1266996Y657740D02*
X1263344D01*
X1259762Y657028D01*
X1256388Y655630D01*
X1253351Y653601D01*
X1250769Y651019D01*
X1248740Y647982D01*
X1247343Y644608D01*
X1246630Y641026D01*
Y637374D01*
X1247343Y633792D01*
X1248740Y630418D01*
X1250769Y627381D01*
X1253351Y624799D01*
X1256388Y622770D01*
X1259762Y621372D01*
X1263344Y620660D01*
X1266996D01*
X1270578Y621372D01*
X1273952Y622770D01*
X1276989Y624799D01*
X1279571Y627381D01*
X1281600Y630418D01*
X1282997Y633792D01*
X1283710Y637374D01*
Y641026D01*
X1282997Y644608D01*
X1281600Y647982D01*
X1279571Y651019D01*
X1276989Y653601D01*
X1273952Y655630D01*
X1270578Y657028D01*
X1266996Y657740D01*
D02*
G37*
G36*
X1139996D02*
X1136344D01*
X1132762Y657028D01*
X1129388Y655630D01*
X1126351Y653601D01*
X1123769Y651019D01*
X1121740Y647982D01*
X1120342Y644608D01*
X1119630Y641026D01*
Y637374D01*
X1120342Y633792D01*
X1121740Y630418D01*
X1123769Y627381D01*
X1126351Y624799D01*
X1129388Y622770D01*
X1132762Y621372D01*
X1136344Y620660D01*
X1139996D01*
X1143578Y621372D01*
X1146952Y622770D01*
X1149989Y624799D01*
X1152571Y627381D01*
X1154600Y630418D01*
X1155997Y633792D01*
X1156710Y637374D01*
Y641026D01*
X1155997Y644608D01*
X1154600Y647982D01*
X1152571Y651019D01*
X1149989Y653601D01*
X1146952Y655630D01*
X1143578Y657028D01*
X1139996Y657740D01*
D02*
G37*
G36*
X1552361Y683140D02*
X1547239D01*
X1542180Y682339D01*
X1537309Y680756D01*
X1532745Y678431D01*
X1528602Y675420D01*
X1524980Y671798D01*
X1521969Y667655D01*
X1519644Y663091D01*
X1518061Y658220D01*
X1517260Y653161D01*
Y648039D01*
X1518061Y642980D01*
X1519644Y638109D01*
X1521969Y633545D01*
X1524980Y629402D01*
X1528602Y625780D01*
X1532745Y622769D01*
X1537309Y620444D01*
X1542180Y618861D01*
X1547239Y618060D01*
X1552361D01*
X1557420Y618861D01*
X1562291Y620444D01*
X1566855Y622769D01*
X1570998Y625780D01*
X1574620Y629402D01*
X1577631Y633545D01*
X1579956Y638109D01*
X1581539Y642980D01*
X1582340Y648039D01*
Y653161D01*
X1581539Y658220D01*
X1579956Y663091D01*
X1577631Y667655D01*
X1574620Y671798D01*
X1570998Y675420D01*
X1566855Y678431D01*
X1562291Y680756D01*
X1557420Y682339D01*
X1552361Y683140D01*
D02*
G37*
G36*
X152361D02*
X147239D01*
X142180Y682339D01*
X137309Y680756D01*
X132745Y678431D01*
X128602Y675420D01*
X124980Y671798D01*
X121969Y667655D01*
X119644Y663091D01*
X118061Y658220D01*
X117260Y653161D01*
Y648039D01*
X118061Y642980D01*
X119644Y638109D01*
X121969Y633545D01*
X124980Y629402D01*
X128602Y625780D01*
X132745Y622769D01*
X137309Y620444D01*
X142180Y618861D01*
X147239Y618060D01*
X152361D01*
X157420Y618861D01*
X162291Y620444D01*
X166855Y622769D01*
X170998Y625780D01*
X174620Y629402D01*
X177631Y633545D01*
X179956Y638109D01*
X181539Y642980D01*
X182340Y648039D01*
Y653161D01*
X181539Y658220D01*
X179956Y663091D01*
X177631Y667655D01*
X174620Y671798D01*
X170998Y675420D01*
X166855Y678431D01*
X162291Y680756D01*
X157420Y682339D01*
X152361Y683140D01*
D02*
G37*
G36*
X1018440Y623578D02*
Y615270D01*
X1026748D01*
X1026097Y617698D01*
X1024836Y619882D01*
X1023052Y621666D01*
X1020868Y622927D01*
X1018440Y623578D01*
D02*
G37*
G36*
X954700D02*
X952272Y622927D01*
X950088Y621666D01*
X948304Y619882D01*
X947043Y617698D01*
X946392Y615270D01*
X954700D01*
Y623578D01*
D02*
G37*
G36*
X1228440Y623378D02*
Y615070D01*
X1236748D01*
X1236097Y617498D01*
X1234836Y619682D01*
X1233052Y621466D01*
X1230868Y622727D01*
X1228440Y623378D01*
D02*
G37*
G36*
X1164700D02*
X1162272Y622727D01*
X1160088Y621466D01*
X1158304Y619682D01*
X1157043Y617498D01*
X1156392Y615070D01*
X1164700D01*
Y623378D01*
D02*
G37*
G36*
X1205500D02*
X1203072Y622727D01*
X1200888Y621466D01*
X1199104Y619682D01*
X1197843Y617498D01*
X1197190Y615061D01*
X1195950D01*
X1195297Y617498D01*
X1194036Y619682D01*
X1192252Y621466D01*
X1190068Y622727D01*
X1187640Y623378D01*
Y613800D01*
Y604222D01*
X1190068Y604873D01*
X1192252Y606134D01*
X1194036Y607918D01*
X1195297Y610102D01*
X1195950Y612539D01*
X1197190D01*
X1197843Y610102D01*
X1199104Y607918D01*
X1200888Y606134D01*
X1203072Y604873D01*
X1205500Y604222D01*
Y613800D01*
Y623378D01*
D02*
G37*
G36*
X1185100Y623378D02*
X1182672Y622727D01*
X1180488Y621466D01*
X1178704Y619682D01*
X1177443Y617498D01*
X1176790Y615061D01*
X1175550D01*
X1174897Y617498D01*
X1173636Y619682D01*
X1171852Y621466D01*
X1169668Y622727D01*
X1167240Y623378D01*
Y613800D01*
Y604222D01*
X1169668Y604873D01*
X1171852Y606134D01*
X1173636Y607918D01*
X1174897Y610102D01*
X1175550Y612539D01*
X1176790D01*
X1177443Y610102D01*
X1178704Y607918D01*
X1180488Y606134D01*
X1182672Y604873D01*
X1185100Y604222D01*
Y613800D01*
Y623378D01*
D02*
G37*
G36*
X1385388Y634940D02*
X1382612D01*
X1379932Y634222D01*
X1377528Y632834D01*
X1375566Y630872D01*
X1374178Y628468D01*
X1373460Y625788D01*
Y623012D01*
X1374178Y620332D01*
X1375566Y617928D01*
X1377528Y615966D01*
X1379932Y614578D01*
X1382612Y613860D01*
X1385388D01*
X1388068Y614578D01*
X1390472Y615966D01*
X1392434Y617928D01*
X1393822Y620332D01*
X1394540Y623012D01*
Y625788D01*
X1393822Y628468D01*
X1392434Y630872D01*
X1390472Y632834D01*
X1388068Y634222D01*
X1385388Y634940D01*
D02*
G37*
G36*
X1339888Y634690D02*
X1337112D01*
X1334432Y633972D01*
X1332028Y632584D01*
X1330066Y630622D01*
X1328678Y628218D01*
X1327960Y625538D01*
Y622762D01*
X1328678Y620082D01*
X1330066Y617678D01*
X1332028Y615716D01*
X1334432Y614328D01*
X1337112Y613610D01*
X1339888D01*
X1342568Y614328D01*
X1344972Y615716D01*
X1346934Y617678D01*
X1348322Y620082D01*
X1349040Y622762D01*
Y625538D01*
X1348322Y628218D01*
X1346934Y630622D01*
X1344972Y632584D01*
X1342568Y633972D01*
X1339888Y634690D01*
D02*
G37*
G36*
X1074834Y619640D02*
X1074190D01*
Y606370D01*
X1087460D01*
Y607014D01*
X1086469Y610712D01*
X1084555Y614028D01*
X1081848Y616735D01*
X1078532Y618649D01*
X1074834Y619640D01*
D02*
G37*
G36*
X912334D02*
X911690D01*
Y606370D01*
X924960D01*
Y607014D01*
X923969Y610712D01*
X922055Y614028D01*
X919348Y616735D01*
X916032Y618649D01*
X912334Y619640D01*
D02*
G37*
G36*
X909150D02*
X908506D01*
X904808Y618649D01*
X901492Y616735D01*
X898785Y614028D01*
X896871Y610712D01*
X895880Y607014D01*
Y606370D01*
X909150D01*
Y619640D01*
D02*
G37*
G36*
X1071650D02*
X1071006D01*
X1067308Y618649D01*
X1063992Y616735D01*
X1061285Y614028D01*
X1059371Y610712D01*
X1058380Y607014D01*
Y606370D01*
X1071650D01*
Y619640D01*
D02*
G37*
G36*
X1284834Y619440D02*
X1284190D01*
Y606170D01*
X1297460D01*
Y606814D01*
X1296469Y610512D01*
X1294555Y613828D01*
X1291848Y616535D01*
X1288532Y618449D01*
X1284834Y619440D01*
D02*
G37*
G36*
X1122334D02*
X1121690D01*
Y606170D01*
X1134960D01*
Y606814D01*
X1133969Y610512D01*
X1132055Y613828D01*
X1129348Y616535D01*
X1126032Y618449D01*
X1122334Y619440D01*
D02*
G37*
G36*
X1119150D02*
X1118506D01*
X1114808Y618449D01*
X1111492Y616535D01*
X1108785Y613828D01*
X1106871Y610512D01*
X1105880Y606814D01*
Y606170D01*
X1119150D01*
Y619440D01*
D02*
G37*
G36*
X1281650D02*
X1281006D01*
X1277308Y618449D01*
X1273992Y616535D01*
X1271285Y613828D01*
X1269371Y610512D01*
X1268380Y606814D01*
Y606170D01*
X1281650D01*
Y619440D01*
D02*
G37*
G36*
X957240Y623578D02*
Y614000D01*
Y604422D01*
X959668Y605073D01*
X961852Y606334D01*
X963636Y608118D01*
X964897Y610302D01*
X965550Y612739D01*
X966790D01*
X967443Y610302D01*
X968704Y608118D01*
X970488Y606334D01*
X972672Y605073D01*
X975100Y604422D01*
Y614000D01*
Y623578D01*
X972672Y622927D01*
X970488Y621666D01*
X968704Y619882D01*
X967443Y617698D01*
X966790Y615261D01*
X965550D01*
X964897Y617698D01*
X963636Y619882D01*
X961852Y621666D01*
X959668Y622927D01*
X957240Y623578D01*
D02*
G37*
G36*
X998040Y623578D02*
Y614000D01*
Y604422D01*
X1000468Y605073D01*
X1002652Y606334D01*
X1004436Y608118D01*
X1005697Y610302D01*
X1006350Y612739D01*
X1007590D01*
X1008243Y610302D01*
X1009504Y608118D01*
X1011288Y606334D01*
X1013472Y605073D01*
X1015900Y604422D01*
Y614000D01*
Y623578D01*
X1013472Y622927D01*
X1011288Y621666D01*
X1009504Y619882D01*
X1008243Y617698D01*
X1007590Y615261D01*
X1006350D01*
X1005697Y617698D01*
X1004436Y619882D01*
X1002652Y621666D01*
X1000468Y622927D01*
X998040Y623578D01*
D02*
G37*
G36*
X954700Y612730D02*
X946392D01*
X947043Y610302D01*
X948304Y608118D01*
X950088Y606334D01*
X952272Y605073D01*
X954700Y604422D01*
Y612730D01*
D02*
G37*
G36*
X1026748D02*
X1018440D01*
Y604422D01*
X1020868Y605073D01*
X1023052Y606334D01*
X1024836Y608118D01*
X1026097Y610302D01*
X1026748Y612730D01*
D02*
G37*
G36*
X977640Y623578D02*
Y614000D01*
Y604422D01*
X980068Y605073D01*
X982252Y606334D01*
X984036Y608118D01*
X985297Y610302D01*
X985950Y612739D01*
X987190D01*
X987843Y610302D01*
X989104Y608118D01*
X990888Y606334D01*
X993072Y605073D01*
X995500Y604422D01*
Y614000D01*
Y623578D01*
X993072Y622927D01*
X990888Y621666D01*
X989104Y619882D01*
X987843Y617698D01*
X987190Y615261D01*
X985950D01*
X985297Y617698D01*
X984036Y619882D01*
X982252Y621666D01*
X980068Y622927D01*
X977640Y623578D01*
D02*
G37*
G36*
X1208040Y623378D02*
Y613800D01*
Y604222D01*
X1210468Y604873D01*
X1212652Y606134D01*
X1214436Y607918D01*
X1215697Y610102D01*
X1216350Y612539D01*
X1217590D01*
X1218243Y610102D01*
X1219504Y607918D01*
X1221288Y606134D01*
X1223472Y604873D01*
X1225900Y604222D01*
Y613800D01*
Y623378D01*
X1223472Y622727D01*
X1221288Y621466D01*
X1219504Y619682D01*
X1218243Y617498D01*
X1217590Y615061D01*
X1216350D01*
X1215697Y617498D01*
X1214436Y619682D01*
X1212652Y621466D01*
X1210468Y622727D01*
X1208040Y623378D01*
D02*
G37*
G36*
X1164700Y612530D02*
X1156392D01*
X1157043Y610102D01*
X1158304Y607918D01*
X1160088Y606134D01*
X1162272Y604873D01*
X1164700Y604222D01*
Y612530D01*
D02*
G37*
G36*
X1236748D02*
X1228440D01*
Y604222D01*
X1230868Y604873D01*
X1233052Y606134D01*
X1234836Y607918D01*
X1236097Y610102D01*
X1236748Y612530D01*
D02*
G37*
G36*
X1028640Y605778D02*
Y597470D01*
X1036948D01*
X1036297Y599898D01*
X1035036Y602082D01*
X1033252Y603866D01*
X1031068Y605127D01*
X1028640Y605778D01*
D02*
G37*
G36*
X1026100D02*
X1023672Y605127D01*
X1021488Y603866D01*
X1019704Y602082D01*
X1018443Y599898D01*
X1017790Y597461D01*
X1016550D01*
X1015897Y599898D01*
X1014636Y602082D01*
X1012852Y603866D01*
X1010668Y605127D01*
X1008240Y605778D01*
Y596200D01*
Y586622D01*
X1010668Y587273D01*
X1012852Y588534D01*
X1014636Y590318D01*
X1015897Y592502D01*
X1016550Y594939D01*
X1017790D01*
X1018443Y592502D01*
X1019704Y590318D01*
X1021488Y588534D01*
X1023672Y587273D01*
X1026100Y586622D01*
Y596200D01*
Y605778D01*
D02*
G37*
G36*
X987831Y605780D02*
X985309D01*
X982872Y605127D01*
X980688Y603866D01*
X978904Y602082D01*
X977643Y599898D01*
X976990Y597461D01*
X975750D01*
X975097Y599898D01*
X973836Y602082D01*
X972052Y603866D01*
X969868Y605127D01*
X967431Y605780D01*
X964909D01*
X962472Y605127D01*
X960288Y603866D01*
X958504Y602082D01*
X957243Y599898D01*
X956590Y597461D01*
Y594939D01*
X957243Y592502D01*
X958504Y590318D01*
X960288Y588534D01*
X962472Y587273D01*
X964909Y586620D01*
X967431D01*
X969868Y587273D01*
X972052Y588534D01*
X973836Y590318D01*
X975097Y592502D01*
X975750Y594939D01*
X976990D01*
X977643Y592502D01*
X978904Y590318D01*
X980688Y588534D01*
X982872Y587273D01*
X985309Y586620D01*
X987831D01*
X990268Y587273D01*
X992452Y588534D01*
X994236Y590318D01*
X995497Y592502D01*
X996150Y594939D01*
X997390D01*
X998043Y592502D01*
X999304Y590318D01*
X1001088Y588534D01*
X1003272Y587273D01*
X1005700Y586622D01*
Y596200D01*
Y605778D01*
X1003272Y605127D01*
X1001088Y603866D01*
X999304Y602082D01*
X998043Y599898D01*
X997390Y597461D01*
X996150D01*
X995497Y599898D01*
X994236Y602082D01*
X992452Y603866D01*
X990268Y605127D01*
X987831Y605780D01*
D02*
G37*
G36*
X1238640Y605578D02*
Y597270D01*
X1246948D01*
X1246297Y599698D01*
X1245036Y601882D01*
X1243252Y603666D01*
X1241068Y604927D01*
X1238640Y605578D01*
D02*
G37*
G36*
X1197831Y605580D02*
X1195309D01*
X1192872Y604927D01*
X1190688Y603666D01*
X1188904Y601882D01*
X1187643Y599698D01*
X1186990Y597261D01*
X1185750D01*
X1185097Y599698D01*
X1183836Y601882D01*
X1182052Y603666D01*
X1179868Y604927D01*
X1177431Y605580D01*
X1174909D01*
X1172472Y604927D01*
X1170288Y603666D01*
X1168504Y601882D01*
X1167243Y599698D01*
X1166590Y597261D01*
Y594739D01*
X1167243Y592302D01*
X1168504Y590118D01*
X1170288Y588334D01*
X1172472Y587073D01*
X1174909Y586420D01*
X1177431D01*
X1179868Y587073D01*
X1182052Y588334D01*
X1183836Y590118D01*
X1185097Y592302D01*
X1185750Y594739D01*
X1186990D01*
X1187643Y592302D01*
X1188904Y590118D01*
X1190688Y588334D01*
X1192872Y587073D01*
X1195309Y586420D01*
X1197831D01*
X1200268Y587073D01*
X1202452Y588334D01*
X1204236Y590118D01*
X1205497Y592302D01*
X1206150Y594739D01*
X1207390D01*
X1208043Y592302D01*
X1209304Y590118D01*
X1211088Y588334D01*
X1213272Y587073D01*
X1215700Y586422D01*
Y596000D01*
Y605578D01*
X1213272Y604927D01*
X1211088Y603666D01*
X1209304Y601882D01*
X1208043Y599698D01*
X1207390Y597261D01*
X1206150D01*
X1205497Y599698D01*
X1204236Y601882D01*
X1202452Y603666D01*
X1200268Y604927D01*
X1197831Y605580D01*
D02*
G37*
G36*
X1087460Y603830D02*
X1074190D01*
Y590560D01*
X1074834D01*
X1078532Y591551D01*
X1081848Y593465D01*
X1084555Y596172D01*
X1086469Y599488D01*
X1087460Y603186D01*
Y603830D01*
D02*
G37*
G36*
X1071650D02*
X1058380D01*
Y603186D01*
X1059371Y599488D01*
X1061285Y596172D01*
X1063992Y593465D01*
X1067308Y591551D01*
X1071006Y590560D01*
X1071650D01*
Y603830D01*
D02*
G37*
G36*
X924960D02*
X911690D01*
Y590560D01*
X912334D01*
X916032Y591551D01*
X919348Y593465D01*
X922055Y596172D01*
X923969Y599488D01*
X924960Y603186D01*
Y603830D01*
D02*
G37*
G36*
X909150D02*
X895880D01*
Y603186D01*
X896871Y599488D01*
X898785Y596172D01*
X901492Y593465D01*
X904808Y591551D01*
X908506Y590560D01*
X909150D01*
Y603830D01*
D02*
G37*
G36*
X1297460Y603630D02*
X1284190D01*
Y590360D01*
X1284834D01*
X1288532Y591351D01*
X1291848Y593265D01*
X1294555Y595972D01*
X1296469Y599288D01*
X1297460Y602986D01*
Y603630D01*
D02*
G37*
G36*
X1281650D02*
X1268380D01*
Y602986D01*
X1269371Y599288D01*
X1271285Y595972D01*
X1273992Y593265D01*
X1277308Y591351D01*
X1281006Y590360D01*
X1281650D01*
Y603630D01*
D02*
G37*
G36*
X1134960D02*
X1121690D01*
Y590360D01*
X1122334D01*
X1126032Y591351D01*
X1129348Y593265D01*
X1132055Y595972D01*
X1133969Y599288D01*
X1134960Y602986D01*
Y603630D01*
D02*
G37*
G36*
X1119150D02*
X1105880D01*
Y602986D01*
X1106871Y599288D01*
X1108785Y595972D01*
X1111492Y593265D01*
X1114808Y591351D01*
X1118506Y590360D01*
X1119150D01*
Y603630D01*
D02*
G37*
G36*
X1385388Y609540D02*
X1382612D01*
X1379932Y608822D01*
X1377528Y607434D01*
X1375566Y605472D01*
X1374178Y603068D01*
X1373460Y600388D01*
Y597612D01*
X1374178Y594932D01*
X1375566Y592528D01*
X1377528Y590566D01*
X1379932Y589178D01*
X1382612Y588460D01*
X1385388D01*
X1388068Y589178D01*
X1390472Y590566D01*
X1392434Y592528D01*
X1393822Y594932D01*
X1394540Y597612D01*
Y600388D01*
X1393822Y603068D01*
X1392434Y605472D01*
X1390472Y607434D01*
X1388068Y608822D01*
X1385388Y609540D01*
D02*
G37*
G36*
X1339888Y609290D02*
X1337112D01*
X1334432Y608572D01*
X1332028Y607184D01*
X1330066Y605222D01*
X1328678Y602818D01*
X1327960Y600138D01*
Y597362D01*
X1328678Y594682D01*
X1330066Y592278D01*
X1332028Y590316D01*
X1334432Y588928D01*
X1337112Y588210D01*
X1339888D01*
X1342568Y588928D01*
X1344972Y590316D01*
X1346934Y592278D01*
X1348322Y594682D01*
X1349040Y597362D01*
Y600138D01*
X1348322Y602818D01*
X1346934Y605222D01*
X1344972Y607184D01*
X1342568Y608572D01*
X1339888Y609290D01*
D02*
G37*
G36*
X1036948Y594930D02*
X1028640D01*
Y586622D01*
X1031068Y587273D01*
X1033252Y588534D01*
X1035036Y590318D01*
X1036297Y592502D01*
X1036948Y594930D01*
D02*
G37*
G36*
X1246948Y594730D02*
X1238640D01*
Y586422D01*
X1241068Y587073D01*
X1243252Y588334D01*
X1245036Y590118D01*
X1246297Y592302D01*
X1246948Y594730D01*
D02*
G37*
G36*
X1218240Y605578D02*
Y596000D01*
Y586422D01*
X1220668Y587073D01*
X1222852Y588334D01*
X1224636Y590118D01*
X1225897Y592302D01*
X1226550Y594739D01*
X1227790D01*
X1228443Y592302D01*
X1229704Y590118D01*
X1231488Y588334D01*
X1233672Y587073D01*
X1236100Y586422D01*
Y596000D01*
Y605578D01*
X1233672Y604927D01*
X1231488Y603666D01*
X1229704Y601882D01*
X1228443Y599698D01*
X1227790Y597261D01*
X1226550D01*
X1225897Y599698D01*
X1224636Y601882D01*
X1222852Y603666D01*
X1220668Y604927D01*
X1218240Y605578D01*
D02*
G37*
G36*
X1427753Y593790D02*
X1425748D01*
X1423895Y593023D01*
X1422477Y591605D01*
X1421710Y589753D01*
Y587747D01*
X1422477Y585895D01*
X1423895Y584477D01*
X1425748Y583710D01*
X1427753D01*
X1429605Y584477D01*
X1431023Y585895D01*
X1431790Y587747D01*
Y589753D01*
X1431023Y591605D01*
X1429605Y593023D01*
X1427753Y593790D01*
D02*
G37*
G36*
X1339888Y583890D02*
X1339770D01*
Y574620D01*
X1349040D01*
Y574738D01*
X1348322Y577418D01*
X1346934Y579822D01*
X1344972Y581784D01*
X1342568Y583172D01*
X1339888Y583890D01*
D02*
G37*
G36*
X1337230D02*
X1337112D01*
X1334432Y583172D01*
X1332028Y581784D01*
X1330066Y579822D01*
X1328678Y577418D01*
X1327960Y574738D01*
Y574620D01*
X1337230D01*
Y583890D01*
D02*
G37*
G36*
X1177753Y584040D02*
X1175748D01*
X1173895Y583273D01*
X1172477Y581855D01*
X1171710Y580003D01*
Y577998D01*
X1172477Y576145D01*
X1173895Y574727D01*
X1175748Y573960D01*
X1177753D01*
X1179605Y574727D01*
X1181023Y576145D01*
X1181790Y577998D01*
Y580003D01*
X1181023Y581855D01*
X1179605Y583273D01*
X1177753Y584040D01*
D02*
G37*
G36*
X967753D02*
X965748D01*
X963895Y583273D01*
X962477Y581855D01*
X961710Y580003D01*
Y577998D01*
X962477Y576145D01*
X963895Y574727D01*
X965748Y573960D01*
X967753D01*
X969605Y574727D01*
X971023Y576145D01*
X971790Y577998D01*
Y580003D01*
X971023Y581855D01*
X969605Y583273D01*
X967753Y584040D01*
D02*
G37*
G36*
X1198252Y575790D02*
X1196247D01*
X1194395Y575023D01*
X1192977Y573605D01*
X1192210Y571753D01*
Y569748D01*
X1192977Y567895D01*
X1194395Y566477D01*
X1196247Y565710D01*
X1198252D01*
X1200105Y566477D01*
X1201523Y567895D01*
X1202290Y569748D01*
Y571753D01*
X1201523Y573605D01*
X1200105Y575023D01*
X1198252Y575790D01*
D02*
G37*
G36*
X987002D02*
X984997D01*
X983145Y575023D01*
X981727Y573605D01*
X980960Y571753D01*
Y569748D01*
X981727Y567895D01*
X983145Y566477D01*
X984997Y565710D01*
X987002D01*
X988855Y566477D01*
X990273Y567895D01*
X991040Y569748D01*
Y571753D01*
X990273Y573605D01*
X988855Y575023D01*
X987002Y575790D01*
D02*
G37*
G36*
X1385388Y584140D02*
X1382612D01*
X1379932Y583422D01*
X1377528Y582034D01*
X1375566Y580072D01*
X1374178Y577668D01*
X1373460Y574988D01*
Y572212D01*
X1374178Y569532D01*
X1375566Y567128D01*
X1377528Y565166D01*
X1379932Y563778D01*
X1382612Y563060D01*
X1385388D01*
X1388068Y563778D01*
X1390472Y565166D01*
X1392434Y567128D01*
X1393822Y569532D01*
X1394540Y572212D01*
Y574988D01*
X1393822Y577668D01*
X1392434Y580072D01*
X1390472Y582034D01*
X1388068Y583422D01*
X1385388Y584140D01*
D02*
G37*
G36*
X1349040Y572080D02*
X1339770D01*
Y562810D01*
X1339888D01*
X1342568Y563528D01*
X1344972Y564916D01*
X1346934Y566878D01*
X1348322Y569282D01*
X1349040Y571962D01*
Y572080D01*
D02*
G37*
G36*
X1337230D02*
X1327960D01*
Y571962D01*
X1328678Y569282D01*
X1330066Y566878D01*
X1332028Y564916D01*
X1334432Y563528D01*
X1337112Y562810D01*
X1337230D01*
Y572080D01*
D02*
G37*
G36*
X1451252Y568540D02*
X1449247D01*
X1447395Y567773D01*
X1445977Y566355D01*
X1445210Y564502D01*
Y562497D01*
X1445977Y560645D01*
X1447395Y559227D01*
X1449247Y558460D01*
X1451252D01*
X1453105Y559227D01*
X1454523Y560645D01*
X1455290Y562497D01*
Y564502D01*
X1454523Y566355D01*
X1453105Y567773D01*
X1451252Y568540D01*
D02*
G37*
G36*
X1438253D02*
X1436248D01*
X1434395Y567773D01*
X1432977Y566355D01*
X1432210Y564502D01*
Y562497D01*
X1432977Y560645D01*
X1434395Y559227D01*
X1436248Y558460D01*
X1438253D01*
X1440105Y559227D01*
X1441523Y560645D01*
X1442290Y562497D01*
Y564502D01*
X1441523Y566355D01*
X1440105Y567773D01*
X1438253Y568540D01*
D02*
G37*
G36*
X1566752Y567290D02*
X1564747D01*
X1562895Y566523D01*
X1561477Y565105D01*
X1560710Y563252D01*
Y561247D01*
X1561477Y559395D01*
X1562895Y557977D01*
X1564747Y557210D01*
X1566752D01*
X1568605Y557977D01*
X1570023Y559395D01*
X1570790Y561247D01*
Y563252D01*
X1570023Y565105D01*
X1568605Y566523D01*
X1566752Y567290D01*
D02*
G37*
G36*
X1385388Y558740D02*
X1385270D01*
Y549470D01*
X1394540D01*
Y549588D01*
X1393822Y552268D01*
X1392434Y554672D01*
X1390472Y556634D01*
X1388068Y558022D01*
X1385388Y558740D01*
D02*
G37*
G36*
X1382730D02*
X1382612D01*
X1379932Y558022D01*
X1377528Y556634D01*
X1375566Y554672D01*
X1374178Y552268D01*
X1373460Y549588D01*
Y549470D01*
X1382730D01*
Y558740D01*
D02*
G37*
G36*
X1339888Y558490D02*
X1339770D01*
Y549220D01*
X1349040D01*
Y549338D01*
X1348322Y552018D01*
X1346934Y554422D01*
X1344972Y556384D01*
X1342568Y557772D01*
X1339888Y558490D01*
D02*
G37*
G36*
X1337230D02*
X1337112D01*
X1334432Y557772D01*
X1332028Y556384D01*
X1330066Y554422D01*
X1328678Y552018D01*
X1327960Y549338D01*
Y549220D01*
X1337230D01*
Y558490D01*
D02*
G37*
G36*
X1061531Y557580D02*
X1059009D01*
X1056572Y556927D01*
X1054388Y555666D01*
X1052604Y553882D01*
X1051343Y551698D01*
X1050690Y549261D01*
Y546739D01*
X1051343Y544302D01*
X1052604Y542118D01*
X1054388Y540334D01*
X1056572Y539073D01*
X1059009Y538420D01*
X1061531D01*
X1063968Y539073D01*
X1066152Y540334D01*
X1067936Y542118D01*
X1069197Y544302D01*
X1069850Y546739D01*
Y549261D01*
X1069197Y551698D01*
X1067936Y553882D01*
X1066152Y555666D01*
X1063968Y556927D01*
X1061531Y557580D01*
D02*
G37*
G36*
X1038631D02*
X1036109D01*
X1033672Y556927D01*
X1031488Y555666D01*
X1029704Y553882D01*
X1028443Y551698D01*
X1027790Y549261D01*
Y546739D01*
X1028443Y544302D01*
X1029704Y542118D01*
X1031488Y540334D01*
X1033672Y539073D01*
X1036109Y538420D01*
X1038631D01*
X1041068Y539073D01*
X1043252Y540334D01*
X1045036Y542118D01*
X1046297Y544302D01*
X1046950Y546739D01*
Y549261D01*
X1046297Y551698D01*
X1045036Y553882D01*
X1043252Y555666D01*
X1041068Y556927D01*
X1038631Y557580D01*
D02*
G37*
G36*
X947231D02*
X944709D01*
X942272Y556927D01*
X940088Y555666D01*
X938304Y553882D01*
X937043Y551698D01*
X936390Y549261D01*
Y546739D01*
X937043Y544302D01*
X938304Y542118D01*
X940088Y540334D01*
X942272Y539073D01*
X944709Y538420D01*
X947231D01*
X949668Y539073D01*
X951852Y540334D01*
X953636Y542118D01*
X954897Y544302D01*
X955550Y546739D01*
Y549261D01*
X954897Y551698D01*
X953636Y553882D01*
X951852Y555666D01*
X949668Y556927D01*
X947231Y557580D01*
D02*
G37*
G36*
X924331D02*
X921809D01*
X919372Y556927D01*
X917188Y555666D01*
X915404Y553882D01*
X914143Y551698D01*
X913490Y549261D01*
Y546739D01*
X914143Y544302D01*
X915404Y542118D01*
X917188Y540334D01*
X919372Y539073D01*
X921809Y538420D01*
X924331D01*
X926768Y539073D01*
X928952Y540334D01*
X930736Y542118D01*
X931997Y544302D01*
X932650Y546739D01*
Y549261D01*
X931997Y551698D01*
X930736Y553882D01*
X928952Y555666D01*
X926768Y556927D01*
X924331Y557580D01*
D02*
G37*
G36*
X1271531Y557380D02*
X1269009D01*
X1266572Y556727D01*
X1264388Y555466D01*
X1262604Y553682D01*
X1261343Y551498D01*
X1260690Y549061D01*
Y546539D01*
X1261343Y544102D01*
X1262604Y541918D01*
X1264388Y540134D01*
X1266572Y538873D01*
X1269009Y538220D01*
X1271531D01*
X1273968Y538873D01*
X1276152Y540134D01*
X1277936Y541918D01*
X1279197Y544102D01*
X1279850Y546539D01*
Y549061D01*
X1279197Y551498D01*
X1277936Y553682D01*
X1276152Y555466D01*
X1273968Y556727D01*
X1271531Y557380D01*
D02*
G37*
G36*
X1248631D02*
X1246109D01*
X1243672Y556727D01*
X1241488Y555466D01*
X1239704Y553682D01*
X1238443Y551498D01*
X1237790Y549061D01*
Y546539D01*
X1238443Y544102D01*
X1239704Y541918D01*
X1241488Y540134D01*
X1243672Y538873D01*
X1246109Y538220D01*
X1248631D01*
X1251068Y538873D01*
X1253252Y540134D01*
X1255036Y541918D01*
X1256297Y544102D01*
X1256950Y546539D01*
Y549061D01*
X1256297Y551498D01*
X1255036Y553682D01*
X1253252Y555466D01*
X1251068Y556727D01*
X1248631Y557380D01*
D02*
G37*
G36*
X1157231D02*
X1154709D01*
X1152272Y556727D01*
X1150088Y555466D01*
X1148304Y553682D01*
X1147043Y551498D01*
X1146390Y549061D01*
Y546539D01*
X1147043Y544102D01*
X1148304Y541918D01*
X1150088Y540134D01*
X1152272Y538873D01*
X1154709Y538220D01*
X1157231D01*
X1159668Y538873D01*
X1161852Y540134D01*
X1163636Y541918D01*
X1164897Y544102D01*
X1165550Y546539D01*
Y549061D01*
X1164897Y551498D01*
X1163636Y553682D01*
X1161852Y555466D01*
X1159668Y556727D01*
X1157231Y557380D01*
D02*
G37*
G36*
X1134331D02*
X1131809D01*
X1129372Y556727D01*
X1127188Y555466D01*
X1125404Y553682D01*
X1124143Y551498D01*
X1123490Y549061D01*
Y546539D01*
X1124143Y544102D01*
X1125404Y541918D01*
X1127188Y540134D01*
X1129372Y538873D01*
X1131809Y538220D01*
X1134331D01*
X1136768Y538873D01*
X1138952Y540134D01*
X1140736Y541918D01*
X1141997Y544102D01*
X1142650Y546539D01*
Y549061D01*
X1141997Y551498D01*
X1140736Y553682D01*
X1138952Y555466D01*
X1136768Y556727D01*
X1134331Y557380D01*
D02*
G37*
G36*
X1394540Y546930D02*
X1385270D01*
Y537660D01*
X1385388D01*
X1388068Y538378D01*
X1390472Y539766D01*
X1392434Y541728D01*
X1393822Y544132D01*
X1394540Y546812D01*
Y546930D01*
D02*
G37*
G36*
X1382730D02*
X1373460D01*
Y546812D01*
X1374178Y544132D01*
X1375566Y541728D01*
X1377528Y539766D01*
X1379932Y538378D01*
X1382612Y537660D01*
X1382730D01*
Y546930D01*
D02*
G37*
G36*
X1349040Y546680D02*
X1339770D01*
Y537410D01*
X1339888D01*
X1342568Y538128D01*
X1344972Y539516D01*
X1346934Y541478D01*
X1348322Y543882D01*
X1349040Y546562D01*
Y546680D01*
D02*
G37*
G36*
X1337230D02*
X1327960D01*
Y546562D01*
X1328678Y543882D01*
X1330066Y541478D01*
X1332028Y539516D01*
X1334432Y538128D01*
X1337112Y537410D01*
X1337230D01*
Y546680D01*
D02*
G37*
G36*
X1483503Y537790D02*
X1481497D01*
X1479645Y537023D01*
X1478227Y535605D01*
X1477460Y533753D01*
Y531748D01*
X1478227Y529895D01*
X1479645Y528477D01*
X1481497Y527710D01*
X1483503D01*
X1485355Y528477D01*
X1486773Y529895D01*
X1487540Y531748D01*
Y533753D01*
X1486773Y535605D01*
X1485355Y537023D01*
X1483503Y537790D01*
D02*
G37*
G36*
X1472253Y530540D02*
X1470247D01*
X1468395Y529773D01*
X1466977Y528355D01*
X1466210Y526502D01*
Y524497D01*
X1466977Y522645D01*
X1468395Y521227D01*
X1470247Y520460D01*
X1472253D01*
X1474105Y521227D01*
X1475523Y522645D01*
X1476290Y524497D01*
Y526502D01*
X1475523Y528355D01*
X1474105Y529773D01*
X1472253Y530540D01*
D02*
G37*
G36*
X1494003Y523040D02*
X1491998D01*
X1490145Y522273D01*
X1488727Y520855D01*
X1487960Y519002D01*
Y516997D01*
X1488727Y515145D01*
X1490145Y513727D01*
X1491998Y512960D01*
X1494003D01*
X1495855Y513727D01*
X1497273Y515145D01*
X1498040Y516997D01*
Y519002D01*
X1497273Y520855D01*
X1495855Y522273D01*
X1494003Y523040D01*
D02*
G37*
G36*
X264773Y530639D02*
X262768D01*
X260916Y529871D01*
X259498Y528454D01*
X258731Y526601D01*
Y524596D01*
X259498Y522744D01*
X260602Y521639D01*
X260870Y521088D01*
X260674Y520051D01*
X259727Y519105D01*
X258960Y517253D01*
Y515247D01*
X259727Y513395D01*
X261145Y511977D01*
X262997Y511210D01*
X265002D01*
X266855Y511977D01*
X268273Y513395D01*
X269040Y515247D01*
Y517253D01*
X268273Y519105D01*
X267168Y520209D01*
X266900Y520761D01*
X267097Y521797D01*
X268043Y522744D01*
X268811Y524596D01*
Y526601D01*
X268043Y528454D01*
X266625Y529871D01*
X264773Y530639D01*
D02*
G37*
G36*
X741882Y529628D02*
X739877D01*
X738025Y528861D01*
X736607Y527443D01*
X735840Y525591D01*
Y523586D01*
X736607Y521733D01*
X737229Y521111D01*
X737272Y519357D01*
X736857Y518943D01*
X736090Y517090D01*
Y515085D01*
X736857Y513233D01*
X738275Y511815D01*
X740127Y511048D01*
X742132D01*
X743985Y511815D01*
X745403Y513233D01*
X746170Y515085D01*
Y517090D01*
X745403Y518943D01*
X744781Y519565D01*
X744738Y521319D01*
X745153Y521733D01*
X745920Y523586D01*
Y525591D01*
X745153Y527443D01*
X743735Y528861D01*
X741882Y529628D01*
D02*
G37*
G36*
X502752Y529540D02*
X500747D01*
X498895Y528773D01*
X497477Y527355D01*
X496710Y525503D01*
Y523498D01*
X497477Y521645D01*
X498895Y520227D01*
X498929Y520057D01*
X497727Y518855D01*
X496960Y517002D01*
Y514997D01*
X497727Y513145D01*
X499145Y511727D01*
X500998Y510960D01*
X503003D01*
X504855Y511727D01*
X506273Y513145D01*
X507040Y514997D01*
Y517002D01*
X506273Y518855D01*
X504855Y520273D01*
X504821Y520443D01*
X506023Y521645D01*
X506790Y523498D01*
Y525503D01*
X506023Y527355D01*
X504605Y528773D01*
X502752Y529540D01*
D02*
G37*
G36*
X1084753Y516790D02*
X1082747D01*
X1080895Y516023D01*
X1079477Y514605D01*
X1078710Y512752D01*
Y510747D01*
X1079477Y508895D01*
X1080895Y507477D01*
X1082747Y506710D01*
X1084753D01*
X1086605Y507477D01*
X1088023Y508895D01*
X1088790Y510747D01*
Y512752D01*
X1088023Y514605D01*
X1086605Y516023D01*
X1084753Y516790D01*
D02*
G37*
G36*
X1491752Y510540D02*
X1489747D01*
X1487895Y509773D01*
X1486477Y508355D01*
X1485710Y506502D01*
Y504497D01*
X1486477Y502645D01*
X1487895Y501227D01*
X1489747Y500460D01*
X1491752D01*
X1493605Y501227D01*
X1495023Y502645D01*
X1495790Y504497D01*
Y506502D01*
X1495023Y508355D01*
X1493605Y509773D01*
X1491752Y510540D01*
D02*
G37*
G36*
X1555002Y510290D02*
X1552997D01*
X1551145Y509523D01*
X1549727Y508105D01*
X1548960Y506253D01*
Y504248D01*
X1549727Y502395D01*
X1551145Y500977D01*
X1552997Y500210D01*
X1555002D01*
X1556855Y500977D01*
X1558273Y502395D01*
X1559040Y504248D01*
Y506253D01*
X1558273Y508105D01*
X1556855Y509523D01*
X1555002Y510290D01*
D02*
G37*
G36*
X1455002Y494290D02*
X1452997D01*
X1451145Y493523D01*
X1449727Y492105D01*
X1448960Y490252D01*
Y488247D01*
X1449727Y486395D01*
X1451145Y484977D01*
X1452997Y484210D01*
X1455002D01*
X1456855Y484977D01*
X1458273Y486395D01*
X1459040Y488247D01*
Y490252D01*
X1458273Y492105D01*
X1456855Y493523D01*
X1455002Y494290D01*
D02*
G37*
G36*
X1142503Y491790D02*
X1140498D01*
X1138645Y491023D01*
X1137227Y489605D01*
X1136460Y487752D01*
Y485747D01*
X1137227Y483895D01*
X1138645Y482477D01*
X1140498Y481710D01*
X1142503D01*
X1144355Y482477D01*
X1145773Y483895D01*
X1146540Y485747D01*
Y487752D01*
X1145773Y489605D01*
X1144355Y491023D01*
X1142503Y491790D01*
D02*
G37*
G36*
X1584252Y490290D02*
X1582247D01*
X1580395Y489523D01*
X1578977Y488105D01*
X1578210Y486253D01*
Y484248D01*
X1578977Y482395D01*
X1580395Y480977D01*
X1582247Y480210D01*
X1584252D01*
X1586105Y480977D01*
X1587523Y482395D01*
X1588290Y484248D01*
Y486253D01*
X1587523Y488105D01*
X1586105Y489523D01*
X1584252Y490290D01*
D02*
G37*
G36*
X1207738Y484025D02*
X1205733D01*
X1203880Y483258D01*
X1202463Y481840D01*
X1201695Y479988D01*
Y477983D01*
X1202463Y476130D01*
X1203880Y474713D01*
X1205733Y473945D01*
X1207738D01*
X1209590Y474713D01*
X1211008Y476130D01*
X1211775Y477983D01*
Y479988D01*
X1211008Y481840D01*
X1209590Y483258D01*
X1207738Y484025D01*
D02*
G37*
G36*
X1173738D02*
X1171733D01*
X1169880Y483258D01*
X1168463Y481840D01*
X1167695Y479988D01*
Y477983D01*
X1168463Y476130D01*
X1169880Y474713D01*
X1171733Y473945D01*
X1173738D01*
X1175590Y474713D01*
X1177008Y476130D01*
X1177775Y477983D01*
Y479988D01*
X1177008Y481840D01*
X1175590Y483258D01*
X1173738Y484025D01*
D02*
G37*
G36*
X1077253Y470790D02*
X1075247D01*
X1073395Y470023D01*
X1071977Y468605D01*
X1071210Y466753D01*
Y464748D01*
X1071977Y462895D01*
X1073395Y461477D01*
X1075247Y460710D01*
X1077253D01*
X1079105Y461477D01*
X1080523Y462895D01*
X1081290Y464748D01*
Y466753D01*
X1080523Y468605D01*
X1079105Y470023D01*
X1077253Y470790D01*
D02*
G37*
G36*
X246252Y463290D02*
X244247D01*
X242395Y462523D01*
X240977Y461105D01*
X240210Y459253D01*
Y457248D01*
X240977Y455395D01*
X242395Y453977D01*
X244247Y453210D01*
X246252D01*
X248105Y453977D01*
X249523Y455395D01*
X250290Y457248D01*
Y459253D01*
X249523Y461105D01*
X248105Y462523D01*
X246252Y463290D01*
D02*
G37*
G36*
X724178Y463132D02*
X722173D01*
X720321Y462365D01*
X718903Y460947D01*
X718136Y459095D01*
Y457090D01*
X718903Y455237D01*
X720321Y453819D01*
X722173Y453052D01*
X724178D01*
X726031Y453819D01*
X727449Y455237D01*
X728216Y457090D01*
Y459095D01*
X727449Y460947D01*
X726031Y462365D01*
X724178Y463132D01*
D02*
G37*
G36*
X485136D02*
X483131D01*
X481279Y462365D01*
X479861Y460947D01*
X479094Y459095D01*
Y457090D01*
X479861Y455237D01*
X481279Y453819D01*
X483131Y453052D01*
X485136D01*
X486989Y453819D01*
X488407Y455237D01*
X489174Y457090D01*
Y459095D01*
X488407Y460947D01*
X486989Y462365D01*
X485136Y463132D01*
D02*
G37*
G36*
X1287654Y477195D02*
X1285649D01*
X1283797Y476428D01*
X1282379Y475010D01*
X1281612Y473158D01*
Y471153D01*
X1282379Y469300D01*
X1283428Y468251D01*
X1283752Y467711D01*
X1283477Y466640D01*
X1282633Y465796D01*
X1281866Y463944D01*
Y461939D01*
X1282633Y460086D01*
X1284051Y458669D01*
X1284425Y458513D01*
Y457139D01*
X1284145Y457023D01*
X1282727Y455605D01*
X1281960Y453753D01*
Y451748D01*
X1282727Y449895D01*
X1284145Y448477D01*
X1285997Y447710D01*
X1288002D01*
X1289855Y448477D01*
X1291273Y449895D01*
X1292040Y451748D01*
Y453753D01*
X1291273Y455605D01*
X1289855Y457023D01*
X1289480Y457178D01*
Y458553D01*
X1289760Y458669D01*
X1291178Y460086D01*
X1291946Y461939D01*
Y463944D01*
X1291178Y465796D01*
X1290129Y466846D01*
X1289805Y467386D01*
X1290080Y468456D01*
X1290924Y469300D01*
X1291692Y471153D01*
Y473158D01*
X1290924Y475010D01*
X1289507Y476428D01*
X1287654Y477195D01*
D02*
G37*
G36*
X252502Y440790D02*
X250497D01*
X248645Y440023D01*
X247227Y438605D01*
X246460Y436753D01*
Y434748D01*
X247227Y432895D01*
X248645Y431477D01*
X250497Y430710D01*
X252502D01*
X254355Y431477D01*
X255773Y432895D01*
X256540Y434748D01*
Y436753D01*
X255773Y438605D01*
X254355Y440023D01*
X252502Y440790D01*
D02*
G37*
G36*
X730428Y440632D02*
X728423D01*
X726571Y439865D01*
X725153Y438447D01*
X724386Y436595D01*
Y434590D01*
X725153Y432737D01*
X726571Y431319D01*
X728423Y430552D01*
X730428D01*
X732281Y431319D01*
X733699Y432737D01*
X734466Y434590D01*
Y436595D01*
X733699Y438447D01*
X732281Y439865D01*
X730428Y440632D01*
D02*
G37*
G36*
X491386D02*
X489381D01*
X487529Y439865D01*
X486111Y438447D01*
X485344Y436595D01*
Y434590D01*
X486111Y432737D01*
X487529Y431319D01*
X489381Y430552D01*
X491386D01*
X493239Y431319D01*
X494657Y432737D01*
X495424Y434590D01*
Y436595D01*
X494657Y438447D01*
X493239Y439865D01*
X491386Y440632D01*
D02*
G37*
G36*
X936003Y431290D02*
X933997D01*
X932145Y430523D01*
X930727Y429105D01*
X929960Y427253D01*
Y425247D01*
X930727Y423395D01*
X932145Y421977D01*
X933997Y421210D01*
X936003D01*
X937855Y421977D01*
X939273Y423395D01*
X940040Y425247D01*
Y427253D01*
X939273Y429105D01*
X937855Y430523D01*
X936003Y431290D01*
D02*
G37*
G36*
X901253Y430790D02*
X899248D01*
X897395Y430023D01*
X895977Y428605D01*
X895210Y426753D01*
Y424748D01*
X895977Y422895D01*
X897395Y421477D01*
X899248Y420710D01*
X901253D01*
X903105Y421477D01*
X904523Y422895D01*
X905290Y424748D01*
Y426753D01*
X904523Y428605D01*
X903105Y430023D01*
X901253Y430790D01*
D02*
G37*
G36*
X1023753Y430040D02*
X1021748D01*
X1019895Y429273D01*
X1018477Y427855D01*
X1017710Y426003D01*
Y423997D01*
X1018477Y422145D01*
X1019895Y420727D01*
X1021748Y419960D01*
X1023753D01*
X1025605Y420727D01*
X1027023Y422145D01*
X1027790Y423997D01*
Y426003D01*
X1027023Y427855D01*
X1025605Y429273D01*
X1023753Y430040D01*
D02*
G37*
G36*
X1069003Y425790D02*
X1066998D01*
X1065145Y425023D01*
X1063727Y423605D01*
X1062960Y421753D01*
Y419748D01*
X1063727Y417895D01*
X1065145Y416477D01*
X1066998Y415710D01*
X1069003D01*
X1070855Y416477D01*
X1072273Y417895D01*
X1073040Y419748D01*
Y421753D01*
X1072273Y423605D01*
X1070855Y425023D01*
X1069003Y425790D01*
D02*
G37*
G36*
X1378002Y414790D02*
X1375997D01*
X1374145Y414023D01*
X1372727Y412605D01*
X1371960Y410752D01*
Y408747D01*
X1372727Y406895D01*
X1374145Y405477D01*
X1375997Y404710D01*
X1378002D01*
X1379855Y405477D01*
X1381273Y406895D01*
X1382040Y408747D01*
Y410752D01*
X1381273Y412605D01*
X1379855Y414023D01*
X1378002Y414790D01*
D02*
G37*
G36*
X1116253Y412290D02*
X1114248D01*
X1112395Y411523D01*
X1110977Y410105D01*
X1110210Y408252D01*
Y406247D01*
X1110977Y404395D01*
X1112395Y402977D01*
X1114248Y402210D01*
X1116253D01*
X1118105Y402977D01*
X1119523Y404395D01*
X1120290Y406247D01*
Y408252D01*
X1119523Y410105D01*
X1118105Y411523D01*
X1116253Y412290D01*
D02*
G37*
G36*
X1089003Y401040D02*
X1086998D01*
X1085145Y400273D01*
X1083727Y398855D01*
X1082960Y397002D01*
Y394997D01*
X1083727Y393145D01*
X1085145Y391727D01*
X1086998Y390960D01*
X1089003D01*
X1090855Y391727D01*
X1092273Y393145D01*
X1093040Y394997D01*
Y397002D01*
X1092273Y398855D01*
X1090855Y400273D01*
X1089003Y401040D01*
D02*
G37*
G36*
X1195502Y434540D02*
X1193497D01*
X1191645Y433773D01*
X1190227Y432355D01*
X1189460Y430503D01*
Y428498D01*
X1190227Y426645D01*
X1191247Y425625D01*
X1190227Y424605D01*
X1189460Y422752D01*
Y420747D01*
X1190227Y418895D01*
X1191247Y417875D01*
X1190227Y416855D01*
X1189460Y415003D01*
Y412998D01*
X1190227Y411145D01*
X1191142Y410230D01*
X1190227Y409315D01*
X1189460Y407463D01*
Y405457D01*
X1190227Y403605D01*
X1191645Y402187D01*
X1192474Y401844D01*
Y400470D01*
X1191395Y400023D01*
X1189977Y398605D01*
X1189210Y396753D01*
Y394748D01*
X1189977Y392895D01*
X1191395Y391477D01*
X1193248Y390710D01*
X1195253D01*
X1197105Y391477D01*
X1198523Y392895D01*
X1199290Y394748D01*
Y396753D01*
X1198523Y398605D01*
X1197105Y400023D01*
X1196276Y400366D01*
Y401741D01*
X1197355Y402187D01*
X1198773Y403605D01*
X1199540Y405457D01*
Y407463D01*
X1198773Y409315D01*
X1197858Y410230D01*
X1198773Y411145D01*
X1199540Y412998D01*
Y415003D01*
X1198773Y416855D01*
X1197753Y417875D01*
X1198773Y418895D01*
X1199540Y420747D01*
Y422752D01*
X1198773Y424605D01*
X1197753Y425625D01*
X1198773Y426645D01*
X1199540Y428498D01*
Y430503D01*
X1198773Y432355D01*
X1197355Y433773D01*
X1195502Y434540D01*
D02*
G37*
G36*
X1454753Y396290D02*
X1452747D01*
X1450895Y395523D01*
X1449477Y394105D01*
X1448710Y392253D01*
Y390247D01*
X1449477Y388395D01*
X1450895Y386977D01*
X1452747Y386210D01*
X1454753D01*
X1456605Y386977D01*
X1458023Y388395D01*
X1458790Y390247D01*
Y392253D01*
X1458023Y394105D01*
X1456605Y395523D01*
X1454753Y396290D01*
D02*
G37*
G36*
X1161752Y388540D02*
X1159747D01*
X1157895Y387773D01*
X1156477Y386355D01*
X1155710Y384502D01*
Y382497D01*
X1156477Y380645D01*
X1157895Y379227D01*
X1159747Y378460D01*
X1161752D01*
X1163605Y379227D01*
X1165023Y380645D01*
X1165790Y382497D01*
Y384502D01*
X1165023Y386355D01*
X1163605Y387773D01*
X1161752Y388540D01*
D02*
G37*
G36*
X1494503Y385790D02*
X1492498D01*
X1490645Y385023D01*
X1489227Y383605D01*
X1488460Y381753D01*
Y379748D01*
X1489227Y377895D01*
X1490645Y376477D01*
X1492498Y375710D01*
X1494503D01*
X1496355Y376477D01*
X1497773Y377895D01*
X1498540Y379748D01*
Y381753D01*
X1497773Y383605D01*
X1496355Y385023D01*
X1494503Y385790D01*
D02*
G37*
G36*
X1313752Y437790D02*
X1311747D01*
X1309895Y437023D01*
X1308477Y435605D01*
X1307710Y433753D01*
Y431748D01*
X1308477Y429895D01*
X1309025Y429348D01*
X1309145Y428023D01*
X1307727Y426605D01*
X1306960Y424753D01*
Y422747D01*
X1307181Y422213D01*
X1306432Y420702D01*
X1305395Y420273D01*
X1303977Y418855D01*
X1303210Y417002D01*
Y414997D01*
X1302904Y414540D01*
X1301497D01*
X1299645Y413773D01*
X1298227Y412355D01*
X1297460Y410503D01*
Y408498D01*
X1296482Y407540D01*
X1295748D01*
X1293895Y406773D01*
X1292477Y405355D01*
X1291710Y403503D01*
Y401540D01*
X1290748D01*
X1288895Y400773D01*
X1287477Y399355D01*
X1286710Y397503D01*
Y395498D01*
X1287391Y393853D01*
X1287384Y393174D01*
X1287232Y392412D01*
X1286895Y392273D01*
X1285477Y390855D01*
X1284710Y389002D01*
Y386997D01*
X1285477Y385145D01*
X1286562Y384060D01*
X1286092Y382790D01*
X1285997D01*
X1284145Y382023D01*
X1282727Y380605D01*
X1281960Y378753D01*
Y376748D01*
X1282727Y374895D01*
X1284145Y373477D01*
X1285997Y372710D01*
X1288002D01*
X1289855Y373477D01*
X1291273Y374895D01*
X1292040Y376748D01*
Y378753D01*
X1291273Y380605D01*
X1290188Y381690D01*
X1290658Y382960D01*
X1290753D01*
X1292605Y383727D01*
X1294023Y385145D01*
X1294790Y386997D01*
Y389002D01*
X1294109Y390647D01*
X1294117Y391326D01*
X1294268Y392088D01*
X1294605Y392227D01*
X1296023Y393645D01*
X1296790Y395498D01*
Y397460D01*
X1297753D01*
X1299605Y398227D01*
X1301023Y399645D01*
X1301790Y401497D01*
Y403503D01*
X1302768Y404460D01*
X1303503D01*
X1305355Y405227D01*
X1306773Y406645D01*
X1307540Y408498D01*
Y410503D01*
X1307846Y410960D01*
X1309252D01*
X1311105Y411727D01*
X1312523Y413145D01*
X1313290Y414997D01*
Y417002D01*
X1313069Y417537D01*
X1313817Y419048D01*
X1314855Y419477D01*
X1316273Y420895D01*
X1317040Y422747D01*
Y424753D01*
X1316273Y426605D01*
X1315725Y427152D01*
X1315605Y428477D01*
X1317023Y429895D01*
X1317790Y431748D01*
Y433753D01*
X1317023Y435605D01*
X1315605Y437023D01*
X1313752Y437790D01*
D02*
G37*
G36*
X1142253Y375290D02*
X1140247D01*
X1138395Y374523D01*
X1136977Y373105D01*
X1136210Y371253D01*
Y369248D01*
X1136977Y367395D01*
X1138395Y365977D01*
X1140247Y365210D01*
X1142253D01*
X1144105Y365977D01*
X1145523Y367395D01*
X1146290Y369248D01*
Y371253D01*
X1145523Y373105D01*
X1144105Y374523D01*
X1142253Y375290D01*
D02*
G37*
G36*
X134250Y379663D02*
X111750D01*
X109296Y379175D01*
X107215Y377785D01*
X105825Y375704D01*
X105337Y373250D01*
Y365750D01*
X105825Y363296D01*
X107215Y361215D01*
X109296Y359825D01*
X111750Y359337D01*
X134250D01*
X136704Y359825D01*
X138785Y361215D01*
X140175Y363296D01*
X140663Y365750D01*
Y373250D01*
X140175Y375704D01*
X138785Y377785D01*
X136704Y379175D01*
X134250Y379663D01*
D02*
G37*
G36*
X938503Y357790D02*
X936497D01*
X934645Y357023D01*
X933227Y355605D01*
X932460Y353753D01*
Y351748D01*
X933227Y349895D01*
X934645Y348477D01*
X936497Y347710D01*
X938503D01*
X940355Y348477D01*
X941773Y349895D01*
X942540Y351748D01*
Y353753D01*
X941773Y355605D01*
X940355Y357023D01*
X938503Y357790D01*
D02*
G37*
G36*
X1372003Y357290D02*
X1369998D01*
X1368145Y356523D01*
X1366727Y355105D01*
X1365960Y353252D01*
Y351247D01*
X1366727Y349395D01*
X1368145Y347977D01*
X1369998Y347210D01*
X1372003D01*
X1373855Y347977D01*
X1375273Y349395D01*
X1376040Y351247D01*
Y353252D01*
X1375273Y355105D01*
X1373855Y356523D01*
X1372003Y357290D01*
D02*
G37*
G36*
X1296752D02*
X1294747D01*
X1292895Y356523D01*
X1291477Y355105D01*
X1290710Y353252D01*
Y351247D01*
X1291477Y349395D01*
X1292895Y347977D01*
X1294747Y347210D01*
X1296752D01*
X1298605Y347977D01*
X1300023Y349395D01*
X1300790Y351247D01*
Y353252D01*
X1300023Y355105D01*
X1298605Y356523D01*
X1296752Y357290D01*
D02*
G37*
G36*
X1046752Y352040D02*
X1044747D01*
X1042895Y351273D01*
X1041477Y349855D01*
X1040710Y348003D01*
Y345998D01*
X1041477Y344145D01*
X1042895Y342727D01*
X1044747Y341960D01*
X1046752D01*
X1048605Y342727D01*
X1050023Y344145D01*
X1050790Y345998D01*
Y348003D01*
X1050023Y349855D01*
X1048605Y351273D01*
X1046752Y352040D01*
D02*
G37*
G36*
X483753Y351290D02*
X481748D01*
X479895Y350523D01*
X478477Y349105D01*
X477710Y347253D01*
Y345247D01*
X478477Y343395D01*
X479895Y341977D01*
X481748Y341210D01*
X483753D01*
X485605Y341977D01*
X487023Y343395D01*
X487790Y345247D01*
Y347253D01*
X487023Y349105D01*
X485605Y350523D01*
X483753Y351290D01*
D02*
G37*
G36*
X1117503Y351040D02*
X1115498D01*
X1113645Y350273D01*
X1112227Y348855D01*
X1111460Y347002D01*
Y344997D01*
X1112227Y343145D01*
X1113645Y341727D01*
X1115498Y340960D01*
X1117503D01*
X1119355Y341727D01*
X1120773Y343145D01*
X1121540Y344997D01*
Y347002D01*
X1120773Y348855D01*
X1119355Y350273D01*
X1117503Y351040D01*
D02*
G37*
G36*
X933753Y344540D02*
X931748D01*
X929895Y343773D01*
X928477Y342355D01*
X927710Y340503D01*
Y338498D01*
X928477Y336645D01*
X929895Y335227D01*
X931748Y334460D01*
X933753D01*
X935605Y335227D01*
X937023Y336645D01*
X937790Y338498D01*
Y340503D01*
X937023Y342355D01*
X935605Y343773D01*
X933753Y344540D01*
D02*
G37*
G36*
X1297003Y339540D02*
X1294998D01*
X1293145Y338773D01*
X1291727Y337355D01*
X1290960Y335503D01*
Y333498D01*
X1291727Y331645D01*
X1293145Y330227D01*
X1294998Y329460D01*
X1297003D01*
X1298855Y330227D01*
X1300273Y331645D01*
X1301040Y333498D01*
Y335503D01*
X1300273Y337355D01*
X1298855Y338773D01*
X1297003Y339540D01*
D02*
G37*
G36*
X1372003Y339040D02*
X1369998D01*
X1368145Y338273D01*
X1366727Y336855D01*
X1365960Y335003D01*
Y332998D01*
X1366727Y331145D01*
X1368145Y329727D01*
X1369998Y328960D01*
X1372003D01*
X1373855Y329727D01*
X1375273Y331145D01*
X1376040Y332998D01*
Y335003D01*
X1375273Y336855D01*
X1373855Y338273D01*
X1372003Y339040D01*
D02*
G37*
G36*
X1194003D02*
X1191998D01*
X1190145Y338273D01*
X1188727Y336855D01*
X1187960Y335003D01*
Y332998D01*
X1188727Y331145D01*
X1190145Y329727D01*
X1191998Y328960D01*
X1194003D01*
X1195855Y329727D01*
X1197273Y331145D01*
X1198040Y332998D01*
Y335003D01*
X1197273Y336855D01*
X1195855Y338273D01*
X1194003Y339040D01*
D02*
G37*
G36*
X1117753Y338790D02*
X1115748D01*
X1113895Y338023D01*
X1112477Y336605D01*
X1111710Y334753D01*
Y332747D01*
X1112477Y330895D01*
X1113895Y329477D01*
X1115748Y328710D01*
X1117753D01*
X1119605Y329477D01*
X1121023Y330895D01*
X1121790Y332747D01*
Y334753D01*
X1121023Y336605D01*
X1119605Y338023D01*
X1117753Y338790D01*
D02*
G37*
G36*
X315002Y338290D02*
X312997D01*
X311145Y337523D01*
X309727Y336105D01*
X308960Y334253D01*
Y332248D01*
X309727Y330395D01*
X311145Y328977D01*
X312997Y328210D01*
X315002D01*
X316855Y328977D01*
X318273Y330395D01*
X319040Y332248D01*
Y334253D01*
X318273Y336105D01*
X316855Y337523D01*
X315002Y338290D01*
D02*
G37*
G36*
X1058252Y349040D02*
X1056247D01*
X1054395Y348273D01*
X1052977Y346855D01*
X1052210Y345003D01*
Y342998D01*
X1052977Y341145D01*
X1054395Y339727D01*
X1056247Y338960D01*
X1058252D01*
X1058787Y339181D01*
X1059037Y339090D01*
X1059960Y338293D01*
Y336748D01*
X1060727Y334895D01*
X1062145Y333477D01*
X1063997Y332710D01*
X1065960D01*
Y330747D01*
X1066727Y328895D01*
X1068145Y327477D01*
X1069997Y326710D01*
X1072002D01*
X1072971Y325737D01*
X1072460Y324502D01*
Y322497D01*
X1073227Y320645D01*
X1074645Y319227D01*
X1076497Y318460D01*
X1078503D01*
X1080355Y319227D01*
X1081773Y320645D01*
X1082540Y322497D01*
Y324502D01*
X1081773Y326355D01*
X1080355Y327773D01*
X1078503Y328540D01*
X1076497D01*
X1075529Y329513D01*
X1076040Y330747D01*
Y332752D01*
X1075273Y334605D01*
X1073855Y336023D01*
X1072002Y336790D01*
X1070040D01*
Y338753D01*
X1069273Y340605D01*
X1067855Y342023D01*
X1066003Y342790D01*
X1063997D01*
X1063463Y342569D01*
X1063213Y342660D01*
X1062290Y343457D01*
Y345003D01*
X1061523Y346855D01*
X1060105Y348273D01*
X1058252Y349040D01*
D02*
G37*
G36*
X185072Y359040D02*
X180928D01*
X176863Y358231D01*
X173034Y356645D01*
X169588Y354343D01*
X166657Y351412D01*
X164355Y347966D01*
X162769Y344137D01*
X161960Y340072D01*
Y335928D01*
X162769Y331863D01*
X164355Y328034D01*
X166657Y324588D01*
X169588Y321657D01*
X173034Y319355D01*
X176863Y317769D01*
X180928Y316960D01*
X185072D01*
X189137Y317769D01*
X192966Y319355D01*
X196412Y321657D01*
X199343Y324588D01*
X201645Y328034D01*
X203231Y331863D01*
X204040Y335928D01*
Y340072D01*
X203231Y344137D01*
X201645Y347966D01*
X199343Y351412D01*
X196412Y354343D01*
X192966Y356645D01*
X189137Y358231D01*
X185072Y359040D01*
D02*
G37*
G36*
X1297003Y322790D02*
X1294998D01*
X1293145Y322023D01*
X1291727Y320605D01*
X1290960Y318752D01*
Y316747D01*
X1291727Y314895D01*
X1293145Y313477D01*
X1294998Y312710D01*
X1297003D01*
X1298855Y313477D01*
X1300273Y314895D01*
X1301040Y316747D01*
Y318752D01*
X1300273Y320605D01*
X1298855Y322023D01*
X1297003Y322790D01*
D02*
G37*
G36*
X1372003Y321040D02*
X1369998D01*
X1368145Y320273D01*
X1366727Y318855D01*
X1365960Y317003D01*
Y314998D01*
X1366727Y313145D01*
X1368145Y311727D01*
X1369998Y310960D01*
X1372003D01*
X1373855Y311727D01*
X1375273Y313145D01*
X1376040Y314998D01*
Y317003D01*
X1375273Y318855D01*
X1373855Y320273D01*
X1372003Y321040D01*
D02*
G37*
G36*
X1118002D02*
X1115997D01*
X1114145Y320273D01*
X1112727Y318855D01*
X1111960Y317003D01*
Y314998D01*
X1112727Y313145D01*
X1114145Y311727D01*
X1115997Y310960D01*
X1118002D01*
X1119855Y311727D01*
X1121273Y313145D01*
X1122040Y314998D01*
Y317003D01*
X1121273Y318855D01*
X1119855Y320273D01*
X1118002Y321040D01*
D02*
G37*
G36*
X1194003Y320790D02*
X1191998D01*
X1190145Y320023D01*
X1188727Y318605D01*
X1187960Y316752D01*
Y314748D01*
X1188727Y312895D01*
X1190145Y311477D01*
X1191998Y310710D01*
X1194003D01*
X1195855Y311477D01*
X1197273Y312895D01*
X1198040Y314748D01*
Y316752D01*
X1197273Y318605D01*
X1195855Y320023D01*
X1194003Y320790D01*
D02*
G37*
G36*
X1207753Y320540D02*
X1205748D01*
X1203895Y319773D01*
X1202477Y318355D01*
X1201710Y316502D01*
Y314498D01*
X1202477Y312645D01*
X1203895Y311227D01*
X1205748Y310460D01*
X1207753D01*
X1209605Y311227D01*
X1211023Y312645D01*
X1211790Y314498D01*
Y316502D01*
X1211023Y318355D01*
X1209605Y319773D01*
X1207753Y320540D01*
D02*
G37*
G36*
X356502Y317040D02*
X354497D01*
X352645Y316273D01*
X351227Y314855D01*
X350460Y313002D01*
Y310998D01*
X351227Y309145D01*
X352645Y307727D01*
X354497Y306960D01*
X356502D01*
X358355Y307727D01*
X359773Y309145D01*
X360540Y310998D01*
Y313002D01*
X359773Y314855D01*
X358355Y316273D01*
X356502Y317040D01*
D02*
G37*
G36*
X1031003Y305540D02*
X1028997D01*
X1027145Y304773D01*
X1025727Y303355D01*
X1024960Y301502D01*
Y299498D01*
X1025727Y297645D01*
X1027145Y296227D01*
X1028997Y295460D01*
X1031003D01*
X1032855Y296227D01*
X1034273Y297645D01*
X1035040Y299498D01*
Y301502D01*
X1034273Y303355D01*
X1032855Y304773D01*
X1031003Y305540D01*
D02*
G37*
G36*
X1296752Y303540D02*
X1294747D01*
X1292895Y302773D01*
X1291477Y301355D01*
X1290710Y299503D01*
Y297498D01*
X1291477Y295645D01*
X1292895Y294227D01*
X1294747Y293460D01*
X1296752D01*
X1298605Y294227D01*
X1300023Y295645D01*
X1300790Y297498D01*
Y299503D01*
X1300023Y301355D01*
X1298605Y302773D01*
X1296752Y303540D01*
D02*
G37*
G36*
X1372253Y302790D02*
X1370247D01*
X1368395Y302023D01*
X1366977Y300605D01*
X1366210Y298752D01*
Y296747D01*
X1366977Y294895D01*
X1368395Y293477D01*
X1370247Y292710D01*
X1372253D01*
X1374105Y293477D01*
X1375523Y294895D01*
X1376290Y296747D01*
Y298752D01*
X1375523Y300605D01*
X1374105Y302023D01*
X1372253Y302790D01*
D02*
G37*
G36*
X1194003D02*
X1191998D01*
X1190145Y302023D01*
X1188727Y300605D01*
X1187960Y298752D01*
Y296747D01*
X1188727Y294895D01*
X1190145Y293477D01*
X1191998Y292710D01*
X1194003D01*
X1195855Y293477D01*
X1197273Y294895D01*
X1198040Y296747D01*
Y298752D01*
X1197273Y300605D01*
X1195855Y302023D01*
X1194003Y302790D01*
D02*
G37*
G36*
X1207753Y302540D02*
X1205748D01*
X1203895Y301773D01*
X1202477Y300355D01*
X1201710Y298503D01*
Y296497D01*
X1202477Y294645D01*
X1203895Y293227D01*
X1205748Y292460D01*
X1207753D01*
X1209605Y293227D01*
X1211023Y294645D01*
X1211790Y296497D01*
Y298503D01*
X1211023Y300355D01*
X1209605Y301773D01*
X1207753Y302540D01*
D02*
G37*
G36*
X1118252D02*
X1116247D01*
X1114395Y301773D01*
X1112977Y300355D01*
X1112210Y298503D01*
Y296497D01*
X1112977Y294645D01*
X1114395Y293227D01*
X1116247Y292460D01*
X1118252D01*
X1120105Y293227D01*
X1121523Y294645D01*
X1122290Y296497D01*
Y298503D01*
X1121523Y300355D01*
X1120105Y301773D01*
X1118252Y302540D01*
D02*
G37*
G36*
X857753Y339540D02*
X855748D01*
X853895Y338773D01*
X852477Y337355D01*
X851710Y335503D01*
Y333498D01*
X852477Y331645D01*
X853895Y330227D01*
X855748Y329460D01*
X856835D01*
X857710Y328252D01*
Y326247D01*
X858477Y324395D01*
X859895Y322977D01*
X861748Y322210D01*
X862896D01*
X863745Y320940D01*
X863460Y320252D01*
Y318248D01*
X864227Y316395D01*
X865645Y314977D01*
X867497Y314210D01*
X869250D01*
X869893Y313566D01*
X870169Y313112D01*
X869710Y312003D01*
Y309998D01*
X870477Y308145D01*
X871895Y306727D01*
X873747Y305960D01*
X875646D01*
X876052Y305596D01*
X876596Y304935D01*
X876210Y304002D01*
Y301998D01*
X876977Y300145D01*
X878395Y298727D01*
X880247Y297960D01*
X881086D01*
X881960Y296752D01*
Y294748D01*
X882727Y292895D01*
X884145Y291477D01*
X885997Y290710D01*
X888002D01*
X889855Y291477D01*
X891273Y292895D01*
X892040Y294748D01*
Y296752D01*
X891273Y298605D01*
X889855Y300023D01*
X888002Y300790D01*
X887165D01*
X886290Y301998D01*
Y304002D01*
X885523Y305855D01*
X884105Y307273D01*
X882253Y308040D01*
X880354D01*
X879948Y308404D01*
X879404Y309065D01*
X879790Y309998D01*
Y312003D01*
X879023Y313855D01*
X877605Y315273D01*
X875752Y316040D01*
X874000D01*
X873357Y316684D01*
X873081Y317138D01*
X873540Y318248D01*
Y320252D01*
X872773Y322105D01*
X871355Y323523D01*
X869502Y324290D01*
X868354D01*
X867505Y325560D01*
X867790Y326247D01*
Y328252D01*
X867023Y330105D01*
X865605Y331523D01*
X863753Y332290D01*
X862664D01*
X861790Y333498D01*
Y335503D01*
X861023Y337355D01*
X859605Y338773D01*
X857753Y339540D01*
D02*
G37*
G36*
X771503Y291790D02*
X769498D01*
X767645Y291023D01*
X766227Y289605D01*
X765460Y287752D01*
Y285748D01*
X766227Y283895D01*
X767645Y282477D01*
X769498Y281710D01*
X771503D01*
X773355Y282477D01*
X774773Y283895D01*
X775540Y285748D01*
Y287752D01*
X774773Y289605D01*
X773355Y291023D01*
X771503Y291790D01*
D02*
G37*
G36*
X853002Y291290D02*
X850997D01*
X849145Y290523D01*
X847727Y289105D01*
X846960Y287253D01*
Y285247D01*
X847727Y283395D01*
X849145Y281977D01*
X850997Y281210D01*
X853002D01*
X854855Y281977D01*
X856273Y283395D01*
X857040Y285247D01*
Y287253D01*
X856273Y289105D01*
X854855Y290523D01*
X853002Y291290D01*
D02*
G37*
G36*
X443503D02*
X441497D01*
X439645Y290523D01*
X438227Y289105D01*
X437460Y287253D01*
Y285247D01*
X438227Y283395D01*
X439645Y281977D01*
X441497Y281210D01*
X443503D01*
X445355Y281977D01*
X446773Y283395D01*
X447540Y285247D01*
Y287253D01*
X446773Y289105D01*
X445355Y290523D01*
X443503Y291290D01*
D02*
G37*
G36*
X1038753Y296040D02*
X1036748D01*
X1034895Y295273D01*
X1033477Y293855D01*
X1032710Y292003D01*
Y289998D01*
X1033477Y288145D01*
X1034895Y286727D01*
X1036748Y285960D01*
X1038085D01*
X1038972Y284781D01*
X1038960Y284753D01*
Y282747D01*
X1039727Y280895D01*
X1041145Y279477D01*
X1042998Y278710D01*
X1045003D01*
X1046855Y279477D01*
X1048273Y280895D01*
X1049040Y282747D01*
Y284753D01*
X1048273Y286605D01*
X1046855Y288023D01*
X1045003Y288790D01*
X1043664D01*
X1042778Y289969D01*
X1042790Y289998D01*
Y292003D01*
X1042023Y293855D01*
X1040605Y295273D01*
X1038753Y296040D01*
D02*
G37*
G36*
X642253Y288040D02*
X640247D01*
X638395Y287273D01*
X636977Y285855D01*
X636210Y284002D01*
Y281998D01*
X636977Y280145D01*
X638395Y278727D01*
X640247Y277960D01*
X642253D01*
X644105Y278727D01*
X645523Y280145D01*
X646290Y281998D01*
Y284002D01*
X645523Y285855D01*
X644105Y287273D01*
X642253Y288040D01*
D02*
G37*
G36*
X666253Y287790D02*
X664248D01*
X662395Y287023D01*
X660977Y285605D01*
X660210Y283752D01*
Y281747D01*
X660977Y279895D01*
X662395Y278477D01*
X664248Y277710D01*
X666253D01*
X668105Y278477D01*
X669523Y279895D01*
X670290Y281747D01*
Y283752D01*
X669523Y285605D01*
X668105Y287023D01*
X666253Y287790D01*
D02*
G37*
G36*
X1296752Y285540D02*
X1294747D01*
X1292895Y284773D01*
X1291477Y283355D01*
X1290710Y281502D01*
Y279498D01*
X1291477Y277645D01*
X1292895Y276227D01*
X1294747Y275460D01*
X1296752D01*
X1298605Y276227D01*
X1300023Y277645D01*
X1300790Y279498D01*
Y281502D01*
X1300023Y283355D01*
X1298605Y284773D01*
X1296752Y285540D01*
D02*
G37*
G36*
X1208252Y285290D02*
X1206247D01*
X1204395Y284523D01*
X1202977Y283105D01*
X1202210Y281252D01*
Y279247D01*
X1202977Y277395D01*
X1204395Y275977D01*
X1206247Y275210D01*
X1208252D01*
X1210105Y275977D01*
X1211523Y277395D01*
X1212290Y279247D01*
Y281252D01*
X1211523Y283105D01*
X1210105Y284523D01*
X1208252Y285290D01*
D02*
G37*
G36*
X1283002Y285040D02*
X1280997D01*
X1279145Y284273D01*
X1277727Y282855D01*
X1276960Y281003D01*
Y278997D01*
X1277727Y277145D01*
X1279145Y275727D01*
X1280997Y274960D01*
X1283002D01*
X1284855Y275727D01*
X1286273Y277145D01*
X1287040Y278997D01*
Y281003D01*
X1286273Y282855D01*
X1284855Y284273D01*
X1283002Y285040D01*
D02*
G37*
G36*
X1193503D02*
X1191497D01*
X1189645Y284273D01*
X1188227Y282855D01*
X1187460Y281003D01*
Y278997D01*
X1188227Y277145D01*
X1189645Y275727D01*
X1191497Y274960D01*
X1193503D01*
X1195355Y275727D01*
X1196773Y277145D01*
X1197540Y278997D01*
Y281003D01*
X1196773Y282855D01*
X1195355Y284273D01*
X1193503Y285040D01*
D02*
G37*
G36*
X1372753Y284790D02*
X1370748D01*
X1368895Y284023D01*
X1367477Y282605D01*
X1366710Y280753D01*
Y278748D01*
X1367477Y276895D01*
X1368895Y275477D01*
X1370748Y274710D01*
X1372753D01*
X1374605Y275477D01*
X1376023Y276895D01*
X1376790Y278748D01*
Y280753D01*
X1376023Y282605D01*
X1374605Y284023D01*
X1372753Y284790D01*
D02*
G37*
G36*
X1118503D02*
X1116497D01*
X1114645Y284023D01*
X1113227Y282605D01*
X1112460Y280753D01*
Y278748D01*
X1113227Y276895D01*
X1114645Y275477D01*
X1116497Y274710D01*
X1118503D01*
X1120355Y275477D01*
X1121773Y276895D01*
X1122540Y278748D01*
Y280753D01*
X1121773Y282605D01*
X1120355Y284023D01*
X1118503Y284790D01*
D02*
G37*
G36*
X1524003Y275790D02*
X1521998D01*
X1520145Y275023D01*
X1518727Y273605D01*
X1518708Y273559D01*
X1517329Y273548D01*
X1516105Y274773D01*
X1514252Y275540D01*
X1512247D01*
X1510395Y274773D01*
X1508977Y273355D01*
X1508210Y271502D01*
Y269498D01*
X1508977Y267645D01*
X1510395Y266227D01*
X1512247Y265460D01*
X1514252D01*
X1516105Y266227D01*
X1517523Y267645D01*
X1517542Y267691D01*
X1518921Y267702D01*
X1520145Y266477D01*
X1521998Y265710D01*
X1524003D01*
X1525855Y266477D01*
X1527273Y267895D01*
X1528040Y269748D01*
Y271752D01*
X1527273Y273605D01*
X1525855Y275023D01*
X1524003Y275790D01*
D02*
G37*
G36*
X589253Y283540D02*
X587248D01*
X585395Y282773D01*
X583977Y281355D01*
X583210Y279503D01*
Y277498D01*
X583977Y275645D01*
X585395Y274227D01*
X587248Y273460D01*
X589253D01*
X591105Y274227D01*
X592523Y275645D01*
X593290Y277498D01*
Y279503D01*
X592523Y281355D01*
X591105Y282773D01*
X589253Y283540D01*
D02*
G37*
G36*
X560752D02*
X558747D01*
X556895Y282773D01*
X555477Y281355D01*
X554710Y279503D01*
Y277498D01*
X555477Y275645D01*
X556895Y274227D01*
X558747Y273460D01*
X560752D01*
X562605Y274227D01*
X564023Y275645D01*
X564790Y277498D01*
Y279503D01*
X564023Y281355D01*
X562605Y282773D01*
X560752Y283540D01*
D02*
G37*
G36*
X509502Y281540D02*
X507497D01*
X505645Y280773D01*
X504227Y279355D01*
X503460Y277502D01*
Y275497D01*
X504227Y273645D01*
X505645Y272227D01*
X507497Y271460D01*
X509502D01*
X511355Y272227D01*
X512773Y273645D01*
X513540Y275497D01*
Y277502D01*
X512773Y279355D01*
X511355Y280773D01*
X509502Y281540D01*
D02*
G37*
G36*
X492002D02*
X489997D01*
X488145Y280773D01*
X486727Y279355D01*
X485960Y277502D01*
Y275497D01*
X486727Y273645D01*
X488145Y272227D01*
X489997Y271460D01*
X492002D01*
X493855Y272227D01*
X495273Y273645D01*
X496040Y275497D01*
Y277502D01*
X495273Y279355D01*
X493855Y280773D01*
X492002Y281540D01*
D02*
G37*
G36*
X475003D02*
X472998D01*
X471145Y280773D01*
X469727Y279355D01*
X468960Y277502D01*
Y275497D01*
X469727Y273645D01*
X471145Y272227D01*
X472998Y271460D01*
X475003D01*
X476855Y272227D01*
X478273Y273645D01*
X479040Y275497D01*
Y277502D01*
X478273Y279355D01*
X476855Y280773D01*
X475003Y281540D01*
D02*
G37*
G36*
X459253Y281290D02*
X457248D01*
X455395Y280523D01*
X453977Y279105D01*
X453210Y277253D01*
Y275247D01*
X453977Y273395D01*
X455395Y271977D01*
X457248Y271210D01*
X459253D01*
X461105Y271977D01*
X462523Y273395D01*
X463290Y275247D01*
Y277253D01*
X462523Y279105D01*
X461105Y280523D01*
X459253Y281290D01*
D02*
G37*
G36*
X188080Y286442D02*
Y271080D01*
X203442D01*
X203231Y272137D01*
X201645Y275966D01*
X199343Y279412D01*
X196412Y282343D01*
X192966Y284645D01*
X189137Y286231D01*
X188080Y286442D01*
D02*
G37*
G36*
X177920D02*
X176863Y286231D01*
X173034Y284645D01*
X169588Y282343D01*
X166657Y279412D01*
X164355Y275966D01*
X162769Y272137D01*
X162558Y271080D01*
X177920D01*
Y286442D01*
D02*
G37*
G36*
X526003Y279040D02*
X523997D01*
X522145Y278273D01*
X520727Y276855D01*
X519960Y275002D01*
Y272997D01*
X520727Y271145D01*
X522145Y269727D01*
X523997Y268960D01*
X526003D01*
X527855Y269727D01*
X529273Y271145D01*
X530040Y272997D01*
Y275002D01*
X529273Y276855D01*
X527855Y278273D01*
X526003Y279040D01*
D02*
G37*
G36*
X1544753Y276040D02*
X1542747D01*
X1540895Y275273D01*
X1539477Y273855D01*
X1538710Y272003D01*
Y269998D01*
X1539477Y268145D01*
X1540895Y266727D01*
X1542747Y265960D01*
X1544753D01*
X1546605Y266727D01*
X1548023Y268145D01*
X1548790Y269998D01*
Y272003D01*
X1548023Y273855D01*
X1546605Y275273D01*
X1544753Y276040D01*
D02*
G37*
G36*
X872253Y275040D02*
X870247D01*
X868395Y274273D01*
X866977Y272855D01*
X866210Y271003D01*
Y268997D01*
X866977Y267145D01*
X868395Y265727D01*
X870247Y264960D01*
X872253D01*
X874105Y265727D01*
X875523Y267145D01*
X876290Y268997D01*
Y271003D01*
X875523Y272855D01*
X874105Y274273D01*
X872253Y275040D01*
D02*
G37*
G36*
X800253Y281290D02*
X798248D01*
X796395Y280523D01*
X794977Y279105D01*
X794210Y277253D01*
Y275247D01*
X794977Y273395D01*
X796395Y271977D01*
X798248Y271210D01*
X800253D01*
X800301Y271230D01*
X801273Y270258D01*
X800960Y269503D01*
Y267498D01*
X801727Y265645D01*
X803145Y264227D01*
X804997Y263460D01*
X807002D01*
X808855Y264227D01*
X810273Y265645D01*
X811040Y267498D01*
Y269503D01*
X810273Y271355D01*
X808855Y272773D01*
X807002Y273540D01*
X804997D01*
X804949Y273520D01*
X803977Y274492D01*
X804290Y275247D01*
Y277253D01*
X803523Y279105D01*
X802105Y280523D01*
X800253Y281290D01*
D02*
G37*
G36*
X1484252Y272742D02*
X1482247D01*
X1480394Y271975D01*
X1478977Y270557D01*
X1478209Y268704D01*
Y266700D01*
X1478977Y264847D01*
X1480394Y263429D01*
X1482247Y262662D01*
X1484252D01*
X1486104Y263429D01*
X1487522Y264847D01*
X1488289Y266700D01*
Y268704D01*
X1487522Y270557D01*
X1486104Y271975D01*
X1484252Y272742D01*
D02*
G37*
G36*
X576502Y270290D02*
X574497D01*
X572645Y269523D01*
X571227Y268105D01*
X570460Y266252D01*
Y264247D01*
X571227Y262395D01*
X572645Y260977D01*
X574497Y260210D01*
X576502D01*
X578355Y260977D01*
X579773Y262395D01*
X580540Y264247D01*
Y266252D01*
X579773Y268105D01*
X578355Y269523D01*
X576502Y270290D01*
D02*
G37*
G36*
X607002Y269290D02*
X604997D01*
X603145Y268523D01*
X601727Y267105D01*
X600960Y265252D01*
Y263248D01*
X601727Y261395D01*
X603145Y259977D01*
X604997Y259210D01*
X607002D01*
X608855Y259977D01*
X610273Y261395D01*
X611040Y263248D01*
Y265252D01*
X610273Y267105D01*
X608855Y268523D01*
X607002Y269290D01*
D02*
G37*
G36*
X203442Y260920D02*
X188080D01*
Y245558D01*
X189137Y245769D01*
X192966Y247355D01*
X196412Y249657D01*
X199343Y252588D01*
X201645Y256034D01*
X203231Y259863D01*
X203442Y260920D01*
D02*
G37*
G36*
X177920D02*
X162558D01*
X162769Y259863D01*
X164355Y256034D01*
X166657Y252588D01*
X169588Y249657D01*
X173034Y247355D01*
X176863Y245769D01*
X177920Y245558D01*
Y260920D01*
D02*
G37*
G36*
X607503Y253790D02*
X605498D01*
X603645Y253023D01*
X602227Y251605D01*
X601460Y249753D01*
Y247747D01*
X602227Y245895D01*
X603645Y244477D01*
X605498Y243710D01*
X607503D01*
X609355Y244477D01*
X610773Y245895D01*
X611540Y247747D01*
Y249753D01*
X610773Y251605D01*
X609355Y253023D01*
X607503Y253790D01*
D02*
G37*
G36*
X1092253Y249040D02*
X1090247D01*
X1088395Y248273D01*
X1086977Y246855D01*
X1086210Y245002D01*
Y242997D01*
X1086977Y241145D01*
X1088395Y239727D01*
X1090247Y238960D01*
X1092253D01*
X1094105Y239727D01*
X1095523Y241145D01*
X1096290Y242997D01*
Y245002D01*
X1095523Y246855D01*
X1094105Y248273D01*
X1092253Y249040D01*
D02*
G37*
G36*
X1553503Y247290D02*
X1551497D01*
X1549645Y246523D01*
X1548227Y245105D01*
X1547460Y243253D01*
Y241248D01*
X1548227Y239395D01*
X1549645Y237977D01*
X1551497Y237210D01*
X1553503D01*
X1555355Y237977D01*
X1556773Y239395D01*
X1557540Y241248D01*
Y243253D01*
X1556773Y245105D01*
X1555355Y246523D01*
X1553503Y247290D01*
D02*
G37*
G36*
X742253Y237540D02*
X740247D01*
X738395Y236773D01*
X736977Y235355D01*
X736210Y233503D01*
Y231497D01*
X736977Y229645D01*
X738395Y228227D01*
X740247Y227460D01*
X742253D01*
X744105Y228227D01*
X745523Y229645D01*
X746290Y231497D01*
Y233503D01*
X745523Y235355D01*
X744105Y236773D01*
X742253Y237540D01*
D02*
G37*
G36*
X607503Y235790D02*
X605498D01*
X603645Y235023D01*
X602227Y233605D01*
X601460Y231752D01*
Y229748D01*
X602227Y227895D01*
X603645Y226477D01*
X605498Y225710D01*
X607503D01*
X609355Y226477D01*
X610773Y227895D01*
X611540Y229748D01*
Y231752D01*
X610773Y233605D01*
X609355Y235023D01*
X607503Y235790D01*
D02*
G37*
G36*
X134250Y244663D02*
X111750D01*
X109296Y244175D01*
X107215Y242785D01*
X105825Y240704D01*
X105337Y238250D01*
Y230750D01*
X105825Y228296D01*
X107215Y226215D01*
X109296Y224825D01*
X111750Y224337D01*
X134250D01*
X136704Y224825D01*
X138785Y226215D01*
X140175Y228296D01*
X140663Y230750D01*
Y238250D01*
X140175Y240704D01*
X138785Y242785D01*
X136704Y244175D01*
X134250Y244663D01*
D02*
G37*
G36*
X1553253Y228290D02*
X1551248D01*
X1549395Y227523D01*
X1547977Y226105D01*
X1547210Y224252D01*
Y222248D01*
X1547977Y220395D01*
X1549395Y218977D01*
X1551248Y218210D01*
X1553253D01*
X1555105Y218977D01*
X1556523Y220395D01*
X1557290Y222248D01*
Y224252D01*
X1556523Y226105D01*
X1555105Y227523D01*
X1553253Y228290D01*
D02*
G37*
G36*
X975253Y226040D02*
X973248D01*
X971395Y225273D01*
X969977Y223855D01*
X969210Y222003D01*
Y219998D01*
X969977Y218145D01*
X971395Y216727D01*
X973248Y215960D01*
X975253D01*
X977105Y216727D01*
X978523Y218145D01*
X979290Y219998D01*
Y222003D01*
X978523Y223855D01*
X977105Y225273D01*
X975253Y226040D01*
D02*
G37*
G36*
X1530253Y219040D02*
X1528248D01*
X1526395Y218273D01*
X1524977Y216855D01*
X1524210Y215002D01*
Y212997D01*
X1524977Y211145D01*
X1526395Y209727D01*
X1528248Y208960D01*
X1530253D01*
X1532105Y209727D01*
X1533523Y211145D01*
X1534290Y212997D01*
Y215002D01*
X1533523Y216855D01*
X1532105Y218273D01*
X1530253Y219040D01*
D02*
G37*
G36*
X1468752D02*
X1466747D01*
X1464895Y218273D01*
X1463477Y216855D01*
X1462710Y215002D01*
Y212997D01*
X1463477Y211145D01*
X1464895Y209727D01*
X1466747Y208960D01*
X1468752D01*
X1470605Y209727D01*
X1472023Y211145D01*
X1472790Y212997D01*
Y215002D01*
X1472023Y216855D01*
X1470605Y218273D01*
X1468752Y219040D01*
D02*
G37*
G36*
X940253Y218040D02*
X938248D01*
X936395Y217273D01*
X934977Y215855D01*
X934210Y214002D01*
Y211998D01*
X934977Y210145D01*
X936395Y208727D01*
X938248Y207960D01*
X940253D01*
X942105Y208727D01*
X943523Y210145D01*
X944290Y211998D01*
Y214002D01*
X943523Y215855D01*
X942105Y217273D01*
X940253Y218040D01*
D02*
G37*
G36*
X607752D02*
X605747D01*
X603895Y217273D01*
X602477Y215855D01*
X601710Y214002D01*
Y211998D01*
X602477Y210145D01*
X603895Y208727D01*
X605747Y207960D01*
X607752D01*
X609605Y208727D01*
X611023Y210145D01*
X611790Y211998D01*
Y214002D01*
X611023Y215855D01*
X609605Y217273D01*
X607752Y218040D01*
D02*
G37*
G36*
X928503Y217790D02*
X926497D01*
X924645Y217023D01*
X923227Y215605D01*
X922460Y213752D01*
Y211747D01*
X923227Y209895D01*
X924645Y208477D01*
X926497Y207710D01*
X928503D01*
X930355Y208477D01*
X931773Y209895D01*
X932540Y211747D01*
Y213752D01*
X931773Y215605D01*
X930355Y217023D01*
X928503Y217790D01*
D02*
G37*
G36*
X1049753Y211790D02*
X1047747D01*
X1045895Y211023D01*
X1044477Y209605D01*
X1043710Y207752D01*
Y205748D01*
X1044477Y203895D01*
X1045895Y202477D01*
X1047747Y201710D01*
X1049753D01*
X1051605Y202477D01*
X1053023Y203895D01*
X1053790Y205748D01*
Y207752D01*
X1053023Y209605D01*
X1051605Y211023D01*
X1049753Y211790D01*
D02*
G37*
G36*
X742002Y210040D02*
X739997D01*
X738145Y209273D01*
X736727Y207855D01*
X735960Y206003D01*
Y203997D01*
X736727Y202145D01*
X738145Y200727D01*
X739997Y199960D01*
X742002D01*
X743855Y200727D01*
X745273Y202145D01*
X746040Y203997D01*
Y206003D01*
X745273Y207855D01*
X743855Y209273D01*
X742002Y210040D01*
D02*
G37*
G36*
X507772Y211270D02*
X505767D01*
X503915Y210503D01*
X502497Y209085D01*
X501730Y207233D01*
Y205290D01*
X500498D01*
X498645Y204523D01*
X497227Y203105D01*
X496460Y201252D01*
Y199247D01*
X497227Y197395D01*
X498645Y195977D01*
X500498Y195210D01*
X502503D01*
X504355Y195977D01*
X505773Y197395D01*
X506540Y199247D01*
Y201190D01*
X507772D01*
X509625Y201957D01*
X511043Y203375D01*
X511810Y205228D01*
Y207233D01*
X511043Y209085D01*
X509625Y210503D01*
X507772Y211270D01*
D02*
G37*
G36*
X850003Y203290D02*
X847998D01*
X846145Y202523D01*
X844727Y201105D01*
X843960Y199252D01*
Y197248D01*
X844727Y195395D01*
X846145Y193977D01*
X847998Y193210D01*
X850003D01*
X851855Y193977D01*
X853273Y195395D01*
X854040Y197248D01*
Y199252D01*
X853273Y201105D01*
X851855Y202523D01*
X850003Y203290D01*
D02*
G37*
G36*
X321080Y206442D02*
Y191080D01*
X336442D01*
X336231Y192137D01*
X334645Y195966D01*
X332343Y199412D01*
X329412Y202343D01*
X325966Y204645D01*
X322137Y206231D01*
X321080Y206442D01*
D02*
G37*
G36*
X310920D02*
X309863Y206231D01*
X306034Y204645D01*
X302588Y202343D01*
X299657Y199412D01*
X297355Y195966D01*
X295769Y192137D01*
X295558Y191080D01*
X310920D01*
Y206442D01*
D02*
G37*
G36*
X993252Y192540D02*
X991247D01*
X989395Y191773D01*
X987977Y190355D01*
X987210Y188503D01*
Y186497D01*
X987977Y184645D01*
X989395Y183227D01*
X991247Y182460D01*
X993252D01*
X995105Y183227D01*
X996523Y184645D01*
X997290Y186497D01*
Y188503D01*
X996523Y190355D01*
X995105Y191773D01*
X993252Y192540D01*
D02*
G37*
G36*
X459253Y191290D02*
X457248D01*
X455395Y190523D01*
X453977Y189105D01*
X453210Y187253D01*
Y185247D01*
X453977Y183395D01*
X455395Y181977D01*
X457248Y181210D01*
X459253D01*
X461105Y181977D01*
X462523Y183395D01*
X463290Y185247D01*
Y187253D01*
X462523Y189105D01*
X461105Y190523D01*
X459253Y191290D01*
D02*
G37*
G36*
X834003Y190790D02*
X831998D01*
X830145Y190023D01*
X828727Y188605D01*
X827960Y186752D01*
Y184748D01*
X828727Y182895D01*
X830145Y181477D01*
X831998Y180710D01*
X834003D01*
X835855Y181477D01*
X837273Y182895D01*
X838040Y184748D01*
Y186752D01*
X837273Y188605D01*
X835855Y190023D01*
X834003Y190790D01*
D02*
G37*
G36*
X1094003Y186540D02*
X1091998D01*
X1090145Y185773D01*
X1088727Y184355D01*
X1087960Y182502D01*
Y180497D01*
X1088727Y178645D01*
X1090145Y177227D01*
X1091998Y176460D01*
X1094003D01*
X1095855Y177227D01*
X1097273Y178645D01*
X1098040Y180497D01*
Y182502D01*
X1097273Y184355D01*
X1095855Y185773D01*
X1094003Y186540D01*
D02*
G37*
G36*
X903503Y179540D02*
X901497D01*
X899645Y178773D01*
X898227Y177355D01*
X897460Y175502D01*
Y173498D01*
X898227Y171645D01*
X899645Y170227D01*
X901497Y169460D01*
X903503D01*
X905355Y170227D01*
X906773Y171645D01*
X907540Y173498D01*
Y175502D01*
X906773Y177355D01*
X905355Y178773D01*
X903503Y179540D01*
D02*
G37*
G36*
X804502Y175790D02*
X802497D01*
X800645Y175023D01*
X799227Y173605D01*
X798460Y171752D01*
Y169748D01*
X799227Y167895D01*
X800645Y166477D01*
X802497Y165710D01*
X804502D01*
X806355Y166477D01*
X807773Y167895D01*
X808540Y169748D01*
Y171752D01*
X807773Y173605D01*
X806355Y175023D01*
X804502Y175790D01*
D02*
G37*
G36*
X336442Y180920D02*
X321080D01*
Y165558D01*
X322137Y165769D01*
X325966Y167355D01*
X329412Y169657D01*
X332343Y172588D01*
X334645Y176034D01*
X336231Y179863D01*
X336442Y180920D01*
D02*
G37*
G36*
X310920D02*
X295558D01*
X295769Y179863D01*
X297355Y176034D01*
X299657Y172588D01*
X302588Y169657D01*
X306034Y167355D01*
X309863Y165769D01*
X310920Y165558D01*
Y180920D01*
D02*
G37*
G36*
X246072Y207040D02*
X241928D01*
X237863Y206231D01*
X234034Y204645D01*
X230588Y202343D01*
X227657Y199412D01*
X225355Y195966D01*
X223769Y192137D01*
X222960Y188072D01*
Y183928D01*
X223769Y179863D01*
X225355Y176034D01*
X227657Y172588D01*
X230588Y169657D01*
X234034Y167355D01*
X237863Y165769D01*
X241928Y164960D01*
X246072D01*
X250137Y165769D01*
X253966Y167355D01*
X257412Y169657D01*
X260343Y172588D01*
X262645Y176034D01*
X264231Y179863D01*
X265040Y183928D01*
Y188072D01*
X264231Y192137D01*
X262645Y195966D01*
X260343Y199412D01*
X257412Y202343D01*
X253966Y204645D01*
X250137Y206231D01*
X246072Y207040D01*
D02*
G37*
G36*
X736503Y171540D02*
X734498D01*
X732645Y170773D01*
X731227Y169355D01*
X730460Y167502D01*
Y165497D01*
X731227Y163645D01*
X732645Y162227D01*
X734498Y161460D01*
X736503D01*
X738355Y162227D01*
X739773Y163645D01*
X740540Y165497D01*
Y167502D01*
X739773Y169355D01*
X738355Y170773D01*
X736503Y171540D01*
D02*
G37*
G36*
X888183Y161360D02*
X886178D01*
X884325Y160593D01*
X882907Y159175D01*
X882140Y157323D01*
Y155317D01*
X882907Y153465D01*
X884325Y152047D01*
X886178Y151280D01*
X888183D01*
X890035Y152047D01*
X891453Y153465D01*
X892220Y155317D01*
Y157323D01*
X891453Y159175D01*
X890035Y160593D01*
X888183Y161360D01*
D02*
G37*
G36*
X775752Y160290D02*
X773747D01*
X771895Y159523D01*
X770477Y158105D01*
X769710Y156252D01*
Y154248D01*
X770477Y152395D01*
X771895Y150977D01*
X773747Y150210D01*
X775752D01*
X777605Y150977D01*
X779023Y152395D01*
X779790Y154248D01*
Y156252D01*
X779023Y158105D01*
X777605Y159523D01*
X775752Y160290D01*
D02*
G37*
G36*
X1265138Y154540D02*
X1265020D01*
Y145270D01*
X1274290D01*
Y145388D01*
X1273572Y148068D01*
X1272184Y150472D01*
X1270222Y152434D01*
X1267818Y153822D01*
X1265138Y154540D01*
D02*
G37*
G36*
X1262480D02*
X1262362D01*
X1259682Y153822D01*
X1257278Y152434D01*
X1255316Y150472D01*
X1253928Y148068D01*
X1253210Y145388D01*
Y145270D01*
X1262480D01*
Y154540D01*
D02*
G37*
G36*
X482089Y151690D02*
X482070D01*
Y143170D01*
X490590D01*
Y143189D01*
X489923Y145679D01*
X488634Y147911D01*
X486811Y149734D01*
X484579Y151023D01*
X482089Y151690D01*
D02*
G37*
G36*
X532089D02*
X532070D01*
Y143170D01*
X540590D01*
Y143189D01*
X539923Y145679D01*
X538634Y147911D01*
X536811Y149734D01*
X534579Y151023D01*
X532089Y151690D01*
D02*
G37*
G36*
X479530D02*
X479511D01*
X477021Y151023D01*
X474789Y149734D01*
X472966Y147911D01*
X471677Y145679D01*
X471010Y143189D01*
Y143170D01*
X479530D01*
Y151690D01*
D02*
G37*
G36*
X529530D02*
X529511D01*
X527021Y151023D01*
X524789Y149734D01*
X522966Y147911D01*
X521677Y145679D01*
X521010Y143189D01*
Y143170D01*
X529530D01*
Y151690D01*
D02*
G37*
G36*
X1017503Y150040D02*
X1015498D01*
X1013645Y149273D01*
X1012227Y147855D01*
X1011460Y146003D01*
Y143997D01*
X1012227Y142145D01*
X1013645Y140727D01*
X1015498Y139960D01*
X1017503D01*
X1019355Y140727D01*
X1020773Y142145D01*
X1021540Y143997D01*
Y146003D01*
X1020773Y147855D01*
X1019355Y149273D01*
X1017503Y150040D01*
D02*
G37*
G36*
X1366738Y154540D02*
X1363962D01*
X1361282Y153822D01*
X1358878Y152434D01*
X1356916Y150472D01*
X1355528Y148068D01*
X1354810Y145388D01*
Y142612D01*
X1355528Y139932D01*
X1356916Y137528D01*
X1358878Y135566D01*
X1361282Y134178D01*
X1363962Y133460D01*
X1366738D01*
X1369418Y134178D01*
X1371822Y135566D01*
X1373784Y137528D01*
X1375172Y139932D01*
X1375890Y142612D01*
Y145388D01*
X1375172Y148068D01*
X1373784Y150472D01*
X1371822Y152434D01*
X1369418Y153822D01*
X1366738Y154540D01*
D02*
G37*
G36*
X1341338D02*
X1338562D01*
X1335882Y153822D01*
X1333478Y152434D01*
X1331516Y150472D01*
X1330128Y148068D01*
X1329410Y145388D01*
Y142612D01*
X1330128Y139932D01*
X1331516Y137528D01*
X1333478Y135566D01*
X1335882Y134178D01*
X1338562Y133460D01*
X1341338D01*
X1344018Y134178D01*
X1346422Y135566D01*
X1348384Y137528D01*
X1349772Y139932D01*
X1350490Y142612D01*
Y145388D01*
X1349772Y148068D01*
X1348384Y150472D01*
X1346422Y152434D01*
X1344018Y153822D01*
X1341338Y154540D01*
D02*
G37*
G36*
X1315938D02*
X1313162D01*
X1310482Y153822D01*
X1308078Y152434D01*
X1306116Y150472D01*
X1304728Y148068D01*
X1304010Y145388D01*
Y142612D01*
X1304728Y139932D01*
X1306116Y137528D01*
X1308078Y135566D01*
X1310482Y134178D01*
X1313162Y133460D01*
X1315938D01*
X1318618Y134178D01*
X1321022Y135566D01*
X1322984Y137528D01*
X1324372Y139932D01*
X1325090Y142612D01*
Y145388D01*
X1324372Y148068D01*
X1322984Y150472D01*
X1321022Y152434D01*
X1318618Y153822D01*
X1315938Y154540D01*
D02*
G37*
G36*
X1290538D02*
X1287762D01*
X1285082Y153822D01*
X1282678Y152434D01*
X1280716Y150472D01*
X1279328Y148068D01*
X1278610Y145388D01*
Y142612D01*
X1279328Y139932D01*
X1280716Y137528D01*
X1282678Y135566D01*
X1285082Y134178D01*
X1287762Y133460D01*
X1290538D01*
X1293218Y134178D01*
X1295622Y135566D01*
X1297584Y137528D01*
X1298972Y139932D01*
X1299690Y142612D01*
Y145388D01*
X1298972Y148068D01*
X1297584Y150472D01*
X1295622Y152434D01*
X1293218Y153822D01*
X1290538Y154540D01*
D02*
G37*
G36*
X1274290Y142730D02*
X1265020D01*
Y133460D01*
X1265138D01*
X1267818Y134178D01*
X1270222Y135566D01*
X1272184Y137528D01*
X1273572Y139932D01*
X1274290Y142612D01*
Y142730D01*
D02*
G37*
G36*
X1262480D02*
X1253210D01*
Y142612D01*
X1253928Y139932D01*
X1255316Y137528D01*
X1257278Y135566D01*
X1259682Y134178D01*
X1262362Y133460D01*
X1262480D01*
Y142730D01*
D02*
G37*
G36*
X1394750Y154596D02*
X1386750D01*
X1385043Y154372D01*
X1383452Y153713D01*
X1382086Y152664D01*
X1381037Y151298D01*
X1380378Y149707D01*
X1380154Y148000D01*
Y140000D01*
X1380378Y138293D01*
X1381037Y136702D01*
X1382086Y135336D01*
X1383452Y134287D01*
X1385043Y133628D01*
X1386750Y133404D01*
X1394750D01*
X1396457Y133628D01*
X1398048Y134287D01*
X1399414Y135336D01*
X1400463Y136702D01*
X1401122Y138293D01*
X1401346Y140000D01*
Y148000D01*
X1401122Y149707D01*
X1400463Y151298D01*
X1399414Y152664D01*
X1398048Y153713D01*
X1396457Y154372D01*
X1394750Y154596D01*
D02*
G37*
G36*
X540590Y140630D02*
X532070D01*
Y132110D01*
X532089D01*
X534579Y132777D01*
X536811Y134066D01*
X538634Y135889D01*
X539923Y138121D01*
X540590Y140611D01*
Y140630D01*
D02*
G37*
G36*
X529530D02*
X521010D01*
Y140611D01*
X521677Y138121D01*
X522966Y135889D01*
X524789Y134066D01*
X527021Y132777D01*
X529511Y132110D01*
X529530D01*
Y140630D01*
D02*
G37*
G36*
X490590D02*
X482070D01*
Y132110D01*
X482089D01*
X484579Y132777D01*
X486811Y134066D01*
X488634Y135889D01*
X489923Y138121D01*
X490590Y140611D01*
Y140630D01*
D02*
G37*
G36*
X479530D02*
X471010D01*
Y140611D01*
X471677Y138121D01*
X472966Y135889D01*
X474789Y134066D01*
X477021Y132777D01*
X479511Y132110D01*
X479530D01*
Y140630D01*
D02*
G37*
G36*
X738600Y140596D02*
X735870D01*
Y131270D01*
X745196D01*
Y134000D01*
X744972Y135707D01*
X744313Y137298D01*
X743264Y138664D01*
X741898Y139713D01*
X740307Y140372D01*
X738600Y140596D01*
D02*
G37*
G36*
X733330D02*
X730600D01*
X728893Y140372D01*
X727302Y139713D01*
X725936Y138664D01*
X724887Y137298D01*
X724228Y135707D01*
X724004Y134000D01*
Y131270D01*
X733330D01*
Y140596D01*
D02*
G37*
G36*
X862988Y140540D02*
X860212D01*
X857532Y139822D01*
X855128Y138434D01*
X853166Y136472D01*
X851778Y134068D01*
X851060Y131388D01*
Y128612D01*
X851778Y125932D01*
X853166Y123528D01*
X855128Y121566D01*
X857532Y120178D01*
X860212Y119460D01*
X862988D01*
X865668Y120178D01*
X868072Y121566D01*
X870034Y123528D01*
X871422Y125932D01*
X872140Y128612D01*
Y131388D01*
X871422Y134068D01*
X870034Y136472D01*
X868072Y138434D01*
X865668Y139822D01*
X862988Y140540D01*
D02*
G37*
G36*
X837588D02*
X834812D01*
X832132Y139822D01*
X829728Y138434D01*
X827766Y136472D01*
X826378Y134068D01*
X825660Y131388D01*
Y128612D01*
X826378Y125932D01*
X827766Y123528D01*
X829728Y121566D01*
X832132Y120178D01*
X834812Y119460D01*
X837588D01*
X840268Y120178D01*
X842672Y121566D01*
X844634Y123528D01*
X846022Y125932D01*
X846740Y128612D01*
Y131388D01*
X846022Y134068D01*
X844634Y136472D01*
X842672Y138434D01*
X840268Y139822D01*
X837588Y140540D01*
D02*
G37*
G36*
X812188D02*
X809412D01*
X806732Y139822D01*
X804328Y138434D01*
X802366Y136472D01*
X800978Y134068D01*
X800260Y131388D01*
Y128612D01*
X800978Y125932D01*
X802366Y123528D01*
X804328Y121566D01*
X806732Y120178D01*
X809412Y119460D01*
X812188D01*
X814868Y120178D01*
X817272Y121566D01*
X819234Y123528D01*
X820622Y125932D01*
X821340Y128612D01*
Y131388D01*
X820622Y134068D01*
X819234Y136472D01*
X817272Y138434D01*
X814868Y139822D01*
X812188Y140540D01*
D02*
G37*
G36*
X786788D02*
X784012D01*
X781332Y139822D01*
X778928Y138434D01*
X776966Y136472D01*
X775578Y134068D01*
X774860Y131388D01*
Y128612D01*
X775578Y125932D01*
X776966Y123528D01*
X778928Y121566D01*
X781332Y120178D01*
X784012Y119460D01*
X786788D01*
X789468Y120178D01*
X791872Y121566D01*
X793834Y123528D01*
X795222Y125932D01*
X795940Y128612D01*
Y131388D01*
X795222Y134068D01*
X793834Y136472D01*
X791872Y138434D01*
X789468Y139822D01*
X786788Y140540D01*
D02*
G37*
G36*
X761388D02*
X758612D01*
X755932Y139822D01*
X753528Y138434D01*
X751566Y136472D01*
X750178Y134068D01*
X749460Y131388D01*
Y128612D01*
X750178Y125932D01*
X751566Y123528D01*
X753528Y121566D01*
X755932Y120178D01*
X758612Y119460D01*
X761388D01*
X764068Y120178D01*
X766472Y121566D01*
X768434Y123528D01*
X769822Y125932D01*
X770540Y128612D01*
Y131388D01*
X769822Y134068D01*
X768434Y136472D01*
X766472Y138434D01*
X764068Y139822D01*
X761388Y140540D01*
D02*
G37*
G36*
X745196Y128730D02*
X735870D01*
Y119404D01*
X738600D01*
X740307Y119628D01*
X741898Y120287D01*
X743264Y121336D01*
X744313Y122702D01*
X744972Y124293D01*
X745196Y126000D01*
Y128730D01*
D02*
G37*
G36*
X733330D02*
X724004D01*
Y126000D01*
X724228Y124293D01*
X724887Y122702D01*
X725936Y121336D01*
X727302Y120287D01*
X728893Y119628D01*
X730600Y119404D01*
X733330D01*
Y128730D01*
D02*
G37*
G36*
X1552361Y183140D02*
X1547239D01*
X1542180Y182339D01*
X1537309Y180756D01*
X1532745Y178431D01*
X1528602Y175420D01*
X1524980Y171798D01*
X1521969Y167655D01*
X1519644Y163091D01*
X1518061Y158220D01*
X1517260Y153161D01*
Y148039D01*
X1518061Y142980D01*
X1519644Y138109D01*
X1521969Y133545D01*
X1524980Y129402D01*
X1528602Y125780D01*
X1532745Y122769D01*
X1537309Y120444D01*
X1542180Y118861D01*
X1547239Y118060D01*
X1552361D01*
X1557420Y118861D01*
X1562291Y120444D01*
X1566855Y122769D01*
X1570998Y125780D01*
X1574620Y129402D01*
X1577631Y133545D01*
X1579956Y138109D01*
X1581539Y142980D01*
X1582340Y148039D01*
Y153161D01*
X1581539Y158220D01*
X1579956Y163091D01*
X1577631Y167655D01*
X1574620Y171798D01*
X1570998Y175420D01*
X1566855Y178431D01*
X1562291Y180756D01*
X1557420Y182339D01*
X1552361Y183140D01*
D02*
G37*
G36*
X152361D02*
X147239D01*
X142180Y182339D01*
X137309Y180756D01*
X132745Y178431D01*
X128602Y175420D01*
X124980Y171798D01*
X121969Y167655D01*
X119644Y163091D01*
X118061Y158220D01*
X117260Y153161D01*
Y148039D01*
X118061Y142980D01*
X119644Y138109D01*
X121969Y133545D01*
X124980Y129402D01*
X128602Y125780D01*
X132745Y122769D01*
X137309Y120444D01*
X142180Y118861D01*
X147239Y118060D01*
X152361D01*
X157420Y118861D01*
X162291Y120444D01*
X166855Y122769D01*
X170998Y125780D01*
X174620Y129402D01*
X177631Y133545D01*
X179956Y138109D01*
X181539Y142980D01*
X182340Y148039D01*
Y153161D01*
X181539Y158220D01*
X179956Y163091D01*
X177631Y167655D01*
X174620Y171798D01*
X170998Y175420D01*
X166855Y178431D01*
X162291Y180756D01*
X157420Y182339D01*
X152361Y183140D01*
D02*
G37*
G36*
X542070Y123806D02*
Y116170D01*
X546958D01*
Y117900D01*
X546490Y120257D01*
X545155Y122255D01*
X543157Y123589D01*
X542070Y123806D01*
D02*
G37*
G36*
X472070D02*
Y116170D01*
X476958D01*
Y117900D01*
X476490Y120257D01*
X475155Y122255D01*
X473157Y123589D01*
X472070Y123806D01*
D02*
G37*
G36*
X539530D02*
X538443Y123589D01*
X536445Y122255D01*
X535111Y120257D01*
X534642Y117900D01*
Y116170D01*
X539530D01*
Y123806D01*
D02*
G37*
G36*
X469530D02*
X468443Y123589D01*
X466445Y122255D01*
X465111Y120257D01*
X464642Y117900D01*
Y116170D01*
X469530D01*
Y123806D01*
D02*
G37*
G36*
X351250Y143663D02*
X343750D01*
X341296Y143175D01*
X339215Y141785D01*
X337825Y139704D01*
X337337Y137250D01*
Y114750D01*
X337825Y112296D01*
X339215Y110215D01*
X341296Y108825D01*
X343750Y108337D01*
X351250D01*
X353704Y108825D01*
X355785Y110215D01*
X357175Y112296D01*
X357663Y114750D01*
Y137250D01*
X357175Y139704D01*
X355785Y141785D01*
X353704Y143175D01*
X351250Y143663D01*
D02*
G37*
G36*
X216250D02*
X208750D01*
X206296Y143175D01*
X204215Y141785D01*
X202825Y139704D01*
X202337Y137250D01*
Y114750D01*
X202825Y112296D01*
X204215Y110215D01*
X206296Y108825D01*
X208750Y108337D01*
X216250D01*
X218704Y108825D01*
X220785Y110215D01*
X222175Y112296D01*
X222663Y114750D01*
Y137250D01*
X222175Y139704D01*
X220785Y141785D01*
X218704Y143175D01*
X216250Y143663D01*
D02*
G37*
G36*
X476958Y113630D02*
X472070D01*
Y105994D01*
X473157Y106210D01*
X475155Y107545D01*
X476490Y109543D01*
X476958Y111900D01*
Y113630D01*
D02*
G37*
G36*
X546958D02*
X542070D01*
Y105994D01*
X543157Y106210D01*
X545155Y107545D01*
X546490Y109543D01*
X546958Y111900D01*
Y113630D01*
D02*
G37*
G36*
X539530D02*
X534642D01*
Y111900D01*
X535111Y109543D01*
X536445Y107545D01*
X538443Y106210D01*
X539530Y105994D01*
Y113630D01*
D02*
G37*
G36*
X469530D02*
X464642D01*
Y111900D01*
X465111Y109543D01*
X466445Y107545D01*
X468443Y106210D01*
X469530Y105994D01*
Y113630D01*
D02*
G37*
%LPD*%
D104*
X1155970Y547800D02*
D03*
X1247370D02*
D03*
X1133070D02*
D03*
X1270270D02*
D03*
X1196570Y596000D02*
D03*
X1206770Y613800D02*
D03*
X1186370D02*
D03*
X1216970Y596000D02*
D03*
X1176170D02*
D03*
X1227170Y613800D02*
D03*
X1165970D02*
D03*
X1237370Y596000D02*
D03*
X945970Y548000D02*
D03*
X1037370D02*
D03*
X923070D02*
D03*
X1060270D02*
D03*
X986570Y596200D02*
D03*
X996770Y614000D02*
D03*
X976370D02*
D03*
X1006970Y596200D02*
D03*
X966170D02*
D03*
X1017170Y614000D02*
D03*
X955970D02*
D03*
X1027370Y596200D02*
D03*
D106*
X1120420Y604900D02*
D03*
X1282920D02*
D03*
X910420Y605100D02*
D03*
X1072920D02*
D03*
D107*
X1138170Y639200D02*
D03*
X1265170D02*
D03*
X928170Y639400D02*
D03*
X1055170D02*
D03*
D108*
X1263750Y144000D02*
D03*
X1289150D02*
D03*
X1339950D02*
D03*
X1365350D02*
D03*
X1314550D02*
D03*
X1338500Y547950D02*
D03*
Y598750D02*
D03*
Y624150D02*
D03*
Y573350D02*
D03*
X1384000Y548200D02*
D03*
Y599000D02*
D03*
Y624400D02*
D03*
Y573600D02*
D03*
X861600Y130000D02*
D03*
X836200D02*
D03*
X785400D02*
D03*
X760000D02*
D03*
X810800D02*
D03*
D109*
X1390750Y144000D02*
D03*
X734600Y130000D02*
D03*
D110*
X530800Y141900D02*
D03*
X480800D02*
D03*
D111*
X1338500Y649550D02*
D03*
X1384000Y649800D02*
D03*
D112*
X183000Y266000D02*
D03*
Y338000D02*
D03*
X316000Y186000D02*
D03*
X244000D02*
D03*
D113*
X123000Y234500D02*
D03*
Y369500D02*
D03*
D114*
X347500Y126000D02*
D03*
X212500D02*
D03*
D115*
X1549800Y150600D02*
D03*
Y650600D02*
D03*
X149800D02*
D03*
Y150600D02*
D03*
D117*
X362990Y635540D02*
D03*
Y660940D02*
D03*
Y686340D02*
D03*
X300144Y635330D02*
D03*
Y660730D02*
D03*
Y686130D02*
D03*
X331640Y635584D02*
D03*
Y660984D02*
D03*
Y686384D02*
D03*
X203878Y634822D02*
D03*
Y660222D02*
D03*
Y685622D02*
D03*
X236348Y635070D02*
D03*
Y660470D02*
D03*
Y685870D02*
D03*
X268140Y635330D02*
D03*
Y660730D02*
D03*
Y686130D02*
D03*
X539186Y635330D02*
D03*
Y660730D02*
D03*
Y686130D02*
D03*
X507182Y635330D02*
D03*
Y660730D02*
D03*
Y686130D02*
D03*
X442920Y634822D02*
D03*
Y660222D02*
D03*
Y685622D02*
D03*
X570682Y635584D02*
D03*
Y660984D02*
D03*
Y686384D02*
D03*
X475390Y635070D02*
D03*
Y660470D02*
D03*
Y685870D02*
D03*
X809724Y635584D02*
D03*
Y660984D02*
D03*
Y686384D02*
D03*
X778228Y635330D02*
D03*
Y660730D02*
D03*
Y686130D02*
D03*
X681962Y634822D02*
D03*
Y660222D02*
D03*
Y685622D02*
D03*
X714432Y635070D02*
D03*
Y660470D02*
D03*
Y685870D02*
D03*
X746224Y635330D02*
D03*
Y660730D02*
D03*
Y686130D02*
D03*
D118*
X1471250Y525500D02*
D03*
X1228000Y582750D02*
D03*
X1187250Y581250D02*
D03*
X1159250Y596000D02*
D03*
X1017500Y585000D02*
D03*
X958000Y572000D02*
D03*
X977250Y585250D02*
D03*
X951250Y595750D02*
D03*
X794000Y634250D02*
D03*
X762250D02*
D03*
X730500D02*
D03*
X698250D02*
D03*
X555000D02*
D03*
X523250D02*
D03*
X491500D02*
D03*
X459250Y634000D02*
D03*
X220250Y634500D02*
D03*
X252250Y634750D02*
D03*
X284250D02*
D03*
X316000D02*
D03*
X347500D02*
D03*
X343500Y612750D02*
D03*
X258000Y616000D02*
D03*
X225750D02*
D03*
X1026250Y404750D02*
D03*
X755750Y151750D02*
D03*
X767250Y535250D02*
D03*
X528000D02*
D03*
X289000Y535500D02*
D03*
X1513750Y200000D02*
D03*
X1467750Y198000D02*
D03*
X1467000Y228000D02*
D03*
X1100750Y190000D02*
D03*
X1100000Y251500D02*
D03*
X1002750Y262750D02*
D03*
X977500Y263000D02*
D03*
X1193000Y334000D02*
D03*
Y315750D02*
D03*
Y297750D02*
D03*
X1383250Y352000D02*
D03*
Y333750D02*
D03*
Y315750D02*
D03*
X1383500Y297750D02*
D03*
X1371000Y352250D02*
D03*
Y334000D02*
D03*
Y316000D02*
D03*
X1371250Y297750D02*
D03*
X1483250Y341500D02*
D03*
X1483000Y357000D02*
D03*
X1466500Y356750D02*
D03*
X1466250Y373250D02*
D03*
X1443250Y397750D02*
D03*
X1508500Y383500D02*
D03*
X1502500Y371250D02*
D03*
X1484500Y390500D02*
D03*
X1296500Y469750D02*
D03*
X1230000Y469250D02*
D03*
X1258500D02*
D03*
X1227250Y446250D02*
D03*
X658500Y130750D02*
D03*
X634750Y115500D02*
D03*
X610250Y130500D02*
D03*
X635000Y146750D02*
D03*
X498000Y210250D02*
D03*
X524500Y185000D02*
D03*
X483250Y184750D02*
D03*
X445250Y167500D02*
D03*
X564750Y231000D02*
D03*
X565250Y345000D02*
D03*
X980750Y420750D02*
D03*
X966500D02*
D03*
X1006000Y310500D02*
D03*
X990750Y328500D02*
D03*
X970000Y310500D02*
D03*
X934250Y311000D02*
D03*
X915000Y328500D02*
D03*
X921750Y348750D02*
D03*
X951500Y329000D02*
D03*
X990500Y338500D02*
D03*
X977500D02*
D03*
X977750Y352750D02*
D03*
X964750D02*
D03*
Y366000D02*
D03*
X965000Y338750D02*
D03*
X1344250Y492250D02*
D03*
X1297250D02*
D03*
X1247500Y491250D02*
D03*
X1227250Y383750D02*
D03*
X1258750Y401000D02*
D03*
X1258500Y415000D02*
D03*
X1258750Y430000D02*
D03*
X1227250Y432500D02*
D03*
X1259000Y445250D02*
D03*
X1489250Y623250D02*
D03*
X1489500Y593000D02*
D03*
X1469500Y608250D02*
D03*
X1456750Y593250D02*
D03*
X1443250Y609000D02*
D03*
X1456750Y623750D02*
D03*
X1426750Y629500D02*
D03*
X1404500Y650750D02*
D03*
X1127000Y400750D02*
D03*
X1088000Y396000D02*
D03*
X1101250Y400750D02*
D03*
X1165250Y434250D02*
D03*
X1147000Y416250D02*
D03*
X1138250Y407500D02*
D03*
X1131000Y454500D02*
D03*
X1073000Y454000D02*
D03*
X1131250Y421000D02*
D03*
X1079500Y398750D02*
D03*
X1062750D02*
D03*
X994500Y410250D02*
D03*
X994750Y425000D02*
D03*
X911000Y401750D02*
D03*
X887000Y286750D02*
D03*
X1173750Y130250D02*
D03*
X1150250Y145250D02*
D03*
X1197250D02*
D03*
X1575000Y680000D02*
D03*
Y620000D02*
D03*
X1560000Y110000D02*
D03*
X1530000D02*
D03*
X1515000Y680000D02*
D03*
Y140000D02*
D03*
X1500000Y110000D02*
D03*
X1485000Y680000D02*
D03*
X1470000Y110000D02*
D03*
X1380000Y470000D02*
D03*
X1395000Y440000D02*
D03*
X1365000Y620000D02*
D03*
X1350000Y590000D02*
D03*
X1365000Y560000D02*
D03*
X1320000Y590000D02*
D03*
X1305000Y680000D02*
D03*
X1290000Y650000D02*
D03*
X1305000Y620000D02*
D03*
Y560000D02*
D03*
X1275000Y680000D02*
D03*
X1260000Y590000D02*
D03*
X1275000Y560000D02*
D03*
X1245000Y680000D02*
D03*
X1230000Y650000D02*
D03*
X1245000Y620000D02*
D03*
Y560000D02*
D03*
X1215000Y680000D02*
D03*
X1200000Y650000D02*
D03*
X1215000Y560000D02*
D03*
X1185000Y680000D02*
D03*
X1170000Y650000D02*
D03*
X1185000Y560000D02*
D03*
X1155000Y680000D02*
D03*
X1140000Y590000D02*
D03*
X1125000Y680000D02*
D03*
X1110000Y650000D02*
D03*
X1095000Y680000D02*
D03*
X1080000Y650000D02*
D03*
X1095000Y620000D02*
D03*
Y560000D02*
D03*
X1065000Y680000D02*
D03*
X1050000Y590000D02*
D03*
X1065000Y560000D02*
D03*
Y440000D02*
D03*
X1035000Y680000D02*
D03*
X1020000Y650000D02*
D03*
X1035000Y620000D02*
D03*
Y560000D02*
D03*
X1020000Y530000D02*
D03*
Y470000D02*
D03*
X1035000Y440000D02*
D03*
X1005000Y680000D02*
D03*
X990000Y650000D02*
D03*
X1005000Y560000D02*
D03*
X990000Y530000D02*
D03*
X1005000Y500000D02*
D03*
X990000Y470000D02*
D03*
X1005000Y440000D02*
D03*
X975000Y680000D02*
D03*
X960000Y650000D02*
D03*
X975000Y560000D02*
D03*
X960000Y530000D02*
D03*
X975000Y500000D02*
D03*
Y440000D02*
D03*
X945000Y680000D02*
D03*
X930000Y590000D02*
D03*
X945000Y500000D02*
D03*
X915000Y680000D02*
D03*
X900000Y650000D02*
D03*
X915000Y560000D02*
D03*
X900000Y530000D02*
D03*
Y290000D02*
D03*
X915000Y260000D02*
D03*
X885000Y680000D02*
D03*
X870000Y650000D02*
D03*
X885000Y500000D02*
D03*
Y440000D02*
D03*
X855000Y680000D02*
D03*
Y620000D02*
D03*
Y560000D02*
D03*
Y500000D02*
D03*
Y440000D02*
D03*
X825000Y680000D02*
D03*
Y560000D02*
D03*
X795000Y680000D02*
D03*
Y560000D02*
D03*
X765000Y620000D02*
D03*
X690000Y530000D02*
D03*
X660000Y650000D02*
D03*
X675000Y620000D02*
D03*
X660000Y530000D02*
D03*
X675000Y500000D02*
D03*
X660000Y470000D02*
D03*
X675000Y440000D02*
D03*
X645000Y680000D02*
D03*
X630000Y650000D02*
D03*
X645000Y620000D02*
D03*
X630000Y590000D02*
D03*
Y530000D02*
D03*
Y470000D02*
D03*
X615000Y680000D02*
D03*
Y560000D02*
D03*
Y500000D02*
D03*
X585000Y680000D02*
D03*
Y560000D02*
D03*
X555000Y680000D02*
D03*
Y560000D02*
D03*
X540000Y230000D02*
D03*
X525000Y680000D02*
D03*
Y620000D02*
D03*
X510000Y230000D02*
D03*
X495000Y620000D02*
D03*
X450000Y530000D02*
D03*
X465000Y140000D02*
D03*
X450000Y110000D02*
D03*
X420000Y650000D02*
D03*
X435000Y620000D02*
D03*
X420000Y530000D02*
D03*
X435000Y500000D02*
D03*
X420000Y470000D02*
D03*
X435000Y440000D02*
D03*
Y200000D02*
D03*
X420000Y170000D02*
D03*
X435000Y140000D02*
D03*
X420000Y110000D02*
D03*
X405000Y680000D02*
D03*
X390000Y530000D02*
D03*
Y470000D02*
D03*
Y350000D02*
D03*
Y230000D02*
D03*
X405000Y200000D02*
D03*
X390000Y170000D02*
D03*
Y110000D02*
D03*
X375000Y560000D02*
D03*
Y500000D02*
D03*
X360000Y230000D02*
D03*
X375000Y200000D02*
D03*
X360000Y170000D02*
D03*
X375000Y140000D02*
D03*
X360000Y110000D02*
D03*
X345000Y680000D02*
D03*
Y560000D02*
D03*
X330000Y350000D02*
D03*
Y230000D02*
D03*
X345000Y200000D02*
D03*
X330000Y110000D02*
D03*
X315000Y680000D02*
D03*
Y560000D02*
D03*
Y140000D02*
D03*
X300000Y110000D02*
D03*
X285000Y680000D02*
D03*
Y620000D02*
D03*
Y200000D02*
D03*
Y140000D02*
D03*
X270000Y110000D02*
D03*
X255000Y140000D02*
D03*
X240000Y110000D02*
D03*
X210000Y530000D02*
D03*
Y170000D02*
D03*
X225000Y140000D02*
D03*
X195000Y620000D02*
D03*
X180000Y530000D02*
D03*
X195000Y500000D02*
D03*
X180000Y470000D02*
D03*
X195000Y440000D02*
D03*
X180000Y410000D02*
D03*
Y230000D02*
D03*
X195000Y200000D02*
D03*
X180000Y170000D02*
D03*
X195000Y140000D02*
D03*
X180000Y110000D02*
D03*
X150000Y590000D02*
D03*
X165000Y560000D02*
D03*
X150000Y530000D02*
D03*
X165000Y500000D02*
D03*
X150000Y470000D02*
D03*
X165000Y440000D02*
D03*
X150000Y410000D02*
D03*
Y350000D02*
D03*
Y290000D02*
D03*
Y230000D02*
D03*
X165000Y200000D02*
D03*
X150000Y110000D02*
D03*
X120000Y530000D02*
D03*
X135000Y500000D02*
D03*
X120000Y470000D02*
D03*
Y410000D02*
D03*
Y350000D02*
D03*
X135000Y320000D02*
D03*
X120000Y290000D02*
D03*
X135000Y260000D02*
D03*
Y200000D02*
D03*
X120000Y170000D02*
D03*
X728500Y276250D02*
D03*
X747500Y267500D02*
D03*
X750000Y232500D02*
D03*
X730750Y227750D02*
D03*
X732500Y210500D02*
D03*
X749250D02*
D03*
X721750Y211000D02*
D03*
X711000Y211500D02*
D03*
X710250Y227000D02*
D03*
X700000Y226750D02*
D03*
X703500Y206750D02*
D03*
X691750Y219000D02*
D03*
X695250Y198500D02*
D03*
X683500Y211000D02*
D03*
X685750Y189250D02*
D03*
X674250Y201500D02*
D03*
X677000Y180250D02*
D03*
X665000Y172000D02*
D03*
X664750Y192500D02*
D03*
X653000Y172500D02*
D03*
X652750Y188750D02*
D03*
X641500Y172500D02*
D03*
X641250Y188750D02*
D03*
X630000Y172500D02*
D03*
X629750Y188750D02*
D03*
X617750Y172500D02*
D03*
Y188500D02*
D03*
X604750Y172500D02*
D03*
Y188500D02*
D03*
X592000Y172750D02*
D03*
Y188500D02*
D03*
X579000Y172750D02*
D03*
Y188500D02*
D03*
X442750Y233750D02*
D03*
X423500Y232500D02*
D03*
X399250D02*
D03*
X490750Y235000D02*
D03*
X473750Y234750D02*
D03*
X559250Y182000D02*
D03*
X566750Y196750D02*
D03*
X558500Y205250D02*
D03*
X548750Y190250D02*
D03*
X549500Y211750D02*
D03*
X538000Y193750D02*
D03*
Y211750D02*
D03*
X526750Y194000D02*
D03*
X526500Y211750D02*
D03*
X506750Y215250D02*
D03*
X492500Y200000D02*
D03*
X1002000Y196750D02*
D03*
X1580250Y192000D02*
D03*
X1579750Y253750D02*
D03*
X1443250Y335750D02*
D03*
Y306000D02*
D03*
X1343500Y433750D02*
D03*
X1376750Y452250D02*
D03*
X1165750Y455000D02*
D03*
X923000Y492000D02*
D03*
X1037500Y491750D02*
D03*
X1213750Y372750D02*
D03*
X1450250Y563500D02*
D03*
X1426750Y588750D02*
D03*
X1463000Y652000D02*
D03*
X1448250D02*
D03*
X1439250Y651750D02*
D03*
X1482500Y532750D02*
D03*
X1493000Y518000D02*
D03*
X1437250Y563500D02*
D03*
X1565750Y601750D02*
D03*
Y562250D02*
D03*
X328750Y253000D02*
D03*
X304250D02*
D03*
X284250Y253250D02*
D03*
X422500Y317750D02*
D03*
X398750Y317250D02*
D03*
X378250Y313000D02*
D03*
X366000Y284750D02*
D03*
X330000Y333250D02*
D03*
X375827Y344310D02*
D03*
X1206250Y520000D02*
D03*
X1148750Y509500D02*
D03*
X1454000Y506500D02*
D03*
Y489250D02*
D03*
X1377000Y409750D02*
D03*
X482750Y346250D02*
D03*
X1286652Y472155D02*
D03*
X1206735Y478985D02*
D03*
X1172735D02*
D03*
X1190485Y441985D02*
D03*
X1287000Y377750D02*
D03*
X1206750Y315500D02*
D03*
X1289750Y388000D02*
D03*
X1206750Y297500D02*
D03*
X1291750Y396500D02*
D03*
X1296750Y402500D02*
D03*
X1302500Y409500D02*
D03*
X1308250Y416000D02*
D03*
X1312000Y423750D02*
D03*
X1312750Y432750D02*
D03*
X1207250Y280250D02*
D03*
X1194250Y395750D02*
D03*
X1295750Y280500D02*
D03*
X1194500Y406460D02*
D03*
X1295750Y298500D02*
D03*
X1194500Y414000D02*
D03*
X1296000Y317750D02*
D03*
X1194500Y421750D02*
D03*
Y429500D02*
D03*
X1296000Y334500D02*
D03*
X1295750Y352250D02*
D03*
X1116500Y346000D02*
D03*
X1116750Y333750D02*
D03*
X1117000Y316000D02*
D03*
X1117250Y297500D02*
D03*
X1453750Y391250D02*
D03*
X1493500Y380750D02*
D03*
X1286906Y462941D02*
D03*
X1287000Y452750D02*
D03*
X1141500Y486750D02*
D03*
X1083750Y511750D02*
D03*
X1483249Y267702D02*
D03*
X1554000Y505250D02*
D03*
X1490750Y505500D02*
D03*
X1076250Y465750D02*
D03*
X1118000Y465000D02*
D03*
X1115250Y407250D02*
D03*
X1068000Y420750D02*
D03*
X1197250Y570750D02*
D03*
X986000D02*
D03*
X1176750Y579000D02*
D03*
X966750D02*
D03*
X1095500Y369500D02*
D03*
X1140750Y388500D02*
D03*
X1141250Y370250D02*
D03*
X930250Y402500D02*
D03*
X935000Y426250D02*
D03*
X900250Y425750D02*
D03*
X932750Y339500D02*
D03*
X937500Y352750D02*
D03*
X856750Y334500D02*
D03*
X862750Y327250D02*
D03*
X868500Y319250D02*
D03*
X874750Y311000D02*
D03*
X881250Y303000D02*
D03*
X887000Y295750D02*
D03*
X1030000Y300500D02*
D03*
X770500Y286750D02*
D03*
X1037750Y291000D02*
D03*
X1045750Y347000D02*
D03*
X1057250Y344000D02*
D03*
X1065000Y337750D02*
D03*
X1071000Y331750D02*
D03*
X1077500Y323500D02*
D03*
X1044000Y283750D02*
D03*
X1092250Y144500D02*
D03*
X1016500Y145000D02*
D03*
X1463500Y267250D02*
D03*
X1371750Y279750D02*
D03*
X1282000Y280000D02*
D03*
X1192500D02*
D03*
X1160750Y383500D02*
D03*
X1022750Y425000D02*
D03*
X458250Y276250D02*
D03*
X442500Y286250D02*
D03*
X474000Y276500D02*
D03*
X491000D02*
D03*
X508500D02*
D03*
X525000Y274000D02*
D03*
X1513250Y270500D02*
D03*
X1529250Y214000D02*
D03*
X1552250Y223250D02*
D03*
X1523000Y270750D02*
D03*
X1552500Y242250D02*
D03*
X1543750Y271000D02*
D03*
X1093000Y181500D02*
D03*
X1467750Y214000D02*
D03*
X992250Y187500D02*
D03*
X974250Y221000D02*
D03*
X1583250Y485250D02*
D03*
X1091250Y244000D02*
D03*
X774750Y155250D02*
D03*
X806000Y268500D02*
D03*
X799250Y276250D02*
D03*
X887180Y156320D02*
D03*
X927500Y212750D02*
D03*
X803500Y170750D02*
D03*
X833000Y185750D02*
D03*
X902500Y174500D02*
D03*
X939250Y213000D02*
D03*
X1048750Y206750D02*
D03*
X871250Y270000D02*
D03*
X852000Y286250D02*
D03*
X833000Y253750D02*
D03*
X849000Y238000D02*
D03*
Y198250D02*
D03*
X735500Y166500D02*
D03*
X458250Y186250D02*
D03*
X741250Y232500D02*
D03*
X741000Y205000D02*
D03*
X506770Y206230D02*
D03*
X501500Y200250D02*
D03*
X665250Y282750D02*
D03*
X641250Y283000D02*
D03*
X606000Y264250D02*
D03*
X588250Y278500D02*
D03*
X575500Y265250D02*
D03*
X559750Y278500D02*
D03*
X606500Y248750D02*
D03*
Y230750D02*
D03*
X606750Y213000D02*
D03*
X355500Y312000D02*
D03*
X314000Y333250D02*
D03*
X733880Y538796D02*
D03*
X732750Y514750D02*
D03*
X741130Y497546D02*
D03*
X729130Y451546D02*
D03*
X687630Y464296D02*
D03*
X749630Y549046D02*
D03*
X769880D02*
D03*
X494838Y538796D02*
D03*
X494000Y514750D02*
D03*
X502088Y497546D02*
D03*
X490088Y451546D02*
D03*
X448588Y464296D02*
D03*
X510588Y549046D02*
D03*
X530838D02*
D03*
X723176Y458092D02*
D03*
X729426Y435592D02*
D03*
X484134Y458092D02*
D03*
X490384Y435592D02*
D03*
X741130Y516088D02*
D03*
X740880Y524588D02*
D03*
X501750Y524500D02*
D03*
X502000Y516000D02*
D03*
X263771Y525599D02*
D03*
X251500Y435750D02*
D03*
X245250Y458250D02*
D03*
X264000Y516250D02*
D03*
X292000Y549250D02*
D03*
X271750D02*
D03*
X209750Y464500D02*
D03*
X251250Y451750D02*
D03*
X263250Y497750D02*
D03*
X256250Y514750D02*
D03*
X256000Y539000D02*
D03*
X1117500Y279750D02*
D03*
M02*
