G04*
G04 #@! TF.GenerationSoftware,Altium Limited,Altium Designer,25.1.2 (22)*
G04*
G04 Layer_Color=8421504*
%FSLAX44Y44*%
%MOMM*%
G71*
G04*
G04 #@! TF.SameCoordinates,24EE1BED-7E77-41C4-A39D-8EFC6A2CB599*
G04*
G04*
G04 #@! TF.FilePolarity,Positive*
G04*
G01*
G75*
%ADD17R,0.6700X0.3000*%
%ADD18O,0.6700X0.3000*%
G04:AMPARAMS|DCode=19|XSize=3.3mm|YSize=1.7mm|CornerRadius=0.2125mm|HoleSize=0mm|Usage=FLASHONLY|Rotation=180.000|XOffset=0mm|YOffset=0mm|HoleType=Round|Shape=RoundedRectangle|*
%AMROUNDEDRECTD19*
21,1,3.3000,1.2750,0,0,180.0*
21,1,2.8750,1.7000,0,0,180.0*
1,1,0.4250,-1.4375,0.6375*
1,1,0.4250,1.4375,0.6375*
1,1,0.4250,1.4375,-0.6375*
1,1,0.4250,-1.4375,-0.6375*
%
%ADD19ROUNDEDRECTD19*%
G04:AMPARAMS|DCode=20|XSize=1mm|YSize=1.1mm|CornerRadius=0.075mm|HoleSize=0mm|Usage=FLASHONLY|Rotation=180.000|XOffset=0mm|YOffset=0mm|HoleType=Round|Shape=RoundedRectangle|*
%AMROUNDEDRECTD20*
21,1,1.0000,0.9500,0,0,180.0*
21,1,0.8500,1.1000,0,0,180.0*
1,1,0.1500,-0.4250,0.4750*
1,1,0.1500,0.4250,0.4750*
1,1,0.1500,0.4250,-0.4750*
1,1,0.1500,-0.4250,-0.4750*
%
%ADD20ROUNDEDRECTD20*%
%ADD21R,1.5000X0.6000*%
%ADD22R,1.5000X0.4000*%
%ADD23R,5.6000X2.1000*%
G04:AMPARAMS|DCode=24|XSize=3.3mm|YSize=1.7mm|CornerRadius=0.2125mm|HoleSize=0mm|Usage=FLASHONLY|Rotation=90.000|XOffset=0mm|YOffset=0mm|HoleType=Round|Shape=RoundedRectangle|*
%AMROUNDEDRECTD24*
21,1,3.3000,1.2750,0,0,90.0*
21,1,2.8750,1.7000,0,0,90.0*
1,1,0.4250,0.6375,1.4375*
1,1,0.4250,0.6375,-1.4375*
1,1,0.4250,-0.6375,-1.4375*
1,1,0.4250,-0.6375,1.4375*
%
%ADD24ROUNDEDRECTD24*%
%ADD25R,0.3000X0.6700*%
%ADD26O,0.3000X0.6700*%
G04:AMPARAMS|DCode=27|XSize=1mm|YSize=1.1mm|CornerRadius=0.075mm|HoleSize=0mm|Usage=FLASHONLY|Rotation=270.000|XOffset=0mm|YOffset=0mm|HoleType=Round|Shape=RoundedRectangle|*
%AMROUNDEDRECTD27*
21,1,1.0000,0.9500,0,0,270.0*
21,1,0.8500,1.1000,0,0,270.0*
1,1,0.1500,-0.4750,-0.4250*
1,1,0.1500,-0.4750,0.4250*
1,1,0.1500,0.4750,0.4250*
1,1,0.1500,0.4750,-0.4250*
%
%ADD27ROUNDEDRECTD27*%
G04:AMPARAMS|DCode=28|XSize=1.1mm|YSize=1mm|CornerRadius=0.1mm|HoleSize=0mm|Usage=FLASHONLY|Rotation=180.000|XOffset=0mm|YOffset=0mm|HoleType=Round|Shape=RoundedRectangle|*
%AMROUNDEDRECTD28*
21,1,1.1000,0.8000,0,0,180.0*
21,1,0.9000,1.0000,0,0,180.0*
1,1,0.2000,-0.4500,0.4000*
1,1,0.2000,0.4500,0.4000*
1,1,0.2000,0.4500,-0.4000*
1,1,0.2000,-0.4500,-0.4000*
%
%ADD28ROUNDEDRECTD28*%
%ADD29R,0.4000X0.4800*%
G04:AMPARAMS|DCode=30|XSize=1.3mm|YSize=1.5mm|CornerRadius=0.0975mm|HoleSize=0mm|Usage=FLASHONLY|Rotation=180.000|XOffset=0mm|YOffset=0mm|HoleType=Round|Shape=RoundedRectangle|*
%AMROUNDEDRECTD30*
21,1,1.3000,1.3050,0,0,180.0*
21,1,1.1050,1.5000,0,0,180.0*
1,1,0.1950,-0.5525,0.6525*
1,1,0.1950,0.5525,0.6525*
1,1,0.1950,0.5525,-0.6525*
1,1,0.1950,-0.5525,-0.6525*
%
%ADD30ROUNDEDRECTD30*%
G04:AMPARAMS|DCode=31|XSize=1.3mm|YSize=1.5mm|CornerRadius=0.0975mm|HoleSize=0mm|Usage=FLASHONLY|Rotation=90.000|XOffset=0mm|YOffset=0mm|HoleType=Round|Shape=RoundedRectangle|*
%AMROUNDEDRECTD31*
21,1,1.3000,1.3050,0,0,90.0*
21,1,1.1050,1.5000,0,0,90.0*
1,1,0.1950,0.6525,0.5525*
1,1,0.1950,0.6525,-0.5525*
1,1,0.1950,-0.6525,-0.5525*
1,1,0.1950,-0.6525,0.5525*
%
%ADD31ROUNDEDRECTD31*%
G04:AMPARAMS|DCode=32|XSize=1.1mm|YSize=1mm|CornerRadius=0.075mm|HoleSize=0mm|Usage=FLASHONLY|Rotation=90.000|XOffset=0mm|YOffset=0mm|HoleType=Round|Shape=RoundedRectangle|*
%AMROUNDEDRECTD32*
21,1,1.1000,0.8500,0,0,90.0*
21,1,0.9500,1.0000,0,0,90.0*
1,1,0.1500,0.4250,0.4750*
1,1,0.1500,0.4250,-0.4750*
1,1,0.1500,-0.4250,-0.4750*
1,1,0.1500,-0.4250,0.4750*
%
%ADD32ROUNDEDRECTD32*%
G04:AMPARAMS|DCode=33|XSize=1.1mm|YSize=1mm|CornerRadius=0.075mm|HoleSize=0mm|Usage=FLASHONLY|Rotation=0.000|XOffset=0mm|YOffset=0mm|HoleType=Round|Shape=RoundedRectangle|*
%AMROUNDEDRECTD33*
21,1,1.1000,0.8500,0,0,0.0*
21,1,0.9500,1.0000,0,0,0.0*
1,1,0.1500,0.4750,-0.4250*
1,1,0.1500,-0.4750,-0.4250*
1,1,0.1500,-0.4750,0.4250*
1,1,0.1500,0.4750,0.4250*
%
%ADD33ROUNDEDRECTD33*%
%ADD34R,0.8000X2.7000*%
%ADD35R,0.4500X0.5900*%
%ADD36R,1.7000X2.5000*%
G04:AMPARAMS|DCode=37|XSize=1.1mm|YSize=0.6mm|CornerRadius=0.03mm|HoleSize=0mm|Usage=FLASHONLY|Rotation=0.000|XOffset=0mm|YOffset=0mm|HoleType=Round|Shape=RoundedRectangle|*
%AMROUNDEDRECTD37*
21,1,1.1000,0.5400,0,0,0.0*
21,1,1.0400,0.6000,0,0,0.0*
1,1,0.0600,0.5200,-0.2700*
1,1,0.0600,-0.5200,-0.2700*
1,1,0.0600,-0.5200,0.2700*
1,1,0.0600,0.5200,0.2700*
%
%ADD37ROUNDEDRECTD37*%
G04:AMPARAMS|DCode=38|XSize=1.1mm|YSize=1mm|CornerRadius=0.1mm|HoleSize=0mm|Usage=FLASHONLY|Rotation=90.000|XOffset=0mm|YOffset=0mm|HoleType=Round|Shape=RoundedRectangle|*
%AMROUNDEDRECTD38*
21,1,1.1000,0.8000,0,0,90.0*
21,1,0.9000,1.0000,0,0,90.0*
1,1,0.2000,0.4000,0.4500*
1,1,0.2000,0.4000,-0.4500*
1,1,0.2000,-0.4000,-0.4500*
1,1,0.2000,-0.4000,0.4500*
%
%ADD38ROUNDEDRECTD38*%
D17*
X1085679Y484483D02*
D03*
X443399Y479423D02*
D03*
X764179Y483943D02*
D03*
D18*
X1085679Y489483D02*
D03*
Y494483D02*
D03*
X1070879Y484483D02*
D03*
Y489483D02*
D03*
Y494483D02*
D03*
X428599Y489423D02*
D03*
Y484423D02*
D03*
Y479423D02*
D03*
X443399Y489423D02*
D03*
Y484423D02*
D03*
X764179Y488943D02*
D03*
Y493943D02*
D03*
X749379Y483943D02*
D03*
Y488943D02*
D03*
Y493943D02*
D03*
D19*
X516550Y252700D02*
D03*
X503000Y148000D02*
D03*
X1237000Y308000D02*
D03*
Y282000D02*
D03*
X683000Y222000D02*
D03*
X1155000Y136000D02*
D03*
X1242000D02*
D03*
X569000Y149000D02*
D03*
D20*
X719890Y167430D02*
D03*
Y151430D02*
D03*
X741890Y167430D02*
D03*
Y151430D02*
D03*
X352210Y581160D02*
D03*
Y597160D02*
D03*
X392210Y581160D02*
D03*
Y597160D02*
D03*
X432210Y581160D02*
D03*
Y597160D02*
D03*
X472210Y581160D02*
D03*
Y597160D02*
D03*
X512210Y581160D02*
D03*
Y597160D02*
D03*
X417929Y433153D02*
D03*
Y449153D02*
D03*
X417679Y398863D02*
D03*
Y414863D02*
D03*
X383679Y414783D02*
D03*
Y398783D02*
D03*
X994490Y597160D02*
D03*
Y581160D02*
D03*
X1034490Y597160D02*
D03*
Y581160D02*
D03*
X1074490Y597160D02*
D03*
Y581160D02*
D03*
X1114490Y597160D02*
D03*
Y581160D02*
D03*
X1154490Y597160D02*
D03*
Y581160D02*
D03*
X1060209Y454213D02*
D03*
Y438213D02*
D03*
X1059959Y419923D02*
D03*
Y403923D02*
D03*
X1025959Y403843D02*
D03*
Y419843D02*
D03*
X672990Y597160D02*
D03*
Y581160D02*
D03*
X712990Y597160D02*
D03*
Y581160D02*
D03*
X752990Y597160D02*
D03*
Y581160D02*
D03*
X792990Y597160D02*
D03*
Y581160D02*
D03*
X832990Y597160D02*
D03*
Y581160D02*
D03*
X738709Y453673D02*
D03*
Y437673D02*
D03*
X738459Y419383D02*
D03*
Y403383D02*
D03*
X704459Y403303D02*
D03*
Y419303D02*
D03*
X1224260Y581160D02*
D03*
Y597160D02*
D03*
X540890Y196430D02*
D03*
Y212430D02*
D03*
D21*
X949009Y250008D02*
D03*
Y163507D02*
D03*
X890509D02*
D03*
Y250008D02*
D03*
D22*
X949009Y210008D02*
D03*
Y203508D02*
D03*
Y197008D02*
D03*
Y190508D02*
D03*
Y171007D02*
D03*
Y177507D02*
D03*
Y184007D02*
D03*
X890509D02*
D03*
Y177507D02*
D03*
Y171007D02*
D03*
Y190508D02*
D03*
Y197008D02*
D03*
Y203508D02*
D03*
Y210008D02*
D03*
Y229508D02*
D03*
Y236008D02*
D03*
Y242508D02*
D03*
Y223008D02*
D03*
Y216508D02*
D03*
X949009D02*
D03*
Y223008D02*
D03*
Y242508D02*
D03*
Y236008D02*
D03*
Y229508D02*
D03*
D23*
X1129949Y502093D02*
D03*
Y544093D02*
D03*
X808449Y501553D02*
D03*
Y543553D02*
D03*
X487669Y497033D02*
D03*
Y539033D02*
D03*
D24*
X269000Y633000D02*
D03*
X337049Y540723D02*
D03*
X979329Y545783D02*
D03*
X657829Y545243D02*
D03*
D25*
X392250Y234850D02*
D03*
D26*
X397250D02*
D03*
X402250D02*
D03*
X392250Y249650D02*
D03*
X397250D02*
D03*
X402250D02*
D03*
D27*
X383739Y433343D02*
D03*
X399739D02*
D03*
X455210Y399023D02*
D03*
X439210D02*
D03*
X1042019Y438403D02*
D03*
X1026019D02*
D03*
X1081489Y404083D02*
D03*
X1097489D02*
D03*
X720519Y437863D02*
D03*
X704519D02*
D03*
X759989Y403543D02*
D03*
X775990D02*
D03*
X394820Y294140D02*
D03*
X410820D02*
D03*
X410680Y276360D02*
D03*
X394680D02*
D03*
X375180Y254360D02*
D03*
X359180D02*
D03*
X359570Y272890D02*
D03*
X375570D02*
D03*
X826180Y288360D02*
D03*
X842180D02*
D03*
X873500Y288250D02*
D03*
X889500D02*
D03*
X1051930Y195360D02*
D03*
X1067930D02*
D03*
X842320Y269890D02*
D03*
X826320D02*
D03*
X889820D02*
D03*
X873820D02*
D03*
X1018070Y205640D02*
D03*
X1034070D02*
D03*
X1068070Y213640D02*
D03*
X1052070D02*
D03*
X626411Y168235D02*
D03*
X610411D02*
D03*
X563820Y252640D02*
D03*
X547820D02*
D03*
D28*
X364379Y415103D02*
D03*
Y399103D02*
D03*
X1006659Y404163D02*
D03*
Y420163D02*
D03*
X685159Y403623D02*
D03*
Y419623D02*
D03*
D29*
X358639Y540383D02*
D03*
Y527183D02*
D03*
X1000919Y532243D02*
D03*
Y545443D02*
D03*
X679419Y531703D02*
D03*
Y544903D02*
D03*
D30*
X396789Y454173D02*
D03*
X377789D02*
D03*
X396789Y478303D02*
D03*
X377789D02*
D03*
X396789Y502323D02*
D03*
X377789D02*
D03*
X437700Y444063D02*
D03*
X456699D02*
D03*
X437700Y419933D02*
D03*
X456699D02*
D03*
X1020069Y459233D02*
D03*
X1039069D02*
D03*
X1020069Y483363D02*
D03*
X1039069D02*
D03*
X1020069Y507383D02*
D03*
X1039069D02*
D03*
X1098979Y449123D02*
D03*
X1079979D02*
D03*
X1098979Y424993D02*
D03*
X1079979D02*
D03*
X698569Y458693D02*
D03*
X717569D02*
D03*
X698569Y482823D02*
D03*
X717569D02*
D03*
X698569Y506843D02*
D03*
X717569D02*
D03*
X777479Y448583D02*
D03*
X758480D02*
D03*
X777479Y424453D02*
D03*
X758480D02*
D03*
D31*
X426349Y524853D02*
D03*
Y543853D02*
D03*
X402729Y524853D02*
D03*
Y543853D02*
D03*
X379109Y524853D02*
D03*
Y543853D02*
D03*
X1068629Y548913D02*
D03*
Y529913D02*
D03*
X1045009Y548913D02*
D03*
Y529913D02*
D03*
X1021389Y548913D02*
D03*
Y529913D02*
D03*
X747129Y548373D02*
D03*
Y529373D02*
D03*
X723509Y548373D02*
D03*
Y529373D02*
D03*
X699889Y548373D02*
D03*
Y529373D02*
D03*
X444890Y214300D02*
D03*
Y195300D02*
D03*
X444610Y236200D02*
D03*
Y255200D02*
D03*
X349890Y234300D02*
D03*
Y215300D02*
D03*
X373890Y234300D02*
D03*
Y215300D02*
D03*
X468890Y214300D02*
D03*
Y195300D02*
D03*
X468610Y236200D02*
D03*
Y255200D02*
D03*
D32*
X446329Y540533D02*
D03*
Y523533D02*
D03*
X1088609Y528593D02*
D03*
Y545593D02*
D03*
X767109Y528053D02*
D03*
Y545053D02*
D03*
X423950Y234980D02*
D03*
Y251980D02*
D03*
X329550Y232520D02*
D03*
Y215520D02*
D03*
X523300Y196270D02*
D03*
Y213270D02*
D03*
X506300Y196270D02*
D03*
Y213270D02*
D03*
X645700Y231730D02*
D03*
Y214730D02*
D03*
X627700Y231730D02*
D03*
Y214730D02*
D03*
X609700Y231730D02*
D03*
Y214730D02*
D03*
D33*
X454780Y464423D02*
D03*
X437780D02*
D03*
X1080060Y469483D02*
D03*
X1097059D02*
D03*
X758559Y468943D02*
D03*
X775559D02*
D03*
D34*
X424250Y207250D02*
D03*
X402250D02*
D03*
D35*
X488250Y193350D02*
D03*
Y215150D02*
D03*
D36*
X235250Y628250D02*
D03*
Y668250D02*
D03*
D37*
X592000Y195000D02*
D03*
X566000Y214000D02*
D03*
Y204500D02*
D03*
Y195000D02*
D03*
X592000Y214000D02*
D03*
D38*
X661340Y167950D02*
D03*
X645340D02*
D03*
X598500Y252750D02*
D03*
X582500D02*
D03*
M02*
