M48
;Layer_Color=9474304
;FILE_FORMAT=2:4
INCH,TZ
;TYPE=PLATED
T01F00S00C0.0098
T03F00S00C0.0354
T04F00S00C0.0394
T05F00S00C0.0433
T06F00S00C0.0630
T07F00S00C0.1063
T08F00S00C0.1339
;TYPE=NON_PLATED
T09F00S00C0.1260
%
T01
X4724Y4528
X5906
X7087
X8268
X7677Y5709
X8268Y6890
X7087
X7677Y8071
X6496
X5315
X4724Y6890
X9685Y7008
X10039Y8071
X11220
X12402
X12992Y6890
X14173
X15354
X16535
X17717
X18898
X20079
X21260
X22441
X23622
X23622Y5000
X22441
X21260
X20079
X18897
X17717
X16535
X15354
X14173
X12992
X11811
X12402Y5709
X13583
X14764
X15945
X17126
X18307
X19488Y8071
X11811Y6890
X10551Y6142
X10039Y5709
X8858
X9449Y4528
X10630
X24803Y5000
X25984
X27166
X28346
X28346Y5354
X27756Y5709
X26575
X25394
X24213
X27165Y6890
X30709
X31890
X31699Y7586
X33071Y6890
X33661Y5709
X32480
X31299
X30118
X29528Y5000
X29213Y4685
X30709Y5000
X31890
X33071
X34252
X35433Y4528
X36614
X37795
X38976
X39094Y5787
X38386Y5906
X39606Y7126
X39331Y7480
X39045Y7837
X36417Y7717
X36102Y7087
X35039Y6063
X34488Y6457
X39882Y6772
X40236Y6732
Y6024
X39843Y6063
X40748Y5709
X41929
X43110
X44291
X44882Y6890
X46063
X47244
X48425
X49606
X50787
X51968
X51378Y8071
X50197
X49016
X47835
X46654
X45472
X44291
X43701Y6890
X42520
X42520Y7677
X40709Y7638
X41339Y6890
Y4528
X42520
X43701
X44882
X46063
X47244
X48425
X49606
X50787
X51968
X53150
X54331
X54921Y5709
X54331Y6890
X54921Y8071
X53740
X51378Y5709
X50197
X47835
X46654
X40157Y4528
X42520Y8386
X43701Y9252
X44882
X46063
X47244
X48425
X49606
X49016Y10433
X47835
X46654
X45472
X44291
X43110
X43701Y11614
X44882
X46063
X47244
X47835Y12795
X49016
X50197
X51378
X51968Y13976
X53150
X53740Y12795
X54921
X54331Y11614
X54921Y10433
X53740
X51378
X51968Y9252
X50787Y11614
X49606
Y13976
X50787
X51378Y15157
X50197
X49016
X49606Y16339
X50787
X51968
X53150
X54331
X54921Y17520
X53740
X54331Y18701
X53150
X51968
X52559Y19882
X53740
X54921
X54331Y21063
X53150
X51968
X50787
X51378Y22244
X51968Y23425
X53150
X54331
X54921Y22244
X53740
X50787Y23425
X49606
X49016Y22244
X48425Y21063
X47244
X46063
X46654Y19882
X49016
X50197
X51378
Y17520
X54921Y15157
X48425Y13976
X46654Y12795
X45472
X44291
X41929
X40748
X40787Y12362
X42520Y11614
X41181Y15906
X41024Y16732
X41693Y18425
X41654Y18898
Y19409
X41417Y20000
X42165Y19764
X42756
X43110Y19882
X42874Y20315
X42913Y23071
X43425Y22872
X44488Y23071
X44921Y22872
X44882Y23425
X46063
X47677Y22874
X41772Y22872
X41339Y23425
X40157
X40236Y22872
X39724Y23071
X38583Y22872
X37795Y23425
X36614
X35433
X36024Y22244
X37205
X37795Y21063
X36614
X37205Y19882
X38386
X37795Y18701
X38386Y17520
X37205
X36024
X34843
X33661
X34252Y18701
X35433
X36024Y19882
X34843
X33661
X34252Y21063
X34843Y22244
X32323Y22872
X31890Y23425
X30709
X30709Y22872
X30276Y23071
X29134Y22872
X28740Y23110
X27530Y22870
X27165Y23425
X25984
X25912Y22861
X25394Y22244
X24213
X24803Y23425
Y21063
X25394Y19882
X26575
X28819Y19961
X29016Y19409
Y18898
X29134Y18504
X29488Y19764
X30079
X28346Y16811
X28346Y16339
X28543Y15866
X25984Y16339
X24803
X25394Y17520
X24803Y18701
X24213Y19882
Y12795
X25394
X26575
X27756
X30118
X32480
X32087Y11378
X31850Y10630
X33858
X33648Y9744
X33648Y9348
X33646Y8976
X33089Y9742
X32534Y9281
X32267Y8721
X31974Y8216
X36732Y8268
Y9055
Y9724
X38228Y9646
Y9173
X37953Y9055
X38504Y10000
X38189Y10472
Y10945
X38386Y12795
X37205
X36024
X33819Y11811
X34252Y16339
X35433
X37795
X38740Y8268
X25433Y9606
X24685Y9646
X23582Y10472
X20866Y9291
Y8937
X20394
Y9291
X19921
Y8937
X19488Y10433
X20079Y11614
X19488Y12795
X21850
X22441Y16339
X23622
X23031Y17520
X21850
X22441Y18701
X23622
X23031Y19882
X23622Y21063
X22441
X21260
X21850Y22244
X23031
X23622Y23425
X22441
X19646Y23268
X19685Y22874
X19488Y22244
X18307
X18110Y22874
X17717Y23425
X16535
X16535Y22874
X14921
Y23268
X14764Y22244
X13346Y22874
X12992Y23425
X11811
X10630
X11220Y22244
X12402
Y19882
X12992Y18701
X12402Y17520
X12992Y16339
X13898Y16339
X15748Y16535
X15984Y16220
X16024Y15709
X16417Y18150
X16415Y18718
X16102Y18858
X16417Y19173
X16772Y19606
Y20118
X17559
X17441Y19606
X16142Y19764
X20669Y19882
X21260Y18701
Y16339
X17126Y12795
X15945
X16181Y12047
X15000Y11575
X14173Y11614
X14173Y11220
X14764Y12795
X15787Y10315
X16220
Y9252
X17480Y10591
X17717Y11614
X11811Y9252
X10630
X9449
X10039Y10433
X9449Y11614
X10039Y12795
X8858
X9449Y13976
X10039Y15157
X9449Y16339
X10039Y17520
X8858
Y19882
X7677
X6496
X5315
X5906Y21063
X7087
X7677Y22244
X8268Y23425
X7087
X5906
X4724
X5315Y22244
X4724Y21063
Y18701
X5906
X7087
X7677Y17520
X8268Y16339
X7087
X5906
X4724
X5315Y17520
X5906Y13976
X7087
X7677Y15157
Y12795
X8268Y11614
X8150Y8543
X5315Y10433
X4724Y11614
X5315Y12795
X7677Y24606
X8268Y25787
X7677Y26968
X6496
X5315
X10039
X11220
X12402
X12992Y25787
X11811
X10630
X11220Y24606
X12402
X14764
Y26968
X15945
X19488
X20669
X21850
X23031
Y24606
X19488
X10039
X24213
X25394
X24803Y25787
X25394Y26968
X24213
X28937
X30118
X33661
X34843
X37205
X38386
X39567
X37795Y25787
X36614
X37205Y24606
X38386
X36024
X34843
X28937
X43110
Y26968
X44291
X46654
X49016
X51378
X52559
X53740
X54921Y24606
X51378
X50197
X49016
T03
X50340Y9202
Y10104
X52237Y10497
Y11300
Y12104
Y12907
X52938Y12505
Y11702
Y10899
Y13308
X50340Y13702
Y14604
X8715Y14735
Y13833
Y10235
Y9333
X6818Y11030
Y11833
Y12637
Y13440
X6117Y13038
Y12235
Y11432
Y10629
T04
X23295Y25692
Y26480
X35939
Y25692
X50445
Y26480
T05
X13862Y24574
Y25574
Y26574
X15437
Y25574
Y24574
X17012
Y25574
Y26574
X18587
Y25574
Y24574
X20161
Y25574
Y26574
X26491
Y25574
Y24574
X28066
Y25574
Y26574
X29641
Y25574
Y24574
X31216
Y25574
Y26574
X32791
Y25574
Y24574
X39149
Y25574
Y26574
X40724
Y25574
Y24574
X42298
Y25574
Y26574
X43873
Y25574
Y24574
X45448
Y25574
Y26574
X48195
Y25574
Y24574
T06
X52588Y8704
Y15102
X6467Y15233
Y8835
T07
X49843Y18563
Y21398
X9213Y21398
Y18563
T08
X5898Y5929
X53142
X5898Y25614
X53142
T09
X53938Y9403
Y14403
X5117Y14534
Y9534
M30
