G04*
G04 #@! TF.GenerationSoftware,Altium Limited,Altium Designer,25.1.2 (22)*
G04*
G04 Layer_Color=8388736*
%FSLAX44Y44*%
%MOMM*%
G71*
G04*
G04 #@! TF.SameCoordinates,939082EE-E914-4D5A-B06F-098D18607A17*
G04*
G04*
G04 #@! TF.FilePolarity,Negative*
G04*
G01*
G75*
%ADD39R,0.8200X0.4500*%
%ADD40O,0.8200X0.4500*%
G04:AMPARAMS|DCode=41|XSize=3.5032mm|YSize=1.9032mm|CornerRadius=0.3141mm|HoleSize=0mm|Usage=FLASHONLY|Rotation=180.000|XOffset=0mm|YOffset=0mm|HoleType=Round|Shape=RoundedRectangle|*
%AMROUNDEDRECTD41*
21,1,3.5032,1.2750,0,0,180.0*
21,1,2.8750,1.9032,0,0,180.0*
1,1,0.6282,-1.4375,0.6375*
1,1,0.6282,1.4375,0.6375*
1,1,0.6282,1.4375,-0.6375*
1,1,0.6282,-1.4375,-0.6375*
%
%ADD41ROUNDEDRECTD41*%
G04:AMPARAMS|DCode=42|XSize=1.2032mm|YSize=1.3032mm|CornerRadius=0.1766mm|HoleSize=0mm|Usage=FLASHONLY|Rotation=180.000|XOffset=0mm|YOffset=0mm|HoleType=Round|Shape=RoundedRectangle|*
%AMROUNDEDRECTD42*
21,1,1.2032,0.9500,0,0,180.0*
21,1,0.8500,1.3032,0,0,180.0*
1,1,0.3532,-0.4250,0.4750*
1,1,0.3532,0.4250,0.4750*
1,1,0.3532,0.4250,-0.4750*
1,1,0.3532,-0.4250,-0.4750*
%
%ADD42ROUNDEDRECTD42*%
%ADD43R,1.7032X0.8032*%
%ADD44R,1.7032X0.6032*%
%ADD45R,5.8032X2.3032*%
G04:AMPARAMS|DCode=46|XSize=3.5032mm|YSize=1.9032mm|CornerRadius=0.3141mm|HoleSize=0mm|Usage=FLASHONLY|Rotation=90.000|XOffset=0mm|YOffset=0mm|HoleType=Round|Shape=RoundedRectangle|*
%AMROUNDEDRECTD46*
21,1,3.5032,1.2750,0,0,90.0*
21,1,2.8750,1.9032,0,0,90.0*
1,1,0.6282,0.6375,1.4375*
1,1,0.6282,0.6375,-1.4375*
1,1,0.6282,-0.6375,-1.4375*
1,1,0.6282,-0.6375,1.4375*
%
%ADD46ROUNDEDRECTD46*%
%ADD47R,0.4500X0.8200*%
%ADD48O,0.4500X0.8200*%
G04:AMPARAMS|DCode=49|XSize=1.2032mm|YSize=1.3032mm|CornerRadius=0.1766mm|HoleSize=0mm|Usage=FLASHONLY|Rotation=270.000|XOffset=0mm|YOffset=0mm|HoleType=Round|Shape=RoundedRectangle|*
%AMROUNDEDRECTD49*
21,1,1.2032,0.9500,0,0,270.0*
21,1,0.8500,1.3032,0,0,270.0*
1,1,0.3532,-0.4750,-0.4250*
1,1,0.3532,-0.4750,0.4250*
1,1,0.3532,0.4750,0.4250*
1,1,0.3532,0.4750,-0.4250*
%
%ADD49ROUNDEDRECTD49*%
G04:AMPARAMS|DCode=50|XSize=1.3032mm|YSize=1.2032mm|CornerRadius=0.2016mm|HoleSize=0mm|Usage=FLASHONLY|Rotation=180.000|XOffset=0mm|YOffset=0mm|HoleType=Round|Shape=RoundedRectangle|*
%AMROUNDEDRECTD50*
21,1,1.3032,0.8000,0,0,180.0*
21,1,0.9000,1.2032,0,0,180.0*
1,1,0.4032,-0.4500,0.4000*
1,1,0.4032,0.4500,0.4000*
1,1,0.4032,0.4500,-0.4000*
1,1,0.4032,-0.4500,-0.4000*
%
%ADD50ROUNDEDRECTD50*%
%ADD51R,0.6032X0.6832*%
G04:AMPARAMS|DCode=52|XSize=1.5032mm|YSize=1.7032mm|CornerRadius=0.1991mm|HoleSize=0mm|Usage=FLASHONLY|Rotation=180.000|XOffset=0mm|YOffset=0mm|HoleType=Round|Shape=RoundedRectangle|*
%AMROUNDEDRECTD52*
21,1,1.5032,1.3050,0,0,180.0*
21,1,1.1050,1.7032,0,0,180.0*
1,1,0.3982,-0.5525,0.6525*
1,1,0.3982,0.5525,0.6525*
1,1,0.3982,0.5525,-0.6525*
1,1,0.3982,-0.5525,-0.6525*
%
%ADD52ROUNDEDRECTD52*%
G04:AMPARAMS|DCode=53|XSize=1.5032mm|YSize=1.7032mm|CornerRadius=0.1991mm|HoleSize=0mm|Usage=FLASHONLY|Rotation=90.000|XOffset=0mm|YOffset=0mm|HoleType=Round|Shape=RoundedRectangle|*
%AMROUNDEDRECTD53*
21,1,1.5032,1.3050,0,0,90.0*
21,1,1.1050,1.7032,0,0,90.0*
1,1,0.3982,0.6525,0.5525*
1,1,0.3982,0.6525,-0.5525*
1,1,0.3982,-0.6525,-0.5525*
1,1,0.3982,-0.6525,0.5525*
%
%ADD53ROUNDEDRECTD53*%
G04:AMPARAMS|DCode=54|XSize=1.3032mm|YSize=1.2032mm|CornerRadius=0.1766mm|HoleSize=0mm|Usage=FLASHONLY|Rotation=90.000|XOffset=0mm|YOffset=0mm|HoleType=Round|Shape=RoundedRectangle|*
%AMROUNDEDRECTD54*
21,1,1.3032,0.8500,0,0,90.0*
21,1,0.9500,1.2032,0,0,90.0*
1,1,0.3532,0.4250,0.4750*
1,1,0.3532,0.4250,-0.4750*
1,1,0.3532,-0.4250,-0.4750*
1,1,0.3532,-0.4250,0.4750*
%
%ADD54ROUNDEDRECTD54*%
G04:AMPARAMS|DCode=55|XSize=1.3032mm|YSize=1.2032mm|CornerRadius=0.1766mm|HoleSize=0mm|Usage=FLASHONLY|Rotation=0.000|XOffset=0mm|YOffset=0mm|HoleType=Round|Shape=RoundedRectangle|*
%AMROUNDEDRECTD55*
21,1,1.3032,0.8500,0,0,0.0*
21,1,0.9500,1.2032,0,0,0.0*
1,1,0.3532,0.4750,-0.4250*
1,1,0.3532,-0.4750,-0.4250*
1,1,0.3532,-0.4750,0.4250*
1,1,0.3532,0.4750,0.4250*
%
%ADD55ROUNDEDRECTD55*%
%ADD56R,1.0032X2.9032*%
%ADD57R,0.6532X0.7932*%
%ADD58R,1.9032X2.7032*%
G04:AMPARAMS|DCode=59|XSize=1.3032mm|YSize=0.8032mm|CornerRadius=0.1316mm|HoleSize=0mm|Usage=FLASHONLY|Rotation=0.000|XOffset=0mm|YOffset=0mm|HoleType=Round|Shape=RoundedRectangle|*
%AMROUNDEDRECTD59*
21,1,1.3032,0.5400,0,0,0.0*
21,1,1.0400,0.8032,0,0,0.0*
1,1,0.2632,0.5200,-0.2700*
1,1,0.2632,-0.5200,-0.2700*
1,1,0.2632,-0.5200,0.2700*
1,1,0.2632,0.5200,0.2700*
%
%ADD59ROUNDEDRECTD59*%
G04:AMPARAMS|DCode=60|XSize=1.3032mm|YSize=1.2032mm|CornerRadius=0.2016mm|HoleSize=0mm|Usage=FLASHONLY|Rotation=90.000|XOffset=0mm|YOffset=0mm|HoleType=Round|Shape=RoundedRectangle|*
%AMROUNDEDRECTD60*
21,1,1.3032,0.8000,0,0,90.0*
21,1,0.9000,1.2032,0,0,90.0*
1,1,0.4032,0.4000,0.4500*
1,1,0.4032,0.4000,-0.4500*
1,1,0.4032,-0.4000,-0.4500*
1,1,0.4032,-0.4000,0.4500*
%
%ADD60ROUNDEDRECTD60*%
%ADD61C,1.8032*%
%ADD62R,1.8032X1.8032*%
%ADD63C,1.6000*%
%ADD64C,3.9032*%
G04:AMPARAMS|DCode=65|XSize=1.7032mm|YSize=3.2032mm|CornerRadius=0.4766mm|HoleSize=0mm|Usage=FLASHONLY|Rotation=270.000|XOffset=0mm|YOffset=0mm|HoleType=Round|Shape=RoundedRectangle|*
%AMROUNDEDRECTD65*
21,1,1.7032,2.2500,0,0,270.0*
21,1,0.7500,3.2032,0,0,270.0*
1,1,0.9532,-1.1250,-0.3750*
1,1,0.9532,-1.1250,0.3750*
1,1,0.9532,1.1250,0.3750*
1,1,0.9532,1.1250,-0.3750*
%
%ADD65ROUNDEDRECTD65*%
%ADD66C,6.2032*%
%ADD67C,1.6112*%
%ADD68R,1.6112X1.6112*%
%ADD69C,2.6032*%
%ADD70C,3.4032*%
D39*
X1085679Y484483D02*
D03*
X443399Y479423D02*
D03*
X764179Y483943D02*
D03*
D40*
X1085679Y489483D02*
D03*
Y494483D02*
D03*
X1070879Y484483D02*
D03*
Y489483D02*
D03*
Y494483D02*
D03*
X428599Y489423D02*
D03*
Y484423D02*
D03*
Y479423D02*
D03*
X443399Y489423D02*
D03*
Y484423D02*
D03*
X764179Y488943D02*
D03*
Y493943D02*
D03*
X749379Y483943D02*
D03*
Y488943D02*
D03*
Y493943D02*
D03*
D41*
X516550Y252700D02*
D03*
X503000Y148000D02*
D03*
X1237000Y308000D02*
D03*
Y282000D02*
D03*
X683000Y222000D02*
D03*
X1155000Y136000D02*
D03*
X1242000D02*
D03*
X569000Y149000D02*
D03*
D42*
X719890Y167430D02*
D03*
Y151430D02*
D03*
X741890Y167430D02*
D03*
Y151430D02*
D03*
X352210Y581160D02*
D03*
Y597160D02*
D03*
X392210Y581160D02*
D03*
Y597160D02*
D03*
X432210Y581160D02*
D03*
Y597160D02*
D03*
X472210Y581160D02*
D03*
Y597160D02*
D03*
X512210Y581160D02*
D03*
Y597160D02*
D03*
X417929Y433153D02*
D03*
Y449153D02*
D03*
X417679Y398863D02*
D03*
Y414863D02*
D03*
X383679Y414783D02*
D03*
Y398783D02*
D03*
X994490Y597160D02*
D03*
Y581160D02*
D03*
X1034490Y597160D02*
D03*
Y581160D02*
D03*
X1074490Y597160D02*
D03*
Y581160D02*
D03*
X1114490Y597160D02*
D03*
Y581160D02*
D03*
X1154490Y597160D02*
D03*
Y581160D02*
D03*
X1060209Y454213D02*
D03*
Y438213D02*
D03*
X1059959Y419923D02*
D03*
Y403923D02*
D03*
X1025959Y403843D02*
D03*
Y419843D02*
D03*
X672990Y597160D02*
D03*
Y581160D02*
D03*
X712990Y597160D02*
D03*
Y581160D02*
D03*
X752990Y597160D02*
D03*
Y581160D02*
D03*
X792990Y597160D02*
D03*
Y581160D02*
D03*
X832990Y597160D02*
D03*
Y581160D02*
D03*
X738709Y453673D02*
D03*
Y437673D02*
D03*
X738459Y419383D02*
D03*
Y403383D02*
D03*
X704459Y403303D02*
D03*
Y419303D02*
D03*
X1224260Y581160D02*
D03*
Y597160D02*
D03*
X540890Y196430D02*
D03*
Y212430D02*
D03*
D43*
X949009Y250008D02*
D03*
Y163507D02*
D03*
X890509D02*
D03*
Y250008D02*
D03*
D44*
X949009Y210008D02*
D03*
Y203508D02*
D03*
Y197008D02*
D03*
Y190508D02*
D03*
Y171007D02*
D03*
Y177507D02*
D03*
Y184007D02*
D03*
X890509D02*
D03*
Y177507D02*
D03*
Y171007D02*
D03*
Y190508D02*
D03*
Y197008D02*
D03*
Y203508D02*
D03*
Y210008D02*
D03*
Y229508D02*
D03*
Y236008D02*
D03*
Y242508D02*
D03*
Y223008D02*
D03*
Y216508D02*
D03*
X949009D02*
D03*
Y223008D02*
D03*
Y242508D02*
D03*
Y236008D02*
D03*
Y229508D02*
D03*
D45*
X1129949Y502093D02*
D03*
Y544093D02*
D03*
X808449Y501553D02*
D03*
Y543553D02*
D03*
X487669Y497033D02*
D03*
Y539033D02*
D03*
D46*
X269000Y633000D02*
D03*
X337049Y540723D02*
D03*
X979329Y545783D02*
D03*
X657829Y545243D02*
D03*
D47*
X392250Y234850D02*
D03*
D48*
X397250D02*
D03*
X402250D02*
D03*
X392250Y249650D02*
D03*
X397250D02*
D03*
X402250D02*
D03*
D49*
X383739Y433343D02*
D03*
X399739D02*
D03*
X455210Y399023D02*
D03*
X439210D02*
D03*
X1042019Y438403D02*
D03*
X1026019D02*
D03*
X1081489Y404083D02*
D03*
X1097489D02*
D03*
X720519Y437863D02*
D03*
X704519D02*
D03*
X759989Y403543D02*
D03*
X775990D02*
D03*
X394820Y294140D02*
D03*
X410820D02*
D03*
X410680Y276360D02*
D03*
X394680D02*
D03*
X375180Y254360D02*
D03*
X359180D02*
D03*
X359570Y272890D02*
D03*
X375570D02*
D03*
X826180Y288360D02*
D03*
X842180D02*
D03*
X873500Y288250D02*
D03*
X889500D02*
D03*
X1051930Y195360D02*
D03*
X1067930D02*
D03*
X842320Y269890D02*
D03*
X826320D02*
D03*
X889820D02*
D03*
X873820D02*
D03*
X1018070Y205640D02*
D03*
X1034070D02*
D03*
X1068070Y213640D02*
D03*
X1052070D02*
D03*
X626411Y168235D02*
D03*
X610411D02*
D03*
X563820Y252640D02*
D03*
X547820D02*
D03*
D50*
X364379Y415103D02*
D03*
Y399103D02*
D03*
X1006659Y404163D02*
D03*
Y420163D02*
D03*
X685159Y403623D02*
D03*
Y419623D02*
D03*
D51*
X358639Y540383D02*
D03*
Y527183D02*
D03*
X1000919Y532243D02*
D03*
Y545443D02*
D03*
X679419Y531703D02*
D03*
Y544903D02*
D03*
D52*
X396789Y454173D02*
D03*
X377789D02*
D03*
X396789Y478303D02*
D03*
X377789D02*
D03*
X396789Y502323D02*
D03*
X377789D02*
D03*
X437700Y444063D02*
D03*
X456699D02*
D03*
X437700Y419933D02*
D03*
X456699D02*
D03*
X1020069Y459233D02*
D03*
X1039069D02*
D03*
X1020069Y483363D02*
D03*
X1039069D02*
D03*
X1020069Y507383D02*
D03*
X1039069D02*
D03*
X1098979Y449123D02*
D03*
X1079979D02*
D03*
X1098979Y424993D02*
D03*
X1079979D02*
D03*
X698569Y458693D02*
D03*
X717569D02*
D03*
X698569Y482823D02*
D03*
X717569D02*
D03*
X698569Y506843D02*
D03*
X717569D02*
D03*
X777479Y448583D02*
D03*
X758480D02*
D03*
X777479Y424453D02*
D03*
X758480D02*
D03*
D53*
X426349Y524853D02*
D03*
Y543853D02*
D03*
X402729Y524853D02*
D03*
Y543853D02*
D03*
X379109Y524853D02*
D03*
Y543853D02*
D03*
X1068629Y548913D02*
D03*
Y529913D02*
D03*
X1045009Y548913D02*
D03*
Y529913D02*
D03*
X1021389Y548913D02*
D03*
Y529913D02*
D03*
X747129Y548373D02*
D03*
Y529373D02*
D03*
X723509Y548373D02*
D03*
Y529373D02*
D03*
X699889Y548373D02*
D03*
Y529373D02*
D03*
X444890Y214300D02*
D03*
Y195300D02*
D03*
X444610Y236200D02*
D03*
Y255200D02*
D03*
X349890Y234300D02*
D03*
Y215300D02*
D03*
X373890Y234300D02*
D03*
Y215300D02*
D03*
X468890Y214300D02*
D03*
Y195300D02*
D03*
X468610Y236200D02*
D03*
Y255200D02*
D03*
D54*
X446329Y540533D02*
D03*
Y523533D02*
D03*
X1088609Y528593D02*
D03*
Y545593D02*
D03*
X767109Y528053D02*
D03*
Y545053D02*
D03*
X423950Y234980D02*
D03*
Y251980D02*
D03*
X329550Y232520D02*
D03*
Y215520D02*
D03*
X523300Y196270D02*
D03*
Y213270D02*
D03*
X506300Y196270D02*
D03*
Y213270D02*
D03*
X645700Y231730D02*
D03*
Y214730D02*
D03*
X627700Y231730D02*
D03*
Y214730D02*
D03*
X609700Y231730D02*
D03*
Y214730D02*
D03*
D55*
X454780Y464423D02*
D03*
X437780D02*
D03*
X1080060Y469483D02*
D03*
X1097059D02*
D03*
X758559Y468943D02*
D03*
X775559D02*
D03*
D56*
X424250Y207250D02*
D03*
X402250D02*
D03*
D57*
X488250Y193350D02*
D03*
Y215150D02*
D03*
D58*
X235250Y628250D02*
D03*
Y668250D02*
D03*
D59*
X592000Y195000D02*
D03*
X566000Y214000D02*
D03*
Y204500D02*
D03*
Y195000D02*
D03*
X592000Y214000D02*
D03*
D60*
X661340Y167950D02*
D03*
X645340D02*
D03*
X598500Y252750D02*
D03*
X582500D02*
D03*
D61*
X352100Y674990D02*
D03*
Y649590D02*
D03*
X392100Y674990D02*
D03*
Y649590D02*
D03*
X432100Y674990D02*
D03*
Y649590D02*
D03*
X472100Y674990D02*
D03*
Y649590D02*
D03*
X512100Y674990D02*
D03*
Y649590D02*
D03*
X994380Y674990D02*
D03*
Y649590D02*
D03*
X1034380Y674990D02*
D03*
Y649590D02*
D03*
X1074380Y674990D02*
D03*
Y649590D02*
D03*
X1114380Y674990D02*
D03*
Y649590D02*
D03*
X1154380Y674990D02*
D03*
Y649590D02*
D03*
X672880Y674990D02*
D03*
Y649590D02*
D03*
X712880Y674990D02*
D03*
Y649590D02*
D03*
X752880Y674990D02*
D03*
Y649590D02*
D03*
X792880Y674990D02*
D03*
Y649590D02*
D03*
X832880Y674990D02*
D03*
Y649590D02*
D03*
X1224150Y674990D02*
D03*
Y649590D02*
D03*
D62*
X352100Y624190D02*
D03*
X392100D02*
D03*
X432100D02*
D03*
X472100D02*
D03*
X512100D02*
D03*
X994380D02*
D03*
X1034380D02*
D03*
X1074380D02*
D03*
X1114380D02*
D03*
X1154380D02*
D03*
X672880D02*
D03*
X712880D02*
D03*
X752880D02*
D03*
X792880D02*
D03*
X832880D02*
D03*
X1224150D02*
D03*
D63*
X1281310Y672580D02*
D03*
Y652580D02*
D03*
X912860Y672580D02*
D03*
Y652580D02*
D03*
X591700Y672580D02*
D03*
Y652580D02*
D03*
D64*
X1266000Y543500D02*
D03*
Y471500D02*
D03*
X234000Y471500D02*
D03*
Y543500D02*
D03*
D65*
X1326000Y575000D02*
D03*
Y440000D02*
D03*
X174000Y440000D02*
D03*
Y575000D02*
D03*
D66*
X1349800Y150600D02*
D03*
Y650600D02*
D03*
X149800D02*
D03*
Y150600D02*
D03*
D67*
X1278630Y348030D02*
D03*
Y256630D02*
D03*
Y370930D02*
D03*
Y233730D02*
D03*
X1326830Y307430D02*
D03*
X1344630Y297230D02*
D03*
Y317630D02*
D03*
X1326830Y287030D02*
D03*
Y327830D02*
D03*
X1344630Y276830D02*
D03*
X1326830Y266630D02*
D03*
X221370Y259970D02*
D03*
Y351370D02*
D03*
Y237070D02*
D03*
Y374270D02*
D03*
X173170Y300570D02*
D03*
X155370Y310770D02*
D03*
Y290370D02*
D03*
X173170Y320970D02*
D03*
Y280170D02*
D03*
X155370Y331170D02*
D03*
X173170Y341370D02*
D03*
D68*
X1344630Y338030D02*
D03*
X155370Y269970D02*
D03*
D69*
X1335730Y383580D02*
D03*
Y221080D02*
D03*
X164270Y224420D02*
D03*
Y386920D02*
D03*
D70*
X1370030Y365830D02*
D03*
Y238830D02*
D03*
X129970Y242170D02*
D03*
Y369170D02*
D03*
M02*
