G04*
G04 #@! TF.GenerationSoftware,Altium Limited,Altium Designer,25.1.2 (22)*
G04*
G04 Layer_Physical_Order=2*
G04 Layer_Color=3707366*
%FSLAX44Y44*%
%MOMM*%
G71*
G04*
G04 #@! TF.SameCoordinates,939082EE-E914-4D5A-B06F-098D18607A17*
G04*
G04*
G04 #@! TF.FilePolarity,Positive*
G04*
G01*
G75*
%ADD63C,1.6000*%
%ADD73R,1.6000X1.6000*%
%ADD74C,1.5000*%
%ADD75C,3.7000*%
G04:AMPARAMS|DCode=76|XSize=1.5mm|YSize=3mm|CornerRadius=0.375mm|HoleSize=0mm|Usage=FLASHONLY|Rotation=270.000|XOffset=0mm|YOffset=0mm|HoleType=Round|Shape=RoundedRectangle|*
%AMROUNDEDRECTD76*
21,1,1.5000,2.2500,0,0,270.0*
21,1,0.7500,3.0000,0,0,270.0*
1,1,0.7500,-1.1250,-0.3750*
1,1,0.7500,-1.1250,0.3750*
1,1,0.7500,1.1250,0.3750*
1,1,0.7500,1.1250,-0.3750*
%
%ADD76ROUNDEDRECTD76*%
%ADD77C,6.0000*%
%ADD78C,1.4080*%
%ADD80C,2.4000*%
%ADD81C,3.2000*%
%ADD82C,0.5000*%
G36*
X1358971Y699130D02*
X1365429Y697399D01*
X1371606Y694841D01*
X1377396Y691498D01*
X1382700Y687428D01*
X1387428Y682700D01*
X1391498Y677396D01*
X1394841Y671606D01*
X1397399Y665429D01*
X1399130Y658971D01*
X1400002Y652343D01*
Y649000D01*
X1400002D01*
X1400000Y150500D01*
X1399967Y147178D01*
X1399041Y140599D01*
X1397269Y134196D01*
X1394682Y128077D01*
X1391322Y122345D01*
X1387247Y117097D01*
X1382527Y112422D01*
X1377239Y108399D01*
X1371474Y105096D01*
X1365330Y102568D01*
X1358910Y100859D01*
X1352322Y99998D01*
X1349000Y99998D01*
X1349000Y99998D01*
X1349000Y99998D01*
X151000Y99998D01*
X147657D01*
X141028Y100870D01*
X134571Y102601D01*
X128394Y105159D01*
X122604Y108502D01*
X117300Y112572D01*
X112572Y117300D01*
X108502Y122604D01*
X105159Y128394D01*
X102601Y134571D01*
X100870Y141028D01*
X99998Y147657D01*
Y151000D01*
X99998D01*
Y648997D01*
X100000Y649000D01*
Y652343D01*
X100873Y658971D01*
X102603Y665429D01*
X105162Y671606D01*
X108504Y677396D01*
X112575Y682700D01*
X117302Y687428D01*
X122606Y691498D01*
X128396Y694841D01*
X134573Y697399D01*
X141031Y699130D01*
X147660Y700002D01*
X151002D01*
X151005Y700000D01*
X152258Y700000D01*
X1349000D01*
Y700002D01*
X1352343D01*
X1358971Y699130D01*
D02*
G37*
%LPC*%
G36*
X1115768Y685530D02*
X1115650D01*
Y676260D01*
X1124920D01*
Y676378D01*
X1124202Y679058D01*
X1122814Y681462D01*
X1120852Y683424D01*
X1118448Y684812D01*
X1115768Y685530D01*
D02*
G37*
G36*
X794268D02*
X794150D01*
Y676260D01*
X803420D01*
Y676378D01*
X802702Y679058D01*
X801314Y681462D01*
X799352Y683424D01*
X796948Y684812D01*
X794268Y685530D01*
D02*
G37*
G36*
X791610D02*
X791492D01*
X788812Y684812D01*
X786408Y683424D01*
X784446Y681462D01*
X783058Y679058D01*
X782340Y676378D01*
Y676260D01*
X791610D01*
Y685530D01*
D02*
G37*
G36*
X1113110D02*
X1112992D01*
X1110312Y684812D01*
X1107908Y683424D01*
X1105946Y681462D01*
X1104558Y679058D01*
X1103840Y676378D01*
Y676260D01*
X1113110D01*
Y685530D01*
D02*
G37*
G36*
X1225538D02*
X1225420D01*
Y676260D01*
X1234690D01*
Y676378D01*
X1233972Y679058D01*
X1232584Y681462D01*
X1230622Y683424D01*
X1228218Y684812D01*
X1225538Y685530D01*
D02*
G37*
G36*
X995768D02*
X995650D01*
Y676260D01*
X1004920D01*
Y676378D01*
X1004202Y679058D01*
X1002814Y681462D01*
X1000852Y683424D01*
X998448Y684812D01*
X995768Y685530D01*
D02*
G37*
G36*
X674268D02*
X674150D01*
Y676260D01*
X683420D01*
Y676378D01*
X682702Y679058D01*
X681314Y681462D01*
X679352Y683424D01*
X676948Y684812D01*
X674268Y685530D01*
D02*
G37*
G36*
X433488D02*
X433370D01*
Y676260D01*
X442640D01*
Y676378D01*
X441922Y679058D01*
X440534Y681462D01*
X438572Y683424D01*
X436168Y684812D01*
X433488Y685530D01*
D02*
G37*
G36*
X1222880D02*
X1222762D01*
X1220082Y684812D01*
X1217678Y683424D01*
X1215716Y681462D01*
X1214328Y679058D01*
X1213610Y676378D01*
Y676260D01*
X1222880D01*
Y685530D01*
D02*
G37*
G36*
X671610D02*
X671492D01*
X668812Y684812D01*
X666408Y683424D01*
X664446Y681462D01*
X663058Y679058D01*
X662340Y676378D01*
Y676260D01*
X671610D01*
Y685530D01*
D02*
G37*
G36*
X430830D02*
X430712D01*
X428032Y684812D01*
X425628Y683424D01*
X423666Y681462D01*
X422278Y679058D01*
X421560Y676378D01*
Y676260D01*
X430830D01*
Y685530D01*
D02*
G37*
G36*
X993110D02*
X992992D01*
X990312Y684812D01*
X987908Y683424D01*
X985946Y681462D01*
X984558Y679058D01*
X983840Y676378D01*
Y676260D01*
X993110D01*
Y685530D01*
D02*
G37*
G36*
X1035768D02*
X1035650D01*
Y676260D01*
X1044920D01*
Y676378D01*
X1044202Y679058D01*
X1042814Y681462D01*
X1040852Y683424D01*
X1038448Y684812D01*
X1035768Y685530D01*
D02*
G37*
G36*
X714268D02*
X714150D01*
Y676260D01*
X723420D01*
Y676378D01*
X722702Y679058D01*
X721314Y681462D01*
X719352Y683424D01*
X716948Y684812D01*
X714268Y685530D01*
D02*
G37*
G36*
X513488D02*
X513370D01*
Y676260D01*
X522640D01*
Y676378D01*
X521922Y679058D01*
X520534Y681462D01*
X518572Y683424D01*
X516168Y684812D01*
X513488Y685530D01*
D02*
G37*
G36*
X473488D02*
X473370D01*
Y676260D01*
X482640D01*
Y676378D01*
X481922Y679058D01*
X480534Y681462D01*
X478572Y683424D01*
X476168Y684812D01*
X473488Y685530D01*
D02*
G37*
G36*
X393488D02*
X393370D01*
Y676260D01*
X402640D01*
Y676378D01*
X401922Y679058D01*
X400534Y681462D01*
X398572Y683424D01*
X396168Y684812D01*
X393488Y685530D01*
D02*
G37*
G36*
X711610D02*
X711492D01*
X708812Y684812D01*
X706408Y683424D01*
X704446Y681462D01*
X703058Y679058D01*
X702340Y676378D01*
Y676260D01*
X711610D01*
Y685530D01*
D02*
G37*
G36*
X510830D02*
X510712D01*
X508032Y684812D01*
X505628Y683424D01*
X503666Y681462D01*
X502278Y679058D01*
X501560Y676378D01*
Y676260D01*
X510830D01*
Y685530D01*
D02*
G37*
G36*
X470830D02*
X470712D01*
X468032Y684812D01*
X465628Y683424D01*
X463666Y681462D01*
X462278Y679058D01*
X461560Y676378D01*
Y676260D01*
X470830D01*
Y685530D01*
D02*
G37*
G36*
X390830D02*
X390712D01*
X388032Y684812D01*
X385628Y683424D01*
X383666Y681462D01*
X382278Y679058D01*
X381560Y676378D01*
Y676260D01*
X390830D01*
Y685530D01*
D02*
G37*
G36*
X1033110D02*
X1032992D01*
X1030312Y684812D01*
X1027908Y683424D01*
X1025946Y681462D01*
X1024558Y679058D01*
X1023840Y676378D01*
Y676260D01*
X1033110D01*
Y685530D01*
D02*
G37*
G36*
X1075768D02*
X1075650D01*
Y676260D01*
X1084920D01*
Y676378D01*
X1084202Y679058D01*
X1082814Y681462D01*
X1080852Y683424D01*
X1078448Y684812D01*
X1075768Y685530D01*
D02*
G37*
G36*
X754268D02*
X754150D01*
Y676260D01*
X763420D01*
Y676378D01*
X762702Y679058D01*
X761314Y681462D01*
X759352Y683424D01*
X756948Y684812D01*
X754268Y685530D01*
D02*
G37*
G36*
X353488D02*
X353370D01*
Y676260D01*
X362640D01*
Y676378D01*
X361922Y679058D01*
X360534Y681462D01*
X358572Y683424D01*
X356168Y684812D01*
X353488Y685530D01*
D02*
G37*
G36*
X751610D02*
X751492D01*
X748812Y684812D01*
X746408Y683424D01*
X744446Y681462D01*
X743058Y679058D01*
X742340Y676378D01*
Y676260D01*
X751610D01*
Y685530D01*
D02*
G37*
G36*
X350830D02*
X350712D01*
X348032Y684812D01*
X345628Y683424D01*
X343666Y681462D01*
X342278Y679058D01*
X341560Y676378D01*
Y676260D01*
X350830D01*
Y685530D01*
D02*
G37*
G36*
X1073110D02*
X1072992D01*
X1070312Y684812D01*
X1067908Y683424D01*
X1065946Y681462D01*
X1064558Y679058D01*
X1063840Y676378D01*
Y676260D01*
X1073110D01*
Y685530D01*
D02*
G37*
G36*
X1155768D02*
X1155650D01*
Y676260D01*
X1164920D01*
Y676378D01*
X1164202Y679058D01*
X1162814Y681462D01*
X1160852Y683424D01*
X1158448Y684812D01*
X1155768Y685530D01*
D02*
G37*
G36*
X834268D02*
X834150D01*
Y676260D01*
X843420D01*
Y676378D01*
X842702Y679058D01*
X841314Y681462D01*
X839352Y683424D01*
X836948Y684812D01*
X834268Y685530D01*
D02*
G37*
G36*
X831610D02*
X831492D01*
X828812Y684812D01*
X826408Y683424D01*
X824446Y681462D01*
X823058Y679058D01*
X822340Y676378D01*
Y676260D01*
X831610D01*
Y685530D01*
D02*
G37*
G36*
X1153110D02*
X1152992D01*
X1150312Y684812D01*
X1147908Y683424D01*
X1145946Y681462D01*
X1144558Y679058D01*
X1143840Y676378D01*
Y676260D01*
X1153110D01*
Y685530D01*
D02*
G37*
G36*
X1282632Y682620D02*
X1282580D01*
Y673850D01*
X1291350D01*
Y673902D01*
X1290666Y676455D01*
X1289344Y678745D01*
X1287475Y680614D01*
X1285185Y681936D01*
X1282632Y682620D01*
D02*
G37*
G36*
X1280040D02*
X1279988D01*
X1277435Y681936D01*
X1275145Y680614D01*
X1273276Y678745D01*
X1271954Y676455D01*
X1271270Y673902D01*
Y673850D01*
X1280040D01*
Y682620D01*
D02*
G37*
G36*
X914182D02*
X914130D01*
Y673850D01*
X922900D01*
Y673902D01*
X922216Y676455D01*
X920894Y678745D01*
X919025Y680614D01*
X916735Y681936D01*
X914182Y682620D01*
D02*
G37*
G36*
X593022D02*
X592970D01*
Y673850D01*
X601740D01*
Y673902D01*
X601056Y676455D01*
X599734Y678745D01*
X597865Y680614D01*
X595575Y681936D01*
X593022Y682620D01*
D02*
G37*
G36*
X911590D02*
X911538D01*
X908985Y681936D01*
X906695Y680614D01*
X904826Y678745D01*
X903504Y676455D01*
X902820Y673902D01*
Y673850D01*
X911590D01*
Y682620D01*
D02*
G37*
G36*
X590430D02*
X590378D01*
X587825Y681936D01*
X585535Y680614D01*
X583666Y678745D01*
X582344Y676455D01*
X581660Y673902D01*
Y673850D01*
X590430D01*
Y682620D01*
D02*
G37*
G36*
X1234690Y673720D02*
X1225420D01*
Y664450D01*
X1225538D01*
X1228218Y665168D01*
X1230622Y666556D01*
X1232584Y668518D01*
X1233972Y670922D01*
X1234690Y673602D01*
Y673720D01*
D02*
G37*
G36*
X1222880D02*
X1213610D01*
Y673602D01*
X1214328Y670922D01*
X1215716Y668518D01*
X1217678Y666556D01*
X1220082Y665168D01*
X1222762Y664450D01*
X1222880D01*
Y673720D01*
D02*
G37*
G36*
X1164920Y673720D02*
X1155650D01*
Y664450D01*
X1155768D01*
X1158448Y665168D01*
X1160852Y666556D01*
X1162814Y668518D01*
X1164202Y670922D01*
X1164920Y673602D01*
Y673720D01*
D02*
G37*
G36*
X1153110D02*
X1143840D01*
Y673602D01*
X1144558Y670922D01*
X1145946Y668518D01*
X1147908Y666556D01*
X1150312Y665168D01*
X1152992Y664450D01*
X1153110D01*
Y673720D01*
D02*
G37*
G36*
X1124920Y673720D02*
X1115650D01*
Y664450D01*
X1115768D01*
X1118448Y665168D01*
X1120852Y666556D01*
X1122814Y668518D01*
X1124202Y670922D01*
X1124920Y673602D01*
Y673720D01*
D02*
G37*
G36*
X1113110D02*
X1103840D01*
Y673602D01*
X1104558Y670922D01*
X1105946Y668518D01*
X1107908Y666556D01*
X1110312Y665168D01*
X1112992Y664450D01*
X1113110D01*
Y673720D01*
D02*
G37*
G36*
X1084920Y673720D02*
X1075650D01*
Y664450D01*
X1075768D01*
X1078448Y665168D01*
X1080852Y666556D01*
X1082814Y668518D01*
X1084202Y670922D01*
X1084920Y673602D01*
Y673720D01*
D02*
G37*
G36*
X1073110D02*
X1063840D01*
Y673602D01*
X1064558Y670922D01*
X1065946Y668518D01*
X1067908Y666556D01*
X1070312Y665168D01*
X1072992Y664450D01*
X1073110D01*
Y673720D01*
D02*
G37*
G36*
X1044920Y673720D02*
X1035650D01*
Y664450D01*
X1035768D01*
X1038448Y665168D01*
X1040852Y666556D01*
X1042814Y668518D01*
X1044202Y670922D01*
X1044920Y673602D01*
Y673720D01*
D02*
G37*
G36*
X1033110D02*
X1023840D01*
Y673602D01*
X1024558Y670922D01*
X1025946Y668518D01*
X1027908Y666556D01*
X1030312Y665168D01*
X1032992Y664450D01*
X1033110D01*
Y673720D01*
D02*
G37*
G36*
X1004920Y673720D02*
X995650D01*
Y664450D01*
X995768D01*
X998448Y665168D01*
X1000852Y666556D01*
X1002814Y668518D01*
X1004202Y670922D01*
X1004920Y673602D01*
Y673720D01*
D02*
G37*
G36*
X993110D02*
X983840D01*
Y673602D01*
X984558Y670922D01*
X985946Y668518D01*
X987908Y666556D01*
X990312Y665168D01*
X992992Y664450D01*
X993110D01*
Y673720D01*
D02*
G37*
G36*
X843420Y673720D02*
X834150D01*
Y664450D01*
X834268D01*
X836948Y665168D01*
X839352Y666556D01*
X841314Y668518D01*
X842702Y670922D01*
X843420Y673602D01*
Y673720D01*
D02*
G37*
G36*
X831610D02*
X822340D01*
Y673602D01*
X823058Y670922D01*
X824446Y668518D01*
X826408Y666556D01*
X828812Y665168D01*
X831492Y664450D01*
X831610D01*
Y673720D01*
D02*
G37*
G36*
X803420Y673720D02*
X794150D01*
Y664450D01*
X794268D01*
X796948Y665168D01*
X799352Y666556D01*
X801314Y668518D01*
X802702Y670922D01*
X803420Y673602D01*
Y673720D01*
D02*
G37*
G36*
X791610D02*
X782340D01*
Y673602D01*
X783058Y670922D01*
X784446Y668518D01*
X786408Y666556D01*
X788812Y665168D01*
X791492Y664450D01*
X791610D01*
Y673720D01*
D02*
G37*
G36*
X763420Y673720D02*
X754150D01*
Y664450D01*
X754268D01*
X756948Y665168D01*
X759352Y666556D01*
X761314Y668518D01*
X762702Y670922D01*
X763420Y673602D01*
Y673720D01*
D02*
G37*
G36*
X751610D02*
X742340D01*
Y673602D01*
X743058Y670922D01*
X744446Y668518D01*
X746408Y666556D01*
X748812Y665168D01*
X751492Y664450D01*
X751610D01*
Y673720D01*
D02*
G37*
G36*
X723420Y673720D02*
X714150D01*
Y664450D01*
X714268D01*
X716948Y665168D01*
X719352Y666556D01*
X721314Y668518D01*
X722702Y670922D01*
X723420Y673602D01*
Y673720D01*
D02*
G37*
G36*
X711610D02*
X702340D01*
Y673602D01*
X703058Y670922D01*
X704446Y668518D01*
X706408Y666556D01*
X708812Y665168D01*
X711492Y664450D01*
X711610D01*
Y673720D01*
D02*
G37*
G36*
X683420Y673720D02*
X674150D01*
Y664450D01*
X674268D01*
X676948Y665168D01*
X679352Y666556D01*
X681314Y668518D01*
X682702Y670922D01*
X683420Y673602D01*
Y673720D01*
D02*
G37*
G36*
X671610D02*
X662340D01*
Y673602D01*
X663058Y670922D01*
X664446Y668518D01*
X666408Y666556D01*
X668812Y665168D01*
X671492Y664450D01*
X671610D01*
Y673720D01*
D02*
G37*
G36*
X522640Y673720D02*
X513370D01*
Y664450D01*
X513488D01*
X516168Y665168D01*
X518572Y666556D01*
X520534Y668518D01*
X521922Y670922D01*
X522640Y673602D01*
Y673720D01*
D02*
G37*
G36*
X510830D02*
X501560D01*
Y673602D01*
X502278Y670922D01*
X503666Y668518D01*
X505628Y666556D01*
X508032Y665168D01*
X510712Y664450D01*
X510830D01*
Y673720D01*
D02*
G37*
G36*
X482640D02*
X473370D01*
Y664450D01*
X473488D01*
X476168Y665168D01*
X478572Y666556D01*
X480534Y668518D01*
X481922Y670922D01*
X482640Y673602D01*
Y673720D01*
D02*
G37*
G36*
X470830D02*
X461560D01*
Y673602D01*
X462278Y670922D01*
X463666Y668518D01*
X465628Y666556D01*
X468032Y665168D01*
X470712Y664450D01*
X470830D01*
Y673720D01*
D02*
G37*
G36*
X442640Y673720D02*
X433370D01*
Y664450D01*
X433488D01*
X436168Y665168D01*
X438572Y666556D01*
X440534Y668518D01*
X441922Y670922D01*
X442640Y673602D01*
Y673720D01*
D02*
G37*
G36*
X430830D02*
X421560D01*
Y673602D01*
X422278Y670922D01*
X423666Y668518D01*
X425628Y666556D01*
X428032Y665168D01*
X430712Y664450D01*
X430830D01*
Y673720D01*
D02*
G37*
G36*
X402640Y673720D02*
X393370D01*
Y664450D01*
X393488D01*
X396168Y665168D01*
X398572Y666556D01*
X400534Y668518D01*
X401922Y670922D01*
X402640Y673602D01*
Y673720D01*
D02*
G37*
G36*
X390830D02*
X381560D01*
Y673602D01*
X382278Y670922D01*
X383666Y668518D01*
X385628Y666556D01*
X388032Y665168D01*
X390712Y664450D01*
X390830D01*
Y673720D01*
D02*
G37*
G36*
X362640Y673720D02*
X353370D01*
Y664450D01*
X353488D01*
X356168Y665168D01*
X358572Y666556D01*
X360534Y668518D01*
X361922Y670922D01*
X362640Y673602D01*
Y673720D01*
D02*
G37*
G36*
X350830D02*
X341560D01*
Y673602D01*
X342278Y670922D01*
X343666Y668518D01*
X345628Y666556D01*
X348032Y665168D01*
X350712Y664450D01*
X350830D01*
Y673720D01*
D02*
G37*
G36*
X1291350Y671310D02*
X1281310D01*
X1271270D01*
Y671258D01*
X1271954Y668705D01*
X1273276Y666415D01*
X1275145Y664546D01*
X1277403Y663242D01*
X1277469Y662966D01*
Y662194D01*
X1277403Y661918D01*
X1275145Y660614D01*
X1273276Y658745D01*
X1271954Y656455D01*
X1271270Y653902D01*
Y651258D01*
X1271954Y648705D01*
X1273276Y646415D01*
X1275145Y644546D01*
X1277435Y643224D01*
X1279988Y642540D01*
X1282632D01*
X1285185Y643224D01*
X1287475Y644546D01*
X1289344Y646415D01*
X1290666Y648705D01*
X1291350Y651258D01*
Y653902D01*
X1290666Y656455D01*
X1289344Y658745D01*
X1287475Y660614D01*
X1285217Y661918D01*
X1285151Y662194D01*
Y662966D01*
X1285217Y663242D01*
X1287475Y664546D01*
X1289344Y666415D01*
X1290666Y668705D01*
X1291350Y671258D01*
Y671310D01*
D02*
G37*
G36*
X922900Y671310D02*
X912860D01*
X902820D01*
Y671258D01*
X903504Y668705D01*
X904826Y666415D01*
X906695Y664546D01*
X908953Y663242D01*
X909019Y662966D01*
Y662194D01*
X908953Y661918D01*
X906695Y660614D01*
X904826Y658745D01*
X903504Y656455D01*
X902820Y653902D01*
Y651258D01*
X903504Y648705D01*
X904826Y646415D01*
X906695Y644546D01*
X908985Y643224D01*
X911538Y642540D01*
X914182D01*
X916735Y643224D01*
X919025Y644546D01*
X920894Y646415D01*
X922216Y648705D01*
X922900Y651258D01*
Y653902D01*
X922216Y656455D01*
X920894Y658745D01*
X919025Y660614D01*
X916767Y661918D01*
X916701Y662194D01*
Y662966D01*
X916767Y663242D01*
X919025Y664546D01*
X920894Y666415D01*
X922216Y668705D01*
X922900Y671258D01*
Y671310D01*
D02*
G37*
G36*
X601740D02*
X591700D01*
X581660D01*
Y671258D01*
X582344Y668705D01*
X583666Y666415D01*
X585535Y664546D01*
X587794Y663242D01*
X587859Y662966D01*
Y662194D01*
X587794Y661918D01*
X585535Y660614D01*
X583666Y658745D01*
X582344Y656455D01*
X581660Y653902D01*
Y651258D01*
X582344Y648705D01*
X583666Y646415D01*
X585535Y644546D01*
X587825Y643224D01*
X590378Y642540D01*
X593022D01*
X595575Y643224D01*
X597865Y644546D01*
X599734Y646415D01*
X601056Y648705D01*
X601740Y651258D01*
Y653902D01*
X601056Y656455D01*
X599734Y658745D01*
X597865Y660614D01*
X595606Y661918D01*
X595541Y662194D01*
Y662966D01*
X595606Y663242D01*
X597865Y664546D01*
X599734Y666415D01*
X601056Y668705D01*
X601740Y671258D01*
Y671310D01*
D02*
G37*
G36*
X1225538Y660130D02*
X1222762D01*
X1220082Y659412D01*
X1217678Y658024D01*
X1215716Y656062D01*
X1214328Y653658D01*
X1213610Y650978D01*
Y648202D01*
X1214328Y645522D01*
X1215716Y643118D01*
X1217678Y641156D01*
X1220082Y639768D01*
X1222762Y639050D01*
X1225538D01*
X1228218Y639768D01*
X1230622Y641156D01*
X1232584Y643118D01*
X1233972Y645522D01*
X1234690Y648202D01*
Y650978D01*
X1233972Y653658D01*
X1232584Y656062D01*
X1230622Y658024D01*
X1228218Y659412D01*
X1225538Y660130D01*
D02*
G37*
G36*
X1155768D02*
X1152992D01*
X1150312Y659412D01*
X1147908Y658024D01*
X1145946Y656062D01*
X1144558Y653658D01*
X1143840Y650978D01*
Y648202D01*
X1144558Y645522D01*
X1145946Y643118D01*
X1147908Y641156D01*
X1150312Y639768D01*
X1152992Y639050D01*
X1155768D01*
X1158448Y639768D01*
X1160852Y641156D01*
X1162814Y643118D01*
X1164202Y645522D01*
X1164920Y648202D01*
Y650978D01*
X1164202Y653658D01*
X1162814Y656062D01*
X1160852Y658024D01*
X1158448Y659412D01*
X1155768Y660130D01*
D02*
G37*
G36*
X1115768D02*
X1112992D01*
X1110312Y659412D01*
X1107908Y658024D01*
X1105946Y656062D01*
X1104558Y653658D01*
X1103840Y650978D01*
Y648202D01*
X1104558Y645522D01*
X1105946Y643118D01*
X1107908Y641156D01*
X1110312Y639768D01*
X1112992Y639050D01*
X1115768D01*
X1118448Y639768D01*
X1120852Y641156D01*
X1122814Y643118D01*
X1124202Y645522D01*
X1124920Y648202D01*
Y650978D01*
X1124202Y653658D01*
X1122814Y656062D01*
X1120852Y658024D01*
X1118448Y659412D01*
X1115768Y660130D01*
D02*
G37*
G36*
X1075768D02*
X1072992D01*
X1070312Y659412D01*
X1067908Y658024D01*
X1065946Y656062D01*
X1064558Y653658D01*
X1063840Y650978D01*
Y648202D01*
X1064558Y645522D01*
X1065946Y643118D01*
X1067908Y641156D01*
X1070312Y639768D01*
X1072992Y639050D01*
X1075768D01*
X1078448Y639768D01*
X1080852Y641156D01*
X1082814Y643118D01*
X1084202Y645522D01*
X1084920Y648202D01*
Y650978D01*
X1084202Y653658D01*
X1082814Y656062D01*
X1080852Y658024D01*
X1078448Y659412D01*
X1075768Y660130D01*
D02*
G37*
G36*
X1035768D02*
X1032992D01*
X1030312Y659412D01*
X1027908Y658024D01*
X1025946Y656062D01*
X1024558Y653658D01*
X1023840Y650978D01*
Y648202D01*
X1024558Y645522D01*
X1025946Y643118D01*
X1027908Y641156D01*
X1030312Y639768D01*
X1032992Y639050D01*
X1035768D01*
X1038448Y639768D01*
X1040852Y641156D01*
X1042814Y643118D01*
X1044202Y645522D01*
X1044920Y648202D01*
Y650978D01*
X1044202Y653658D01*
X1042814Y656062D01*
X1040852Y658024D01*
X1038448Y659412D01*
X1035768Y660130D01*
D02*
G37*
G36*
X995768D02*
X992992D01*
X990312Y659412D01*
X987908Y658024D01*
X985946Y656062D01*
X984558Y653658D01*
X983840Y650978D01*
Y648202D01*
X984558Y645522D01*
X985946Y643118D01*
X987908Y641156D01*
X990312Y639768D01*
X992992Y639050D01*
X995768D01*
X998448Y639768D01*
X1000852Y641156D01*
X1002814Y643118D01*
X1004202Y645522D01*
X1004920Y648202D01*
Y650978D01*
X1004202Y653658D01*
X1002814Y656062D01*
X1000852Y658024D01*
X998448Y659412D01*
X995768Y660130D01*
D02*
G37*
G36*
X834268D02*
X831492D01*
X828812Y659412D01*
X826408Y658024D01*
X824446Y656062D01*
X823058Y653658D01*
X822340Y650978D01*
Y648202D01*
X823058Y645522D01*
X824446Y643118D01*
X826408Y641156D01*
X828812Y639768D01*
X831492Y639050D01*
X834268D01*
X836948Y639768D01*
X839352Y641156D01*
X841314Y643118D01*
X842702Y645522D01*
X843420Y648202D01*
Y650978D01*
X842702Y653658D01*
X841314Y656062D01*
X839352Y658024D01*
X836948Y659412D01*
X834268Y660130D01*
D02*
G37*
G36*
X794268D02*
X791492D01*
X788812Y659412D01*
X786408Y658024D01*
X784446Y656062D01*
X783058Y653658D01*
X782340Y650978D01*
Y648202D01*
X783058Y645522D01*
X784446Y643118D01*
X786408Y641156D01*
X788812Y639768D01*
X791492Y639050D01*
X794268D01*
X796948Y639768D01*
X799352Y641156D01*
X801314Y643118D01*
X802702Y645522D01*
X803420Y648202D01*
Y650978D01*
X802702Y653658D01*
X801314Y656062D01*
X799352Y658024D01*
X796948Y659412D01*
X794268Y660130D01*
D02*
G37*
G36*
X754268D02*
X751492D01*
X748812Y659412D01*
X746408Y658024D01*
X744446Y656062D01*
X743058Y653658D01*
X742340Y650978D01*
Y648202D01*
X743058Y645522D01*
X744446Y643118D01*
X746408Y641156D01*
X748812Y639768D01*
X751492Y639050D01*
X754268D01*
X756948Y639768D01*
X759352Y641156D01*
X761314Y643118D01*
X762702Y645522D01*
X763420Y648202D01*
Y650978D01*
X762702Y653658D01*
X761314Y656062D01*
X759352Y658024D01*
X756948Y659412D01*
X754268Y660130D01*
D02*
G37*
G36*
X714268D02*
X711492D01*
X708812Y659412D01*
X706408Y658024D01*
X704446Y656062D01*
X703058Y653658D01*
X702340Y650978D01*
Y648202D01*
X703058Y645522D01*
X704446Y643118D01*
X706408Y641156D01*
X708812Y639768D01*
X711492Y639050D01*
X714268D01*
X716948Y639768D01*
X719352Y641156D01*
X721314Y643118D01*
X722702Y645522D01*
X723420Y648202D01*
Y650978D01*
X722702Y653658D01*
X721314Y656062D01*
X719352Y658024D01*
X716948Y659412D01*
X714268Y660130D01*
D02*
G37*
G36*
X674268D02*
X671492D01*
X668812Y659412D01*
X666408Y658024D01*
X664446Y656062D01*
X663058Y653658D01*
X662340Y650978D01*
Y648202D01*
X663058Y645522D01*
X664446Y643118D01*
X666408Y641156D01*
X668812Y639768D01*
X671492Y639050D01*
X674268D01*
X676948Y639768D01*
X679352Y641156D01*
X681314Y643118D01*
X682702Y645522D01*
X683420Y648202D01*
Y650978D01*
X682702Y653658D01*
X681314Y656062D01*
X679352Y658024D01*
X676948Y659412D01*
X674268Y660130D01*
D02*
G37*
G36*
X513488D02*
X510712D01*
X508032Y659412D01*
X505628Y658024D01*
X503666Y656062D01*
X502278Y653658D01*
X501560Y650978D01*
Y648202D01*
X502278Y645522D01*
X503666Y643118D01*
X505628Y641156D01*
X508032Y639768D01*
X510712Y639050D01*
X513488D01*
X516168Y639768D01*
X518572Y641156D01*
X520534Y643118D01*
X521922Y645522D01*
X522640Y648202D01*
Y650978D01*
X521922Y653658D01*
X520534Y656062D01*
X518572Y658024D01*
X516168Y659412D01*
X513488Y660130D01*
D02*
G37*
G36*
X473488D02*
X470712D01*
X468032Y659412D01*
X465628Y658024D01*
X463666Y656062D01*
X462278Y653658D01*
X461560Y650978D01*
Y648202D01*
X462278Y645522D01*
X463666Y643118D01*
X465628Y641156D01*
X468032Y639768D01*
X470712Y639050D01*
X473488D01*
X476168Y639768D01*
X478572Y641156D01*
X480534Y643118D01*
X481922Y645522D01*
X482640Y648202D01*
Y650978D01*
X481922Y653658D01*
X480534Y656062D01*
X478572Y658024D01*
X476168Y659412D01*
X473488Y660130D01*
D02*
G37*
G36*
X433488D02*
X430712D01*
X428032Y659412D01*
X425628Y658024D01*
X423666Y656062D01*
X422278Y653658D01*
X421560Y650978D01*
Y648202D01*
X422278Y645522D01*
X423666Y643118D01*
X425628Y641156D01*
X428032Y639768D01*
X430712Y639050D01*
X433488D01*
X436168Y639768D01*
X438572Y641156D01*
X440534Y643118D01*
X441922Y645522D01*
X442640Y648202D01*
Y650978D01*
X441922Y653658D01*
X440534Y656062D01*
X438572Y658024D01*
X436168Y659412D01*
X433488Y660130D01*
D02*
G37*
G36*
X393488D02*
X390712D01*
X388032Y659412D01*
X385628Y658024D01*
X383666Y656062D01*
X382278Y653658D01*
X381560Y650978D01*
Y648202D01*
X382278Y645522D01*
X383666Y643118D01*
X385628Y641156D01*
X388032Y639768D01*
X390712Y639050D01*
X393488D01*
X396168Y639768D01*
X398572Y641156D01*
X400534Y643118D01*
X401922Y645522D01*
X402640Y648202D01*
Y650978D01*
X401922Y653658D01*
X400534Y656062D01*
X398572Y658024D01*
X396168Y659412D01*
X393488Y660130D01*
D02*
G37*
G36*
X353488D02*
X350712D01*
X348032Y659412D01*
X345628Y658024D01*
X343666Y656062D01*
X342278Y653658D01*
X341560Y650978D01*
Y648202D01*
X342278Y645522D01*
X343666Y643118D01*
X345628Y641156D01*
X348032Y639768D01*
X350712Y639050D01*
X353488D01*
X356168Y639768D01*
X358572Y641156D01*
X360534Y643118D01*
X361922Y645522D01*
X362640Y648202D01*
Y650978D01*
X361922Y653658D01*
X360534Y656062D01*
X358572Y658024D01*
X356168Y659412D01*
X353488Y660130D01*
D02*
G37*
G36*
X1352361Y683140D02*
X1347239D01*
X1342180Y682339D01*
X1337309Y680756D01*
X1332745Y678431D01*
X1328602Y675420D01*
X1324980Y671798D01*
X1321969Y667655D01*
X1319644Y663091D01*
X1318061Y658220D01*
X1317260Y653161D01*
Y648039D01*
X1318061Y642980D01*
X1319644Y638109D01*
X1321969Y633545D01*
X1324980Y629402D01*
X1328602Y625780D01*
X1332745Y622769D01*
X1337309Y620444D01*
X1342180Y618861D01*
X1347239Y618060D01*
X1352361D01*
X1357420Y618861D01*
X1362291Y620444D01*
X1366855Y622769D01*
X1370998Y625780D01*
X1374620Y629402D01*
X1377631Y633545D01*
X1379956Y638109D01*
X1381539Y642980D01*
X1382340Y648039D01*
Y653161D01*
X1381539Y658220D01*
X1379956Y663091D01*
X1377631Y667655D01*
X1374620Y671798D01*
X1370998Y675420D01*
X1366855Y678431D01*
X1362291Y680756D01*
X1357420Y682339D01*
X1352361Y683140D01*
D02*
G37*
G36*
X152361D02*
X147239D01*
X142180Y682339D01*
X137309Y680756D01*
X132745Y678431D01*
X128602Y675420D01*
X124980Y671798D01*
X121969Y667655D01*
X119644Y663091D01*
X118061Y658220D01*
X117260Y653161D01*
Y648039D01*
X118061Y642980D01*
X119644Y638109D01*
X121969Y633545D01*
X124980Y629402D01*
X128602Y625780D01*
X132745Y622769D01*
X137309Y620444D01*
X142180Y618861D01*
X147239Y618060D01*
X152361D01*
X157420Y618861D01*
X162291Y620444D01*
X166855Y622769D01*
X170998Y625780D01*
X174620Y629402D01*
X177631Y633545D01*
X179956Y638109D01*
X181539Y642980D01*
X182340Y648039D01*
Y653161D01*
X181539Y658220D01*
X179956Y663091D01*
X177631Y667655D01*
X174620Y671798D01*
X170998Y675420D01*
X166855Y678431D01*
X162291Y680756D01*
X157420Y682339D01*
X152361Y683140D01*
D02*
G37*
G36*
X1234690Y634730D02*
X1213610D01*
Y613650D01*
X1234690D01*
Y634730D01*
D02*
G37*
G36*
X1164920D02*
X1143840D01*
Y613650D01*
X1164920D01*
Y634730D01*
D02*
G37*
G36*
X1124920D02*
X1103840D01*
Y613650D01*
X1124920D01*
Y634730D01*
D02*
G37*
G36*
X1084920D02*
X1063840D01*
Y613650D01*
X1084920D01*
Y634730D01*
D02*
G37*
G36*
X1044920D02*
X1023840D01*
Y613650D01*
X1044920D01*
Y634730D01*
D02*
G37*
G36*
X1004920D02*
X983840D01*
Y613650D01*
X1004920D01*
Y634730D01*
D02*
G37*
G36*
X843420D02*
X822340D01*
Y613650D01*
X843420D01*
Y634730D01*
D02*
G37*
G36*
X803420D02*
X782340D01*
Y613650D01*
X803420D01*
Y634730D01*
D02*
G37*
G36*
X763420D02*
X742340D01*
Y613650D01*
X763420D01*
Y634730D01*
D02*
G37*
G36*
X723420D02*
X702340D01*
Y613650D01*
X723420D01*
Y634730D01*
D02*
G37*
G36*
X683420D02*
X662340D01*
Y613650D01*
X683420D01*
Y634730D01*
D02*
G37*
G36*
X522640D02*
X501560D01*
Y613650D01*
X522640D01*
Y634730D01*
D02*
G37*
G36*
X482640D02*
X461560D01*
Y613650D01*
X482640D01*
Y634730D01*
D02*
G37*
G36*
X442640D02*
X421560D01*
Y613650D01*
X442640D01*
Y634730D01*
D02*
G37*
G36*
X402640D02*
X381560D01*
Y613650D01*
X402640D01*
Y634730D01*
D02*
G37*
G36*
X362640D02*
X341560D01*
Y613650D01*
X362640D01*
Y634730D01*
D02*
G37*
G36*
X1212002Y586040D02*
X1209997D01*
X1208145Y585273D01*
X1206727Y583855D01*
X1205960Y582002D01*
Y579997D01*
X1206727Y578145D01*
X1208145Y576727D01*
X1209997Y575960D01*
X1212002D01*
X1213855Y576727D01*
X1215273Y578145D01*
X1216040Y579997D01*
Y582002D01*
X1215273Y583855D01*
X1213855Y585273D01*
X1212002Y586040D01*
D02*
G37*
G36*
X501003D02*
X498997D01*
X497145Y585273D01*
X495727Y583855D01*
X494960Y582002D01*
Y579997D01*
X495727Y578145D01*
X497145Y576727D01*
X498997Y575960D01*
X501003D01*
X502855Y576727D01*
X504273Y578145D01*
X505040Y579997D01*
Y582002D01*
X504273Y583855D01*
X502855Y585273D01*
X501003Y586040D01*
D02*
G37*
G36*
X461003D02*
X458997D01*
X457145Y585273D01*
X455727Y583855D01*
X454960Y582002D01*
Y579997D01*
X455727Y578145D01*
X457145Y576727D01*
X458997Y575960D01*
X461003D01*
X462855Y576727D01*
X464273Y578145D01*
X465040Y579997D01*
Y582002D01*
X464273Y583855D01*
X462855Y585273D01*
X461003Y586040D01*
D02*
G37*
G36*
X421003D02*
X418997D01*
X417145Y585273D01*
X415727Y583855D01*
X414960Y582002D01*
Y579997D01*
X415727Y578145D01*
X417145Y576727D01*
X418997Y575960D01*
X421003D01*
X422855Y576727D01*
X424273Y578145D01*
X425040Y579997D01*
Y582002D01*
X424273Y583855D01*
X422855Y585273D01*
X421003Y586040D01*
D02*
G37*
G36*
X380003D02*
X377998D01*
X376145Y585273D01*
X374727Y583855D01*
X373960Y582002D01*
Y579997D01*
X374727Y578145D01*
X376145Y576727D01*
X377998Y575960D01*
X380003D01*
X381855Y576727D01*
X383273Y578145D01*
X384040Y579997D01*
Y582002D01*
X383273Y583855D01*
X381855Y585273D01*
X380003Y586040D01*
D02*
G37*
G36*
X340003D02*
X337998D01*
X336145Y585273D01*
X334727Y583855D01*
X333960Y582002D01*
Y579997D01*
X334727Y578145D01*
X336145Y576727D01*
X337998Y575960D01*
X340003D01*
X341855Y576727D01*
X343273Y578145D01*
X344040Y579997D01*
Y582002D01*
X343273Y583855D01*
X341855Y585273D01*
X340003Y586040D01*
D02*
G37*
G36*
X1142000Y586000D02*
X1139995D01*
X1138143Y585233D01*
X1136725Y583815D01*
X1135957Y581963D01*
Y579958D01*
X1136725Y578105D01*
X1138143Y576687D01*
X1139995Y575920D01*
X1142000D01*
X1143852Y576687D01*
X1145270Y578105D01*
X1146038Y579958D01*
Y581963D01*
X1145270Y583815D01*
X1143852Y585233D01*
X1142000Y586000D01*
D02*
G37*
G36*
X1104005D02*
X1102000D01*
X1100148Y585233D01*
X1098730Y583815D01*
X1097962Y581963D01*
Y579958D01*
X1098730Y578105D01*
X1100148Y576687D01*
X1102000Y575920D01*
X1104005D01*
X1105857Y576687D01*
X1107275Y578105D01*
X1108043Y579958D01*
Y581963D01*
X1107275Y583815D01*
X1105857Y585233D01*
X1104005Y586000D01*
D02*
G37*
G36*
X1062000D02*
X1059995D01*
X1058143Y585233D01*
X1056725Y583815D01*
X1055957Y581963D01*
Y579958D01*
X1056725Y578105D01*
X1058143Y576687D01*
X1059995Y575920D01*
X1062000D01*
X1063852Y576687D01*
X1065270Y578105D01*
X1066038Y579958D01*
Y581963D01*
X1065270Y583815D01*
X1063852Y585233D01*
X1062000Y586000D01*
D02*
G37*
G36*
X1023005D02*
X1021000D01*
X1019147Y585233D01*
X1017730Y583815D01*
X1016963Y581963D01*
Y579958D01*
X1017730Y578105D01*
X1019147Y576687D01*
X1021000Y575920D01*
X1023005D01*
X1024857Y576687D01*
X1026275Y578105D01*
X1027042Y579958D01*
Y581963D01*
X1026275Y583815D01*
X1024857Y585233D01*
X1023005Y586000D01*
D02*
G37*
G36*
X981000D02*
X978995D01*
X977142Y585233D01*
X975725Y583815D01*
X974958Y581963D01*
Y579958D01*
X975725Y578105D01*
X977142Y576687D01*
X978995Y575920D01*
X981000D01*
X982852Y576687D01*
X984270Y578105D01*
X985038Y579958D01*
Y581963D01*
X984270Y583815D01*
X982852Y585233D01*
X981000Y586000D01*
D02*
G37*
G36*
X822000D02*
X819995D01*
X818143Y585233D01*
X816725Y583815D01*
X815957Y581963D01*
Y579958D01*
X816725Y578105D01*
X818143Y576687D01*
X819995Y575920D01*
X822000D01*
X823852Y576687D01*
X825270Y578105D01*
X826038Y579958D01*
Y581963D01*
X825270Y583815D01*
X823852Y585233D01*
X822000Y586000D01*
D02*
G37*
G36*
X781000D02*
X778995D01*
X777142Y585233D01*
X775725Y583815D01*
X774958Y581963D01*
Y579958D01*
X775725Y578105D01*
X777142Y576687D01*
X778995Y575920D01*
X781000D01*
X782852Y576687D01*
X784270Y578105D01*
X785038Y579958D01*
Y581963D01*
X784270Y583815D01*
X782852Y585233D01*
X781000Y586000D01*
D02*
G37*
G36*
X741000D02*
X738995D01*
X737142Y585233D01*
X735725Y583815D01*
X734958Y581963D01*
Y579958D01*
X735725Y578105D01*
X737142Y576687D01*
X738995Y575920D01*
X741000D01*
X742852Y576687D01*
X744270Y578105D01*
X745038Y579958D01*
Y581963D01*
X744270Y583815D01*
X742852Y585233D01*
X741000Y586000D01*
D02*
G37*
G36*
X700275Y585949D02*
X698270D01*
X696417Y585182D01*
X694999Y583764D01*
X694232Y581911D01*
Y579906D01*
X694999Y578054D01*
X696417Y576636D01*
X698270Y575869D01*
X700275D01*
X702127Y576636D01*
X703545Y578054D01*
X704312Y579906D01*
Y581911D01*
X703545Y583764D01*
X702127Y585182D01*
X700275Y585949D01*
D02*
G37*
G36*
X659172Y585721D02*
X657167D01*
X655315Y584953D01*
X653897Y583536D01*
X653130Y581683D01*
Y579678D01*
X653897Y577826D01*
X655315Y576408D01*
X657167Y575641D01*
X659172D01*
X661024Y576408D01*
X662442Y577826D01*
X663210Y579678D01*
Y581683D01*
X662442Y583536D01*
X661024Y584953D01*
X659172Y585721D01*
D02*
G37*
G36*
X1337250Y585163D02*
X1314750D01*
X1312296Y584675D01*
X1310215Y583285D01*
X1308825Y581204D01*
X1308337Y578750D01*
Y571250D01*
X1308825Y568796D01*
X1310215Y566715D01*
X1312296Y565325D01*
X1314750Y564837D01*
X1337250D01*
X1339704Y565325D01*
X1341785Y566715D01*
X1343175Y568796D01*
X1343663Y571250D01*
Y578750D01*
X1343175Y581204D01*
X1341785Y583285D01*
X1339704Y584675D01*
X1337250Y585163D01*
D02*
G37*
G36*
X185250Y585163D02*
X162750D01*
X160296Y584675D01*
X158215Y583285D01*
X156825Y581204D01*
X156337Y578750D01*
Y571250D01*
X156825Y568796D01*
X158215Y566715D01*
X160296Y565325D01*
X162750Y564837D01*
X185250D01*
X187704Y565325D01*
X189785Y566715D01*
X191175Y568796D01*
X191663Y571250D01*
Y578750D01*
X191175Y581204D01*
X189785Y583285D01*
X187704Y584675D01*
X185250Y585163D01*
D02*
G37*
G36*
X1271080Y563942D02*
Y548580D01*
X1286442D01*
X1286231Y549637D01*
X1284645Y553466D01*
X1282343Y556912D01*
X1279412Y559843D01*
X1275966Y562145D01*
X1272137Y563731D01*
X1271080Y563942D01*
D02*
G37*
G36*
X1260920Y563942D02*
X1259863Y563731D01*
X1256034Y562145D01*
X1252588Y559843D01*
X1249657Y556912D01*
X1247355Y553466D01*
X1245769Y549637D01*
X1245558Y548580D01*
X1260920D01*
Y563942D01*
D02*
G37*
G36*
X1286442Y538420D02*
X1271080D01*
Y523058D01*
X1272137Y523269D01*
X1275966Y524855D01*
X1279412Y527157D01*
X1282343Y530088D01*
X1284645Y533534D01*
X1286231Y537363D01*
X1286442Y538420D01*
D02*
G37*
G36*
X1260920D02*
X1245558D01*
X1245769Y537363D01*
X1247355Y533534D01*
X1249657Y530088D01*
X1252588Y527157D01*
X1256034Y524855D01*
X1259863Y523269D01*
X1260920Y523058D01*
Y538420D01*
D02*
G37*
G36*
X236072Y564540D02*
X231928D01*
X227863Y563731D01*
X224034Y562145D01*
X220588Y559843D01*
X217657Y556912D01*
X215355Y553466D01*
X213769Y549637D01*
X212960Y545572D01*
Y541428D01*
X213769Y537363D01*
X215355Y533534D01*
X217657Y530088D01*
X220588Y527157D01*
X224034Y524855D01*
X227863Y523269D01*
X231928Y522460D01*
X236072D01*
X240137Y523269D01*
X243966Y524855D01*
X247412Y527157D01*
X250343Y530088D01*
X252645Y533534D01*
X254231Y537363D01*
X255040Y541428D01*
Y545572D01*
X254231Y549637D01*
X252645Y553466D01*
X250343Y556912D01*
X247412Y559843D01*
X243966Y562145D01*
X240137Y563731D01*
X236072Y564540D01*
D02*
G37*
G36*
X1059003Y498040D02*
X1056998D01*
X1055145Y497273D01*
X1053727Y495855D01*
X1052960Y494002D01*
Y491997D01*
X1053727Y490145D01*
X1055145Y488727D01*
X1056998Y487960D01*
X1059003D01*
X1060855Y488727D01*
X1062273Y490145D01*
X1063040Y491997D01*
Y494002D01*
X1062273Y495855D01*
X1060855Y497273D01*
X1059003Y498040D01*
D02*
G37*
G36*
X738002D02*
X735997D01*
X734145Y497273D01*
X732727Y495855D01*
X731960Y494002D01*
Y491997D01*
X732727Y490145D01*
X734145Y488727D01*
X735997Y487960D01*
X738002D01*
X739855Y488727D01*
X741273Y490145D01*
X742040Y491997D01*
Y494002D01*
X741273Y495855D01*
X739855Y497273D01*
X738002Y498040D01*
D02*
G37*
G36*
X418003Y492040D02*
X415998D01*
X414145Y491273D01*
X412727Y489855D01*
X411960Y488003D01*
Y485998D01*
X412727Y484145D01*
X414145Y482727D01*
X415998Y481960D01*
X418003D01*
X419855Y482727D01*
X421273Y484145D01*
X422040Y485998D01*
Y488003D01*
X421273Y489855D01*
X419855Y491273D01*
X418003Y492040D01*
D02*
G37*
G36*
X239080Y491942D02*
Y476580D01*
X254442D01*
X254231Y477637D01*
X252645Y481466D01*
X250343Y484912D01*
X247412Y487843D01*
X243966Y490145D01*
X240137Y491731D01*
X239080Y491942D01*
D02*
G37*
G36*
X228920D02*
X227863Y491731D01*
X224034Y490145D01*
X220588Y487843D01*
X217657Y484912D01*
X215355Y481466D01*
X213769Y477637D01*
X213558Y476580D01*
X228920D01*
Y491942D01*
D02*
G37*
G36*
X1059003Y485040D02*
X1056998D01*
X1055145Y484273D01*
X1053727Y482855D01*
X1052960Y481003D01*
Y478997D01*
X1053727Y477145D01*
X1055145Y475727D01*
X1056998Y474960D01*
X1059003D01*
X1060855Y475727D01*
X1062273Y477145D01*
X1063040Y478997D01*
Y481003D01*
X1062273Y482855D01*
X1060855Y484273D01*
X1059003Y485040D01*
D02*
G37*
G36*
X738002D02*
X735997D01*
X734145Y484273D01*
X732727Y482855D01*
X731960Y481003D01*
Y478997D01*
X732727Y477145D01*
X734145Y475727D01*
X735997Y474960D01*
X738002D01*
X739855Y475727D01*
X741273Y477145D01*
X742040Y478997D01*
Y481003D01*
X741273Y482855D01*
X739855Y484273D01*
X738002Y485040D01*
D02*
G37*
G36*
X417942Y480490D02*
X415937D01*
X414084Y479722D01*
X412667Y478305D01*
X411899Y476452D01*
Y474447D01*
X412667Y472595D01*
X414084Y471177D01*
X415937Y470410D01*
X417942D01*
X419794Y471177D01*
X421212Y472595D01*
X421979Y474447D01*
Y476452D01*
X421212Y478305D01*
X419794Y479722D01*
X417942Y480490D01*
D02*
G37*
G36*
X254442Y466420D02*
X239080D01*
Y451058D01*
X240137Y451269D01*
X243966Y452855D01*
X247412Y455157D01*
X250343Y458088D01*
X252645Y461534D01*
X254231Y465363D01*
X254442Y466420D01*
D02*
G37*
G36*
X228920D02*
X213558D01*
X213769Y465363D01*
X215355Y461534D01*
X217657Y458088D01*
X220588Y455157D01*
X224034Y452855D01*
X227863Y451269D01*
X228920Y451058D01*
Y466420D01*
D02*
G37*
G36*
X1268072Y492540D02*
X1263928D01*
X1259863Y491731D01*
X1256034Y490145D01*
X1252588Y487843D01*
X1249657Y484912D01*
X1247355Y481466D01*
X1245769Y477637D01*
X1244960Y473572D01*
Y469428D01*
X1245769Y465363D01*
X1247355Y461534D01*
X1249657Y458088D01*
X1252588Y455157D01*
X1256034Y452855D01*
X1259863Y451269D01*
X1263928Y450460D01*
X1268072D01*
X1272137Y451269D01*
X1275966Y452855D01*
X1279412Y455157D01*
X1282343Y458088D01*
X1284645Y461534D01*
X1286231Y465363D01*
X1287040Y469428D01*
Y473572D01*
X1286231Y477637D01*
X1284645Y481466D01*
X1282343Y484912D01*
X1279412Y487843D01*
X1275966Y490145D01*
X1272137Y491731D01*
X1268072Y492540D01*
D02*
G37*
G36*
X1337250Y450163D02*
X1314750D01*
X1312296Y449675D01*
X1310215Y448285D01*
X1308825Y446204D01*
X1308337Y443750D01*
Y436250D01*
X1308825Y433796D01*
X1310215Y431715D01*
X1312296Y430325D01*
X1314750Y429837D01*
X1337250D01*
X1339704Y430325D01*
X1341785Y431715D01*
X1343175Y433796D01*
X1343663Y436250D01*
Y443750D01*
X1343175Y446204D01*
X1341785Y448285D01*
X1339704Y449675D01*
X1337250Y450163D01*
D02*
G37*
G36*
X185250Y450163D02*
X162750D01*
X160296Y449675D01*
X158215Y448285D01*
X156825Y446204D01*
X156337Y443750D01*
Y436250D01*
X156825Y433796D01*
X158215Y431715D01*
X160296Y430325D01*
X162750Y429837D01*
X185250D01*
X187704Y430325D01*
X189785Y431715D01*
X191175Y433796D01*
X191663Y436250D01*
Y443750D01*
X191175Y446204D01*
X189785Y448285D01*
X187704Y449675D01*
X185250Y450163D01*
D02*
G37*
G36*
X721003Y432040D02*
X718997D01*
X717145Y431273D01*
X715727Y429855D01*
X714960Y428003D01*
Y425998D01*
X715727Y424145D01*
X717145Y422727D01*
X718997Y421960D01*
X721003D01*
X722855Y422727D01*
X724273Y424145D01*
X725040Y425998D01*
Y428003D01*
X724273Y429855D01*
X722855Y431273D01*
X721003Y432040D01*
D02*
G37*
G36*
X1043002Y430040D02*
X1040997D01*
X1039145Y429273D01*
X1037727Y427855D01*
X1036960Y426003D01*
Y423997D01*
X1037727Y422145D01*
X1039145Y420727D01*
X1040997Y419960D01*
X1043002D01*
X1044855Y420727D01*
X1046273Y422145D01*
X1047040Y423997D01*
Y426003D01*
X1046273Y427855D01*
X1044855Y429273D01*
X1043002Y430040D01*
D02*
G37*
G36*
X401003Y425040D02*
X398997D01*
X397145Y424273D01*
X395727Y422855D01*
X394960Y421003D01*
Y418997D01*
X395727Y417145D01*
X397145Y415727D01*
X398997Y414960D01*
X401003D01*
X402855Y415727D01*
X404273Y417145D01*
X405040Y418997D01*
Y421003D01*
X404273Y422855D01*
X402855Y424273D01*
X401003Y425040D01*
D02*
G37*
G36*
X1047002Y409040D02*
X1044997D01*
X1043145Y408273D01*
X1041727Y406855D01*
X1040960Y405003D01*
Y402998D01*
X1041727Y401145D01*
X1043145Y399727D01*
X1044997Y398960D01*
X1047002D01*
X1048855Y399727D01*
X1050273Y401145D01*
X1051040Y402998D01*
Y405003D01*
X1050273Y406855D01*
X1048855Y408273D01*
X1047002Y409040D01*
D02*
G37*
G36*
X726003Y408040D02*
X723997D01*
X722145Y407273D01*
X720727Y405855D01*
X719960Y404002D01*
Y401997D01*
X720727Y400145D01*
X722145Y398727D01*
X723997Y397960D01*
X726003D01*
X727855Y398727D01*
X729273Y400145D01*
X730040Y401997D01*
Y404002D01*
X729273Y405855D01*
X727855Y407273D01*
X726003Y408040D01*
D02*
G37*
G36*
X408003Y404040D02*
X405998D01*
X404145Y403273D01*
X402727Y401855D01*
X401960Y400003D01*
Y397998D01*
X402727Y396145D01*
X404145Y394727D01*
X405998Y393960D01*
X408003D01*
X409855Y394727D01*
X411273Y396145D01*
X412040Y397998D01*
Y400003D01*
X411273Y401855D01*
X409855Y403273D01*
X408003Y404040D01*
D02*
G37*
G36*
X166184Y401460D02*
X165540D01*
Y388190D01*
X178810D01*
Y388834D01*
X177819Y392532D01*
X175905Y395848D01*
X173198Y398555D01*
X169882Y400469D01*
X166184Y401460D01*
D02*
G37*
G36*
X163000D02*
X162356D01*
X158658Y400469D01*
X155342Y398555D01*
X152635Y395848D01*
X150721Y392532D01*
X149730Y388834D01*
Y388190D01*
X163000D01*
Y401460D01*
D02*
G37*
G36*
X1337644Y398120D02*
X1337000D01*
Y384850D01*
X1350270D01*
Y385494D01*
X1349279Y389192D01*
X1347365Y392508D01*
X1344658Y395215D01*
X1341342Y397129D01*
X1337644Y398120D01*
D02*
G37*
G36*
X1334460D02*
X1333816D01*
X1330118Y397129D01*
X1326802Y395215D01*
X1324095Y392508D01*
X1322181Y389192D01*
X1321190Y385494D01*
Y384850D01*
X1334460D01*
Y398120D01*
D02*
G37*
G36*
X178810Y385650D02*
X165540D01*
Y372380D01*
X166184D01*
X169882Y373371D01*
X173198Y375285D01*
X175905Y377992D01*
X177819Y381308D01*
X178810Y385006D01*
Y385650D01*
D02*
G37*
G36*
X163000D02*
X149730D01*
Y385006D01*
X150721Y381308D01*
X152635Y377992D01*
X155342Y375285D01*
X158658Y373371D01*
X162356Y372380D01*
X163000D01*
Y385650D01*
D02*
G37*
G36*
X1350270Y382310D02*
X1337000D01*
Y369040D01*
X1337644D01*
X1341342Y370031D01*
X1344658Y371945D01*
X1347365Y374652D01*
X1349279Y377968D01*
X1350270Y381666D01*
Y382310D01*
D02*
G37*
G36*
X1334460D02*
X1321190D01*
Y381666D01*
X1322181Y377968D01*
X1324095Y374652D01*
X1326802Y371945D01*
X1330118Y370031D01*
X1333816Y369040D01*
X1334460D01*
Y382310D01*
D02*
G37*
G36*
X222631Y383850D02*
X220109D01*
X217672Y383197D01*
X215488Y381936D01*
X213704Y380152D01*
X212443Y377968D01*
X211790Y375531D01*
Y373009D01*
X212443Y370572D01*
X213704Y368388D01*
X215488Y366604D01*
X217672Y365343D01*
X220109Y364690D01*
X222631D01*
X225068Y365343D01*
X227252Y366604D01*
X229036Y368388D01*
X230297Y370572D01*
X230950Y373009D01*
Y375531D01*
X230297Y377968D01*
X229036Y380152D01*
X227252Y381936D01*
X225068Y383197D01*
X222631Y383850D01*
D02*
G37*
G36*
X1279891Y380510D02*
X1277369D01*
X1274932Y379857D01*
X1272748Y378596D01*
X1270964Y376812D01*
X1269703Y374628D01*
X1269050Y372191D01*
Y369669D01*
X1269703Y367232D01*
X1270964Y365048D01*
X1272748Y363264D01*
X1274932Y362003D01*
X1277369Y361350D01*
X1279891D01*
X1282328Y362003D01*
X1284512Y363264D01*
X1286296Y365048D01*
X1287557Y367232D01*
X1288210Y369669D01*
Y372191D01*
X1287557Y374628D01*
X1286296Y376812D01*
X1284512Y378596D01*
X1282328Y379857D01*
X1279891Y380510D01*
D02*
G37*
G36*
X131743Y387170D02*
X128197D01*
X124720Y386478D01*
X121444Y385121D01*
X118496Y383152D01*
X115989Y380644D01*
X114019Y377696D01*
X112662Y374420D01*
X111970Y370943D01*
Y367397D01*
X112662Y363920D01*
X114019Y360644D01*
X115989Y357696D01*
X118496Y355188D01*
X121444Y353219D01*
X124720Y351862D01*
X128197Y351170D01*
X131743D01*
X135220Y351862D01*
X138496Y353219D01*
X141444Y355188D01*
X143952Y357696D01*
X145921Y360644D01*
X147278Y363920D01*
X147970Y367397D01*
Y370943D01*
X147278Y374420D01*
X145921Y377696D01*
X143952Y380644D01*
X141444Y383152D01*
X138496Y385121D01*
X135220Y386478D01*
X131743Y387170D01*
D02*
G37*
G36*
X1371803Y383830D02*
X1368257D01*
X1364780Y383138D01*
X1361504Y381781D01*
X1358556Y379812D01*
X1356048Y377304D01*
X1354079Y374356D01*
X1352722Y371080D01*
X1352030Y367603D01*
Y364057D01*
X1352722Y360580D01*
X1354079Y357304D01*
X1356048Y354356D01*
X1358556Y351848D01*
X1361504Y349879D01*
X1364780Y348522D01*
X1368257Y347830D01*
X1371803D01*
X1375280Y348522D01*
X1378556Y349879D01*
X1381504Y351848D01*
X1384012Y354356D01*
X1385981Y357304D01*
X1387338Y360580D01*
X1388030Y364057D01*
Y367603D01*
X1387338Y371080D01*
X1385981Y374356D01*
X1384012Y377304D01*
X1381504Y379812D01*
X1378556Y381781D01*
X1375280Y383138D01*
X1371803Y383830D01*
D02*
G37*
G36*
X174440Y350948D02*
Y342640D01*
X182748D01*
X182097Y345068D01*
X180836Y347252D01*
X179052Y349036D01*
X176868Y350297D01*
X174440Y350948D01*
D02*
G37*
G36*
X171900Y350948D02*
X169472Y350297D01*
X167288Y349036D01*
X165504Y347252D01*
X164243Y345068D01*
X163592Y342640D01*
X171900D01*
Y350948D01*
D02*
G37*
G36*
X222631Y360950D02*
X220109D01*
X217672Y360297D01*
X215488Y359036D01*
X213704Y357252D01*
X212443Y355068D01*
X211790Y352631D01*
Y350109D01*
X212443Y347672D01*
X213704Y345488D01*
X215488Y343704D01*
X217672Y342443D01*
X220109Y341790D01*
X222631D01*
X225068Y342443D01*
X227252Y343704D01*
X229036Y345488D01*
X230297Y347672D01*
X230950Y350109D01*
Y352631D01*
X230297Y355068D01*
X229036Y357252D01*
X227252Y359036D01*
X225068Y360297D01*
X222631Y360950D01*
D02*
G37*
G36*
X1345900Y347608D02*
Y339300D01*
X1354208D01*
X1353557Y341728D01*
X1352296Y343912D01*
X1350512Y345696D01*
X1348328Y346957D01*
X1345900Y347608D01*
D02*
G37*
G36*
X1343360Y347608D02*
X1340932Y346957D01*
X1338748Y345696D01*
X1336964Y343912D01*
X1335703Y341728D01*
X1335052Y339300D01*
X1343360D01*
Y347608D01*
D02*
G37*
G36*
X1279891Y357610D02*
X1277369D01*
X1274932Y356957D01*
X1272748Y355696D01*
X1270964Y353912D01*
X1269703Y351728D01*
X1269050Y349291D01*
Y346769D01*
X1269703Y344332D01*
X1270964Y342148D01*
X1272748Y340364D01*
X1274932Y339103D01*
X1277369Y338450D01*
X1279891D01*
X1282328Y339103D01*
X1284512Y340364D01*
X1286296Y342148D01*
X1287557Y344332D01*
X1288210Y346769D01*
Y349291D01*
X1287557Y351728D01*
X1286296Y353912D01*
X1284512Y355696D01*
X1282328Y356957D01*
X1279891Y357610D01*
D02*
G37*
G36*
X156640Y340748D02*
Y332440D01*
X164948D01*
X164297Y334868D01*
X163036Y337052D01*
X161252Y338836D01*
X159068Y340097D01*
X156640Y340748D01*
D02*
G37*
G36*
X154100D02*
X151672Y340097D01*
X149488Y338836D01*
X147704Y337052D01*
X146443Y334868D01*
X145792Y332440D01*
X154100D01*
Y340748D01*
D02*
G37*
G36*
X182748Y340100D02*
X173170D01*
X163592D01*
X164243Y337672D01*
X165504Y335488D01*
X167288Y333704D01*
X169472Y332443D01*
X171909Y331790D01*
Y330550D01*
X169472Y329897D01*
X167288Y328636D01*
X165504Y326852D01*
X164243Y324668D01*
X163592Y322240D01*
X173170D01*
X182748D01*
X182097Y324668D01*
X180836Y326852D01*
X179052Y328636D01*
X176868Y329897D01*
X174431Y330550D01*
Y331790D01*
X176868Y332443D01*
X179052Y333704D01*
X180836Y335488D01*
X182097Y337672D01*
X182748Y340100D01*
D02*
G37*
G36*
X1354208Y336760D02*
X1344630D01*
X1335052D01*
X1335703Y334332D01*
X1336964Y332148D01*
X1338748Y330364D01*
X1340932Y329103D01*
X1343369Y328450D01*
Y327210D01*
X1340932Y326557D01*
X1338748Y325296D01*
X1336964Y323512D01*
X1335703Y321328D01*
X1335052Y318900D01*
X1344630D01*
X1354208D01*
X1353557Y321328D01*
X1352296Y323512D01*
X1350512Y325296D01*
X1348328Y326557D01*
X1345891Y327210D01*
Y328450D01*
X1348328Y329103D01*
X1350512Y330364D01*
X1352296Y332148D01*
X1353557Y334332D01*
X1354208Y336760D01*
D02*
G37*
G36*
X164948Y329900D02*
X155370D01*
X145792D01*
X146443Y327472D01*
X147704Y325288D01*
X149488Y323504D01*
X151672Y322243D01*
X154109Y321590D01*
Y320350D01*
X151672Y319697D01*
X149488Y318436D01*
X147704Y316652D01*
X146443Y314468D01*
X145792Y312040D01*
X155370D01*
X164948D01*
X164297Y314468D01*
X163036Y316652D01*
X161252Y318436D01*
X159068Y319697D01*
X156631Y320350D01*
Y321590D01*
X159068Y322243D01*
X161252Y323504D01*
X163036Y325288D01*
X164297Y327472D01*
X164948Y329900D01*
D02*
G37*
G36*
X1037002Y319040D02*
X1034997D01*
X1033145Y318273D01*
X1031727Y316855D01*
X1030960Y315002D01*
Y312997D01*
X1031727Y311145D01*
X1033145Y309727D01*
X1034997Y308960D01*
X1037002D01*
X1038855Y309727D01*
X1040273Y311145D01*
X1041040Y312997D01*
Y315002D01*
X1040273Y316855D01*
X1038855Y318273D01*
X1037002Y319040D01*
D02*
G37*
G36*
X1354208Y316360D02*
X1344630D01*
X1335052D01*
X1335703Y313932D01*
X1336964Y311748D01*
X1338748Y309964D01*
X1340932Y308703D01*
X1343369Y308050D01*
Y306810D01*
X1340932Y306157D01*
X1338748Y304896D01*
X1336964Y303112D01*
X1335703Y300928D01*
X1335052Y298500D01*
X1344630D01*
X1354208D01*
X1353557Y300928D01*
X1352296Y303112D01*
X1350512Y304896D01*
X1348328Y306157D01*
X1345891Y306810D01*
Y308050D01*
X1348328Y308703D01*
X1350512Y309964D01*
X1352296Y311748D01*
X1353557Y313932D01*
X1354208Y316360D01*
D02*
G37*
G36*
X164948Y309500D02*
X155370D01*
X145792D01*
X146443Y307072D01*
X147704Y304888D01*
X149488Y303104D01*
X151672Y301843D01*
X154109Y301190D01*
Y299950D01*
X151672Y299297D01*
X149488Y298036D01*
X147704Y296252D01*
X146443Y294068D01*
X145792Y291640D01*
X155370D01*
X164948D01*
X164297Y294068D01*
X163036Y296252D01*
X161252Y298036D01*
X159068Y299297D01*
X156631Y299950D01*
Y301190D01*
X159068Y301843D01*
X161252Y303104D01*
X163036Y304888D01*
X164297Y307072D01*
X164948Y309500D01*
D02*
G37*
G36*
X1328091Y337410D02*
X1325569D01*
X1323132Y336757D01*
X1320948Y335496D01*
X1319164Y333712D01*
X1317903Y331528D01*
X1317250Y329091D01*
Y326569D01*
X1317903Y324132D01*
X1319164Y321948D01*
X1320948Y320164D01*
X1323132Y318903D01*
X1325569Y318250D01*
Y317010D01*
X1323132Y316357D01*
X1320948Y315096D01*
X1319164Y313312D01*
X1317903Y311128D01*
X1317250Y308691D01*
Y306169D01*
X1317903Y303732D01*
X1319164Y301548D01*
X1320948Y299764D01*
X1323132Y298503D01*
X1325569Y297850D01*
Y296610D01*
X1323132Y295957D01*
X1320948Y294696D01*
X1319164Y292912D01*
X1317903Y290728D01*
X1317252Y288300D01*
X1326830D01*
X1336408D01*
X1335757Y290728D01*
X1334496Y292912D01*
X1332712Y294696D01*
X1330528Y295957D01*
X1328091Y296610D01*
Y297850D01*
X1330528Y298503D01*
X1332712Y299764D01*
X1334496Y301548D01*
X1335757Y303732D01*
X1336410Y306169D01*
Y308691D01*
X1335757Y311128D01*
X1334496Y313312D01*
X1332712Y315096D01*
X1330528Y316357D01*
X1328091Y317010D01*
Y318250D01*
X1330528Y318903D01*
X1332712Y320164D01*
X1334496Y321948D01*
X1335757Y324132D01*
X1336410Y326569D01*
Y329091D01*
X1335757Y331528D01*
X1334496Y333712D01*
X1332712Y335496D01*
X1330528Y336757D01*
X1328091Y337410D01*
D02*
G37*
G36*
X361003Y290040D02*
X358997D01*
X357145Y289273D01*
X355727Y287855D01*
X354960Y286003D01*
Y283997D01*
X355727Y282145D01*
X357145Y280727D01*
X358997Y279960D01*
X361003D01*
X362855Y280727D01*
X364273Y282145D01*
X365040Y283997D01*
Y286003D01*
X364273Y287855D01*
X362855Y289273D01*
X361003Y290040D01*
D02*
G37*
G36*
X1354208Y295960D02*
X1344630D01*
X1335052D01*
X1335703Y293532D01*
X1336964Y291348D01*
X1338748Y289564D01*
X1340932Y288303D01*
X1343369Y287650D01*
Y286410D01*
X1340932Y285757D01*
X1338748Y284496D01*
X1336964Y282712D01*
X1335703Y280528D01*
X1335052Y278100D01*
X1344630D01*
X1354208D01*
X1353557Y280528D01*
X1352296Y282712D01*
X1350512Y284496D01*
X1348328Y285757D01*
X1345891Y286410D01*
Y287650D01*
X1348328Y288303D01*
X1350512Y289564D01*
X1352296Y291348D01*
X1353557Y293532D01*
X1354208Y295960D01*
D02*
G37*
G36*
X164948Y289100D02*
X155370D01*
X145792D01*
X146443Y286672D01*
X147704Y284488D01*
X149488Y282704D01*
X151672Y281443D01*
X154109Y280790D01*
Y279550D01*
X151672Y278897D01*
X149488Y277636D01*
X147704Y275852D01*
X146443Y273668D01*
X145792Y271240D01*
X155370D01*
X164948D01*
X164297Y273668D01*
X163036Y275852D01*
X161252Y277636D01*
X159068Y278897D01*
X156631Y279550D01*
Y280790D01*
X159068Y281443D01*
X161252Y282704D01*
X163036Y284488D01*
X164297Y286672D01*
X164948Y289100D01*
D02*
G37*
G36*
X182748Y319700D02*
X173170D01*
X163592D01*
X164243Y317272D01*
X165504Y315088D01*
X167288Y313304D01*
X169472Y312043D01*
X171909Y311390D01*
Y310150D01*
X169472Y309497D01*
X167288Y308236D01*
X165504Y306452D01*
X164243Y304268D01*
X163590Y301831D01*
Y299309D01*
X164243Y296872D01*
X165504Y294688D01*
X167288Y292904D01*
X169472Y291643D01*
X171909Y290990D01*
Y289750D01*
X169472Y289097D01*
X167288Y287836D01*
X165504Y286052D01*
X164243Y283868D01*
X163590Y281431D01*
Y278909D01*
X164243Y276472D01*
X165504Y274288D01*
X167288Y272504D01*
X169472Y271243D01*
X171909Y270590D01*
X174431D01*
X176868Y271243D01*
X179052Y272504D01*
X180836Y274288D01*
X182097Y276472D01*
X182750Y278909D01*
Y281431D01*
X182097Y283868D01*
X180836Y286052D01*
X179052Y287836D01*
X176868Y289097D01*
X174431Y289750D01*
Y290990D01*
X176868Y291643D01*
X179052Y292904D01*
X180836Y294688D01*
X182097Y296872D01*
X182750Y299309D01*
Y301831D01*
X182097Y304268D01*
X180836Y306452D01*
X179052Y308236D01*
X176868Y309497D01*
X174431Y310150D01*
Y311390D01*
X176868Y312043D01*
X179052Y313304D01*
X180836Y315088D01*
X182097Y317272D01*
X182748Y319700D01*
D02*
G37*
G36*
X1336408Y285760D02*
X1326830D01*
X1317252D01*
X1317903Y283332D01*
X1319164Y281148D01*
X1320948Y279364D01*
X1323132Y278103D01*
X1325569Y277450D01*
Y276210D01*
X1323132Y275557D01*
X1320948Y274296D01*
X1319164Y272512D01*
X1317903Y270328D01*
X1317252Y267900D01*
X1326830D01*
X1336408D01*
X1335757Y270328D01*
X1334496Y272512D01*
X1332712Y274296D01*
X1330528Y275557D01*
X1328091Y276210D01*
Y277450D01*
X1330528Y278103D01*
X1332712Y279364D01*
X1334496Y281148D01*
X1335757Y283332D01*
X1336408Y285760D01*
D02*
G37*
G36*
X1354208Y275560D02*
X1345900D01*
Y267252D01*
X1348328Y267903D01*
X1350512Y269164D01*
X1352296Y270948D01*
X1353557Y273132D01*
X1354208Y275560D01*
D02*
G37*
G36*
X1343360D02*
X1335052D01*
X1335703Y273132D01*
X1336964Y270948D01*
X1338748Y269164D01*
X1340932Y267903D01*
X1343360Y267252D01*
Y275560D01*
D02*
G37*
G36*
X861003Y275040D02*
X858997D01*
X857145Y274273D01*
X855727Y272855D01*
X854960Y271003D01*
Y268997D01*
X855727Y267145D01*
X857145Y265727D01*
X858997Y264960D01*
X861003D01*
X862855Y265727D01*
X864273Y267145D01*
X865040Y268997D01*
Y271003D01*
X864273Y272855D01*
X862855Y274273D01*
X861003Y275040D01*
D02*
G37*
G36*
X810003D02*
X807998D01*
X806145Y274273D01*
X804727Y272855D01*
X803960Y271003D01*
Y268997D01*
X804727Y267145D01*
X806145Y265727D01*
X807998Y264960D01*
X810003D01*
X811855Y265727D01*
X813273Y267145D01*
X814040Y268997D01*
Y271003D01*
X813273Y272855D01*
X811855Y274273D01*
X810003Y275040D01*
D02*
G37*
G36*
X971003Y271040D02*
X968997D01*
X967145Y270273D01*
X965727Y268855D01*
X964960Y267003D01*
Y264998D01*
X965727Y263145D01*
X967145Y261727D01*
X968997Y260960D01*
X971003D01*
X972855Y261727D01*
X974273Y263145D01*
X975040Y264998D01*
Y267003D01*
X974273Y268855D01*
X972855Y270273D01*
X971003Y271040D01*
D02*
G37*
G36*
X154100Y268700D02*
X145792D01*
X146443Y266272D01*
X147704Y264088D01*
X149488Y262304D01*
X151672Y261043D01*
X154100Y260392D01*
Y268700D01*
D02*
G37*
G36*
X164948D02*
X156640D01*
Y260392D01*
X159068Y261043D01*
X161252Y262304D01*
X163036Y264088D01*
X164297Y266272D01*
X164948Y268700D01*
D02*
G37*
G36*
X1336408Y265360D02*
X1328100D01*
Y257052D01*
X1330528Y257703D01*
X1332712Y258964D01*
X1334496Y260748D01*
X1335757Y262932D01*
X1336408Y265360D01*
D02*
G37*
G36*
X1325560D02*
X1317252D01*
X1317903Y262932D01*
X1319164Y260748D01*
X1320948Y258964D01*
X1323132Y257703D01*
X1325560Y257052D01*
Y265360D01*
D02*
G37*
G36*
X402002Y267040D02*
X399997D01*
X398145Y266273D01*
X396727Y264855D01*
X395960Y263002D01*
Y260998D01*
X396727Y259145D01*
X398145Y257727D01*
X399997Y256960D01*
X402002D01*
X403855Y257727D01*
X405273Y259145D01*
X406040Y260998D01*
Y263002D01*
X405273Y264855D01*
X403855Y266273D01*
X402002Y267040D01*
D02*
G37*
G36*
X222631Y269550D02*
X220109D01*
X217672Y268897D01*
X215488Y267636D01*
X213704Y265852D01*
X212443Y263668D01*
X211790Y261231D01*
Y258709D01*
X212443Y256272D01*
X213704Y254088D01*
X215488Y252304D01*
X217672Y251043D01*
X220109Y250390D01*
X222631D01*
X225068Y251043D01*
X227252Y252304D01*
X229036Y254088D01*
X230297Y256272D01*
X230950Y258709D01*
Y261231D01*
X230297Y263668D01*
X229036Y265852D01*
X227252Y267636D01*
X225068Y268897D01*
X222631Y269550D01*
D02*
G37*
G36*
X1279891Y266210D02*
X1277369D01*
X1274932Y265557D01*
X1272748Y264296D01*
X1270964Y262512D01*
X1269703Y260328D01*
X1269050Y257891D01*
Y255369D01*
X1269703Y252932D01*
X1270964Y250748D01*
X1272748Y248964D01*
X1274932Y247703D01*
X1277369Y247050D01*
X1279891D01*
X1282328Y247703D01*
X1284512Y248964D01*
X1286296Y250748D01*
X1287557Y252932D01*
X1288210Y255369D01*
Y257891D01*
X1287557Y260328D01*
X1286296Y262512D01*
X1284512Y264296D01*
X1282328Y265557D01*
X1279891Y266210D01*
D02*
G37*
G36*
X841455Y252484D02*
X839450D01*
X837598Y251716D01*
X836180Y250299D01*
X835413Y248446D01*
Y246441D01*
X836180Y244589D01*
X837598Y243171D01*
X839450Y242404D01*
X841455D01*
X843307Y243171D01*
X844725Y244589D01*
X845492Y246441D01*
Y248446D01*
X844725Y250299D01*
X843307Y251716D01*
X841455Y252484D01*
D02*
G37*
G36*
X972002Y250040D02*
X969997D01*
X968145Y249273D01*
X966727Y247855D01*
X965960Y246003D01*
Y243997D01*
X966727Y242145D01*
X968145Y240727D01*
X969997Y239960D01*
X972002D01*
X973855Y240727D01*
X975273Y242145D01*
X976040Y243997D01*
Y246003D01*
X975273Y247855D01*
X973855Y249273D01*
X972002Y250040D01*
D02*
G37*
G36*
X827364Y240782D02*
X825359D01*
X823507Y240015D01*
X822089Y238597D01*
X821322Y236745D01*
Y234740D01*
X822089Y232887D01*
X823507Y231469D01*
X825359Y230702D01*
X827364D01*
X829217Y231469D01*
X830635Y232887D01*
X831402Y234740D01*
Y236745D01*
X830635Y238597D01*
X829217Y240015D01*
X827364Y240782D01*
D02*
G37*
G36*
X972002Y238040D02*
X969997D01*
X968145Y237273D01*
X966727Y235855D01*
X965960Y234002D01*
Y231998D01*
X966727Y230145D01*
X968145Y228727D01*
X969997Y227960D01*
X972002D01*
X973855Y228727D01*
X975273Y230145D01*
X976040Y231998D01*
Y234002D01*
X975273Y235855D01*
X973855Y237273D01*
X972002Y238040D01*
D02*
G37*
G36*
X222631Y246650D02*
X220109D01*
X217672Y245997D01*
X215488Y244736D01*
X213704Y242952D01*
X212443Y240768D01*
X211790Y238331D01*
Y235809D01*
X212443Y233372D01*
X213704Y231188D01*
X215488Y229404D01*
X217672Y228143D01*
X220109Y227490D01*
X222631D01*
X225068Y228143D01*
X227252Y229404D01*
X229036Y231188D01*
X230297Y233372D01*
X230950Y235809D01*
Y238331D01*
X230297Y240768D01*
X229036Y242952D01*
X227252Y244736D01*
X225068Y245997D01*
X222631Y246650D01*
D02*
G37*
G36*
X166184Y238960D02*
X165540D01*
Y225690D01*
X178810D01*
Y226334D01*
X177819Y230032D01*
X175905Y233348D01*
X173198Y236055D01*
X169882Y237969D01*
X166184Y238960D01*
D02*
G37*
G36*
X163000D02*
X162356D01*
X158658Y237969D01*
X155342Y236055D01*
X152635Y233348D01*
X150721Y230032D01*
X149730Y226334D01*
Y225690D01*
X163000D01*
Y238960D01*
D02*
G37*
G36*
X131743Y260170D02*
X128197D01*
X124720Y259478D01*
X121444Y258121D01*
X118496Y256152D01*
X115989Y253644D01*
X114019Y250696D01*
X112662Y247420D01*
X111970Y243943D01*
Y240397D01*
X112662Y236920D01*
X114019Y233644D01*
X115989Y230696D01*
X118496Y228188D01*
X121444Y226219D01*
X124720Y224862D01*
X128197Y224170D01*
X131743D01*
X135220Y224862D01*
X138496Y226219D01*
X141444Y228188D01*
X143952Y230696D01*
X145921Y233644D01*
X147278Y236920D01*
X147970Y240397D01*
Y243943D01*
X147278Y247420D01*
X145921Y250696D01*
X143952Y253644D01*
X141444Y256152D01*
X138496Y258121D01*
X135220Y259478D01*
X131743Y260170D01*
D02*
G37*
G36*
X1279891Y243310D02*
X1277369D01*
X1274932Y242657D01*
X1272748Y241396D01*
X1270964Y239612D01*
X1269703Y237428D01*
X1269050Y234991D01*
Y232469D01*
X1269703Y230032D01*
X1270964Y227848D01*
X1272748Y226064D01*
X1274932Y224803D01*
X1277369Y224150D01*
X1279891D01*
X1282328Y224803D01*
X1284512Y226064D01*
X1286296Y227848D01*
X1287557Y230032D01*
X1288210Y232469D01*
Y234991D01*
X1287557Y237428D01*
X1286296Y239612D01*
X1284512Y241396D01*
X1282328Y242657D01*
X1279891Y243310D01*
D02*
G37*
G36*
X1337644Y235620D02*
X1337000D01*
Y222350D01*
X1350270D01*
Y222994D01*
X1349279Y226692D01*
X1347365Y230008D01*
X1344658Y232715D01*
X1341342Y234629D01*
X1337644Y235620D01*
D02*
G37*
G36*
X1334460D02*
X1333816D01*
X1330118Y234629D01*
X1326802Y232715D01*
X1324095Y230008D01*
X1322181Y226692D01*
X1321190Y222994D01*
Y222350D01*
X1334460D01*
Y235620D01*
D02*
G37*
G36*
X531003Y241040D02*
X528997D01*
X527145Y240273D01*
X525727Y238855D01*
X524960Y237003D01*
Y234998D01*
X525727Y233145D01*
X526543Y232330D01*
X527015Y231500D01*
X526543Y230670D01*
X525727Y229855D01*
X524960Y228002D01*
Y225998D01*
X525727Y224145D01*
X527145Y222727D01*
X528997Y221960D01*
X531003D01*
X532855Y222727D01*
X534273Y224145D01*
X535040Y225998D01*
Y228002D01*
X534273Y229855D01*
X533457Y230670D01*
X532985Y231500D01*
X533457Y232330D01*
X534273Y233145D01*
X535040Y234998D01*
Y237003D01*
X534273Y238855D01*
X532855Y240273D01*
X531003Y241040D01*
D02*
G37*
G36*
X519002D02*
X516997D01*
X515145Y240273D01*
X513727Y238855D01*
X512960Y237003D01*
Y234998D01*
X513727Y233145D01*
X514543Y232330D01*
X515015Y231500D01*
X514543Y230670D01*
X513727Y229855D01*
X512960Y228002D01*
Y225998D01*
X513727Y224145D01*
X515145Y222727D01*
X516997Y221960D01*
X519002D01*
X520855Y222727D01*
X522273Y224145D01*
X523040Y225998D01*
Y228002D01*
X522273Y229855D01*
X521457Y230670D01*
X520984Y231500D01*
X521457Y232330D01*
X522273Y233145D01*
X523040Y234998D01*
Y237003D01*
X522273Y238855D01*
X520855Y240273D01*
X519002Y241040D01*
D02*
G37*
G36*
X507002D02*
X504997D01*
X503145Y240273D01*
X501727Y238855D01*
X500960Y237003D01*
Y234998D01*
X501727Y233145D01*
X502543Y232330D01*
X503016Y231500D01*
X502543Y230670D01*
X501727Y229855D01*
X500960Y228002D01*
Y225998D01*
X501727Y224145D01*
X503145Y222727D01*
X504997Y221960D01*
X507002D01*
X508855Y222727D01*
X510273Y224145D01*
X511040Y225998D01*
Y228002D01*
X510273Y229855D01*
X509457Y230670D01*
X508984Y231500D01*
X509457Y232330D01*
X510273Y233145D01*
X511040Y234998D01*
Y237003D01*
X510273Y238855D01*
X508855Y240273D01*
X507002Y241040D01*
D02*
G37*
G36*
X1371803Y256830D02*
X1368257D01*
X1364780Y256138D01*
X1361504Y254781D01*
X1358556Y252812D01*
X1356048Y250304D01*
X1354079Y247356D01*
X1352722Y244080D01*
X1352030Y240603D01*
Y237057D01*
X1352722Y233580D01*
X1354079Y230304D01*
X1356048Y227356D01*
X1358556Y224848D01*
X1361504Y222879D01*
X1364780Y221522D01*
X1368257Y220830D01*
X1371803D01*
X1375280Y221522D01*
X1378556Y222879D01*
X1381504Y224848D01*
X1384012Y227356D01*
X1385981Y230304D01*
X1387338Y233580D01*
X1388030Y237057D01*
Y240603D01*
X1387338Y244080D01*
X1385981Y247356D01*
X1384012Y250304D01*
X1381504Y252812D01*
X1378556Y254781D01*
X1375280Y256138D01*
X1371803Y256830D01*
D02*
G37*
G36*
X820574Y226549D02*
X818569D01*
X816717Y225782D01*
X815299Y224364D01*
X814532Y222512D01*
Y220506D01*
X815299Y218654D01*
X816717Y217236D01*
X818569Y216469D01*
X820574D01*
X822427Y217236D01*
X823845Y218654D01*
X824612Y220506D01*
Y222512D01*
X823845Y224364D01*
X822427Y225782D01*
X820574Y226549D01*
D02*
G37*
G36*
X178810Y223150D02*
X165540D01*
Y209880D01*
X166184D01*
X169882Y210871D01*
X173198Y212785D01*
X175905Y215492D01*
X177819Y218808D01*
X178810Y222506D01*
Y223150D01*
D02*
G37*
G36*
X163000D02*
X149730D01*
Y222506D01*
X150721Y218808D01*
X152635Y215492D01*
X155342Y212785D01*
X158658Y210871D01*
X162356Y209880D01*
X163000D01*
Y223150D01*
D02*
G37*
G36*
X1350270Y219810D02*
X1337000D01*
Y206540D01*
X1337644D01*
X1341342Y207531D01*
X1344658Y209445D01*
X1347365Y212152D01*
X1349279Y215468D01*
X1350270Y219166D01*
Y219810D01*
D02*
G37*
G36*
X1334460D02*
X1321190D01*
Y219166D01*
X1322181Y215468D01*
X1324095Y212152D01*
X1326802Y209445D01*
X1330118Y207531D01*
X1333816Y206540D01*
X1334460D01*
Y219810D01*
D02*
G37*
G36*
X985003Y215040D02*
X982998D01*
X981145Y214273D01*
X979727Y212855D01*
X978960Y211003D01*
Y208997D01*
X979727Y207145D01*
X981145Y205727D01*
X982998Y204960D01*
X985003D01*
X986855Y205727D01*
X988273Y207145D01*
X989040Y208997D01*
Y211003D01*
X988273Y212855D01*
X986855Y214273D01*
X985003Y215040D01*
D02*
G37*
G36*
X813145Y213727D02*
X811140D01*
X809288Y212960D01*
X807870Y211542D01*
X807103Y209690D01*
Y207685D01*
X807870Y205832D01*
X809288Y204415D01*
X811140Y203647D01*
X813145D01*
X814997Y204415D01*
X816415Y205832D01*
X817182Y207685D01*
Y209690D01*
X816415Y211542D01*
X814997Y212960D01*
X813145Y213727D01*
D02*
G37*
G36*
X992756Y204109D02*
X990751D01*
X988898Y203341D01*
X987481Y201923D01*
X986713Y200071D01*
Y198066D01*
X987481Y196214D01*
X988898Y194796D01*
X990751Y194028D01*
X992756D01*
X994608Y194796D01*
X996026Y196214D01*
X996793Y198066D01*
Y200071D01*
X996026Y201923D01*
X994608Y203341D01*
X992756Y204109D01*
D02*
G37*
G36*
X926003Y201040D02*
X923997D01*
X922145Y200273D01*
X920727Y198855D01*
X919960Y197003D01*
Y194998D01*
X920727Y193145D01*
X922145Y191727D01*
X923997Y190960D01*
X926003D01*
X927855Y191727D01*
X929273Y193145D01*
X930040Y194998D01*
Y197003D01*
X929273Y198855D01*
X927855Y200273D01*
X926003Y201040D01*
D02*
G37*
G36*
X1081003Y200040D02*
X1078997D01*
X1077145Y199273D01*
X1075727Y197855D01*
X1074960Y196003D01*
Y193997D01*
X1075727Y192145D01*
X1077145Y190727D01*
X1078997Y189960D01*
X1081003D01*
X1082855Y190727D01*
X1084273Y192145D01*
X1085040Y193997D01*
Y196003D01*
X1084273Y197855D01*
X1082855Y199273D01*
X1081003Y200040D01*
D02*
G37*
G36*
X806145Y197727D02*
X804140D01*
X802288Y196960D01*
X800870Y195542D01*
X800103Y193690D01*
Y191685D01*
X800870Y189832D01*
X802288Y188415D01*
X804140Y187647D01*
X806145D01*
X807998Y188415D01*
X809415Y189832D01*
X810183Y191685D01*
Y193690D01*
X809415Y195542D01*
X807998Y196960D01*
X806145Y197727D01*
D02*
G37*
G36*
X918002Y185040D02*
X915997D01*
X914145Y184273D01*
X912727Y182855D01*
X911960Y181003D01*
Y178997D01*
X912727Y177145D01*
X914145Y175727D01*
X915997Y174960D01*
X918002D01*
X919855Y175727D01*
X921273Y177145D01*
X922040Y178997D01*
Y181003D01*
X921273Y182855D01*
X919855Y184273D01*
X918002Y185040D01*
D02*
G37*
G36*
X1000003Y195040D02*
X997998D01*
X996145Y194273D01*
X994727Y192855D01*
X993960Y191003D01*
Y188997D01*
X994727Y187145D01*
X996145Y185727D01*
X997998Y184960D01*
X1000003D01*
X1001330Y185510D01*
X1001855Y185727D01*
X1002665Y184793D01*
X1002271Y184398D01*
X1001727Y183855D01*
X1000960Y182003D01*
Y179998D01*
X1001727Y178145D01*
X1003145Y176727D01*
X1004997Y175960D01*
X1007002D01*
X1008330Y176510D01*
X1008855Y176727D01*
X1009665Y175793D01*
X1009270Y175398D01*
X1008727Y174855D01*
X1007960Y173002D01*
Y170998D01*
X1008727Y169145D01*
X1010145Y167727D01*
X1011998Y166960D01*
X1014003D01*
X1015855Y167727D01*
X1017273Y169145D01*
X1018040Y170998D01*
Y173002D01*
X1017273Y174855D01*
X1015855Y176273D01*
X1014003Y177040D01*
X1011998D01*
X1010670Y176490D01*
X1010145Y176273D01*
X1009335Y177207D01*
X1009730Y177602D01*
X1010273Y178145D01*
X1011040Y179998D01*
Y182003D01*
X1010273Y183855D01*
X1008855Y185273D01*
X1007002Y186040D01*
X1004997D01*
X1003670Y185490D01*
X1003145Y185273D01*
X1002335Y186207D01*
X1002729Y186602D01*
X1003273Y187145D01*
X1004040Y188997D01*
Y191003D01*
X1003273Y192855D01*
X1001855Y194273D01*
X1000003Y195040D01*
D02*
G37*
G36*
X1013002Y159040D02*
X1010997D01*
X1009145Y158273D01*
X1007727Y156855D01*
X1006960Y155002D01*
Y152998D01*
X1007727Y151145D01*
X1009145Y149727D01*
X1010997Y148960D01*
X1013002D01*
X1014855Y149727D01*
X1016273Y151145D01*
X1017040Y152998D01*
Y155002D01*
X1016273Y156855D01*
X1014855Y158273D01*
X1013002Y159040D01*
D02*
G37*
G36*
X976003Y155040D02*
X973997D01*
X972145Y154273D01*
X970727Y152855D01*
X969960Y151003D01*
Y148997D01*
X970727Y147145D01*
X972145Y145727D01*
X973997Y144960D01*
X976003D01*
X977855Y145727D01*
X979273Y147145D01*
X980040Y148997D01*
Y151003D01*
X979273Y152855D01*
X977855Y154273D01*
X976003Y155040D01*
D02*
G37*
G36*
X994003Y152040D02*
X991998D01*
X990145Y151273D01*
X988727Y149855D01*
X987960Y148003D01*
Y145997D01*
X988727Y144145D01*
X990145Y142727D01*
X991998Y141960D01*
X994003D01*
X995855Y142727D01*
X997273Y144145D01*
X998040Y145997D01*
Y148003D01*
X997273Y149855D01*
X995855Y151273D01*
X994003Y152040D01*
D02*
G37*
G36*
X721003Y141040D02*
X718997D01*
X717145Y140273D01*
X715727Y138855D01*
X714960Y137002D01*
Y134998D01*
X715727Y133145D01*
X717145Y131727D01*
X718997Y130960D01*
X721003D01*
X722855Y131727D01*
X724273Y133145D01*
X725040Y134998D01*
Y137002D01*
X724273Y138855D01*
X722855Y140273D01*
X721003Y141040D01*
D02*
G37*
G36*
X1352361Y183140D02*
X1347239D01*
X1342180Y182339D01*
X1337309Y180756D01*
X1332745Y178431D01*
X1328602Y175420D01*
X1324980Y171798D01*
X1321969Y167655D01*
X1319644Y163091D01*
X1318061Y158220D01*
X1317260Y153161D01*
Y148039D01*
X1318061Y142980D01*
X1319644Y138109D01*
X1321969Y133545D01*
X1324980Y129402D01*
X1328602Y125780D01*
X1332745Y122769D01*
X1337309Y120444D01*
X1342180Y118861D01*
X1347239Y118060D01*
X1352361D01*
X1357420Y118861D01*
X1362291Y120444D01*
X1366855Y122769D01*
X1370998Y125780D01*
X1374620Y129402D01*
X1377631Y133545D01*
X1379956Y138109D01*
X1381539Y142980D01*
X1382340Y148039D01*
Y153161D01*
X1381539Y158220D01*
X1379956Y163091D01*
X1377631Y167655D01*
X1374620Y171798D01*
X1370998Y175420D01*
X1366855Y178431D01*
X1362291Y180756D01*
X1357420Y182339D01*
X1352361Y183140D01*
D02*
G37*
G36*
X152361D02*
X147239D01*
X142180Y182339D01*
X137309Y180756D01*
X132745Y178431D01*
X128602Y175420D01*
X124980Y171798D01*
X121969Y167655D01*
X119644Y163091D01*
X118061Y158220D01*
X117260Y153161D01*
Y148039D01*
X118061Y142980D01*
X119644Y138109D01*
X121969Y133545D01*
X124980Y129402D01*
X128602Y125780D01*
X132745Y122769D01*
X137309Y120444D01*
X142180Y118861D01*
X147239Y118060D01*
X152361D01*
X157420Y118861D01*
X162291Y120444D01*
X166855Y122769D01*
X170998Y125780D01*
X174620Y129402D01*
X177631Y133545D01*
X179956Y138109D01*
X181539Y142980D01*
X182340Y148039D01*
Y153161D01*
X181539Y158220D01*
X179956Y163091D01*
X177631Y167655D01*
X174620Y171798D01*
X170998Y175420D01*
X166855Y178431D01*
X162291Y180756D01*
X157420Y182339D01*
X152361Y183140D01*
D02*
G37*
G36*
X743002Y124040D02*
X740997D01*
X739145Y123273D01*
X737727Y121855D01*
X736960Y120002D01*
Y117998D01*
X737727Y116145D01*
X739145Y114727D01*
X740997Y113960D01*
X743002D01*
X744855Y114727D01*
X746273Y116145D01*
X747040Y117998D01*
Y120002D01*
X746273Y121855D01*
X744855Y123273D01*
X743002Y124040D01*
D02*
G37*
%LPD*%
D63*
X352100Y674990D02*
D03*
Y649590D02*
D03*
X392100Y674990D02*
D03*
Y649590D02*
D03*
X432100Y674990D02*
D03*
Y649590D02*
D03*
X472100Y674990D02*
D03*
Y649590D02*
D03*
X512100Y674990D02*
D03*
Y649590D02*
D03*
X994380Y674990D02*
D03*
Y649590D02*
D03*
X1034380Y674990D02*
D03*
Y649590D02*
D03*
X1074380Y674990D02*
D03*
Y649590D02*
D03*
X1114380Y674990D02*
D03*
Y649590D02*
D03*
X1154380Y674990D02*
D03*
Y649590D02*
D03*
X672880Y674990D02*
D03*
Y649590D02*
D03*
X712880Y674990D02*
D03*
Y649590D02*
D03*
X752880Y674990D02*
D03*
Y649590D02*
D03*
X792880Y674990D02*
D03*
Y649590D02*
D03*
X832880Y674990D02*
D03*
Y649590D02*
D03*
X1224150Y674990D02*
D03*
Y649590D02*
D03*
D73*
X352100Y624190D02*
D03*
X392100D02*
D03*
X432100D02*
D03*
X472100D02*
D03*
X512100D02*
D03*
X994380D02*
D03*
X1034380D02*
D03*
X1074380D02*
D03*
X1114380D02*
D03*
X1154380D02*
D03*
X672880D02*
D03*
X712880D02*
D03*
X752880D02*
D03*
X792880D02*
D03*
X832880D02*
D03*
X1224150D02*
D03*
D74*
X1281310Y672580D02*
D03*
Y652580D02*
D03*
X912860Y672580D02*
D03*
Y652580D02*
D03*
X591700Y672580D02*
D03*
Y652580D02*
D03*
D75*
X1266000Y543500D02*
D03*
Y471500D02*
D03*
X234000Y471500D02*
D03*
Y543500D02*
D03*
D76*
X1326000Y575000D02*
D03*
Y440000D02*
D03*
X174000Y440000D02*
D03*
Y575000D02*
D03*
D77*
X1349800Y150600D02*
D03*
Y650600D02*
D03*
X149800D02*
D03*
Y150600D02*
D03*
D78*
X1278630Y348030D02*
D03*
Y256630D02*
D03*
Y370930D02*
D03*
Y233730D02*
D03*
X1326830Y307430D02*
D03*
X1344630Y297230D02*
D03*
Y317630D02*
D03*
X1326830Y287030D02*
D03*
Y327830D02*
D03*
X1344630Y276830D02*
D03*
Y338030D02*
D03*
X1326830Y266630D02*
D03*
X221370Y259970D02*
D03*
Y351370D02*
D03*
Y237070D02*
D03*
Y374270D02*
D03*
X173170Y300570D02*
D03*
X155370Y310770D02*
D03*
Y290370D02*
D03*
X173170Y320970D02*
D03*
Y280170D02*
D03*
X155370Y331170D02*
D03*
Y269970D02*
D03*
X173170Y341370D02*
D03*
D80*
X1335730Y383580D02*
D03*
Y221080D02*
D03*
X164270Y224420D02*
D03*
Y386920D02*
D03*
D81*
X1370030Y365830D02*
D03*
Y238830D02*
D03*
X129970Y242170D02*
D03*
Y369170D02*
D03*
D82*
X1395000Y625000D02*
D03*
X1380000Y595000D02*
D03*
X1395000Y565000D02*
D03*
X1380000Y535000D02*
D03*
X1395000Y505000D02*
D03*
X1380000Y475000D02*
D03*
X1395000Y445000D02*
D03*
X1380000Y415000D02*
D03*
X1395000Y385000D02*
D03*
Y325000D02*
D03*
X1380000Y295000D02*
D03*
X1395000Y265000D02*
D03*
Y205000D02*
D03*
X1380000Y175000D02*
D03*
X1395000Y145000D02*
D03*
X1380000Y115000D02*
D03*
X1365000Y685000D02*
D03*
X1350000Y595000D02*
D03*
X1365000Y565000D02*
D03*
X1350000Y535000D02*
D03*
X1365000Y505000D02*
D03*
X1350000Y475000D02*
D03*
X1365000Y445000D02*
D03*
X1350000Y415000D02*
D03*
Y355000D02*
D03*
X1365000Y325000D02*
D03*
Y265000D02*
D03*
Y205000D02*
D03*
X1350000Y115000D02*
D03*
X1335000Y685000D02*
D03*
X1320000Y595000D02*
D03*
Y535000D02*
D03*
X1335000Y505000D02*
D03*
X1320000Y475000D02*
D03*
Y415000D02*
D03*
Y355000D02*
D03*
Y235000D02*
D03*
Y175000D02*
D03*
Y115000D02*
D03*
X1305000Y685000D02*
D03*
Y625000D02*
D03*
X1290000Y595000D02*
D03*
X1305000Y565000D02*
D03*
X1290000Y535000D02*
D03*
X1305000Y505000D02*
D03*
Y445000D02*
D03*
X1290000Y415000D02*
D03*
X1305000Y385000D02*
D03*
X1290000Y355000D02*
D03*
X1305000Y325000D02*
D03*
X1290000Y295000D02*
D03*
X1305000Y265000D02*
D03*
Y205000D02*
D03*
X1290000Y175000D02*
D03*
X1305000Y145000D02*
D03*
X1290000Y115000D02*
D03*
X1275000Y625000D02*
D03*
X1260000Y595000D02*
D03*
X1275000Y505000D02*
D03*
X1260000Y415000D02*
D03*
X1275000Y385000D02*
D03*
X1260000Y355000D02*
D03*
X1275000Y325000D02*
D03*
X1260000Y295000D02*
D03*
Y235000D02*
D03*
X1275000Y205000D02*
D03*
X1260000Y175000D02*
D03*
X1275000Y145000D02*
D03*
X1260000Y115000D02*
D03*
X1245000Y685000D02*
D03*
Y625000D02*
D03*
Y565000D02*
D03*
X1230000Y535000D02*
D03*
X1245000Y505000D02*
D03*
Y385000D02*
D03*
X1230000Y355000D02*
D03*
X1245000Y325000D02*
D03*
Y265000D02*
D03*
X1230000Y235000D02*
D03*
X1245000Y205000D02*
D03*
X1230000Y175000D02*
D03*
Y115000D02*
D03*
X1200000Y535000D02*
D03*
X1215000Y325000D02*
D03*
X1200000Y295000D02*
D03*
X1215000Y265000D02*
D03*
X1200000Y235000D02*
D03*
X1215000Y205000D02*
D03*
X1200000Y175000D02*
D03*
X1215000Y145000D02*
D03*
X1200000Y115000D02*
D03*
X1185000Y685000D02*
D03*
X1170000Y595000D02*
D03*
Y535000D02*
D03*
X1185000Y505000D02*
D03*
Y325000D02*
D03*
X1170000Y295000D02*
D03*
X1185000Y265000D02*
D03*
X1170000Y235000D02*
D03*
X1185000Y205000D02*
D03*
X1170000Y175000D02*
D03*
X1185000Y145000D02*
D03*
X1170000Y115000D02*
D03*
X1140000Y595000D02*
D03*
X1155000Y325000D02*
D03*
X1140000Y295000D02*
D03*
X1155000Y265000D02*
D03*
X1140000Y235000D02*
D03*
X1155000Y205000D02*
D03*
X1140000Y175000D02*
D03*
Y115000D02*
D03*
X1125000Y685000D02*
D03*
Y325000D02*
D03*
X1110000Y295000D02*
D03*
X1125000Y265000D02*
D03*
X1110000Y235000D02*
D03*
X1125000Y205000D02*
D03*
X1110000Y175000D02*
D03*
X1125000Y145000D02*
D03*
X1110000Y115000D02*
D03*
X1095000Y685000D02*
D03*
Y625000D02*
D03*
Y505000D02*
D03*
X1080000Y295000D02*
D03*
X1095000Y265000D02*
D03*
X1080000Y175000D02*
D03*
X1095000Y145000D02*
D03*
X1080000Y115000D02*
D03*
X1050000Y595000D02*
D03*
X1065000Y325000D02*
D03*
X1050000Y175000D02*
D03*
X1065000Y145000D02*
D03*
X1050000Y115000D02*
D03*
X1020000Y595000D02*
D03*
X1035000Y325000D02*
D03*
Y145000D02*
D03*
X1020000Y115000D02*
D03*
X1005000Y685000D02*
D03*
X990000Y115000D02*
D03*
X975000Y685000D02*
D03*
X960000Y655000D02*
D03*
X975000Y625000D02*
D03*
X960000Y595000D02*
D03*
Y535000D02*
D03*
X975000Y505000D02*
D03*
X960000Y475000D02*
D03*
X975000Y445000D02*
D03*
X960000Y415000D02*
D03*
X975000Y325000D02*
D03*
X960000Y115000D02*
D03*
X945000Y685000D02*
D03*
X930000Y655000D02*
D03*
X945000Y625000D02*
D03*
X930000Y595000D02*
D03*
X945000Y565000D02*
D03*
X930000Y535000D02*
D03*
X945000Y505000D02*
D03*
Y445000D02*
D03*
Y325000D02*
D03*
X930000Y115000D02*
D03*
X915000Y625000D02*
D03*
X900000Y595000D02*
D03*
X915000Y565000D02*
D03*
Y505000D02*
D03*
X900000Y475000D02*
D03*
X915000Y445000D02*
D03*
X900000Y415000D02*
D03*
X915000Y325000D02*
D03*
X900000Y115000D02*
D03*
X885000Y685000D02*
D03*
Y625000D02*
D03*
Y565000D02*
D03*
X870000Y535000D02*
D03*
X885000Y505000D02*
D03*
X870000Y475000D02*
D03*
X885000Y445000D02*
D03*
X870000Y415000D02*
D03*
X855000Y685000D02*
D03*
Y505000D02*
D03*
Y445000D02*
D03*
X840000Y175000D02*
D03*
X855000Y145000D02*
D03*
X810000Y595000D02*
D03*
X825000Y325000D02*
D03*
X810000Y175000D02*
D03*
X825000Y145000D02*
D03*
X780000Y595000D02*
D03*
Y175000D02*
D03*
X795000Y145000D02*
D03*
X765000Y685000D02*
D03*
Y325000D02*
D03*
Y145000D02*
D03*
X735000Y685000D02*
D03*
Y625000D02*
D03*
X720000Y415000D02*
D03*
X690000Y595000D02*
D03*
X705000Y325000D02*
D03*
X690000Y175000D02*
D03*
X705000Y145000D02*
D03*
X660000Y595000D02*
D03*
X675000Y505000D02*
D03*
X660000Y415000D02*
D03*
X675000Y325000D02*
D03*
Y145000D02*
D03*
X645000Y685000D02*
D03*
X630000Y655000D02*
D03*
X645000Y625000D02*
D03*
X630000Y595000D02*
D03*
X645000Y565000D02*
D03*
X630000Y535000D02*
D03*
X645000Y505000D02*
D03*
X630000Y475000D02*
D03*
X645000Y445000D02*
D03*
X630000Y415000D02*
D03*
X645000Y325000D02*
D03*
Y145000D02*
D03*
X615000Y685000D02*
D03*
Y625000D02*
D03*
X600000Y595000D02*
D03*
X615000Y565000D02*
D03*
X600000Y535000D02*
D03*
X615000Y505000D02*
D03*
X600000Y475000D02*
D03*
Y415000D02*
D03*
X615000Y325000D02*
D03*
X600000Y175000D02*
D03*
X615000Y145000D02*
D03*
X585000Y685000D02*
D03*
Y625000D02*
D03*
X570000Y595000D02*
D03*
X585000Y565000D02*
D03*
X570000Y535000D02*
D03*
X585000Y505000D02*
D03*
X570000Y475000D02*
D03*
X585000Y445000D02*
D03*
X570000Y415000D02*
D03*
Y175000D02*
D03*
X555000Y685000D02*
D03*
Y565000D02*
D03*
X540000Y535000D02*
D03*
Y475000D02*
D03*
X555000Y445000D02*
D03*
X540000Y415000D02*
D03*
X555000Y325000D02*
D03*
X540000Y175000D02*
D03*
X525000Y685000D02*
D03*
Y505000D02*
D03*
X510000Y295000D02*
D03*
Y175000D02*
D03*
X495000Y685000D02*
D03*
Y625000D02*
D03*
Y565000D02*
D03*
Y325000D02*
D03*
Y265000D02*
D03*
Y205000D02*
D03*
X480000Y175000D02*
D03*
X450000Y595000D02*
D03*
X465000Y565000D02*
D03*
X450000Y295000D02*
D03*
Y175000D02*
D03*
X465000Y145000D02*
D03*
X420000Y595000D02*
D03*
X435000Y325000D02*
D03*
X420000Y175000D02*
D03*
X435000Y145000D02*
D03*
X405000Y685000D02*
D03*
Y325000D02*
D03*
X390000Y175000D02*
D03*
X405000Y145000D02*
D03*
X375000Y685000D02*
D03*
Y625000D02*
D03*
Y565000D02*
D03*
Y325000D02*
D03*
X360000Y295000D02*
D03*
Y175000D02*
D03*
X375000Y145000D02*
D03*
X330000Y655000D02*
D03*
Y595000D02*
D03*
Y475000D02*
D03*
Y415000D02*
D03*
Y175000D02*
D03*
X345000Y145000D02*
D03*
X315000Y685000D02*
D03*
X300000Y655000D02*
D03*
X315000Y625000D02*
D03*
X300000Y595000D02*
D03*
X315000Y565000D02*
D03*
Y505000D02*
D03*
Y445000D02*
D03*
X300000Y235000D02*
D03*
X315000Y205000D02*
D03*
X300000Y175000D02*
D03*
X315000Y145000D02*
D03*
X285000Y685000D02*
D03*
X270000Y655000D02*
D03*
X285000Y625000D02*
D03*
X270000Y595000D02*
D03*
X285000Y565000D02*
D03*
X270000Y235000D02*
D03*
X285000Y205000D02*
D03*
X270000Y115000D02*
D03*
X255000Y685000D02*
D03*
Y625000D02*
D03*
Y445000D02*
D03*
X240000Y415000D02*
D03*
X255000Y385000D02*
D03*
X240000Y355000D02*
D03*
X255000Y325000D02*
D03*
X240000Y295000D02*
D03*
X255000Y265000D02*
D03*
X240000Y235000D02*
D03*
X255000Y205000D02*
D03*
Y145000D02*
D03*
X240000Y115000D02*
D03*
X210000Y655000D02*
D03*
Y595000D02*
D03*
X225000Y505000D02*
D03*
Y445000D02*
D03*
X210000Y415000D02*
D03*
X225000Y325000D02*
D03*
X210000Y295000D02*
D03*
Y175000D02*
D03*
X225000Y145000D02*
D03*
X210000Y115000D02*
D03*
X195000Y685000D02*
D03*
Y625000D02*
D03*
X180000Y595000D02*
D03*
X195000Y565000D02*
D03*
X180000Y535000D02*
D03*
X195000Y505000D02*
D03*
X180000Y475000D02*
D03*
X195000Y445000D02*
D03*
X180000Y415000D02*
D03*
X195000Y385000D02*
D03*
X180000Y355000D02*
D03*
X195000Y325000D02*
D03*
Y205000D02*
D03*
X180000Y175000D02*
D03*
X195000Y145000D02*
D03*
X180000Y115000D02*
D03*
X165000Y685000D02*
D03*
X150000Y595000D02*
D03*
Y535000D02*
D03*
X165000Y505000D02*
D03*
X150000Y475000D02*
D03*
Y415000D02*
D03*
Y355000D02*
D03*
X165000Y205000D02*
D03*
X150000Y115000D02*
D03*
X135000Y685000D02*
D03*
X120000Y595000D02*
D03*
X135000Y565000D02*
D03*
X120000Y535000D02*
D03*
X135000Y505000D02*
D03*
X120000Y475000D02*
D03*
X135000Y445000D02*
D03*
X120000Y415000D02*
D03*
X135000Y325000D02*
D03*
X120000Y295000D02*
D03*
X135000Y265000D02*
D03*
Y205000D02*
D03*
X120000Y175000D02*
D03*
Y115000D02*
D03*
X1211000Y581000D02*
D03*
X1140997Y580960D02*
D03*
X1103002D02*
D03*
X1060997D02*
D03*
X1022002D02*
D03*
X979997D02*
D03*
X820997D02*
D03*
X779997D02*
D03*
X739997D02*
D03*
X699272Y580909D02*
D03*
X658169Y580681D02*
D03*
X1022000Y153000D02*
D03*
Y171000D02*
D03*
X964000Y230000D02*
D03*
X978000Y254000D02*
D03*
X412000Y235000D02*
D03*
Y262000D02*
D03*
X444000Y269000D02*
D03*
X1071000Y502000D02*
D03*
X1086000D02*
D03*
X426000Y498000D02*
D03*
X443000D02*
D03*
X749000Y502000D02*
D03*
X764000D02*
D03*
X740000Y470000D02*
D03*
X732000Y507000D02*
D03*
X769000Y586000D02*
D03*
X730000Y587000D02*
D03*
X1130000Y586000D02*
D03*
X1090000D02*
D03*
X1009000D02*
D03*
X1089000Y516000D02*
D03*
X1052000Y508000D02*
D03*
X1059000Y468000D02*
D03*
X1080000Y213000D02*
D03*
X1034000Y194000D02*
D03*
X933000Y210000D02*
D03*
Y247000D02*
D03*
Y230000D02*
D03*
X815000Y289000D02*
D03*
X859000Y300000D02*
D03*
X970000Y278000D02*
D03*
X876000Y164000D02*
D03*
X890000Y154000D02*
D03*
X839994Y127000D02*
D03*
X870000D02*
D03*
X810006D02*
D03*
X780000D02*
D03*
X207000Y217000D02*
D03*
X246000Y178000D02*
D03*
X268000Y156000D02*
D03*
X359994Y127000D02*
D03*
X390000D02*
D03*
X330006D02*
D03*
X300000D02*
D03*
X479994D02*
D03*
X510000D02*
D03*
X450006D02*
D03*
X420000D02*
D03*
X599994D02*
D03*
X630000D02*
D03*
X570006D02*
D03*
X540000D02*
D03*
X660000D02*
D03*
X690006D02*
D03*
X750000D02*
D03*
X719994D02*
D03*
X598994Y266000D02*
D03*
X626994Y245000D02*
D03*
X645994Y244000D02*
D03*
X380994Y294000D02*
D03*
X410994Y306000D02*
D03*
X353000Y415000D02*
D03*
X406000Y412000D02*
D03*
X417000Y461000D02*
D03*
X499000Y591000D02*
D03*
X379000D02*
D03*
X409000Y479000D02*
D03*
X410000Y502000D02*
D03*
X426000Y511000D02*
D03*
X446000D02*
D03*
X840452Y247444D02*
D03*
X854669Y247495D02*
D03*
X854669Y237430D02*
D03*
X854605Y228003D02*
D03*
X826362Y235742D02*
D03*
X819572Y221509D02*
D03*
X812142Y208687D02*
D03*
X805143Y192687D02*
D03*
X970000Y266000D02*
D03*
X1080000Y195000D02*
D03*
X860000Y270000D02*
D03*
X809000D02*
D03*
X1036000Y314000D02*
D03*
X530000Y227000D02*
D03*
Y236000D02*
D03*
X518000Y227000D02*
D03*
Y236000D02*
D03*
X506000Y227000D02*
D03*
Y236000D02*
D03*
X720000Y136000D02*
D03*
X742000Y119000D02*
D03*
X991753Y199069D02*
D03*
X999000Y190000D02*
D03*
X984000Y210000D02*
D03*
X1006000Y181000D02*
D03*
X1013000Y172000D02*
D03*
X975000Y150000D02*
D03*
X993000Y147000D02*
D03*
X1012000Y154000D02*
D03*
X925000Y196000D02*
D03*
X917000Y180000D02*
D03*
X339000Y581000D02*
D03*
X379000D02*
D03*
X420000D02*
D03*
X460000D02*
D03*
X500000D02*
D03*
X971000Y245000D02*
D03*
Y233000D02*
D03*
X401000Y262000D02*
D03*
X360000Y285000D02*
D03*
X1046000Y404000D02*
D03*
X1058000Y493000D02*
D03*
Y480000D02*
D03*
X1042000Y425000D02*
D03*
X725000Y403000D02*
D03*
X737000Y493000D02*
D03*
Y480000D02*
D03*
X720000Y427000D02*
D03*
X407000Y399000D02*
D03*
X417000Y487000D02*
D03*
X416939Y475450D02*
D03*
X400000Y420000D02*
D03*
M02*
