G04*
G04 #@! TF.GenerationSoftware,Altium Limited,Altium Designer,22.4.2 (48)*
G04*
G04 Layer_Color=16711935*
%FSLAX44Y44*%
%MOMM*%
G71*
G04*
G04 #@! TF.SameCoordinates,B701488B-7258-471B-98CB-2349E65484A3*
G04*
G04*
G04 #@! TF.FilePolarity,Negative*
G04*
G01*
G75*
G04:AMPARAMS|DCode=60|XSize=1.2032mm|YSize=1.3032mm|CornerRadius=0.1766mm|HoleSize=0mm|Usage=FLASHONLY|Rotation=180.000|XOffset=0mm|YOffset=0mm|HoleType=Round|Shape=RoundedRectangle|*
%AMROUNDEDRECTD60*
21,1,1.2032,0.9500,0,0,180.0*
21,1,0.8500,1.3032,0,0,180.0*
1,1,0.3532,-0.4250,0.4750*
1,1,0.3532,0.4250,0.4750*
1,1,0.3532,0.4250,-0.4750*
1,1,0.3532,-0.4250,-0.4750*
%
%ADD60ROUNDEDRECTD60*%
%ADD89C,1.6112*%
%ADD90R,1.6112X1.6112*%
%ADD91C,2.6032*%
%ADD92C,3.4032*%
%ADD93C,1.8000*%
G04:AMPARAMS|DCode=94|XSize=1.8mm|YSize=1.8mm|CornerRadius=0.5mm|HoleSize=0mm|Usage=FLASHONLY|Rotation=180.000|XOffset=0mm|YOffset=0mm|HoleType=Round|Shape=RoundedRectangle|*
%AMROUNDEDRECTD94*
21,1,1.8000,0.8000,0,0,180.0*
21,1,0.8000,1.8000,0,0,180.0*
1,1,1.0000,-0.4000,0.4000*
1,1,1.0000,0.4000,0.4000*
1,1,1.0000,0.4000,-0.4000*
1,1,1.0000,-0.4000,-0.4000*
%
%ADD94ROUNDEDRECTD94*%
%ADD95C,1.6532*%
G04:AMPARAMS|DCode=96|XSize=1.8mm|YSize=1.8mm|CornerRadius=0.5mm|HoleSize=0mm|Usage=FLASHONLY|Rotation=270.000|XOffset=0mm|YOffset=0mm|HoleType=Round|Shape=RoundedRectangle|*
%AMROUNDEDRECTD96*
21,1,1.8000,0.8000,0,0,270.0*
21,1,0.8000,1.8000,0,0,270.0*
1,1,1.0000,-0.4000,-0.4000*
1,1,1.0000,-0.4000,0.4000*
1,1,1.0000,0.4000,0.4000*
1,1,1.0000,0.4000,-0.4000*
%
%ADD96ROUNDEDRECTD96*%
%ADD97C,3.9032*%
G04:AMPARAMS|DCode=98|XSize=1.7032mm|YSize=3.2032mm|CornerRadius=0.4766mm|HoleSize=0mm|Usage=FLASHONLY|Rotation=90.000|XOffset=0mm|YOffset=0mm|HoleType=Round|Shape=RoundedRectangle|*
%AMROUNDEDRECTD98*
21,1,1.7032,2.2500,0,0,90.0*
21,1,0.7500,3.2032,0,0,90.0*
1,1,0.9532,1.1250,0.3750*
1,1,0.9532,1.1250,-0.3750*
1,1,0.9532,-1.1250,-0.3750*
1,1,0.9532,-1.1250,0.3750*
%
%ADD98ROUNDEDRECTD98*%
G04:AMPARAMS|DCode=99|XSize=1.7032mm|YSize=3.2032mm|CornerRadius=0.4766mm|HoleSize=0mm|Usage=FLASHONLY|Rotation=180.000|XOffset=0mm|YOffset=0mm|HoleType=Round|Shape=RoundedRectangle|*
%AMROUNDEDRECTD99*
21,1,1.7032,2.2500,0,0,180.0*
21,1,0.7500,3.2032,0,0,180.0*
1,1,0.9532,-0.3750,1.1250*
1,1,0.9532,0.3750,1.1250*
1,1,0.9532,0.3750,-1.1250*
1,1,0.9532,-0.3750,-1.1250*
%
%ADD99ROUNDEDRECTD99*%
%ADD100C,6.2032*%
%ADD101R,1.8532X1.8532*%
%ADD102C,1.8532*%
D60*
X853140Y423320D02*
D03*
Y407320D02*
D03*
X871390Y423320D02*
D03*
Y407320D02*
D03*
X816390Y423320D02*
D03*
Y407320D02*
D03*
X798390Y423320D02*
D03*
Y407320D02*
D03*
X834640Y423320D02*
D03*
Y407320D02*
D03*
X649390Y423320D02*
D03*
Y407320D02*
D03*
X594640Y423320D02*
D03*
Y407320D02*
D03*
X667640Y423320D02*
D03*
Y407320D02*
D03*
X631140Y423320D02*
D03*
Y407320D02*
D03*
X612890Y423320D02*
D03*
Y407320D02*
D03*
X351140Y418570D02*
D03*
Y402570D02*
D03*
X370140Y418570D02*
D03*
Y402570D02*
D03*
X426390Y418570D02*
D03*
Y402570D02*
D03*
X388890Y418570D02*
D03*
Y402570D02*
D03*
X407640Y418570D02*
D03*
Y402570D02*
D03*
D89*
X1155970Y547800D02*
D03*
X1247370D02*
D03*
X1133070D02*
D03*
X1270270D02*
D03*
X1196570Y596000D02*
D03*
X1206770Y613800D02*
D03*
X1186370D02*
D03*
X1216970Y596000D02*
D03*
X1176170D02*
D03*
X1227170Y613800D02*
D03*
X1237370Y596000D02*
D03*
X945970Y548000D02*
D03*
X1037370D02*
D03*
X923070D02*
D03*
X1060270D02*
D03*
X986570Y596200D02*
D03*
X996770Y614000D02*
D03*
X976370D02*
D03*
X1006970Y596200D02*
D03*
X966170D02*
D03*
X1017170Y614000D02*
D03*
X1027370Y596200D02*
D03*
D90*
X1165970Y613800D02*
D03*
X955970Y614000D02*
D03*
D91*
X1120420Y604900D02*
D03*
X1282920D02*
D03*
X910420Y605100D02*
D03*
X1072920D02*
D03*
D92*
X1138170Y639200D02*
D03*
X1265170D02*
D03*
X928170Y639400D02*
D03*
X1055170D02*
D03*
D93*
X1263750Y144000D02*
D03*
X1289150D02*
D03*
X1339950D02*
D03*
X1365350D02*
D03*
X1314550D02*
D03*
X1338500Y547950D02*
D03*
Y598750D02*
D03*
Y624150D02*
D03*
Y573350D02*
D03*
X1384000Y548200D02*
D03*
Y599000D02*
D03*
Y624400D02*
D03*
Y573600D02*
D03*
X861600Y130000D02*
D03*
X836200D02*
D03*
X785400D02*
D03*
X760000D02*
D03*
X810800D02*
D03*
D94*
X1390750Y144000D02*
D03*
X734600Y130000D02*
D03*
D95*
X530800Y141900D02*
D03*
X480800D02*
D03*
D96*
X1338500Y649550D02*
D03*
X1384000Y649800D02*
D03*
D97*
X183000Y266000D02*
D03*
Y338000D02*
D03*
X316000Y186000D02*
D03*
X244000D02*
D03*
D98*
X123000Y234500D02*
D03*
Y369500D02*
D03*
D99*
X347500Y126000D02*
D03*
X212500D02*
D03*
D100*
X1549800Y150600D02*
D03*
Y650600D02*
D03*
X149800D02*
D03*
Y150600D02*
D03*
D101*
X362990Y635540D02*
D03*
X300144Y635330D02*
D03*
X331640Y635584D02*
D03*
X203878Y634822D02*
D03*
X236348Y635070D02*
D03*
X268140Y635330D02*
D03*
X539186D02*
D03*
X507182D02*
D03*
X442920Y634822D02*
D03*
X570682Y635584D02*
D03*
X475390Y635070D02*
D03*
X809724Y635584D02*
D03*
X778228Y635330D02*
D03*
X681962Y634822D02*
D03*
X714432Y635070D02*
D03*
X746224Y635330D02*
D03*
D102*
X362990Y660940D02*
D03*
Y686340D02*
D03*
X300144Y660730D02*
D03*
Y686130D02*
D03*
X331640Y660984D02*
D03*
Y686384D02*
D03*
X203878Y660222D02*
D03*
Y685622D02*
D03*
X236348Y660470D02*
D03*
Y685870D02*
D03*
X268140Y660730D02*
D03*
Y686130D02*
D03*
X539186Y660730D02*
D03*
Y686130D02*
D03*
X507182Y660730D02*
D03*
Y686130D02*
D03*
X442920Y660222D02*
D03*
Y685622D02*
D03*
X570682Y660984D02*
D03*
Y686384D02*
D03*
X475390Y660470D02*
D03*
Y685870D02*
D03*
X809724Y660984D02*
D03*
Y686384D02*
D03*
X778228Y660730D02*
D03*
Y686130D02*
D03*
X681962Y660222D02*
D03*
Y685622D02*
D03*
X714432Y660470D02*
D03*
Y685870D02*
D03*
X746224Y660730D02*
D03*
Y686130D02*
D03*
M02*
