G04*
G04 #@! TF.GenerationSoftware,Altium Limited,Altium Designer,25.1.2 (22)*
G04*
G04 Layer_Color=16711935*
%FSLAX44Y44*%
%MOMM*%
G71*
G04*
G04 #@! TF.SameCoordinates,939082EE-E914-4D5A-B06F-098D18607A17*
G04*
G04*
G04 #@! TF.FilePolarity,Negative*
G04*
G01*
G75*
%ADD61C,1.8032*%
%ADD62R,1.8032X1.8032*%
%ADD63C,1.6000*%
%ADD64C,3.9032*%
G04:AMPARAMS|DCode=65|XSize=1.7032mm|YSize=3.2032mm|CornerRadius=0.4766mm|HoleSize=0mm|Usage=FLASHONLY|Rotation=270.000|XOffset=0mm|YOffset=0mm|HoleType=Round|Shape=RoundedRectangle|*
%AMROUNDEDRECTD65*
21,1,1.7032,2.2500,0,0,270.0*
21,1,0.7500,3.2032,0,0,270.0*
1,1,0.9532,-1.1250,-0.3750*
1,1,0.9532,-1.1250,0.3750*
1,1,0.9532,1.1250,0.3750*
1,1,0.9532,1.1250,-0.3750*
%
%ADD65ROUNDEDRECTD65*%
%ADD66C,6.2032*%
%ADD67C,1.6112*%
%ADD68R,1.6112X1.6112*%
%ADD69C,2.6032*%
%ADD70C,3.4032*%
D61*
X352100Y674990D02*
D03*
Y649590D02*
D03*
X392100Y674990D02*
D03*
Y649590D02*
D03*
X432100Y674990D02*
D03*
Y649590D02*
D03*
X472100Y674990D02*
D03*
Y649590D02*
D03*
X512100Y674990D02*
D03*
Y649590D02*
D03*
X994380Y674990D02*
D03*
Y649590D02*
D03*
X1034380Y674990D02*
D03*
Y649590D02*
D03*
X1074380Y674990D02*
D03*
Y649590D02*
D03*
X1114380Y674990D02*
D03*
Y649590D02*
D03*
X1154380Y674990D02*
D03*
Y649590D02*
D03*
X672880Y674990D02*
D03*
Y649590D02*
D03*
X712880Y674990D02*
D03*
Y649590D02*
D03*
X752880Y674990D02*
D03*
Y649590D02*
D03*
X792880Y674990D02*
D03*
Y649590D02*
D03*
X832880Y674990D02*
D03*
Y649590D02*
D03*
X1224150Y674990D02*
D03*
Y649590D02*
D03*
D62*
X352100Y624190D02*
D03*
X392100D02*
D03*
X432100D02*
D03*
X472100D02*
D03*
X512100D02*
D03*
X994380D02*
D03*
X1034380D02*
D03*
X1074380D02*
D03*
X1114380D02*
D03*
X1154380D02*
D03*
X672880D02*
D03*
X712880D02*
D03*
X752880D02*
D03*
X792880D02*
D03*
X832880D02*
D03*
X1224150D02*
D03*
D63*
X1281310Y672580D02*
D03*
Y652580D02*
D03*
X912860Y672580D02*
D03*
Y652580D02*
D03*
X591700Y672580D02*
D03*
Y652580D02*
D03*
D64*
X1266000Y543500D02*
D03*
Y471500D02*
D03*
X234000Y471500D02*
D03*
Y543500D02*
D03*
D65*
X1326000Y575000D02*
D03*
Y440000D02*
D03*
X174000Y440000D02*
D03*
Y575000D02*
D03*
D66*
X1349800Y150600D02*
D03*
Y650600D02*
D03*
X149800D02*
D03*
Y150600D02*
D03*
D67*
X1278630Y348030D02*
D03*
Y256630D02*
D03*
Y370930D02*
D03*
Y233730D02*
D03*
X1326830Y307430D02*
D03*
X1344630Y297230D02*
D03*
Y317630D02*
D03*
X1326830Y287030D02*
D03*
Y327830D02*
D03*
X1344630Y276830D02*
D03*
X1326830Y266630D02*
D03*
X221370Y259970D02*
D03*
Y351370D02*
D03*
Y237070D02*
D03*
Y374270D02*
D03*
X173170Y300570D02*
D03*
X155370Y310770D02*
D03*
Y290370D02*
D03*
X173170Y320970D02*
D03*
Y280170D02*
D03*
X155370Y331170D02*
D03*
X173170Y341370D02*
D03*
D68*
X1344630Y338030D02*
D03*
X155370Y269970D02*
D03*
D69*
X1335730Y383580D02*
D03*
Y221080D02*
D03*
X164270Y224420D02*
D03*
Y386920D02*
D03*
D70*
X1370030Y365830D02*
D03*
Y238830D02*
D03*
X129970Y242170D02*
D03*
Y369170D02*
D03*
M02*
