M48
;Layer_Color=9474304
;FILE_FORMAT=2:4
INCH,TZ
;TYPE=PLATED
T1F00S00C0.0118
T4F00S00C0.0335
T5F00S00C0.0354
T6F00S00C0.0433
T7F00S00C0.0630
T8F00S00C0.1063
T9F00S00C0.1339
;TYPE=NON_PLATED
T10F00S00C0.1260
%
T01
X5906Y4331
X7087
X7677Y5512
X8268Y6693
X7087
X7677Y7874
X6496
X5315
X4724Y6693
X8858Y5512
X10039
X11220
X12402
X12992Y4331
X14173
X15354
X16535
X17717
X18307Y5512
X17126
X17530Y6594
X16535Y6693
X15354
X14173
X14764Y7874
X15945
X17126
X18041Y7333
X19026Y7274
X19390Y7874
X19744Y7884
X19952Y8119
X20738Y7638
X20650Y7283
X21181Y7628
X21604Y7490
X22018Y7165
X22313Y7746
X21988Y8081
X22795Y7421
X23307
X23809
Y6791
X23307Y6801
X22795
X24026Y5138
X14764Y5512
X13583Y7874
X11220
X11811Y4331
X10630
X9449
X24990Y4547
X25000Y5778
X24803Y6791
X25256
X25709
X26181Y6772
X26654Y7096
X26998Y7451
X27372Y7815
X27697Y8140
X26545Y7933
X26171Y7579
X25699Y7431
X25246
X24793
X24321Y7421
Y6791
X25925Y5148
X28957Y6555
X29754Y5974
X30502Y6112
X31634Y6722
X32795Y7313
X33425Y7805
X35531Y6870
X34928Y6154
X39065Y7382
X39449Y7746
X29173Y8071
X41289Y8140
X43337Y7480
X43032Y7146
X43002Y5689
X45285Y5719
X46211Y5128
X47136Y5719
X40020Y5709
X57874Y4331
X59055
X60236
X61417
X59646Y5512
X59596Y7874
X57785Y7795
X62215Y7559
X61112Y8789
X61122Y9537
X60778Y10669
X59961Y10659
X59577Y10650
X58396Y10539
X57618Y10522
X57756Y8976
X57785Y8425
X60207
X62195Y9990
X58396Y13445
X58386Y14055
X57736Y14045
X57726Y14695
X57234Y15404
X56821Y15659
X58445Y15374
X58799Y14990
X59390Y15098
X59154Y14616
X56821Y13218
Y12047
X57244Y19262
Y19941
X57923Y20689
X58366Y20974
X58780Y20394
X58691Y19902
X61181Y19892
X62333Y19104
X61644Y22136
Y23691
X58642Y23346
X57352Y23356
X56171Y23179
X56585Y22185
X57096
X53740Y22047
X53150Y23228
X51968
X51378Y22047
X50197
X49016
X47835
X47136Y22470
X46742Y22884
X46329Y22795
X46654Y22047
X47490Y20472
X47509Y18858
X48425Y18474
X48317Y17569
Y17028
X49557Y16929
X49547Y16339
X49557Y15787
X50856Y15610
X50778Y15276
X50669Y14872
X51014Y13868
X51024Y13169
Y12510
X51014Y11752
Y11043
X50472Y11024
X47530Y11033
X46949Y11024
X46968Y11722
X47510Y11713
Y12421
X46968Y12431
Y13150
X47785Y14675
X48317Y15108
X47018Y15581
X47028Y16002
Y16299
Y16604
Y16909
X46870Y17401
X45876Y17096
X45896Y17913
X46171Y18858
X44941Y19163
X45226Y20059
X42667Y20148
X42372Y18337
X42244Y17874
X41929Y17323
X42047Y16565
X41841Y15699
X42500
X42835Y15591
X43356Y15778
X43907Y16033
X44370Y15778
X44813Y16043
X45157Y16388
X44537Y16575
X44528Y17894
X44016Y18307
X44911Y15295
X44931Y14577
X45699Y15098
X43130Y14547
X43957Y13622
X43967Y13140
X43976Y12441
X43986Y11713
X43996Y11014
X43307Y9902
X42963Y9606
X41102Y11171
X40856Y11457
X40551Y11831
X41171Y13661
X41624Y13543
X41929Y13297
X42165Y13061
X42421Y12736
X40404Y15935
X40266Y16732
X40748Y17323
X40157Y18504
X40846Y19360
X40157Y20866
X40748Y22047
X41929
X43110
X44882Y23228
X45640Y23465
X48346Y22943
X49606Y23228
X49114Y19341
X49547Y18474
X49567Y17530
X50669Y17825
X50666Y18226
X50656Y18589
X51043Y18494
X51073Y19380
X52923
X54331Y18504
X54203Y17805
X54921Y17323
X54213Y16132
X52894Y17077
X51683Y17037
X51654Y16683
X51506Y16378
X51280Y16122
X51053Y15846
X53976Y13868
X54459Y13858
Y13140
X53976Y13150
Y12441
X54459Y12431
X54468Y11722
X53986
X54006Y11014
X41339Y23228
X40059Y23031
X39567Y22047
X38819Y22470
X38386Y22047
X38061Y22795
X37717Y22520
X37451Y23455
X36614Y23228
X36024Y22047
X35433Y20866
X34843Y19685
X33661
Y22047
X32480
X31299
X30310Y21616
X30207Y21073
X29513Y21616
X28893Y21212
X29169Y20653
X29178Y20318
X28848Y20266
X29178Y19588
X28471Y18035
X28706Y17777
X28718Y17149
X26575Y17323
X27072Y18279
X25984Y18504
X24803
X24213Y19685
X24803Y20866
X25984
X27165
X26575Y19685
X24213Y22047
X24803Y23228
X25246Y11142
X26191Y11132
X28681Y10876
X29429Y10532
X29528Y9154
X29183
X28770Y8967
X28839Y8287
X28415Y8307
X27992Y8327
X27963Y8937
X27559Y8927
X27234Y8622
X26909Y8307
X29498Y8287
X30335Y11289
X31467Y10876
X31732Y10571
X32795Y9990
X33425Y9370
X33543Y11270
X34921Y11289
Y11644
X34695Y11929
X34439Y12244
X34193Y12569
X33967Y12884
X33730Y13169
X36024Y12933
X36289Y13730
X36909Y13888
X36722Y13366
X37461Y12953
X37992Y13337
X38484Y13327
X38996
X39006Y12933
X39606Y12224
X38189
X36781Y12244
X35433Y11417
X36024Y10236
X34301Y10630
X38484Y10354
X39478Y10344
X38356Y8701
X36978Y8386
X36516Y8376
X37982Y13888
X38494
X37982Y14409
X38051Y16565
X38612
X39163Y16732
X39154Y16152
X39567Y17323
X38386
X38976Y18504
X39567Y19685
X38386
X37205
X36339Y19370
X37795Y20866
X38976
X38474Y23041
X36811Y16782
X36624Y15846
X35866Y15817
X35443Y16762
X34843Y17323
X33661
X19306Y17149
X19295Y17777
X19060Y18035
X17661Y18279
X16535Y18504
X15354
X14764Y19685
X15354Y20866
X16535
X17717
X17126Y19685
Y17323
X19767Y19588
X19764Y20315
X19754Y20650
X19449Y20266
X19482Y21212
X20102Y21616
X20899
X20787Y21073
X21850Y22047
X23031
X14764
X13583
X12402
X11496Y21624
X11378Y21083
X10699Y21624
X10079Y21220
X10385Y20693
X10394Y20325
X10089Y20266
X10364Y19596
X9656Y18041
X9892Y17785
X9902Y17156
X12992Y13780
X12992Y13120
X12362
X13996Y12283
X14892Y12323
X15699Y12490
X16634Y12510
X17421Y11270
X18041Y10876
X18661Y10886
X19331
X20020
X20669Y10787
X22037Y10965
X23159
X22657Y10443
X23858Y10404
X23878Y9793
Y9085
X23888Y8386
X21634Y8337
X21181
X20728
X19951Y8474
X19606Y8278
X20079Y9055
X19321Y9252
X18652Y9242
X17431Y9203
X16673Y9154
X15718
X15354Y9055
X14173
X12992
X12943Y9961
X11978
X11191Y9970
X14409Y11211
X14796Y13556
X15354Y13780
X19006Y13632
X22254Y13583
X22234Y9094
X21260Y9055
X7087
X5906
X5315Y10236
X5906Y11417
X4724
X5315Y12598
X5906Y13780
X4724
Y16142
X5906
X7087
X7677Y17323
X6496
X7087Y18504
X5906
X4724
X5315Y19685
X6496
X7677
X8268Y20866
X7087
X5906
X4724
X6496Y22047
X5906Y23228
X8258Y18287
X7677Y24409
X8888Y24252
X8671Y24980
X9931Y24990
X10157Y24252
X11220Y24409
X11191Y24990
X12441
X13681
X13524Y24124
X13583Y26772
X12402
X11220
X15945
X16535Y25591
X17126Y24409
X18081Y24961
X19350Y24970
X19488Y24409
X20669
X20600Y24970
X21850
X21850Y26772
X23031
X20669
X24213
X25394
X25984Y25591
X24803
X25394Y24409
X26575
X27490Y24970
X28760
X30010
X30118Y24409
X31260Y24970
X31299Y26772
X32480
X33661
X34843
X36024
X37205
X38386
X39567
X38976Y25591
X37795
X35433
X34252
X33661Y24409
X40748
X40157Y25591
X40748Y26772
X41929
X43110
X44291
X45472
X46654
X47835
X49016
X50197
X51378
X50787Y25591
X51378Y24409
X53740
X55295Y25620
X48425Y25591
X47244
X46063
X43701
X42520
X43110Y24409
X49016
X56171Y24783
X56663Y25659
X57018Y25669
X57598
X57352Y24557
X56821Y23976
X57854Y23947
X58632Y24537
X58465Y26772
X59646
X62008
Y24409
T04
X18929Y5587
X20898
T05
X40841Y21575
X41743
X44609Y21567
X45511
X46306Y23465
X47109
X47912
X48715
X49109Y21567
X50011
X40448Y23472
X39644
X38841
X38038
X37243Y21575
X36341
X37637Y24173
X38440
X39243
X40046
X45904Y24165
X46707
X47511
X48314
T06
X28921Y5118
X29921
X30921
X31921
X32921
X33921
X49754Y5669
X50754
X51754
X52754
X53754
X54754
X54488Y21583
Y22583
Y23583
X52697Y23573
Y22573
Y21573
X8027Y24993
Y25993
Y26993
X9305Y27003
Y26003
Y25003
X10557Y25013
Y26013
Y27013
X11817
Y26013
Y25013
X13057Y25023
Y26023
Y27023
X14291Y27021
Y26021
Y25021
X17438Y24993
Y25993
Y26993
X18716Y27003
Y26003
Y25003
X19968Y25013
Y26013
Y27013
X21228
Y26013
Y25013
X22468Y25023
Y26023
Y27023
X26849Y26993
Y25993
Y24993
X28127Y25003
Y26003
Y27003
X29379Y27013
Y26013
Y25013
X30639
Y26013
Y27013
X31879Y27023
Y26023
Y25023
X52697Y24573
Y25573
X54488Y25583
Y24583
T07
X35843Y23823
X42241
X44111Y23815
X50509
T08
X9606Y7323
X12441
X7205Y10472
Y13307
T09
X5898Y5929
X61016
X5898Y25614
X61016
T10
X36542Y25173
X41542
X44810Y25165
X49810
M30
