M48
;Layer_Color=9474304
;FILE_FORMAT=4:4
METRIC,LZ
;TYPE=PLATED
T01F00S00C0.3000
T04F00S00C0.8500
T05F00S00C0.9000
T06F00S00C1.0000
T07F00S00C1.1000
T08F00S00C1.6000
T09F00S00C2.7000
T10F00S00C3.4000
;TYPE=NON_PLATED
T11F00S00C3.2000
%
T01
X0015Y0011
X0018
X0021
X00195Y0014
X0021Y0017
X0018
X00195Y002
X00165
X00135
X0012Y0017
X0024
X0027
X003
X0033
X0036
X0039
X0042
X0045
X0048
X0051
X0054
X0057
X006
X00585Y002
X00555
X00525
X00495
X00465
X00435
X00405
X00375
X00345
X00315
X00285
X00255
X00225
Y0014
X00255
X00285
X00315
X00345
X00375
X00405
X00435
X00465
X00495
X0051Y0011
X0054
X0057
X006
X0061025Y001305
X00585Y0014
X0048Y0011
X0045
X0042
X0039
X0036
X0033
X003
X0027
X0024
X0063475Y001155
X0066Y0011
X006585Y0013075
X00675Y0014
X00705
X0072Y0011
X0075
X0078
X0077475Y0015525
X007555Y0015025
X00735Y00162
X00741Y00205
X00801Y0016825
X00833Y0018575
X00849Y0019825
X009025Y001745
X0088718Y0015632
X00915Y0014
X00975
X01005
X01002Y0019675
X0099225Y001875
X0066Y0017
X0063
X00635Y0014675
X00615Y002
X0069Y0011
X01035Y0014
X01065
X01095
X01125
X0115025Y0014525
X0117375Y0013025
X0119725Y0014525
X01215Y0014
X01245
X01275
X01305
X01335
X01365
X01395
X014065Y001895
X0135025Y0019075
X0104875Y0020675
X01485Y002
X01515
Y0014
X0153Y0011
X0156
X015
X0147
X01425Y0014
X0158475Y0019425
X01575Y0026
X01543Y0025625
X0152325
X0153Y0029
X0156
X01575Y0032
X01545
X014935Y003395
X0148275Y0033975
X01472
X0147Y0029
X015
X01455Y0026
X0143175Y0023525
X0141Y0023
X014435Y00216
X01416Y0037175
Y0038825
X014265Y0040875
X0141475Y00443
X01515Y0044
X0151325Y0040975
X0150275Y0040925
X0153Y0041
X0156325Y0041175
X01583
X01575Y005
X0156Y0053
X01575Y0056
X01515
X015Y0059
Y0053
X01507Y0051375
X01485Y005
X0147Y0053
X0140325Y004395
X0140275Y0042675
Y00415
Y0040375
X0134525Y004015
X0133725Y0038875
X0134475Y003735
X0136425Y0035025
X01396Y0031775
X01363Y0028025
X013515Y0027975
X01344Y0028975
X01327Y00257
X0132725Y0021375
X01344Y00223
X01215Y002325
X012145Y0028475
X0116925Y0030375
X0119Y003555
X0118975Y0037375
X0120325Y00411
X0123025
X012575
X0126875Y0041525
X0127525Y0039575
X012875Y0038825
X0126275Y00388
X0128425Y0043125
Y0045775
X01345Y004485
X013325Y0041525
X0132425Y004035
X0117525Y00411
X0115Y0041125
X0112425
X010745Y0041
X0107475Y0038975
X010745Y0037
X0108425Y0036375
X0109375Y0035725
X011035Y003505
X01113Y00344
X0112375Y0034375
X01142Y0035375
X0110625Y002835
X0109575Y002935
X0108525Y0030125
X011Y002515
X0101875Y0021775
X010285Y00331
X01039Y00338
X01028Y003975
X0116725Y0044675
X01125Y0056
X0114Y0059
X0122525Y0059675
X0122475Y005805
X0124425Y00565
X0125825Y0056525
X012795Y00557
X012945Y005655
X01313Y00581
X0131225Y00596
X009715Y0058275
X00965225Y00589025
X009715Y00567
X0092975Y0059575
X0084Y0059
X00855Y0056
X00705
X00708Y0056835
Y005841
X00701725Y00590375
X0066625Y005971
X0063Y0059
X00645Y0056
X00615
X006295Y00308
Y0029125
Y0027625
X006325Y002265
X006225
Y0021125
X006325
X006425
X006525
X006625
X006725
X006825
X006925
X007025
X007125
X007225
X007325
X0074925Y002105
X0075Y002325
X0074125
X0073075Y0022775
X007125Y002265
X007025
X006925
X006825
X006725
X006625
X006525
X006425
X0069325Y00283
X007115Y0028275
X007285Y0027625
X0074725Y0027575
X00773Y0030125
X0079925Y0027625
X00806Y002685
X00833Y0025375
X00849Y00238
X00852Y0028625
X0087125Y0027
X0086973Y00356179
X008975Y00367
X009105Y003675
X0091075Y003545
X009255Y003675
X00939Y0036825
X009515Y00369
X0096375Y003695
X0097625Y003705
X0097Y0038625
X0095773Y0039877
X00947Y0041025
X00982Y004155
X009975Y0046325
X009625Y004635
X009825Y00324
X00997Y003135
X0100275Y0026275
X009775Y00263
X00964Y0025275
X0097425Y00221
X0094775Y0021975
X0093925Y00213
X009275Y0021275
X00919Y0022025
X00811Y004295
X00786Y00412
X0075975Y004295
X0057175Y00405
X0055425
X00537096Y0040505
X00520346Y004048
X005285Y00391
X0054525Y0039075
X00563Y003905
X00571404Y0037645
X00553904
X0053675Y003765
X0052Y0037625
X0051Y0039075
X0048Y0041
X004465Y004175
X0042275Y00417
X0040225Y0041275
X0039Y0041
X003795Y0041175
X0039Y003845
X003915Y0035825
X0035275Y0035275
X0032825
X0030825Y00353
X00315Y0032
X00345
X00375
X00405
X00435
X0042325Y0033225
X004475
X0046675Y003335
X00465Y0032
X00483Y00333
X0052Y0033025
X00536654Y003347
X00553654Y0033495
X00555Y0032
X0057Y0029
X005915Y0029125
X0059125Y002765
X0061Y0027625
X0060975Y002915
Y00308
X005915Y0030825
X0054Y0029
X0051
X0048
X0045
X0042
X0039
X0036
X0033
X003
X0027
X0024
X00235Y00267
X00234923Y00258643
X0022925Y0024625
X00236Y0023975
X0024275Y00233
X002495Y002255
X002565Y002185
X002625Y0021125
X002725
X002825
X002925
X003025
X003125
X003225
X003325
X003425
X003525
X003625
X003725
X003825
X003925
X004025
X004125
X004225
X004325
X004425
X004525
X004625
X004725
X004825
X004925
X005025
X005125
X005225
X005325
X005425
X005525
X005625
X005725
X005825
X005925
X006025
X006125
Y002265
X006025
X005925
X005825
X005725
X005625
X005525
X005425
X005325
X005225
X005125
X005025
X004925
X004825
X004725
X004625
X004525
X004425
X004325
X004225
X004125
X004025
X003925
X003825
X003725
X003625
X003525
X003425
X003325
X003225
X003125
X003025
X002925
X002825
X0027075Y00232
X0026275Y002395
X0025575Y0024625
X00249Y00253
X00255Y0026
X00285
X00315
X00345
X00375
X00405
X00435
X00465
X00495
X005115Y0025675
X0051075Y0044875
X00465Y0044
X00435
X00399827Y0044406
X00354Y00433
X00345Y0044
X00338Y00433
X00315Y0044
X00225
X0024Y0047
X00225Y005
X0024Y0053
X00225Y0056
X0024Y0059
X00375Y0056
X00435
X004435Y005665
Y0058225
X00437225Y00588525
X0040175Y0059525
X00465Y0056
X00585
X006Y0059
X0057
X0059625Y0037525
X00255Y0038
X00225
X0024Y0041
Y0035
X0027
X00285Y0032
X00255
X00225
X0022Y00274
X00220219Y00265683
X0022025Y0025275
X0020375Y002425
X0018725
X0018Y0023
X0021
X0020325Y002845
X0018725
X00195Y0032
X00165
X00135
X0015Y0035
X0018
X0021
X00195Y0038
X00165
X00135
X0015Y0041
X0018
X0021
X00195Y0044
X00165
X00135
X0015Y0047
X0018
X0021
X00195Y005
X00165
X00135
X0015Y0053
X0018
X0021
X00195Y0056
X00165
X00135
X0012Y0059
Y0053
Y0047
Y0041
Y0035
X0021Y0059
X00195Y0062
X00165
X00135
X0015Y0065
X0018
X0021
X00165Y0068
X00135
X0015Y0071
X0018
X00195Y0074
X00165
X00135
X0012Y0077
Y0083
X0018
X00195Y0086
Y008
X00165
X0012Y0071
Y0065
X00255Y0074
X00285
X003115Y007565
X003Y0077
X0027
X00285Y008
X00255
X0027Y0083
X003
X00285Y0086
X00255
X00225
X00345
X00405
Y008
X004125Y007565
X00405Y0074
X00375
X0037175Y007565
X0036Y0077
X00345Y008
Y0074
X0036Y0071
X0033
X003
X00345Y0068
X00375
X0039Y0065
X0036
X00375Y0062
X0045525Y006285
X00456Y00647
X0044825Y006455
X0045577Y00656349
X00448Y0066975
X0046375Y0068
X00484
X00495Y0068
X00481Y0066625
X00525Y0068
X00555
X00585
X006Y0071
Y0077
X00555Y0074
X00525
X0053275Y0075625
X004915
X00495Y0074
X00465
X0045225Y0075625
X0045Y0077
X0048
X00525Y008
Y0086
X00585
X0057Y0065
X00585Y0062
X00645
X0066Y0065
X0063
X00645Y0068
X00615
Y0074
X00645
X00636Y0075625
X0063Y0077
X00615Y008
X0063Y0083
X00615Y0086
X00675
X00705
Y008
X00675
X0067675Y0075675
X00675Y0074
X007155Y007565
X0072Y0077
X0075
X007565Y0075625
X00765Y0074
X00795
X0079675Y007565
X00795Y008
Y0086
X00825
X00855
X00885
Y008
X009Y0077
X0090025Y007565
X00915Y0074
X00945
X009405Y0075625
X0093Y0077
X0087
X00885Y0074
Y0068
X00855
X00825
X00795
X00765
X00748838Y00680646
X00746Y0066685
X00728588Y00680646
X007125Y006716
X0072027Y00658199
X007205Y0064885
X0071275Y0064735
X0071975Y0063035
X0084Y0065
X00855Y0062
X00885
X0093Y0065
X0097625Y00646
X00984Y006475
X00983771Y00656849
X00976Y0067025
X0099338Y00678796
X0098325Y00629
X00975Y0074
X0098025Y007565
X00975Y008
Y0086
X0084Y0071
X0101363Y00678796
X01011Y00665
X01035Y0068
X01065
X01095
X01125
X0114Y0071
X01125Y0074
X0114Y0077
X01125Y008
Y0086
X01155
X01185
X01275
X01305
X013115Y008295
X01365Y0086
X0135Y0077
X01365Y0074
X01395
Y0068
X01365
X01335
X01305
X01275
X01245
X0129Y0071
X0132
X0135
X01335Y0074
X01305
X01275
X01065
X0106025Y007565
X0105Y0077
X0102
X0101975Y007565
X01035Y0074
X01095Y0086
X0114Y0065
X01125Y0062
X01485
X01515
X01545
X01575
Y0068
X01545
X0156Y0071
X0153
X01545Y0074
X01575
X0156Y0077
X0153
X01515Y008
X0148575Y0080625
X015Y0083
X01458Y0082975
X01455Y0086
X014695Y00874
X01515Y0086
X01575Y008
X01515Y0074
X015Y0065
X0141Y0071
Y0077
T04
X001414Y002352
Y002852
T05
X0147863Y0044973
Y0047263
X0152683Y0048263
Y0050303
Y0052343
Y0054383
X0154463Y0053363
Y0051323
Y0049283
Y0055403
X0147863Y0056403
Y0058693
T06
X0058903Y0083065
X0060903
X0085128Y008309
X0087128
X0111378Y0083015
X0113378
T07
X007346Y0013
X0076
X007854
X008108
X008362
X008616
X011296Y0018475
X01246Y001867
X0129
Y002121
Y002375
Y002629
Y002883
X01246
Y002629
Y002375
Y002121
X011296Y0021015
Y0024575
Y0027115
X0117585Y005851
X0120125
X005455Y0080435
Y0082975
Y0085515
X005055
Y0082975
Y0080435
X004655
Y0082975
Y0085515
X004255
Y0082975
Y0080435
X003855
Y0082975
Y0085515
X003255
Y0082975
Y0080435
X0065Y0080435
Y0082975
Y0085515
X0069
Y0082975
Y0080435
X0073
Y0082975
Y0085515
X0077
Y0082975
Y0080435
X0081
Y0082975
Y0085515
X009135
Y0082975
Y0080435
X009535
Y0082975
Y0085515
X009935
Y0082975
Y0080435
X010335
Y0082975
Y0085515
X010735
Y0082975
Y0080435
X0117
Y0082975
Y0085515
X0121
Y0082975
Y0080435
X0125
Y0082975
Y0085515
X0129
Y0082975
Y0080435
X01345
Y0082975
Y0085515
X01385
Y0082975
Y0080435
X0128265Y006254
X0125725
X0120125Y006246
X0117585
X01425Y0080435
Y0082975
Y0085515
T08
X0153573Y0043708
Y0059958
T09
X002245Y0062225
Y0069425
X01485Y00684
Y00756
T10
X001498Y001506
X015498
X001498Y008506
X015498
T11
X0157003Y0045483
Y0058183
M30
