M48
;Layer_Color=9474304
;FILE_FORMAT=4:2
METRIC,TZ
;TYPE=PLATED
T1F00S00C0.25
T4F00S00C0.85
T5F00S00C0.90
T6F00S00C1.10
T7F00S00C1.60
T8F00S00C2.70
T9F00S00C3.40
;TYPE=NON_PLATED
T10F00S00C3.20
%
T01
X1500Y1100
X1800
X1950Y1400
X2100Y1700
X1800
X1950Y2000
X1650
X1350
X1200Y1700
X2250Y1400
X2550
X2850
X3150
X3300Y1100
X3600
X3900
X4200
X4500
X4650Y1400
X4350
X4453Y1675
X4200Y1700
X3900
X3600
X3750Y2000
X4050
X4350
X4583Y1862
X4833Y1848
X4925Y2000
X5015Y2002
X5068Y2062
X5267Y1940
X5245Y1850
X5380Y1938
X5488Y1902
X5592Y1820
X5667Y1967
X5585Y2052
X5790Y1885
X5920
X6047
Y1725
X5920Y1727
X5790
X6103Y1305
X3750Y1400
X3450Y2000
X2850
X3000Y1100
X2700
X2400
X6347Y1155
X6350Y1468
X6300Y1725
X6415
X6530
X6650Y1720
X6770Y1802
X6857Y1892
X6953Y1985
X7035Y2067
X6743Y2015
X6647Y1925
X6528Y1888
X6412
X6297
X6178Y1885
Y1725
X6585Y1307
X7355Y1665
X7557Y1518
X7747Y1552
X8035Y1708
X8330Y1858
X8490Y1983
X9025Y1745
X8872Y1563
X9922Y1875
X10020Y1967
X7410Y2050
X10488Y2067
X11007Y1900
X10930Y1815
X10922Y1445
X11503Y1452
X11738Y1302
X11972Y1452
X10165Y1450
X14700Y1100
X15000
X15300
X15600
X15150Y1400
X15138Y2000
X14677Y1980
X15802Y1920
X15523Y2233
X15525Y2423
X15438Y2710
X15230Y2708
X15132Y2705
X14832Y2677
X14635Y2673
X14670Y2280
X14677Y2140
X15293
X15798Y2538
X14832Y3415
X14830Y3570
X14665Y3567
X14662Y3733
X14538Y3912
X14432Y3978
X14845Y3905
X14935Y3808
X15085Y3835
X15025Y3712
X14432Y3358
Y3060
X14540Y4892
Y5065
X14712Y5255
X14825Y5328
X14930Y5180
X14907Y5055
X15540Y5053
X15832Y4853
X15657Y5622
Y6017
X14895Y5930
X14568Y5933
X14268Y5888
X14373Y5635
X14502
X13650Y5600
X13500Y5900
X13200
X13050Y5600
X12750
X12450
X12150
X11972Y5708
X11872Y5812
X11768Y5790
X11850Y5600
X12062Y5200
X12067Y4790
X12300Y4692
X12272Y4462
Y4325
X12588Y4300
X12585Y4150
X12588Y4010
X12918Y3965
X12898Y3880
X12870Y3778
X12957Y3522
X12960Y3345
Y3177
X12957Y2985
Y2805
X12820Y2800
X12072Y2802
X11925Y2800
X11930Y2977
X12068Y2975
Y3155
X11930Y3158
Y3340
X12138Y3728
X12272Y3838
X11943Y3958
X11945Y4065
Y4140
Y4217
Y4295
X11905Y4420
X11653Y4342
X11657Y4550
X11727Y4790
X11415Y4867
X11488Y5095
X10838Y5117
X10762Y4658
X10730Y4540
X10650Y4400
X10680Y4208
X10628Y3988
X10795
X10880Y3960
X11012Y4008
X11153Y4072
X11270Y4008
X11382Y4075
X11470Y4162
X11312Y4210
X11310Y4545
X11180Y4650
X11407Y3885
X11412Y3703
X11607Y3835
X10955Y3695
X11165Y3460
X11168Y3338
X11170Y3160
X11172Y2975
X11175Y2798
X11000Y2515
X10912Y2440
X10440Y2838
X10378Y2910
X10300Y3005
X10457Y3470
X10572Y3440
X10650Y3378
X10710Y3317
X10775Y3235
X10262Y4047
X10228Y4250
X10350Y4400
X10200Y4700
X10375Y4917
X10200Y5300
X10350Y5600
X10650
X10950
X11400Y5900
X11593Y5960
X12280Y5828
X12600Y5900
X12475Y4912
X12585Y4692
X12590Y4453
X12870Y4528
X12869Y4629
X12867Y4722
X12965Y4697
X12973Y4922
X13443
X13800Y4700
X13768Y4522
X13950Y4400
X13770Y4097
X13435Y4338
X13127Y4328
X13120Y4238
X13082Y4160
X13025Y4095
X12968Y4025
X13710Y3522
X13832Y3520
Y3338
X13710Y3340
Y3160
X13832Y3158
X13835Y2977
X13712
X13718Y2798
X10500Y5900
X10175Y5850
X10050Y5600
X9860Y5708
X9750Y5600
X9668Y5790
X9580Y5720
X9512Y5958
X9300Y5900
X9150Y5600
X9000Y5300
X8850Y5000
X8550
Y5600
X8250
X7950
X7699Y5490
X7672Y5353
X7496Y5490
X7339Y5388
X7409Y5246
X7411Y5161
X7328Y5147
X7411Y4975
X7232Y4581
X7291Y4515
X7294Y4356
X6750Y4400
X6876Y4643
X6600Y4700
X6300
X6150Y5000
X6300Y5300
X6600
X6900
X6750Y5000
X6150Y5600
X6300Y5900
X6412Y2830
X6653Y2827
X7285Y2762
X7475Y2675
X7500Y2325
X7412
X7307Y2277
X7325Y2105
X7218Y2110
X7110Y2115
X7103Y2270
X7000Y2267
X6918Y2190
X6835Y2110
X7493Y2105
X7705Y2867
X7993Y2762
X8060Y2685
X8330Y2538
X8490Y2380
X8520Y2862
X8870Y2867
Y2958
X8812Y3030
X8747Y3110
X8685Y3192
X8628Y3272
X8568Y3345
X9150Y3285
X9218Y3488
X9375Y3528
X9328Y3395
X9515Y3290
X9650Y3388
X9775Y3385
X9905
X9907Y3285
X10060Y3105
X9700
X9343Y3110
X9000Y2900
X9150Y2600
X8712Y2700
X9775Y2630
X10028Y2627
X9743Y2210
X9393Y2130
X9275Y2127
X9647Y3528
X9778
X9647Y3660
X9665Y4208
X9807
X9947Y4250
X9945Y4103
X10050Y4400
X9750
X9900Y4700
X10050Y5000
X9750
X9450
X9230Y4920
X9600Y5300
X9900
X9772Y5853
X9350Y4262
X9303Y4025
X9110Y4017
X9003Y4258
X8850Y4400
X8550
X4904Y4356
X4901Y4515
X4841Y4581
X4486Y4643
X4200Y4700
X3900
X3750Y5000
X3900Y5300
X4200
X4500
X4350Y5000
Y4400
X5021Y4975
X5020Y5160
X5017Y5245
X4940Y5147
X4948Y5388
X5106Y5490
X5308
X5280Y5353
X5550Y5600
X5850
X3750
X3450
X3150
X2920Y5492
X2890Y5355
X2717Y5492
X2560Y5390
X2638Y5256
X2640Y5162
X2562Y5147
X2633Y4978
X2452Y4583
X2512Y4517
X2515Y4358
X3300Y3500
X3300Y3333
X3140
X3555Y3120
X3783Y3130
X3988Y3173
X4225Y3177
X4425Y2862
X4583Y2762
X4740Y2765
X4910
X5085
X5250Y2740
X5597Y2785
X5883
X5755Y2652
X6060Y2642
X6065Y2488
Y2308
X6067Y2130
X5495Y2117
X5380
X5265
X5067Y2152
X4980Y2102
X5100Y2300
X4908Y2350
X4738Y2348
X4428Y2338
X4235Y2325
X3992
X3900Y2300
X3600
X3300
X3288Y2530
X3042
X2842Y2533
X3660Y2848
X3758Y3443
X3900Y3500
X4828Y3462
X5653Y3450
X5647Y2310
X5400Y2300
X1800
X1500
X1350Y2600
X1500Y2900
X1200
X1350Y3200
X1500Y3500
X1200
Y4100
X1500
X1800
X1950Y4400
X1650
X1800Y4700
X1500
X1200
X1350Y5000
X1650
X1950
X2100Y5300
X1800
X1500
X1200
X1650Y5600
X1500Y5900
X2098Y4645
X1950Y6200
X2258Y6160
X2202Y6345
X2523Y6347
X2580Y6160
X2850Y6200
X2842Y6347
X3160
X3475
X3435Y6128
X3450Y6800
X3150
X2850
X4050
X4200Y6500
X4350Y6200
X4592Y6340
X4915Y6342
X4950Y6200
X5250
X5233Y6342
X5550
X5550Y6800
X5850
X5250
X6150
X6450
X6600Y6500
X6300
X6450Y6200
X6750
X6982Y6342
X7305
X7622
X7650Y6200
X7940Y6342
X7950Y6800
X8250
X8550
X8850
X9150
X9450
X9750
X10050
X9900Y6500
X9600
X9000
X8700
X8550Y6200
X10350
X10200Y6500
X10350Y6800
X10650
X10950
X11250
X11550
X11850
X12150
X12450
X12750
X13050
X12900Y6500
X13050Y6200
X13650
X14045Y6507
X12300Y6500
X12000
X11700
X11100
X10800
X10950Y6200
X12450
X14268Y6295
X14393Y6518
X14482Y6520
X14630
X14568Y6238
X14432Y6090
X14695Y6083
X14893Y6233
X14850Y6800
X15150
X15750
Y6200
T04
X4808Y1419
X5308
T05
X10374Y5480
X10603
X11331Y5478
X11560
X11762Y5960
X11966
X12170
X12374
X12474Y5478
X12703
X10274Y5962
X10070
X9866
X9662
X9460Y5480
X9231
X9560Y6140
X9764
X9968
X10172
X11660Y6138
X11864
X12068
X12272
T06
X7346Y1300
X7600
X7854
X8108
X8362
X8616
X12638Y1440
X12891
X13146
X13399
X13654
X13907
X13840Y5482
Y5736
Y5990
X13385Y5988
Y5733
Y5479
X2039Y6348
Y6602
Y6856
X2363Y6859
Y6605
Y6351
X2681Y6353
Y6607
Y6861
X3001
Y6607
Y6353
X3316Y6356
Y6610
Y6864
X3630Y6863
Y6609
Y6355
X4429Y6348
Y6602
Y6856
X4754Y6859
Y6605
Y6351
X5072Y6353
Y6607
Y6861
X5392
Y6607
Y6353
X5707Y6356
Y6610
Y6864
X6820Y6856
Y6602
Y6348
X7144Y6351
Y6605
Y6859
X7462Y6861
Y6607
Y6353
X7782
Y6607
Y6861
X8097Y6864
Y6610
Y6356
X13385Y6242
Y6496
X13840Y6498
Y6244
T07
X9104Y6051
X10729
X11204Y6049
X12829
T08
X2440Y1860
X3160
X1830Y2660
Y3380
T09
X1498Y1506
X15498
X1498Y6506
X15498
T10
X9282Y6394
X10552
X11382Y6392
X12652
M30
