G04*
G04 #@! TF.GenerationSoftware,Altium Limited,Altium Designer,25.1.2 (22)*
G04*
G04 Layer_Color=16711935*
%FSLAX44Y44*%
%MOMM*%
G71*
G04*
G04 #@! TF.SameCoordinates,16C12C68-AF79-4A2E-A47B-84CD8AC843F2*
G04*
G04*
G04 #@! TF.FilePolarity,Negative*
G04*
G01*
G75*
%ADD91C,1.8032*%
%ADD92R,1.8032X1.8032*%
%ADD93R,1.8032X1.8032*%
%ADD94C,1.6000*%
%ADD95C,1.8000*%
G04:AMPARAMS|DCode=96|XSize=1.8mm|YSize=1.8mm|CornerRadius=0.5mm|HoleSize=0mm|Usage=FLASHONLY|Rotation=270.000|XOffset=0mm|YOffset=0mm|HoleType=Round|Shape=RoundedRectangle|*
%AMROUNDEDRECTD96*
21,1,1.8000,0.8000,0,0,270.0*
21,1,0.8000,1.8000,0,0,270.0*
1,1,1.0000,-0.4000,-0.4000*
1,1,1.0000,-0.4000,0.4000*
1,1,1.0000,0.4000,0.4000*
1,1,1.0000,0.4000,-0.4000*
%
%ADD96ROUNDEDRECTD96*%
G04:AMPARAMS|DCode=97|XSize=1.7032mm|YSize=3.2032mm|CornerRadius=0.4766mm|HoleSize=0mm|Usage=FLASHONLY|Rotation=270.000|XOffset=0mm|YOffset=0mm|HoleType=Round|Shape=RoundedRectangle|*
%AMROUNDEDRECTD97*
21,1,1.7032,2.2500,0,0,270.0*
21,1,0.7500,3.2032,0,0,270.0*
1,1,0.9532,-1.1250,-0.3750*
1,1,0.9532,-1.1250,0.3750*
1,1,0.9532,1.1250,0.3750*
1,1,0.9532,1.1250,-0.3750*
%
%ADD97ROUNDEDRECTD97*%
%ADD98C,3.9032*%
%ADD99C,6.2032*%
%ADD100C,1.6112*%
%ADD101R,1.6112X1.6112*%
%ADD102C,2.6032*%
%ADD103C,3.4032*%
%ADD104C,1.6532*%
G04:AMPARAMS|DCode=105|XSize=1.8mm|YSize=1.8mm|CornerRadius=0.5mm|HoleSize=0mm|Usage=FLASHONLY|Rotation=0.000|XOffset=0mm|YOffset=0mm|HoleType=Round|Shape=RoundedRectangle|*
%AMROUNDEDRECTD105*
21,1,1.8000,0.8000,0,0,0.0*
21,1,0.8000,1.8000,0,0,0.0*
1,1,1.0000,0.4000,-0.4000*
1,1,1.0000,-0.4000,-0.4000*
1,1,1.0000,-0.4000,0.4000*
1,1,1.0000,0.4000,0.4000*
%
%ADD105ROUNDEDRECTD105*%
D91*
X1175850Y585100D02*
D03*
X1129600Y210150D02*
D03*
X1282650Y625400D02*
D03*
X1175850Y624600D02*
D03*
X325500Y829750D02*
D03*
Y855150D02*
D03*
X953500Y829750D02*
D03*
Y855150D02*
D03*
X913500Y829750D02*
D03*
Y855150D02*
D03*
X690000Y829750D02*
D03*
Y855150D02*
D03*
X650000Y829750D02*
D03*
Y855150D02*
D03*
X425500Y829750D02*
D03*
Y855150D02*
D03*
X385500Y829750D02*
D03*
Y855150D02*
D03*
X1250000Y829750D02*
D03*
Y855150D02*
D03*
X1129600Y271150D02*
D03*
X1210000Y829750D02*
D03*
Y855150D02*
D03*
X1170000Y829750D02*
D03*
Y855150D02*
D03*
X1425000Y829750D02*
D03*
Y855150D02*
D03*
X1385000Y829750D02*
D03*
Y855150D02*
D03*
X1345000Y829750D02*
D03*
Y855150D02*
D03*
X1290000Y829750D02*
D03*
Y855150D02*
D03*
X993500Y829750D02*
D03*
Y855150D02*
D03*
X730000Y829750D02*
D03*
Y855150D02*
D03*
X465500Y829750D02*
D03*
Y855150D02*
D03*
X1033500Y829750D02*
D03*
Y855150D02*
D03*
X770000Y829750D02*
D03*
Y855150D02*
D03*
X505500Y829750D02*
D03*
Y855150D02*
D03*
X1073500Y829750D02*
D03*
Y855150D02*
D03*
X810000Y829750D02*
D03*
Y855150D02*
D03*
X545500Y829750D02*
D03*
Y855150D02*
D03*
D92*
X1201250Y585100D02*
D03*
X1257250Y625400D02*
D03*
X1201250Y624600D02*
D03*
D93*
X1129600Y184750D02*
D03*
X325500Y804350D02*
D03*
X953500Y804350D02*
D03*
X913500D02*
D03*
X690000D02*
D03*
X650000D02*
D03*
X425500Y804350D02*
D03*
X385500D02*
D03*
X1250000Y804350D02*
D03*
X1129600Y245750D02*
D03*
X1210000Y804350D02*
D03*
X1170000D02*
D03*
X1425000D02*
D03*
X1385000D02*
D03*
X1345000D02*
D03*
X1290000D02*
D03*
X993500D02*
D03*
X730000D02*
D03*
X465500Y804350D02*
D03*
X1033500Y804350D02*
D03*
X770000D02*
D03*
X505500Y804350D02*
D03*
X1073500Y804350D02*
D03*
X810000D02*
D03*
X545500Y804350D02*
D03*
D94*
X1113780Y830150D02*
D03*
X1133780D02*
D03*
X851280Y830900D02*
D03*
X871280D02*
D03*
X589030Y830650D02*
D03*
X609030D02*
D03*
D95*
X1246000Y212100D02*
D03*
Y262900D02*
D03*
Y237500D02*
D03*
Y186700D02*
D03*
X1290000Y212100D02*
D03*
Y262900D02*
D03*
Y237500D02*
D03*
Y186700D02*
D03*
X861600Y130000D02*
D03*
X836200D02*
D03*
X785400D02*
D03*
X760000D02*
D03*
X810800D02*
D03*
D96*
X1246000Y288300D02*
D03*
X1290000D02*
D03*
D97*
X1545000Y652500D02*
D03*
Y787500D02*
D03*
X164500Y725750D02*
D03*
Y590750D02*
D03*
D98*
X1485000Y684000D02*
D03*
Y756000D02*
D03*
X224500Y694250D02*
D03*
Y622250D02*
D03*
D99*
X1549800Y150600D02*
D03*
Y850600D02*
D03*
X149800D02*
D03*
Y150600D02*
D03*
D100*
X1478630Y564030D02*
D03*
Y472630D02*
D03*
Y586930D02*
D03*
Y449730D02*
D03*
X1526830Y523430D02*
D03*
X1544630Y513230D02*
D03*
Y533630D02*
D03*
X1526830Y503030D02*
D03*
Y543830D02*
D03*
X1544630Y492830D02*
D03*
X1526830Y482630D02*
D03*
D101*
X1544630Y554030D02*
D03*
D102*
X1535730Y599580D02*
D03*
Y437080D02*
D03*
D103*
X1570030Y581830D02*
D03*
Y454830D02*
D03*
D104*
X141400Y235200D02*
D03*
Y285200D02*
D03*
D105*
X734600Y130000D02*
D03*
M02*
