G04*
G04 #@! TF.GenerationSoftware,Altium Limited,Altium Designer,22.4.2 (48)*
G04*
G04 Layer_Physical_Order=3*
G04 Layer_Color=16440176*
%FSLAX44Y44*%
%MOMM*%
G71*
G04*
G04 #@! TF.SameCoordinates,B701488B-7258-471B-98CB-2349E65484A3*
G04*
G04*
G04 #@! TF.FilePolarity,Positive*
G04*
G01*
G75*
%ADD14C,0.2540*%
%ADD104C,1.4080*%
%ADD106C,2.4000*%
%ADD107C,3.2000*%
%ADD108C,1.6000*%
G04:AMPARAMS|DCode=109|XSize=1.6mm|YSize=1.6mm|CornerRadius=0.4mm|HoleSize=0mm|Usage=FLASHONLY|Rotation=180.000|XOffset=0mm|YOffset=0mm|HoleType=Round|Shape=RoundedRectangle|*
%AMROUNDEDRECTD109*
21,1,1.6000,0.8000,0,0,180.0*
21,1,0.8000,1.6000,0,0,180.0*
1,1,0.8000,-0.4000,0.4000*
1,1,0.8000,0.4000,0.4000*
1,1,0.8000,0.4000,-0.4000*
1,1,0.8000,-0.4000,-0.4000*
%
%ADD109ROUNDEDRECTD109*%
%ADD110C,1.4500*%
G04:AMPARAMS|DCode=111|XSize=1.6mm|YSize=1.6mm|CornerRadius=0.4mm|HoleSize=0mm|Usage=FLASHONLY|Rotation=270.000|XOffset=0mm|YOffset=0mm|HoleType=Round|Shape=RoundedRectangle|*
%AMROUNDEDRECTD111*
21,1,1.6000,0.8000,0,0,270.0*
21,1,0.8000,1.6000,0,0,270.0*
1,1,0.8000,-0.4000,-0.4000*
1,1,0.8000,-0.4000,0.4000*
1,1,0.8000,0.4000,0.4000*
1,1,0.8000,0.4000,-0.4000*
%
%ADD111ROUNDEDRECTD111*%
%ADD112C,3.7000*%
G04:AMPARAMS|DCode=113|XSize=1.5mm|YSize=3mm|CornerRadius=0.375mm|HoleSize=0mm|Usage=FLASHONLY|Rotation=90.000|XOffset=0mm|YOffset=0mm|HoleType=Round|Shape=RoundedRectangle|*
%AMROUNDEDRECTD113*
21,1,1.5000,2.2500,0,0,90.0*
21,1,0.7500,3.0000,0,0,90.0*
1,1,0.7500,1.1250,0.3750*
1,1,0.7500,1.1250,-0.3750*
1,1,0.7500,-1.1250,-0.3750*
1,1,0.7500,-1.1250,0.3750*
%
%ADD113ROUNDEDRECTD113*%
G04:AMPARAMS|DCode=114|XSize=1.5mm|YSize=3mm|CornerRadius=0.375mm|HoleSize=0mm|Usage=FLASHONLY|Rotation=180.000|XOffset=0mm|YOffset=0mm|HoleType=Round|Shape=RoundedRectangle|*
%AMROUNDEDRECTD114*
21,1,1.5000,2.2500,0,0,180.0*
21,1,0.7500,3.0000,0,0,180.0*
1,1,0.7500,-0.3750,1.1250*
1,1,0.7500,0.3750,1.1250*
1,1,0.7500,0.3750,-1.1250*
1,1,0.7500,-0.3750,-1.1250*
%
%ADD114ROUNDEDRECTD114*%
%ADD115C,6.0000*%
%ADD117C,1.6500*%
%ADD118C,0.5000*%
G36*
X1574250Y568750D02*
Y257000D01*
X1558810Y241560D01*
X1557540Y242086D01*
Y243253D01*
X1556773Y245105D01*
X1555355Y246523D01*
X1553503Y247290D01*
X1551497D01*
X1549645Y246523D01*
X1548227Y245105D01*
X1547460Y243253D01*
Y241248D01*
X1548227Y239395D01*
X1549645Y237977D01*
X1551497Y237210D01*
X1552664D01*
X1553190Y235940D01*
X1534591Y217341D01*
X1532916Y217462D01*
X1532105Y218273D01*
X1530253Y219040D01*
X1528248D01*
X1526395Y218273D01*
X1524977Y216855D01*
X1524210Y215002D01*
Y212997D01*
X1524977Y211145D01*
X1526395Y209727D01*
X1526492Y209242D01*
X1519441Y202191D01*
X1518195Y202439D01*
X1518023Y202855D01*
X1516605Y204273D01*
X1514753Y205040D01*
X1512747D01*
X1510895Y204273D01*
X1509477Y202855D01*
X1508710Y201003D01*
Y198997D01*
X1509477Y197145D01*
X1510895Y195727D01*
X1511311Y195555D01*
X1511559Y194309D01*
X1428250Y111000D01*
X639174D01*
X638648Y112270D01*
X639023Y112645D01*
X639790Y114497D01*
Y116503D01*
X639023Y118355D01*
X637605Y119773D01*
X635752Y120540D01*
X633747D01*
X631895Y119773D01*
X630477Y118355D01*
X629710Y116503D01*
Y114497D01*
X630477Y112645D01*
X630852Y112270D01*
X630326Y111000D01*
X575750D01*
X575500Y110750D01*
X552750Y133500D01*
Y187122D01*
X553023Y187395D01*
X553790Y189247D01*
Y191252D01*
X553023Y193105D01*
X552750Y193378D01*
Y202643D01*
X554020Y202896D01*
X554227Y202395D01*
X555645Y200977D01*
X557497Y200210D01*
X559502D01*
X561355Y200977D01*
X562773Y202395D01*
X563540Y204247D01*
Y206252D01*
X562773Y208105D01*
X561355Y209523D01*
X559502Y210290D01*
X557497D01*
X555645Y209523D01*
X555239Y209117D01*
X554162Y209836D01*
X554540Y210748D01*
Y212752D01*
X553773Y214605D01*
X552750Y215628D01*
Y284500D01*
X560500Y292250D01*
X767289Y292250D01*
X767592Y291207D01*
X767602Y290980D01*
X766227Y289605D01*
X765460Y287752D01*
Y285748D01*
X766227Y283895D01*
X767645Y282477D01*
X769498Y281710D01*
X771503D01*
X773355Y282477D01*
X774773Y283895D01*
X775540Y285748D01*
Y287752D01*
X774773Y289605D01*
X773398Y290980D01*
X773409Y291207D01*
X773711Y292250D01*
X875500D01*
X881960Y285790D01*
Y285748D01*
X882727Y283895D01*
X884145Y282477D01*
X885997Y281710D01*
X886040D01*
X924500Y243250D01*
X1086210D01*
Y242997D01*
X1086977Y241145D01*
X1088395Y239727D01*
X1090247Y238960D01*
X1092253D01*
X1094105Y239727D01*
X1095523Y241145D01*
X1096290Y242997D01*
Y243250D01*
X1369000D01*
X1402500Y276750D01*
Y464857D01*
X1367383Y499750D01*
X1165000D01*
X1126000Y460750D01*
X1122537D01*
X1122051Y461923D01*
X1122273Y462145D01*
X1123040Y463997D01*
Y466003D01*
X1122273Y467855D01*
X1120855Y469273D01*
X1119003Y470040D01*
X1116998D01*
X1115145Y469273D01*
X1113727Y467855D01*
X1112960Y466003D01*
Y463997D01*
X1113727Y462145D01*
X1113949Y461923D01*
X1113463Y460750D01*
X1051000Y460750D01*
X1044250Y467500D01*
Y518250D01*
X1055750Y529750D01*
X1389500Y529750D01*
X1402500Y542750D01*
Y637750D01*
X1424500Y659750D01*
X1483250Y659750D01*
X1574250Y568750D01*
D02*
G37*
G36*
X1371710Y451790D02*
Y451247D01*
X1372477Y449395D01*
X1373895Y447977D01*
X1375748Y447210D01*
X1376290D01*
X1381250Y442250D01*
X1381250Y356627D01*
X1380395Y356273D01*
X1378977Y354855D01*
X1378210Y353003D01*
Y350998D01*
X1378977Y349145D01*
X1380395Y347727D01*
X1381250Y347373D01*
Y338377D01*
X1380395Y338023D01*
X1378977Y336605D01*
X1378210Y334753D01*
Y332747D01*
X1378977Y330895D01*
X1380395Y329477D01*
X1381250Y329123D01*
Y320377D01*
X1380395Y320023D01*
X1378977Y318605D01*
X1378210Y316752D01*
Y314748D01*
X1378977Y312895D01*
X1380395Y311477D01*
X1381250Y311123D01*
Y302273D01*
X1380645Y302023D01*
X1379227Y300605D01*
X1378460Y298752D01*
Y296747D01*
X1379227Y294895D01*
X1380645Y293477D01*
X1381250Y293227D01*
Y279750D01*
X1365500Y264000D01*
X1007688D01*
X1007023Y265605D01*
X1005605Y267023D01*
X1003753Y267790D01*
X1001748D01*
X999895Y267023D01*
X998477Y265605D01*
X997812Y264000D01*
X982540D01*
Y264002D01*
X981773Y265855D01*
X980355Y267273D01*
X978503Y268040D01*
X976497D01*
X974645Y267273D01*
X973227Y265855D01*
X972460Y264002D01*
Y264000D01*
X938000D01*
X888000Y314000D01*
X878878D01*
X877605Y315273D01*
X875752Y316040D01*
X874000D01*
X873357Y316684D01*
X873081Y317138D01*
X873540Y318248D01*
Y320252D01*
X872773Y322105D01*
X871355Y323523D01*
X869502Y324290D01*
X868354D01*
X867505Y325560D01*
X867790Y326247D01*
Y328252D01*
X867023Y330105D01*
X865605Y331523D01*
X863753Y332290D01*
X862664D01*
X861790Y333498D01*
Y335503D01*
X861023Y337355D01*
X859605Y338773D01*
X857753Y339540D01*
X855748D01*
X853895Y338773D01*
X852477Y337355D01*
X851710Y335503D01*
Y333498D01*
X852477Y331645D01*
X853895Y330227D01*
X855748Y329460D01*
X856835D01*
X857710Y328252D01*
Y326247D01*
X858477Y324395D01*
X859895Y322977D01*
X861748Y322210D01*
X862896D01*
X863745Y320940D01*
X863460Y320252D01*
Y318248D01*
X864227Y316395D01*
X865352Y315270D01*
X864938Y314000D01*
X557000D01*
X539500Y296500D01*
X539500Y268500D01*
X535000Y264000D01*
X421000D01*
X414500Y270500D01*
Y313750D01*
X414250Y314000D01*
X416353Y316103D01*
X417851Y315805D01*
X418227Y314895D01*
X419645Y313477D01*
X421497Y312710D01*
X423503D01*
X425355Y313477D01*
X426773Y314895D01*
X427540Y316747D01*
Y318752D01*
X426773Y320605D01*
X425355Y322023D01*
X424445Y322399D01*
X424147Y323898D01*
X453250Y353000D01*
X809750D01*
X889000Y432250D01*
X1117000D01*
X1164250Y479500D01*
X1344000D01*
X1371710Y451790D01*
D02*
G37*
%LPC*%
G36*
X1449252Y657040D02*
X1447247D01*
X1445395Y656273D01*
X1444455Y655332D01*
X1443889Y654891D01*
X1442799Y655329D01*
X1442105Y656023D01*
X1440253Y656790D01*
X1438248D01*
X1436395Y656023D01*
X1434977Y654605D01*
X1434210Y652753D01*
Y650748D01*
X1434977Y648895D01*
X1436395Y647477D01*
X1438248Y646710D01*
X1440253D01*
X1442105Y647477D01*
X1443045Y648418D01*
X1443611Y648859D01*
X1444701Y648421D01*
X1445395Y647727D01*
X1447247Y646960D01*
X1449252D01*
X1451105Y647727D01*
X1452523Y649145D01*
X1453290Y650997D01*
Y653002D01*
X1452523Y654855D01*
X1451105Y656273D01*
X1449252Y657040D01*
D02*
G37*
G36*
X1427753Y634540D02*
X1425748D01*
X1423895Y633773D01*
X1422477Y632355D01*
X1421710Y630503D01*
Y628498D01*
X1422477Y626645D01*
X1423895Y625227D01*
X1425748Y624460D01*
X1427753D01*
X1429605Y625227D01*
X1431023Y626645D01*
X1431790Y628498D01*
Y630503D01*
X1431023Y632355D01*
X1429605Y633773D01*
X1427753Y634540D01*
D02*
G37*
G36*
X1457753Y628790D02*
X1455748D01*
X1453895Y628023D01*
X1452477Y626605D01*
X1451710Y624753D01*
Y622747D01*
X1452477Y620895D01*
X1453895Y619477D01*
X1455748Y618710D01*
X1457753D01*
X1459605Y619477D01*
X1461023Y620895D01*
X1461790Y622747D01*
Y624753D01*
X1461023Y626605D01*
X1459605Y628023D01*
X1457753Y628790D01*
D02*
G37*
G36*
X1490253Y628290D02*
X1488248D01*
X1486395Y627523D01*
X1484977Y626105D01*
X1484210Y624253D01*
Y622248D01*
X1484977Y620395D01*
X1486395Y618977D01*
X1488248Y618210D01*
X1490253D01*
X1492105Y618977D01*
X1493523Y620395D01*
X1494290Y622248D01*
Y624253D01*
X1493523Y626105D01*
X1492105Y627523D01*
X1490253Y628290D01*
D02*
G37*
G36*
X1444252Y614040D02*
X1442247D01*
X1440395Y613273D01*
X1438977Y611855D01*
X1438210Y610003D01*
Y607998D01*
X1438977Y606145D01*
X1440395Y604727D01*
X1442247Y603960D01*
X1444252D01*
X1446105Y604727D01*
X1447523Y606145D01*
X1448290Y607998D01*
Y610003D01*
X1447523Y611855D01*
X1446105Y613273D01*
X1444252Y614040D01*
D02*
G37*
G36*
X1470502Y613290D02*
X1468497D01*
X1466645Y612523D01*
X1465227Y611105D01*
X1464460Y609253D01*
Y607248D01*
X1465227Y605395D01*
X1466645Y603977D01*
X1468497Y603210D01*
X1470502D01*
X1472355Y603977D01*
X1473773Y605395D01*
X1474540Y607248D01*
Y609253D01*
X1473773Y611105D01*
X1472355Y612523D01*
X1470502Y613290D01*
D02*
G37*
G36*
X1457753Y598290D02*
X1455748D01*
X1453895Y597523D01*
X1452477Y596105D01*
X1451710Y594253D01*
Y592248D01*
X1452477Y590395D01*
X1453895Y588977D01*
X1455748Y588210D01*
X1457753D01*
X1459605Y588977D01*
X1461023Y590395D01*
X1461790Y592248D01*
Y594253D01*
X1461023Y596105D01*
X1459605Y597523D01*
X1457753Y598290D01*
D02*
G37*
G36*
X1490502Y598040D02*
X1488497D01*
X1486645Y597273D01*
X1485227Y595855D01*
X1484460Y594002D01*
Y591997D01*
X1485227Y590145D01*
X1486645Y588727D01*
X1488497Y587960D01*
X1490502D01*
X1492355Y588727D01*
X1493773Y590145D01*
X1494540Y591997D01*
Y594002D01*
X1493773Y595855D01*
X1492355Y597273D01*
X1490502Y598040D01*
D02*
G37*
G36*
X1438253Y568540D02*
X1436248D01*
X1434395Y567773D01*
X1432977Y566355D01*
X1432210Y564502D01*
Y562497D01*
X1432977Y560645D01*
X1434395Y559227D01*
X1436248Y558460D01*
X1438253D01*
X1440105Y559227D01*
X1441523Y560645D01*
X1442290Y562497D01*
Y564502D01*
X1441523Y566355D01*
X1440105Y567773D01*
X1438253Y568540D01*
D02*
G37*
G36*
X1483503Y537790D02*
X1481497D01*
X1479645Y537023D01*
X1478227Y535605D01*
X1477460Y533753D01*
Y531748D01*
X1478227Y529895D01*
X1479645Y528477D01*
X1481497Y527710D01*
X1483503D01*
X1485355Y528477D01*
X1486773Y529895D01*
X1487540Y531748D01*
Y533753D01*
X1486773Y535605D01*
X1485355Y537023D01*
X1483503Y537790D01*
D02*
G37*
G36*
X1472253Y530540D02*
X1470247D01*
X1468395Y529773D01*
X1466977Y528355D01*
X1466210Y526502D01*
Y524497D01*
X1466977Y522645D01*
X1468395Y521227D01*
X1470247Y520460D01*
X1472253D01*
X1474105Y521227D01*
X1475523Y522645D01*
X1476290Y524497D01*
Y526502D01*
X1475523Y528355D01*
X1474105Y529773D01*
X1472253Y530540D01*
D02*
G37*
G36*
X1207253Y525040D02*
X1205247D01*
X1203395Y524273D01*
X1201977Y522855D01*
X1201210Y521003D01*
Y518997D01*
X1201977Y517145D01*
X1203395Y515727D01*
X1205247Y514960D01*
X1207253D01*
X1209105Y515727D01*
X1210523Y517145D01*
X1211290Y518997D01*
Y521003D01*
X1210523Y522855D01*
X1209105Y524273D01*
X1207253Y525040D01*
D02*
G37*
G36*
X1494003Y523040D02*
X1491998D01*
X1490145Y522273D01*
X1488727Y520855D01*
X1487960Y519002D01*
Y516997D01*
X1488727Y515145D01*
X1490145Y513727D01*
X1491998Y512960D01*
X1494003D01*
X1495855Y513727D01*
X1497273Y515145D01*
X1498040Y516997D01*
Y519002D01*
X1497273Y520855D01*
X1495855Y522273D01*
X1494003Y523040D01*
D02*
G37*
G36*
X1149753Y514540D02*
X1147747D01*
X1145895Y513773D01*
X1144477Y512355D01*
X1143710Y510503D01*
Y508498D01*
X1144477Y506645D01*
X1145895Y505227D01*
X1147747Y504460D01*
X1149753D01*
X1151605Y505227D01*
X1153023Y506645D01*
X1153790Y508498D01*
Y510503D01*
X1153023Y512355D01*
X1151605Y513773D01*
X1149753Y514540D01*
D02*
G37*
G36*
X1455002Y511540D02*
X1452997D01*
X1451145Y510773D01*
X1449727Y509355D01*
X1448960Y507503D01*
Y505498D01*
X1449727Y503645D01*
X1451145Y502227D01*
X1452997Y501460D01*
X1455002D01*
X1456855Y502227D01*
X1458273Y503645D01*
X1459040Y505498D01*
Y507503D01*
X1458273Y509355D01*
X1456855Y510773D01*
X1455002Y511540D01*
D02*
G37*
G36*
X1444252Y402790D02*
X1442247D01*
X1440395Y402023D01*
X1438977Y400605D01*
X1438210Y398753D01*
Y396748D01*
X1438977Y394895D01*
X1440395Y393477D01*
X1442247Y392710D01*
X1444252D01*
X1446105Y393477D01*
X1447523Y394895D01*
X1448290Y396748D01*
Y398753D01*
X1447523Y400605D01*
X1446105Y402023D01*
X1444252Y402790D01*
D02*
G37*
G36*
X1454753Y396290D02*
X1452747D01*
X1450895Y395523D01*
X1449477Y394105D01*
X1448710Y392253D01*
Y390247D01*
X1449477Y388395D01*
X1450895Y386977D01*
X1452747Y386210D01*
X1454753D01*
X1456605Y386977D01*
X1458023Y388395D01*
X1458790Y390247D01*
Y392253D01*
X1458023Y394105D01*
X1456605Y395523D01*
X1454753Y396290D01*
D02*
G37*
G36*
X1485502Y395540D02*
X1483497D01*
X1481645Y394773D01*
X1480227Y393355D01*
X1479460Y391502D01*
Y389497D01*
X1480227Y387645D01*
X1481645Y386227D01*
X1483497Y385460D01*
X1485502D01*
X1487355Y386227D01*
X1488773Y387645D01*
X1489540Y389497D01*
Y391502D01*
X1488773Y393355D01*
X1487355Y394773D01*
X1485502Y395540D01*
D02*
G37*
G36*
X1509503Y388540D02*
X1507498D01*
X1505645Y387773D01*
X1504227Y386355D01*
X1503460Y384502D01*
Y382497D01*
X1504227Y380645D01*
X1505645Y379227D01*
X1507498Y378460D01*
X1509503D01*
X1511355Y379227D01*
X1512773Y380645D01*
X1513540Y382497D01*
Y384502D01*
X1512773Y386355D01*
X1511355Y387773D01*
X1509503Y388540D01*
D02*
G37*
G36*
X1494503Y385790D02*
X1492498D01*
X1490645Y385023D01*
X1489227Y383605D01*
X1488460Y381753D01*
Y379748D01*
X1489227Y377895D01*
X1490645Y376477D01*
X1492498Y375710D01*
X1494503D01*
X1496355Y376477D01*
X1497773Y377895D01*
X1498540Y379748D01*
Y381753D01*
X1497773Y383605D01*
X1496355Y385023D01*
X1494503Y385790D01*
D02*
G37*
G36*
X1467253Y378290D02*
X1465247D01*
X1463395Y377523D01*
X1461977Y376105D01*
X1461210Y374253D01*
Y372248D01*
X1461977Y370395D01*
X1463395Y368977D01*
X1465247Y368210D01*
X1467253D01*
X1469105Y368977D01*
X1470523Y370395D01*
X1471290Y372248D01*
Y374253D01*
X1470523Y376105D01*
X1469105Y377523D01*
X1467253Y378290D01*
D02*
G37*
G36*
X1503503Y376290D02*
X1501497D01*
X1499645Y375523D01*
X1498227Y374105D01*
X1497460Y372253D01*
Y370247D01*
X1498227Y368395D01*
X1499645Y366977D01*
X1501497Y366210D01*
X1503503D01*
X1505355Y366977D01*
X1506773Y368395D01*
X1507540Y370247D01*
Y372253D01*
X1506773Y374105D01*
X1505355Y375523D01*
X1503503Y376290D01*
D02*
G37*
G36*
X1484003Y362040D02*
X1481998D01*
X1480145Y361273D01*
X1478727Y359855D01*
X1477960Y358003D01*
Y355998D01*
X1478727Y354145D01*
X1480145Y352727D01*
X1481998Y351960D01*
X1484003D01*
X1485855Y352727D01*
X1487273Y354145D01*
X1488040Y355998D01*
Y358003D01*
X1487273Y359855D01*
X1485855Y361273D01*
X1484003Y362040D01*
D02*
G37*
G36*
X1467502Y361790D02*
X1465497D01*
X1463645Y361023D01*
X1462227Y359605D01*
X1461460Y357752D01*
Y355747D01*
X1462227Y353895D01*
X1463645Y352477D01*
X1465497Y351710D01*
X1467502D01*
X1469355Y352477D01*
X1470773Y353895D01*
X1471540Y355747D01*
Y357752D01*
X1470773Y359605D01*
X1469355Y361023D01*
X1467502Y361790D01*
D02*
G37*
G36*
X1484252Y346540D02*
X1482247D01*
X1480395Y345773D01*
X1478977Y344355D01*
X1478210Y342503D01*
Y340498D01*
X1478977Y338645D01*
X1480395Y337227D01*
X1482247Y336460D01*
X1484252D01*
X1486105Y337227D01*
X1487523Y338645D01*
X1488290Y340498D01*
Y342503D01*
X1487523Y344355D01*
X1486105Y345773D01*
X1484252Y346540D01*
D02*
G37*
G36*
X1444252Y340790D02*
X1442247D01*
X1440395Y340023D01*
X1438977Y338605D01*
X1438210Y336753D01*
Y334748D01*
X1438977Y332895D01*
X1440395Y331477D01*
X1442247Y330710D01*
X1444252D01*
X1446105Y331477D01*
X1447523Y332895D01*
X1448290Y334748D01*
Y336753D01*
X1447523Y338605D01*
X1446105Y340023D01*
X1444252Y340790D01*
D02*
G37*
G36*
Y311040D02*
X1442247D01*
X1440395Y310273D01*
X1438977Y308855D01*
X1438210Y307003D01*
Y304998D01*
X1438977Y303145D01*
X1440395Y301727D01*
X1442247Y300960D01*
X1444252D01*
X1446105Y301727D01*
X1447523Y303145D01*
X1448290Y304998D01*
Y307003D01*
X1447523Y308855D01*
X1446105Y310273D01*
X1444252Y311040D01*
D02*
G37*
G36*
X1524003Y275790D02*
X1521998D01*
X1520145Y275023D01*
X1518727Y273605D01*
X1518708Y273559D01*
X1517329Y273548D01*
X1516105Y274773D01*
X1514252Y275540D01*
X1512247D01*
X1510395Y274773D01*
X1508977Y273355D01*
X1508210Y271502D01*
Y269498D01*
X1508977Y267645D01*
X1510395Y266227D01*
X1512247Y265460D01*
X1514252D01*
X1516105Y266227D01*
X1517523Y267645D01*
X1517542Y267691D01*
X1518921Y267702D01*
X1520145Y266477D01*
X1521998Y265710D01*
X1524003D01*
X1525855Y266477D01*
X1527273Y267895D01*
X1528040Y269748D01*
Y271752D01*
X1527273Y273605D01*
X1525855Y275023D01*
X1524003Y275790D01*
D02*
G37*
G36*
X729502Y281290D02*
X727497D01*
X725645Y280523D01*
X724227Y279105D01*
X723460Y277253D01*
Y275247D01*
X724227Y273395D01*
X725645Y271977D01*
X727497Y271210D01*
X729502D01*
X731355Y271977D01*
X732773Y273395D01*
X733540Y275247D01*
Y277253D01*
X732773Y279105D01*
X731355Y280523D01*
X729502Y281290D01*
D02*
G37*
G36*
X1544753Y276040D02*
X1542747D01*
X1540895Y275273D01*
X1539477Y273855D01*
X1538710Y272003D01*
Y269998D01*
X1539477Y268145D01*
X1540895Y266727D01*
X1542747Y265960D01*
X1544753D01*
X1546605Y266727D01*
X1548023Y268145D01*
X1548790Y269998D01*
Y272003D01*
X1548023Y273855D01*
X1546605Y275273D01*
X1544753Y276040D01*
D02*
G37*
G36*
X800253Y281290D02*
X798248D01*
X796395Y280523D01*
X794977Y279105D01*
X794210Y277253D01*
Y275247D01*
X794977Y273395D01*
X796395Y271977D01*
X798248Y271210D01*
X800253D01*
X800301Y271230D01*
X801273Y270258D01*
X800960Y269503D01*
Y267498D01*
X801727Y265645D01*
X803145Y264227D01*
X804997Y263460D01*
X807002D01*
X808855Y264227D01*
X810273Y265645D01*
X811040Y267498D01*
Y269503D01*
X810273Y271355D01*
X808855Y272773D01*
X807002Y273540D01*
X804997D01*
X804949Y273520D01*
X803977Y274492D01*
X804290Y275247D01*
Y277253D01*
X803523Y279105D01*
X802105Y280523D01*
X800253Y281290D01*
D02*
G37*
G36*
X748503Y272540D02*
X746497D01*
X744645Y271773D01*
X743227Y270355D01*
X742460Y268503D01*
Y266497D01*
X743227Y264645D01*
X744645Y263227D01*
X746497Y262460D01*
X748503D01*
X750355Y263227D01*
X751773Y264645D01*
X752540Y266497D01*
Y268503D01*
X751773Y270355D01*
X750355Y271773D01*
X748503Y272540D01*
D02*
G37*
G36*
X1464503Y272290D02*
X1462498D01*
X1460645Y271523D01*
X1459227Y270105D01*
X1458460Y268253D01*
Y266248D01*
X1459227Y264395D01*
X1460645Y262977D01*
X1462498Y262210D01*
X1464503D01*
X1466355Y262977D01*
X1467773Y264395D01*
X1468540Y266248D01*
Y268253D01*
X1467773Y270105D01*
X1466355Y271523D01*
X1464503Y272290D01*
D02*
G37*
G36*
X834003Y258790D02*
X831998D01*
X830145Y258023D01*
X828727Y256605D01*
X827960Y254753D01*
Y252747D01*
X828727Y250895D01*
X830145Y249477D01*
X831998Y248710D01*
X834003D01*
X835855Y249477D01*
X837273Y250895D01*
X838040Y252747D01*
Y254753D01*
X837273Y256605D01*
X835855Y258023D01*
X834003Y258790D01*
D02*
G37*
G36*
X751003Y237540D02*
X748997D01*
X747145Y236773D01*
X746455Y236082D01*
X745625Y235435D01*
X744795Y236082D01*
X744105Y236773D01*
X742253Y237540D01*
X740247D01*
X738395Y236773D01*
X736977Y235355D01*
X736210Y233503D01*
Y231497D01*
X736977Y229645D01*
X738395Y228227D01*
X740247Y227460D01*
X742253D01*
X744105Y228227D01*
X744795Y228918D01*
X745625Y229565D01*
X746455Y228918D01*
X747145Y228227D01*
X748997Y227460D01*
X751003D01*
X752855Y228227D01*
X754273Y229645D01*
X755040Y231497D01*
Y233503D01*
X754273Y235355D01*
X752855Y236773D01*
X751003Y237540D01*
D02*
G37*
G36*
X850003Y243040D02*
X847998D01*
X846145Y242273D01*
X844727Y240855D01*
X843960Y239002D01*
Y236998D01*
X844727Y235145D01*
X846145Y233727D01*
X847998Y232960D01*
X850003D01*
X851855Y233727D01*
X853273Y235145D01*
X854040Y236998D01*
Y239002D01*
X853273Y240855D01*
X851855Y242273D01*
X850003Y243040D01*
D02*
G37*
G36*
X711253Y232040D02*
X709248D01*
X707395Y231273D01*
X705977Y229855D01*
X705760Y229332D01*
X704386D01*
X704273Y229605D01*
X702855Y231023D01*
X701003Y231790D01*
X698997D01*
X697145Y231023D01*
X695727Y229605D01*
X694960Y227752D01*
Y225748D01*
X695727Y223895D01*
X694793Y223085D01*
X694605Y223273D01*
X692753Y224040D01*
X690748D01*
X688895Y223273D01*
X687477Y221855D01*
X686710Y220002D01*
Y217997D01*
X687477Y216145D01*
X688895Y214727D01*
X690748Y213960D01*
X692753D01*
X694605Y214727D01*
X696023Y216145D01*
X696790Y217997D01*
Y220002D01*
X696023Y221855D01*
X696957Y222665D01*
X697145Y222477D01*
X698997Y221710D01*
X701003D01*
X702855Y222477D01*
X704273Y223895D01*
X704489Y224418D01*
X705864D01*
X705977Y224145D01*
X707395Y222727D01*
X709248Y221960D01*
X711253D01*
X713105Y222727D01*
X714523Y224145D01*
X715290Y225998D01*
Y228002D01*
X714523Y229855D01*
X713105Y231273D01*
X711253Y232040D01*
D02*
G37*
G36*
X565752Y236040D02*
X563747D01*
X561895Y235273D01*
X560477Y233855D01*
X559710Y232003D01*
Y229998D01*
X560477Y228145D01*
X561895Y226727D01*
X563747Y225960D01*
X565752D01*
X567605Y226727D01*
X569023Y228145D01*
X569790Y229998D01*
Y232003D01*
X569023Y233855D01*
X567605Y235273D01*
X565752Y236040D01*
D02*
G37*
G36*
X1468002Y233040D02*
X1465997D01*
X1464145Y232273D01*
X1462727Y230855D01*
X1461960Y229002D01*
Y226998D01*
X1462727Y225145D01*
X1464145Y223727D01*
X1465997Y222960D01*
X1468002D01*
X1469855Y223727D01*
X1471273Y225145D01*
X1472040Y226998D01*
Y229002D01*
X1471273Y230855D01*
X1469855Y232273D01*
X1468002Y233040D01*
D02*
G37*
G36*
X731752Y232790D02*
X729747D01*
X727895Y232023D01*
X726477Y230605D01*
X725710Y228752D01*
Y226747D01*
X726477Y224895D01*
X727895Y223477D01*
X729747Y222710D01*
X731752D01*
X733605Y223477D01*
X735023Y224895D01*
X735790Y226747D01*
Y228752D01*
X735023Y230605D01*
X733605Y232023D01*
X731752Y232790D01*
D02*
G37*
G36*
X975253Y226040D02*
X973248D01*
X971395Y225273D01*
X969977Y223855D01*
X969210Y222003D01*
Y219998D01*
X969977Y218145D01*
X971395Y216727D01*
X973248Y215960D01*
X975253D01*
X977105Y216727D01*
X978523Y218145D01*
X979290Y219998D01*
Y222003D01*
X978523Y223855D01*
X977105Y225273D01*
X975253Y226040D01*
D02*
G37*
G36*
X712002Y216540D02*
X709997D01*
X708145Y215773D01*
X706727Y214355D01*
X705960Y212502D01*
Y212329D01*
X704904Y211624D01*
X704502Y211790D01*
X702497D01*
X700645Y211023D01*
X699227Y209605D01*
X698460Y207752D01*
Y205748D01*
X699227Y203895D01*
X700645Y202477D01*
X702497Y201710D01*
X704502D01*
X706355Y202477D01*
X707773Y203895D01*
X708519Y205698D01*
X708696Y206025D01*
X709596Y206626D01*
X709997Y206460D01*
X712002D01*
X713855Y207227D01*
X715273Y208645D01*
X715584Y209397D01*
X716959D01*
X717477Y208145D01*
X718895Y206727D01*
X720748Y205960D01*
X722753D01*
X724605Y206727D01*
X726023Y208145D01*
X726334Y208897D01*
X727709D01*
X728227Y207645D01*
X729645Y206227D01*
X731497Y205460D01*
X733503D01*
X734690Y205952D01*
X735960Y205173D01*
Y203997D01*
X736727Y202145D01*
X738145Y200727D01*
X739997Y199960D01*
X742002D01*
X743855Y200727D01*
X745273Y202145D01*
X746040Y203997D01*
Y205000D01*
X747310Y205848D01*
X748248Y205460D01*
X750253D01*
X752105Y206227D01*
X753523Y207645D01*
X754290Y209498D01*
Y211502D01*
X753523Y213355D01*
X752105Y214773D01*
X750253Y215540D01*
X748248D01*
X746395Y214773D01*
X744977Y213355D01*
X744210Y211502D01*
Y210500D01*
X742940Y209652D01*
X742002Y210040D01*
X739997D01*
X738810Y209548D01*
X737540Y210327D01*
Y211502D01*
X736773Y213355D01*
X735355Y214773D01*
X733503Y215540D01*
X731497D01*
X729645Y214773D01*
X728227Y213355D01*
X727916Y212603D01*
X726541D01*
X726023Y213855D01*
X724605Y215273D01*
X722753Y216040D01*
X720748D01*
X718895Y215273D01*
X717477Y213855D01*
X717166Y213103D01*
X715791D01*
X715273Y214355D01*
X713855Y215773D01*
X712002Y216540D01*
D02*
G37*
G36*
X1468752Y219040D02*
X1466747D01*
X1464895Y218273D01*
X1463477Y216855D01*
X1462710Y215002D01*
Y212997D01*
X1463477Y211145D01*
X1464895Y209727D01*
X1466747Y208960D01*
X1468752D01*
X1470605Y209727D01*
X1472023Y211145D01*
X1472790Y212997D01*
Y215002D01*
X1472023Y216855D01*
X1470605Y218273D01*
X1468752Y219040D01*
D02*
G37*
G36*
X940253Y218040D02*
X938248D01*
X936395Y217273D01*
X934977Y215855D01*
X934210Y214002D01*
Y211998D01*
X934977Y210145D01*
X936395Y208727D01*
X938248Y207960D01*
X940253D01*
X942105Y208727D01*
X943523Y210145D01*
X944290Y211998D01*
Y214002D01*
X943523Y215855D01*
X942105Y217273D01*
X940253Y218040D01*
D02*
G37*
G36*
X928503Y217790D02*
X926497D01*
X924645Y217023D01*
X923227Y215605D01*
X922460Y213752D01*
Y211747D01*
X923227Y209895D01*
X924645Y208477D01*
X926497Y207710D01*
X928503D01*
X930355Y208477D01*
X931773Y209895D01*
X932540Y211747D01*
Y213752D01*
X931773Y215605D01*
X930355Y217023D01*
X928503Y217790D01*
D02*
G37*
G36*
X684502Y216040D02*
X682497D01*
X680645Y215273D01*
X679227Y213855D01*
X678460Y212003D01*
Y209998D01*
X679227Y208145D01*
X680645Y206727D01*
X682497Y205960D01*
X684502D01*
X686355Y206727D01*
X687773Y208145D01*
X688540Y209998D01*
Y212003D01*
X687773Y213855D01*
X686355Y215273D01*
X684502Y216040D01*
D02*
G37*
G36*
X675253Y206540D02*
X673248D01*
X671395Y205773D01*
X669977Y204355D01*
X669210Y202502D01*
Y200497D01*
X669977Y198645D01*
X671395Y197227D01*
X673248Y196460D01*
X675253D01*
X677105Y197227D01*
X678523Y198645D01*
X679290Y200497D01*
Y202502D01*
X678523Y204355D01*
X677105Y205773D01*
X675253Y206540D01*
D02*
G37*
G36*
X696253Y203540D02*
X694248D01*
X692395Y202773D01*
X690977Y201355D01*
X690210Y199503D01*
Y197498D01*
X690977Y195645D01*
X692395Y194227D01*
X694248Y193460D01*
X696253D01*
X698105Y194227D01*
X699523Y195645D01*
X700290Y197498D01*
Y199503D01*
X699523Y201355D01*
X698105Y202773D01*
X696253Y203540D01*
D02*
G37*
G36*
X1468752Y203040D02*
X1466747D01*
X1464895Y202273D01*
X1463477Y200855D01*
X1462710Y199002D01*
Y196998D01*
X1463477Y195145D01*
X1464895Y193727D01*
X1466747Y192960D01*
X1468752D01*
X1470605Y193727D01*
X1472023Y195145D01*
X1472790Y196998D01*
Y199002D01*
X1472023Y200855D01*
X1470605Y202273D01*
X1468752Y203040D01*
D02*
G37*
G36*
X1003002Y201790D02*
X1000997D01*
X999145Y201023D01*
X997727Y199605D01*
X996960Y197752D01*
Y195748D01*
X997727Y193895D01*
X999145Y192477D01*
X1000997Y191710D01*
X1003002D01*
X1004855Y192477D01*
X1006273Y193895D01*
X1007040Y195748D01*
Y197752D01*
X1006273Y199605D01*
X1004855Y201023D01*
X1003002Y201790D01*
D02*
G37*
G36*
X567752D02*
X565747D01*
X563895Y201023D01*
X562477Y199605D01*
X561710Y197752D01*
Y195748D01*
X562477Y193895D01*
X563895Y192477D01*
X565747Y191710D01*
X567752D01*
X569605Y192477D01*
X571023Y193895D01*
X571790Y195748D01*
Y197752D01*
X571023Y199605D01*
X569605Y201023D01*
X567752Y201790D01*
D02*
G37*
G36*
X665752Y197540D02*
X663747D01*
X661895Y196773D01*
X660477Y195355D01*
X659710Y193503D01*
Y191497D01*
X660477Y189645D01*
X661895Y188227D01*
X663747Y187460D01*
X665752D01*
X667605Y188227D01*
X669023Y189645D01*
X669790Y191497D01*
Y193503D01*
X669023Y195355D01*
X667605Y196773D01*
X665752Y197540D01*
D02*
G37*
G36*
X1101752Y195040D02*
X1099747D01*
X1097895Y194273D01*
X1096477Y192855D01*
X1095710Y191003D01*
Y188997D01*
X1096477Y187145D01*
X1097895Y185727D01*
X1099747Y184960D01*
X1101752D01*
X1103605Y185727D01*
X1105023Y187145D01*
X1105790Y188997D01*
Y191003D01*
X1105023Y192855D01*
X1103605Y194273D01*
X1101752Y195040D01*
D02*
G37*
G36*
X686752Y194290D02*
X684747D01*
X682895Y193523D01*
X681477Y192105D01*
X680710Y190252D01*
Y188248D01*
X681477Y186395D01*
X682895Y184977D01*
X684747Y184210D01*
X686752D01*
X688605Y184977D01*
X690023Y186395D01*
X690790Y188248D01*
Y190252D01*
X690023Y192105D01*
X688605Y193523D01*
X686752Y194290D01*
D02*
G37*
G36*
X653753Y193790D02*
X651748D01*
X649895Y193023D01*
X648477Y191605D01*
X647710Y189753D01*
Y187747D01*
X648477Y185895D01*
X649895Y184477D01*
X651748Y183710D01*
X653753D01*
X655605Y184477D01*
X657023Y185895D01*
X657790Y187747D01*
Y189753D01*
X657023Y191605D01*
X655605Y193023D01*
X653753Y193790D01*
D02*
G37*
G36*
X642253D02*
X640247D01*
X638395Y193023D01*
X636977Y191605D01*
X636210Y189753D01*
Y187747D01*
X636977Y185895D01*
X638395Y184477D01*
X640247Y183710D01*
X642253D01*
X644105Y184477D01*
X645523Y185895D01*
X646290Y187747D01*
Y189753D01*
X645523Y191605D01*
X644105Y193023D01*
X642253Y193790D01*
D02*
G37*
G36*
X630752D02*
X628747D01*
X626895Y193023D01*
X625477Y191605D01*
X624710Y189753D01*
Y187747D01*
X625477Y185895D01*
X626895Y184477D01*
X628747Y183710D01*
X630752D01*
X632605Y184477D01*
X634023Y185895D01*
X634790Y187747D01*
Y189753D01*
X634023Y191605D01*
X632605Y193023D01*
X630752Y193790D01*
D02*
G37*
G36*
X618753Y193540D02*
X616748D01*
X614895Y192773D01*
X613477Y191355D01*
X612710Y189503D01*
Y187498D01*
X613477Y185645D01*
X614895Y184227D01*
X616748Y183460D01*
X618753D01*
X620605Y184227D01*
X622023Y185645D01*
X622790Y187498D01*
Y189503D01*
X622023Y191355D01*
X620605Y192773D01*
X618753Y193540D01*
D02*
G37*
G36*
X605752D02*
X603747D01*
X601895Y192773D01*
X600477Y191355D01*
X599710Y189503D01*
Y187498D01*
X600477Y185645D01*
X601895Y184227D01*
X603747Y183460D01*
X605752D01*
X607605Y184227D01*
X609023Y185645D01*
X609790Y187498D01*
Y189503D01*
X609023Y191355D01*
X607605Y192773D01*
X605752Y193540D01*
D02*
G37*
G36*
X593003D02*
X590998D01*
X589145Y192773D01*
X587727Y191355D01*
X586960Y189503D01*
Y187498D01*
X587727Y185645D01*
X589145Y184227D01*
X590998Y183460D01*
X593003D01*
X594855Y184227D01*
X596273Y185645D01*
X597040Y187498D01*
Y189503D01*
X596273Y191355D01*
X594855Y192773D01*
X593003Y193540D01*
D02*
G37*
G36*
X580003D02*
X577998D01*
X576145Y192773D01*
X574727Y191355D01*
X573960Y189503D01*
Y187498D01*
X574727Y185645D01*
X576145Y184227D01*
X577998Y183460D01*
X580003D01*
X581855Y184227D01*
X583273Y185645D01*
X584040Y187498D01*
Y189503D01*
X583273Y191355D01*
X581855Y192773D01*
X580003Y193540D01*
D02*
G37*
G36*
X993252Y192540D02*
X991247D01*
X989395Y191773D01*
X987977Y190355D01*
X987210Y188503D01*
Y186497D01*
X987977Y184645D01*
X989395Y183227D01*
X991247Y182460D01*
X993252D01*
X995105Y183227D01*
X996523Y184645D01*
X997290Y186497D01*
Y188503D01*
X996523Y190355D01*
X995105Y191773D01*
X993252Y192540D01*
D02*
G37*
G36*
X560252Y187040D02*
X558247D01*
X556395Y186273D01*
X554977Y184855D01*
X554210Y183002D01*
Y180998D01*
X554977Y179145D01*
X556395Y177727D01*
X558247Y176960D01*
X560252D01*
X562105Y177727D01*
X563523Y179145D01*
X564290Y180998D01*
Y183002D01*
X563523Y184855D01*
X562105Y186273D01*
X560252Y187040D01*
D02*
G37*
G36*
X1094003Y186540D02*
X1091998D01*
X1090145Y185773D01*
X1088727Y184355D01*
X1087960Y182502D01*
Y180497D01*
X1088727Y178645D01*
X1090145Y177227D01*
X1091998Y176460D01*
X1094003D01*
X1095855Y177227D01*
X1097273Y178645D01*
X1098040Y180497D01*
Y182502D01*
X1097273Y184355D01*
X1095855Y185773D01*
X1094003Y186540D01*
D02*
G37*
G36*
X678002Y185290D02*
X675997D01*
X674145Y184523D01*
X672727Y183105D01*
X671960Y181252D01*
Y179247D01*
X672727Y177395D01*
X674145Y175977D01*
X675997Y175210D01*
X678002D01*
X679855Y175977D01*
X681273Y177395D01*
X682040Y179247D01*
Y181252D01*
X681273Y183105D01*
X679855Y184523D01*
X678002Y185290D01*
D02*
G37*
G36*
X903503Y179540D02*
X901497D01*
X899645Y178773D01*
X898227Y177355D01*
X897460Y175502D01*
Y173498D01*
X898227Y171645D01*
X899645Y170227D01*
X901497Y169460D01*
X903503D01*
X905355Y170227D01*
X906773Y171645D01*
X907540Y173498D01*
Y175502D01*
X906773Y177355D01*
X905355Y178773D01*
X903503Y179540D01*
D02*
G37*
G36*
X593003Y177790D02*
X590998D01*
X589145Y177023D01*
X587727Y175605D01*
X586960Y173752D01*
Y171747D01*
X587727Y169895D01*
X589145Y168477D01*
X590998Y167710D01*
X593003D01*
X594855Y168477D01*
X596273Y169895D01*
X597040Y171747D01*
Y173752D01*
X596273Y175605D01*
X594855Y177023D01*
X593003Y177790D01*
D02*
G37*
G36*
X580003D02*
X577998D01*
X576145Y177023D01*
X574727Y175605D01*
X573960Y173752D01*
Y171747D01*
X574727Y169895D01*
X576145Y168477D01*
X577998Y167710D01*
X580003D01*
X581855Y168477D01*
X583273Y169895D01*
X584040Y171747D01*
Y173752D01*
X583273Y175605D01*
X581855Y177023D01*
X580003Y177790D01*
D02*
G37*
G36*
X654003Y177540D02*
X651998D01*
X650145Y176773D01*
X648727Y175355D01*
X647960Y173503D01*
Y171497D01*
X648727Y169645D01*
X650145Y168227D01*
X651998Y167460D01*
X654003D01*
X655855Y168227D01*
X657273Y169645D01*
X658040Y171497D01*
Y173503D01*
X657273Y175355D01*
X655855Y176773D01*
X654003Y177540D01*
D02*
G37*
G36*
X642503D02*
X640498D01*
X638645Y176773D01*
X637227Y175355D01*
X636460Y173503D01*
Y171497D01*
X637227Y169645D01*
X638645Y168227D01*
X640498Y167460D01*
X642503D01*
X644355Y168227D01*
X645773Y169645D01*
X646540Y171497D01*
Y173503D01*
X645773Y175355D01*
X644355Y176773D01*
X642503Y177540D01*
D02*
G37*
G36*
X631003D02*
X628997D01*
X627145Y176773D01*
X625727Y175355D01*
X624960Y173503D01*
Y171497D01*
X625727Y169645D01*
X627145Y168227D01*
X628997Y167460D01*
X631003D01*
X632855Y168227D01*
X634273Y169645D01*
X635040Y171497D01*
Y173503D01*
X634273Y175355D01*
X632855Y176773D01*
X631003Y177540D01*
D02*
G37*
G36*
X618753D02*
X616748D01*
X614895Y176773D01*
X613477Y175355D01*
X612710Y173503D01*
Y171497D01*
X613477Y169645D01*
X614895Y168227D01*
X616748Y167460D01*
X618753D01*
X620605Y168227D01*
X622023Y169645D01*
X622790Y171497D01*
Y173503D01*
X622023Y175355D01*
X620605Y176773D01*
X618753Y177540D01*
D02*
G37*
G36*
X605752D02*
X603747D01*
X601895Y176773D01*
X600477Y175355D01*
X599710Y173503D01*
Y171497D01*
X600477Y169645D01*
X601895Y168227D01*
X603747Y167460D01*
X605752D01*
X607605Y168227D01*
X609023Y169645D01*
X609790Y171497D01*
Y173503D01*
X609023Y175355D01*
X607605Y176773D01*
X605752Y177540D01*
D02*
G37*
G36*
X666003Y177040D02*
X663997D01*
X662145Y176273D01*
X660727Y174855D01*
X659960Y173002D01*
Y170998D01*
X660727Y169145D01*
X662145Y167727D01*
X663997Y166960D01*
X666003D01*
X667855Y167727D01*
X669273Y169145D01*
X670040Y170998D01*
Y173002D01*
X669273Y174855D01*
X667855Y176273D01*
X666003Y177040D01*
D02*
G37*
G36*
X804502Y175790D02*
X802497D01*
X800645Y175023D01*
X799227Y173605D01*
X798460Y171752D01*
Y169748D01*
X799227Y167895D01*
X800645Y166477D01*
X802497Y165710D01*
X804502D01*
X806355Y166477D01*
X807773Y167895D01*
X808540Y169748D01*
Y171752D01*
X807773Y173605D01*
X806355Y175023D01*
X804502Y175790D01*
D02*
G37*
G36*
X888183Y161360D02*
X886178D01*
X884325Y160593D01*
X882907Y159175D01*
X882140Y157323D01*
Y155317D01*
X882907Y153465D01*
X884325Y152047D01*
X886178Y151280D01*
X888183D01*
X890035Y152047D01*
X891453Y153465D01*
X892220Y155317D01*
Y157323D01*
X891453Y159175D01*
X890035Y160593D01*
X888183Y161360D01*
D02*
G37*
G36*
X775752Y160290D02*
X773747D01*
X771895Y159523D01*
X770477Y158105D01*
X769710Y156252D01*
Y154248D01*
X770477Y152395D01*
X771895Y150977D01*
X773747Y150210D01*
X775752D01*
X777605Y150977D01*
X779023Y152395D01*
X779790Y154248D01*
Y156252D01*
X779023Y158105D01*
X777605Y159523D01*
X775752Y160290D01*
D02*
G37*
G36*
X756752Y156790D02*
X754747D01*
X752895Y156023D01*
X751477Y154605D01*
X750710Y152753D01*
Y150747D01*
X751477Y148895D01*
X752895Y147477D01*
X754747Y146710D01*
X756752D01*
X758605Y147477D01*
X760023Y148895D01*
X760790Y150747D01*
Y152753D01*
X760023Y154605D01*
X758605Y156023D01*
X756752Y156790D01*
D02*
G37*
G36*
X636003Y151790D02*
X633997D01*
X632145Y151023D01*
X630727Y149605D01*
X629960Y147753D01*
Y145747D01*
X630727Y143895D01*
X632145Y142477D01*
X633997Y141710D01*
X636003D01*
X637855Y142477D01*
X639273Y143895D01*
X640040Y145747D01*
Y147753D01*
X639273Y149605D01*
X637855Y151023D01*
X636003Y151790D01*
D02*
G37*
G36*
X1198252Y150290D02*
X1196247D01*
X1194395Y149523D01*
X1192977Y148105D01*
X1192210Y146252D01*
Y144248D01*
X1192977Y142395D01*
X1194395Y140977D01*
X1196247Y140210D01*
X1198252D01*
X1200105Y140977D01*
X1201523Y142395D01*
X1202290Y144248D01*
Y146252D01*
X1201523Y148105D01*
X1200105Y149523D01*
X1198252Y150290D01*
D02*
G37*
G36*
X1151253D02*
X1149248D01*
X1147395Y149523D01*
X1145977Y148105D01*
X1145210Y146252D01*
Y144248D01*
X1145977Y142395D01*
X1147395Y140977D01*
X1149248Y140210D01*
X1151253D01*
X1153105Y140977D01*
X1154523Y142395D01*
X1155290Y144248D01*
Y146252D01*
X1154523Y148105D01*
X1153105Y149523D01*
X1151253Y150290D01*
D02*
G37*
G36*
X1093252Y149540D02*
X1091247D01*
X1089395Y148773D01*
X1087977Y147355D01*
X1087210Y145503D01*
Y143497D01*
X1087977Y141645D01*
X1089395Y140227D01*
X1091247Y139460D01*
X1093252D01*
X1095105Y140227D01*
X1096523Y141645D01*
X1097290Y143497D01*
Y145503D01*
X1096523Y147355D01*
X1095105Y148773D01*
X1093252Y149540D01*
D02*
G37*
G36*
X1366738Y154540D02*
X1363962D01*
X1361282Y153822D01*
X1358878Y152434D01*
X1356916Y150472D01*
X1355528Y148068D01*
X1354810Y145388D01*
Y142612D01*
X1355528Y139932D01*
X1356916Y137528D01*
X1358878Y135566D01*
X1361282Y134178D01*
X1363962Y133460D01*
X1366738D01*
X1369418Y134178D01*
X1371822Y135566D01*
X1373784Y137528D01*
X1375172Y139932D01*
X1375890Y142612D01*
Y145388D01*
X1375172Y148068D01*
X1373784Y150472D01*
X1371822Y152434D01*
X1369418Y153822D01*
X1366738Y154540D01*
D02*
G37*
G36*
X1341338D02*
X1338562D01*
X1335882Y153822D01*
X1333478Y152434D01*
X1331516Y150472D01*
X1330128Y148068D01*
X1329410Y145388D01*
Y142612D01*
X1330128Y139932D01*
X1331516Y137528D01*
X1333478Y135566D01*
X1335882Y134178D01*
X1338562Y133460D01*
X1341338D01*
X1344018Y134178D01*
X1346422Y135566D01*
X1348384Y137528D01*
X1349772Y139932D01*
X1350490Y142612D01*
Y145388D01*
X1349772Y148068D01*
X1348384Y150472D01*
X1346422Y152434D01*
X1344018Y153822D01*
X1341338Y154540D01*
D02*
G37*
G36*
X1315938D02*
X1313162D01*
X1310482Y153822D01*
X1308078Y152434D01*
X1306116Y150472D01*
X1304728Y148068D01*
X1304010Y145388D01*
Y142612D01*
X1304728Y139932D01*
X1306116Y137528D01*
X1308078Y135566D01*
X1310482Y134178D01*
X1313162Y133460D01*
X1315938D01*
X1318618Y134178D01*
X1321022Y135566D01*
X1322984Y137528D01*
X1324372Y139932D01*
X1325090Y142612D01*
Y145388D01*
X1324372Y148068D01*
X1322984Y150472D01*
X1321022Y152434D01*
X1318618Y153822D01*
X1315938Y154540D01*
D02*
G37*
G36*
X1290538D02*
X1287762D01*
X1285082Y153822D01*
X1282678Y152434D01*
X1280716Y150472D01*
X1279328Y148068D01*
X1278610Y145388D01*
Y142612D01*
X1279328Y139932D01*
X1280716Y137528D01*
X1282678Y135566D01*
X1285082Y134178D01*
X1287762Y133460D01*
X1290538D01*
X1293218Y134178D01*
X1295622Y135566D01*
X1297584Y137528D01*
X1298972Y139932D01*
X1299690Y142612D01*
Y145388D01*
X1298972Y148068D01*
X1297584Y150472D01*
X1295622Y152434D01*
X1293218Y153822D01*
X1290538Y154540D01*
D02*
G37*
G36*
X1265138D02*
X1262362D01*
X1259682Y153822D01*
X1257278Y152434D01*
X1255316Y150472D01*
X1253928Y148068D01*
X1253210Y145388D01*
Y142612D01*
X1253928Y139932D01*
X1255316Y137528D01*
X1257278Y135566D01*
X1259682Y134178D01*
X1262362Y133460D01*
X1265138D01*
X1267818Y134178D01*
X1270222Y135566D01*
X1272184Y137528D01*
X1273572Y139932D01*
X1274290Y142612D01*
Y145388D01*
X1273572Y148068D01*
X1272184Y150472D01*
X1270222Y152434D01*
X1267818Y153822D01*
X1265138Y154540D01*
D02*
G37*
G36*
X1394750Y154596D02*
X1386750D01*
X1385043Y154372D01*
X1383452Y153713D01*
X1382086Y152664D01*
X1381037Y151298D01*
X1380378Y149707D01*
X1380154Y148000D01*
Y140000D01*
X1380378Y138293D01*
X1381037Y136702D01*
X1382086Y135336D01*
X1383452Y134287D01*
X1385043Y133628D01*
X1386750Y133404D01*
X1394750D01*
X1396457Y133628D01*
X1398048Y134287D01*
X1399414Y135336D01*
X1400463Y136702D01*
X1401122Y138293D01*
X1401346Y140000D01*
Y148000D01*
X1401122Y149707D01*
X1400463Y151298D01*
X1399414Y152664D01*
X1398048Y153713D01*
X1396457Y154372D01*
X1394750Y154596D01*
D02*
G37*
G36*
X786788Y140540D02*
X786670D01*
Y131270D01*
X795940D01*
Y131388D01*
X795222Y134068D01*
X793834Y136472D01*
X791872Y138434D01*
X789468Y139822D01*
X786788Y140540D01*
D02*
G37*
G36*
X784130D02*
X784012D01*
X781332Y139822D01*
X778928Y138434D01*
X776966Y136472D01*
X775578Y134068D01*
X774860Y131388D01*
Y131270D01*
X784130D01*
Y140540D01*
D02*
G37*
G36*
X659502Y135790D02*
X657497D01*
X655645Y135023D01*
X654227Y133605D01*
X653460Y131753D01*
Y129747D01*
X654227Y127895D01*
X655645Y126477D01*
X657497Y125710D01*
X659502D01*
X661355Y126477D01*
X662773Y127895D01*
X663540Y129747D01*
Y131753D01*
X662773Y133605D01*
X661355Y135023D01*
X659502Y135790D01*
D02*
G37*
G36*
X611253Y135540D02*
X609248D01*
X607395Y134773D01*
X605977Y133355D01*
X605210Y131503D01*
Y129497D01*
X605977Y127645D01*
X607395Y126227D01*
X609248Y125460D01*
X611253D01*
X613105Y126227D01*
X614523Y127645D01*
X615290Y129497D01*
Y131503D01*
X614523Y133355D01*
X613105Y134773D01*
X611253Y135540D01*
D02*
G37*
G36*
X1174753Y135290D02*
X1172747D01*
X1170895Y134523D01*
X1169477Y133105D01*
X1168710Y131252D01*
Y129248D01*
X1169477Y127395D01*
X1170895Y125977D01*
X1172747Y125210D01*
X1174753D01*
X1176605Y125977D01*
X1178023Y127395D01*
X1178790Y129248D01*
Y131252D01*
X1178023Y133105D01*
X1176605Y134523D01*
X1174753Y135290D01*
D02*
G37*
G36*
X862988Y140540D02*
X860212D01*
X857532Y139822D01*
X855128Y138434D01*
X853166Y136472D01*
X851778Y134068D01*
X851060Y131388D01*
Y128612D01*
X851778Y125932D01*
X853166Y123528D01*
X855128Y121566D01*
X857532Y120178D01*
X860212Y119460D01*
X862988D01*
X865668Y120178D01*
X868072Y121566D01*
X870034Y123528D01*
X871422Y125932D01*
X872140Y128612D01*
Y131388D01*
X871422Y134068D01*
X870034Y136472D01*
X868072Y138434D01*
X865668Y139822D01*
X862988Y140540D01*
D02*
G37*
G36*
X837588D02*
X834812D01*
X832132Y139822D01*
X829728Y138434D01*
X827766Y136472D01*
X826378Y134068D01*
X825660Y131388D01*
Y128612D01*
X826378Y125932D01*
X827766Y123528D01*
X829728Y121566D01*
X832132Y120178D01*
X834812Y119460D01*
X837588D01*
X840268Y120178D01*
X842672Y121566D01*
X844634Y123528D01*
X846022Y125932D01*
X846740Y128612D01*
Y131388D01*
X846022Y134068D01*
X844634Y136472D01*
X842672Y138434D01*
X840268Y139822D01*
X837588Y140540D01*
D02*
G37*
G36*
X812188D02*
X809412D01*
X806732Y139822D01*
X804328Y138434D01*
X802366Y136472D01*
X800978Y134068D01*
X800260Y131388D01*
Y128612D01*
X800978Y125932D01*
X802366Y123528D01*
X804328Y121566D01*
X806732Y120178D01*
X809412Y119460D01*
X812188D01*
X814868Y120178D01*
X817272Y121566D01*
X819234Y123528D01*
X820622Y125932D01*
X821340Y128612D01*
Y131388D01*
X820622Y134068D01*
X819234Y136472D01*
X817272Y138434D01*
X814868Y139822D01*
X812188Y140540D01*
D02*
G37*
G36*
X795940Y128730D02*
X786670D01*
Y119460D01*
X786788D01*
X789468Y120178D01*
X791872Y121566D01*
X793834Y123528D01*
X795222Y125932D01*
X795940Y128612D01*
Y128730D01*
D02*
G37*
G36*
X784130D02*
X774860D01*
Y128612D01*
X775578Y125932D01*
X776966Y123528D01*
X778928Y121566D01*
X781332Y120178D01*
X784012Y119460D01*
X784130D01*
Y128730D01*
D02*
G37*
G36*
X761388Y140540D02*
X758612D01*
X755932Y139822D01*
X753528Y138434D01*
X751566Y136472D01*
X750178Y134068D01*
X749460Y131388D01*
Y128612D01*
X750178Y125932D01*
X751566Y123528D01*
X753528Y121566D01*
X755932Y120178D01*
X758612Y119460D01*
X761388D01*
X764068Y120178D01*
X766472Y121566D01*
X768434Y123528D01*
X769822Y125932D01*
X770540Y128612D01*
Y131388D01*
X769822Y134068D01*
X768434Y136472D01*
X766472Y138434D01*
X764068Y139822D01*
X761388Y140540D01*
D02*
G37*
G36*
X738600Y140596D02*
X730600D01*
X728893Y140372D01*
X727302Y139713D01*
X725936Y138664D01*
X724887Y137298D01*
X724228Y135707D01*
X724004Y134000D01*
Y126000D01*
X724228Y124293D01*
X724887Y122702D01*
X725936Y121336D01*
X727302Y120287D01*
X728893Y119628D01*
X730600Y119404D01*
X738600D01*
X740307Y119628D01*
X741898Y120287D01*
X743264Y121336D01*
X744313Y122702D01*
X744972Y124293D01*
X745196Y126000D01*
Y134000D01*
X744972Y135707D01*
X744313Y137298D01*
X743264Y138664D01*
X741898Y139713D01*
X740307Y140372D01*
X738600Y140596D01*
D02*
G37*
G36*
X1297502Y474790D02*
X1295497D01*
X1293645Y474023D01*
X1292227Y472605D01*
X1291460Y470752D01*
Y468747D01*
X1292227Y466895D01*
X1293645Y465477D01*
X1295497Y464710D01*
X1297502D01*
X1299355Y465477D01*
X1300773Y466895D01*
X1301540Y468747D01*
Y470752D01*
X1300773Y472605D01*
X1299355Y474023D01*
X1297502Y474790D01*
D02*
G37*
G36*
X1259502Y474290D02*
X1257497D01*
X1255645Y473523D01*
X1254227Y472105D01*
X1253460Y470252D01*
Y468247D01*
X1254227Y466395D01*
X1255645Y464977D01*
X1257497Y464210D01*
X1259502D01*
X1261355Y464977D01*
X1262773Y466395D01*
X1263540Y468247D01*
Y470252D01*
X1262773Y472105D01*
X1261355Y473523D01*
X1259502Y474290D01*
D02*
G37*
G36*
X1231003D02*
X1228997D01*
X1227145Y473523D01*
X1225727Y472105D01*
X1224960Y470252D01*
Y468247D01*
X1225727Y466395D01*
X1227145Y464977D01*
X1228997Y464210D01*
X1231003D01*
X1232855Y464977D01*
X1234273Y466395D01*
X1235040Y468247D01*
Y470252D01*
X1234273Y472105D01*
X1232855Y473523D01*
X1231003Y474290D01*
D02*
G37*
G36*
X1166752Y460040D02*
X1164747D01*
X1162895Y459273D01*
X1161477Y457855D01*
X1160710Y456003D01*
Y453997D01*
X1161477Y452145D01*
X1162895Y450727D01*
X1164747Y449960D01*
X1166752D01*
X1168605Y450727D01*
X1170023Y452145D01*
X1170790Y453997D01*
Y456003D01*
X1170023Y457855D01*
X1168605Y459273D01*
X1166752Y460040D01*
D02*
G37*
G36*
X1287908Y467981D02*
X1285903D01*
X1284051Y467214D01*
X1282633Y465796D01*
X1281866Y463944D01*
Y461939D01*
X1282633Y460086D01*
X1284051Y458669D01*
X1284425Y458513D01*
Y457139D01*
X1284145Y457023D01*
X1282727Y455605D01*
X1281960Y453753D01*
Y451748D01*
X1282727Y449895D01*
X1284145Y448477D01*
X1285997Y447710D01*
X1288002D01*
X1289855Y448477D01*
X1291273Y449895D01*
X1292040Y451748D01*
Y453753D01*
X1291273Y455605D01*
X1289855Y457023D01*
X1289480Y457178D01*
Y458553D01*
X1289760Y458669D01*
X1291178Y460086D01*
X1291946Y461939D01*
Y463944D01*
X1291178Y465796D01*
X1289760Y467214D01*
X1287908Y467981D01*
D02*
G37*
G36*
X1228252Y451290D02*
X1226247D01*
X1224395Y450523D01*
X1222977Y449105D01*
X1222210Y447253D01*
Y445247D01*
X1222977Y443395D01*
X1224395Y441977D01*
X1226247Y441210D01*
X1228252D01*
X1230105Y441977D01*
X1231523Y443395D01*
X1232290Y445247D01*
Y447253D01*
X1231523Y449105D01*
X1230105Y450523D01*
X1228252Y451290D01*
D02*
G37*
G36*
X1260003Y450290D02*
X1257998D01*
X1256145Y449523D01*
X1254727Y448105D01*
X1253960Y446253D01*
Y444248D01*
X1254727Y442395D01*
X1256145Y440977D01*
X1257998Y440210D01*
X1260003D01*
X1261855Y440977D01*
X1263273Y442395D01*
X1264040Y444248D01*
Y446253D01*
X1263273Y448105D01*
X1261855Y449523D01*
X1260003Y450290D01*
D02*
G37*
G36*
X1191488Y447025D02*
X1189483D01*
X1187630Y446258D01*
X1186213Y444840D01*
X1185445Y442988D01*
Y440983D01*
X1186213Y439130D01*
X1187630Y437713D01*
X1189483Y436945D01*
X1191488D01*
X1193340Y437713D01*
X1194758Y439130D01*
X1195525Y440983D01*
Y442988D01*
X1194758Y444840D01*
X1193340Y446258D01*
X1191488Y447025D01*
D02*
G37*
G36*
X1166253Y439290D02*
X1164248D01*
X1162395Y438523D01*
X1160977Y437105D01*
X1160210Y435252D01*
Y433247D01*
X1160977Y431395D01*
X1162395Y429977D01*
X1164248Y429210D01*
X1166253D01*
X1168105Y429977D01*
X1169523Y431395D01*
X1170290Y433247D01*
Y435252D01*
X1169523Y437105D01*
X1168105Y438523D01*
X1166253Y439290D01*
D02*
G37*
G36*
X1344503Y438790D02*
X1342498D01*
X1340645Y438023D01*
X1339227Y436605D01*
X1338460Y434753D01*
Y432747D01*
X1339227Y430895D01*
X1340645Y429477D01*
X1342498Y428710D01*
X1344503D01*
X1346355Y429477D01*
X1347773Y430895D01*
X1348540Y432747D01*
Y434753D01*
X1347773Y436605D01*
X1346355Y438023D01*
X1344503Y438790D01*
D02*
G37*
G36*
X1228252Y437540D02*
X1226247D01*
X1224395Y436773D01*
X1222977Y435355D01*
X1222210Y433503D01*
Y431497D01*
X1222977Y429645D01*
X1224395Y428227D01*
X1226247Y427460D01*
X1228252D01*
X1230105Y428227D01*
X1231523Y429645D01*
X1232290Y431497D01*
Y433503D01*
X1231523Y435355D01*
X1230105Y436773D01*
X1228252Y437540D01*
D02*
G37*
G36*
X1259753Y435040D02*
X1257747D01*
X1255895Y434273D01*
X1254477Y432855D01*
X1253710Y431003D01*
Y428997D01*
X1254477Y427145D01*
X1255895Y425727D01*
X1257747Y424960D01*
X1259753D01*
X1261605Y425727D01*
X1263023Y427145D01*
X1263790Y428997D01*
Y431003D01*
X1263023Y432855D01*
X1261605Y434273D01*
X1259753Y435040D01*
D02*
G37*
G36*
X995752Y430040D02*
X993747D01*
X991895Y429273D01*
X990477Y427855D01*
X989710Y426003D01*
Y423997D01*
X990477Y422145D01*
X991895Y420727D01*
X993747Y419960D01*
X995752D01*
X997605Y420727D01*
X999023Y422145D01*
X999790Y423997D01*
Y426003D01*
X999023Y427855D01*
X997605Y429273D01*
X995752Y430040D01*
D02*
G37*
G36*
X1132253Y426040D02*
X1130247D01*
X1128395Y425273D01*
X1126977Y423855D01*
X1126210Y422002D01*
Y419997D01*
X1126977Y418145D01*
X1128395Y416727D01*
X1130247Y415960D01*
X1132253D01*
X1134105Y416727D01*
X1135523Y418145D01*
X1136290Y419997D01*
Y422002D01*
X1135523Y423855D01*
X1134105Y425273D01*
X1132253Y426040D01*
D02*
G37*
G36*
X1069003Y425790D02*
X1066998D01*
X1065145Y425023D01*
X1063727Y423605D01*
X1062960Y421753D01*
Y419748D01*
X1063727Y417895D01*
X1065145Y416477D01*
X1066998Y415710D01*
X1069003D01*
X1070855Y416477D01*
X1072273Y417895D01*
X1073040Y419748D01*
Y421753D01*
X1072273Y423605D01*
X1070855Y425023D01*
X1069003Y425790D01*
D02*
G37*
G36*
X981752D02*
X979747D01*
X977895Y425023D01*
X976477Y423605D01*
X975710Y421753D01*
Y419748D01*
X976477Y417895D01*
X977895Y416477D01*
X979747Y415710D01*
X981752D01*
X983605Y416477D01*
X985023Y417895D01*
X985790Y419748D01*
Y421753D01*
X985023Y423605D01*
X983605Y425023D01*
X981752Y425790D01*
D02*
G37*
G36*
X967503D02*
X965498D01*
X963645Y425023D01*
X962227Y423605D01*
X961460Y421753D01*
Y419748D01*
X962227Y417895D01*
X963645Y416477D01*
X965498Y415710D01*
X967503D01*
X969355Y416477D01*
X970773Y417895D01*
X971540Y419748D01*
Y421753D01*
X970773Y423605D01*
X969355Y425023D01*
X967503Y425790D01*
D02*
G37*
G36*
X1148002Y421290D02*
X1145997D01*
X1144145Y420523D01*
X1142727Y419105D01*
X1141960Y417253D01*
Y415247D01*
X1142727Y413395D01*
X1144145Y411977D01*
X1145997Y411210D01*
X1148002D01*
X1149855Y411977D01*
X1151273Y413395D01*
X1152040Y415247D01*
Y417253D01*
X1151273Y419105D01*
X1149855Y420523D01*
X1148002Y421290D01*
D02*
G37*
G36*
X1259502Y420040D02*
X1257497D01*
X1255645Y419273D01*
X1254227Y417855D01*
X1253460Y416003D01*
Y413997D01*
X1254227Y412145D01*
X1255645Y410727D01*
X1257497Y409960D01*
X1259502D01*
X1261355Y410727D01*
X1262773Y412145D01*
X1263540Y413997D01*
Y416003D01*
X1262773Y417855D01*
X1261355Y419273D01*
X1259502Y420040D01*
D02*
G37*
G36*
X995502Y415290D02*
X993497D01*
X991645Y414523D01*
X990227Y413105D01*
X989460Y411253D01*
Y409248D01*
X990227Y407395D01*
X991645Y405977D01*
X993497Y405210D01*
X995502D01*
X997355Y405977D01*
X998773Y407395D01*
X999540Y409248D01*
Y411253D01*
X998773Y413105D01*
X997355Y414523D01*
X995502Y415290D01*
D02*
G37*
G36*
X1139252Y412540D02*
X1137247D01*
X1135395Y411773D01*
X1133977Y410355D01*
X1133210Y408503D01*
Y406497D01*
X1133977Y404645D01*
X1135395Y403227D01*
X1137247Y402460D01*
X1139252D01*
X1141105Y403227D01*
X1142523Y404645D01*
X1143290Y406497D01*
Y408503D01*
X1142523Y410355D01*
X1141105Y411773D01*
X1139252Y412540D01*
D02*
G37*
G36*
X1116253Y412290D02*
X1114248D01*
X1112395Y411523D01*
X1110977Y410105D01*
X1110210Y408252D01*
Y406247D01*
X1110977Y404395D01*
X1112395Y402977D01*
X1114248Y402210D01*
X1116253D01*
X1118105Y402977D01*
X1119523Y404395D01*
X1120290Y406247D01*
Y408252D01*
X1119523Y410105D01*
X1118105Y411523D01*
X1116253Y412290D01*
D02*
G37*
G36*
X1027253Y409790D02*
X1025247D01*
X1023395Y409023D01*
X1021977Y407605D01*
X1021210Y405752D01*
Y403747D01*
X1021977Y401895D01*
X1023395Y400477D01*
X1025247Y399710D01*
X1027253D01*
X1029105Y400477D01*
X1030523Y401895D01*
X1031290Y403747D01*
Y405752D01*
X1030523Y407605D01*
X1029105Y409023D01*
X1027253Y409790D01*
D02*
G37*
G36*
X931253Y407540D02*
X929248D01*
X927395Y406773D01*
X925977Y405355D01*
X925210Y403503D01*
Y401497D01*
X925977Y399645D01*
X927395Y398227D01*
X929248Y397460D01*
X931253D01*
X933105Y398227D01*
X934523Y399645D01*
X935290Y401497D01*
Y403503D01*
X934523Y405355D01*
X933105Y406773D01*
X931253Y407540D01*
D02*
G37*
G36*
X912002Y406790D02*
X909997D01*
X908145Y406023D01*
X906727Y404605D01*
X905960Y402752D01*
Y400747D01*
X906727Y398895D01*
X908145Y397477D01*
X909997Y396710D01*
X912002D01*
X913855Y397477D01*
X915273Y398895D01*
X916040Y400747D01*
Y402752D01*
X915273Y404605D01*
X913855Y406023D01*
X912002Y406790D01*
D02*
G37*
G36*
X1259753Y406040D02*
X1257747D01*
X1255895Y405273D01*
X1254477Y403855D01*
X1253710Y402002D01*
Y399997D01*
X1254477Y398145D01*
X1255895Y396727D01*
X1257747Y395960D01*
X1259753D01*
X1261605Y396727D01*
X1263023Y398145D01*
X1263790Y399997D01*
Y402002D01*
X1263023Y403855D01*
X1261605Y405273D01*
X1259753Y406040D01*
D02*
G37*
G36*
X1128002Y405790D02*
X1125997D01*
X1124145Y405023D01*
X1122727Y403605D01*
X1121960Y401753D01*
Y399748D01*
X1122727Y397895D01*
X1124145Y396477D01*
X1125997Y395710D01*
X1128002D01*
X1129855Y396477D01*
X1131273Y397895D01*
X1132040Y399748D01*
Y401753D01*
X1131273Y403605D01*
X1129855Y405023D01*
X1128002Y405790D01*
D02*
G37*
G36*
X1102253D02*
X1100247D01*
X1098395Y405023D01*
X1096977Y403605D01*
X1096210Y401753D01*
Y399748D01*
X1096977Y397895D01*
X1098395Y396477D01*
X1100247Y395710D01*
X1102253D01*
X1104105Y396477D01*
X1105523Y397895D01*
X1106290Y399748D01*
Y401753D01*
X1105523Y403605D01*
X1104105Y405023D01*
X1102253Y405790D01*
D02*
G37*
G36*
X1063753Y403790D02*
X1061748D01*
X1059895Y403023D01*
X1058477Y401605D01*
X1057710Y399753D01*
Y397747D01*
X1058477Y395895D01*
X1059895Y394477D01*
X1061748Y393710D01*
X1063753D01*
X1065605Y394477D01*
X1067023Y395895D01*
X1067790Y397747D01*
Y399753D01*
X1067023Y401605D01*
X1065605Y403023D01*
X1063753Y403790D01*
D02*
G37*
G36*
X1080502D02*
X1078497D01*
X1076645Y403023D01*
X1075227Y401605D01*
X1074460Y399753D01*
Y397747D01*
X1075227Y395895D01*
X1076645Y394477D01*
X1078497Y393710D01*
X1080502D01*
X1081971Y394318D01*
X1082355Y394477D01*
X1083461Y393787D01*
X1083727Y393145D01*
X1085145Y391727D01*
X1086998Y390960D01*
X1089003D01*
X1090855Y391727D01*
X1092273Y393145D01*
X1093040Y394997D01*
Y397002D01*
X1092273Y398855D01*
X1090855Y400273D01*
X1089003Y401040D01*
X1086998D01*
X1085529Y400432D01*
X1085145Y400273D01*
X1084039Y400962D01*
X1083773Y401605D01*
X1082355Y403023D01*
X1080502Y403790D01*
D02*
G37*
G36*
X1195502Y434540D02*
X1193497D01*
X1191645Y433773D01*
X1190227Y432355D01*
X1189460Y430503D01*
Y428498D01*
X1190227Y426645D01*
X1191247Y425625D01*
X1190227Y424605D01*
X1189460Y422752D01*
Y420747D01*
X1190227Y418895D01*
X1191247Y417875D01*
X1190227Y416855D01*
X1189460Y415003D01*
Y412998D01*
X1190227Y411145D01*
X1191142Y410230D01*
X1190227Y409315D01*
X1189460Y407463D01*
Y405457D01*
X1190227Y403605D01*
X1191645Y402187D01*
X1192474Y401844D01*
Y400470D01*
X1191395Y400023D01*
X1189977Y398605D01*
X1189210Y396753D01*
Y394748D01*
X1189977Y392895D01*
X1191395Y391477D01*
X1193248Y390710D01*
X1195253D01*
X1197105Y391477D01*
X1198523Y392895D01*
X1199290Y394748D01*
Y396753D01*
X1198523Y398605D01*
X1197105Y400023D01*
X1196276Y400366D01*
Y401741D01*
X1197355Y402187D01*
X1198773Y403605D01*
X1199540Y405457D01*
Y407463D01*
X1198773Y409315D01*
X1197858Y410230D01*
X1198773Y411145D01*
X1199540Y412998D01*
Y415003D01*
X1198773Y416855D01*
X1197753Y417875D01*
X1198773Y418895D01*
X1199540Y420747D01*
Y422752D01*
X1198773Y424605D01*
X1197753Y425625D01*
X1198773Y426645D01*
X1199540Y428498D01*
Y430503D01*
X1198773Y432355D01*
X1197355Y433773D01*
X1195502Y434540D01*
D02*
G37*
G36*
X1141752Y393540D02*
X1139747D01*
X1137895Y392773D01*
X1136477Y391355D01*
X1135710Y389502D01*
Y387497D01*
X1136477Y385645D01*
X1137895Y384227D01*
X1139747Y383460D01*
X1141752D01*
X1143605Y384227D01*
X1145023Y385645D01*
X1145790Y387497D01*
Y389502D01*
X1145023Y391355D01*
X1143605Y392773D01*
X1141752Y393540D01*
D02*
G37*
G36*
X1228252Y388790D02*
X1226247D01*
X1224395Y388023D01*
X1222977Y386605D01*
X1222210Y384753D01*
Y382747D01*
X1222977Y380895D01*
X1224395Y379477D01*
X1226247Y378710D01*
X1228252D01*
X1230105Y379477D01*
X1231523Y380895D01*
X1232290Y382747D01*
Y384753D01*
X1231523Y386605D01*
X1230105Y388023D01*
X1228252Y388790D01*
D02*
G37*
G36*
X1313752Y437790D02*
X1311747D01*
X1309895Y437023D01*
X1308477Y435605D01*
X1307710Y433753D01*
Y431748D01*
X1308477Y429895D01*
X1309025Y429348D01*
X1309145Y428023D01*
X1307727Y426605D01*
X1306960Y424753D01*
Y422747D01*
X1307181Y422213D01*
X1306432Y420702D01*
X1305395Y420273D01*
X1303977Y418855D01*
X1303210Y417002D01*
Y414997D01*
X1302904Y414540D01*
X1301497D01*
X1299645Y413773D01*
X1298227Y412355D01*
X1297460Y410503D01*
Y408498D01*
X1296482Y407540D01*
X1295748D01*
X1293895Y406773D01*
X1292477Y405355D01*
X1291710Y403503D01*
Y401540D01*
X1290748D01*
X1288895Y400773D01*
X1287477Y399355D01*
X1286710Y397503D01*
Y395498D01*
X1287391Y393853D01*
X1287384Y393174D01*
X1287232Y392412D01*
X1286895Y392273D01*
X1285477Y390855D01*
X1284710Y389002D01*
Y386997D01*
X1285477Y385145D01*
X1286562Y384060D01*
X1286092Y382790D01*
X1285997D01*
X1284145Y382023D01*
X1282727Y380605D01*
X1281960Y378753D01*
Y376748D01*
X1282727Y374895D01*
X1284145Y373477D01*
X1285997Y372710D01*
X1288002D01*
X1289855Y373477D01*
X1291273Y374895D01*
X1292040Y376748D01*
Y378753D01*
X1291273Y380605D01*
X1290188Y381690D01*
X1290658Y382960D01*
X1290753D01*
X1292605Y383727D01*
X1294023Y385145D01*
X1294790Y386997D01*
Y389002D01*
X1294109Y390647D01*
X1294117Y391326D01*
X1294268Y392088D01*
X1294605Y392227D01*
X1296023Y393645D01*
X1296790Y395498D01*
Y397460D01*
X1297753D01*
X1299605Y398227D01*
X1301023Y399645D01*
X1301790Y401497D01*
Y403503D01*
X1302768Y404460D01*
X1303503D01*
X1305355Y405227D01*
X1306773Y406645D01*
X1307540Y408498D01*
Y410503D01*
X1307846Y410960D01*
X1309252D01*
X1311105Y411727D01*
X1312523Y413145D01*
X1313290Y414997D01*
Y417002D01*
X1313069Y417537D01*
X1313817Y419048D01*
X1314855Y419477D01*
X1316273Y420895D01*
X1317040Y422747D01*
Y424753D01*
X1316273Y426605D01*
X1315725Y427152D01*
X1315605Y428477D01*
X1317023Y429895D01*
X1317790Y431748D01*
Y433753D01*
X1317023Y435605D01*
X1315605Y437023D01*
X1313752Y437790D01*
D02*
G37*
G36*
X1214753Y377790D02*
X1212747D01*
X1210895Y377023D01*
X1209477Y375605D01*
X1208710Y373753D01*
Y371748D01*
X1209477Y369895D01*
X1210895Y368477D01*
X1212747Y367710D01*
X1214753D01*
X1216605Y368477D01*
X1218023Y369895D01*
X1218790Y371748D01*
Y373753D01*
X1218023Y375605D01*
X1216605Y377023D01*
X1214753Y377790D01*
D02*
G37*
G36*
X1096503Y374540D02*
X1094498D01*
X1092645Y373773D01*
X1091227Y372355D01*
X1090460Y370503D01*
Y368498D01*
X1091227Y366645D01*
X1092645Y365227D01*
X1094498Y364460D01*
X1096503D01*
X1098355Y365227D01*
X1099773Y366645D01*
X1100540Y368498D01*
Y370503D01*
X1099773Y372355D01*
X1098355Y373773D01*
X1096503Y374540D01*
D02*
G37*
G36*
X965752Y371040D02*
X963747D01*
X961895Y370273D01*
X960477Y368855D01*
X959710Y367002D01*
Y364997D01*
X960477Y363145D01*
X961895Y361727D01*
X963747Y360960D01*
X965752D01*
X967605Y361727D01*
X969023Y363145D01*
X969790Y364997D01*
Y367002D01*
X969023Y368855D01*
X967605Y370273D01*
X965752Y371040D01*
D02*
G37*
G36*
X978753Y357790D02*
X976748D01*
X974895Y357023D01*
X973477Y355605D01*
X972710Y353753D01*
Y351748D01*
X973477Y349895D01*
X974895Y348477D01*
X976748Y347710D01*
X978753D01*
X980605Y348477D01*
X982023Y349895D01*
X982790Y351748D01*
Y353753D01*
X982023Y355605D01*
X980605Y357023D01*
X978753Y357790D01*
D02*
G37*
G36*
X965752D02*
X963747D01*
X961895Y357023D01*
X960477Y355605D01*
X959710Y353753D01*
Y351748D01*
X960477Y349895D01*
X961895Y348477D01*
X963747Y347710D01*
X965752D01*
X967605Y348477D01*
X969023Y349895D01*
X969790Y351748D01*
Y353753D01*
X969023Y355605D01*
X967605Y357023D01*
X965752Y357790D01*
D02*
G37*
G36*
X938503D02*
X936497D01*
X934645Y357023D01*
X933227Y355605D01*
X932460Y353753D01*
Y351748D01*
X933227Y349895D01*
X934645Y348477D01*
X936497Y347710D01*
X938503D01*
X940355Y348477D01*
X941773Y349895D01*
X942540Y351748D01*
Y353753D01*
X941773Y355605D01*
X940355Y357023D01*
X938503Y357790D01*
D02*
G37*
G36*
X1296752Y357290D02*
X1294747D01*
X1292895Y356523D01*
X1291477Y355105D01*
X1290710Y353252D01*
Y351247D01*
X1291477Y349395D01*
X1292895Y347977D01*
X1294747Y347210D01*
X1296752D01*
X1298605Y347977D01*
X1300023Y349395D01*
X1300790Y351247D01*
Y353252D01*
X1300023Y355105D01*
X1298605Y356523D01*
X1296752Y357290D01*
D02*
G37*
G36*
X922753Y353790D02*
X920748D01*
X918895Y353023D01*
X917477Y351605D01*
X916710Y349753D01*
Y347747D01*
X917477Y345895D01*
X918895Y344477D01*
X920748Y343710D01*
X922753D01*
X924605Y344477D01*
X926023Y345895D01*
X926790Y347747D01*
Y349753D01*
X926023Y351605D01*
X924605Y353023D01*
X922753Y353790D01*
D02*
G37*
G36*
X1046752Y352040D02*
X1044747D01*
X1042895Y351273D01*
X1041477Y349855D01*
X1040710Y348003D01*
Y345998D01*
X1041477Y344145D01*
X1042895Y342727D01*
X1044747Y341960D01*
X1046752D01*
X1048605Y342727D01*
X1050023Y344145D01*
X1050790Y345998D01*
Y348003D01*
X1050023Y349855D01*
X1048605Y351273D01*
X1046752Y352040D01*
D02*
G37*
G36*
X1117503Y351040D02*
X1115498D01*
X1113645Y350273D01*
X1112227Y348855D01*
X1111460Y347002D01*
Y344997D01*
X1112227Y343145D01*
X1113645Y341727D01*
X1115498Y340960D01*
X1117503D01*
X1119355Y341727D01*
X1120773Y343145D01*
X1121540Y344997D01*
Y347002D01*
X1120773Y348855D01*
X1119355Y350273D01*
X1117503Y351040D01*
D02*
G37*
G36*
X566253Y350040D02*
X564248D01*
X562395Y349273D01*
X560977Y347855D01*
X560210Y346003D01*
Y343997D01*
X560977Y342145D01*
X562395Y340727D01*
X564248Y339960D01*
X566253D01*
X568105Y340727D01*
X569523Y342145D01*
X570290Y343997D01*
Y346003D01*
X569523Y347855D01*
X568105Y349273D01*
X566253Y350040D01*
D02*
G37*
G36*
X933753Y344540D02*
X931748D01*
X929895Y343773D01*
X928477Y342355D01*
X927710Y340503D01*
Y338498D01*
X928477Y336645D01*
X929895Y335227D01*
X931748Y334460D01*
X933753D01*
X935605Y335227D01*
X937023Y336645D01*
X937790Y338498D01*
Y340503D01*
X937023Y342355D01*
X935605Y343773D01*
X933753Y344540D01*
D02*
G37*
G36*
X966003Y343790D02*
X963997D01*
X962145Y343023D01*
X960727Y341605D01*
X959960Y339753D01*
Y337747D01*
X960727Y335895D01*
X962145Y334477D01*
X963997Y333710D01*
X966003D01*
X967855Y334477D01*
X969273Y335895D01*
X970040Y337747D01*
Y339753D01*
X969273Y341605D01*
X967855Y343023D01*
X966003Y343790D01*
D02*
G37*
G36*
X978503Y343540D02*
X976497D01*
X974645Y342773D01*
X973227Y341355D01*
X972460Y339502D01*
Y337497D01*
X973227Y335645D01*
X974645Y334227D01*
X976497Y333460D01*
X978503D01*
X980355Y334227D01*
X981773Y335645D01*
X982540Y337497D01*
Y339502D01*
X981773Y341355D01*
X980355Y342773D01*
X978503Y343540D01*
D02*
G37*
G36*
X1297003Y339540D02*
X1294998D01*
X1293145Y338773D01*
X1291727Y337355D01*
X1290960Y335503D01*
Y333498D01*
X1291727Y331645D01*
X1293145Y330227D01*
X1294998Y329460D01*
X1297003D01*
X1298855Y330227D01*
X1300273Y331645D01*
X1301040Y333498D01*
Y335503D01*
X1300273Y337355D01*
X1298855Y338773D01*
X1297003Y339540D01*
D02*
G37*
G36*
X1117753Y338790D02*
X1115748D01*
X1113895Y338023D01*
X1112477Y336605D01*
X1111710Y334753D01*
Y332747D01*
X1112477Y330895D01*
X1113895Y329477D01*
X1115748Y328710D01*
X1117753D01*
X1119605Y329477D01*
X1121023Y330895D01*
X1121790Y332747D01*
Y334753D01*
X1121023Y336605D01*
X1119605Y338023D01*
X1117753Y338790D01*
D02*
G37*
G36*
X952503Y334040D02*
X950498D01*
X948645Y333273D01*
X947227Y331855D01*
X946460Y330003D01*
Y327998D01*
X947227Y326145D01*
X948645Y324727D01*
X950498Y323960D01*
X952503D01*
X954355Y324727D01*
X955773Y326145D01*
X956540Y327998D01*
Y330003D01*
X955773Y331855D01*
X954355Y333273D01*
X952503Y334040D01*
D02*
G37*
G36*
X991503Y343540D02*
X989498D01*
X987645Y342773D01*
X986227Y341355D01*
X985460Y339502D01*
Y337497D01*
X986227Y335645D01*
X987645Y334227D01*
X987867Y334136D01*
X987895Y332773D01*
X986477Y331355D01*
X985710Y329502D01*
Y327497D01*
X986477Y325645D01*
X987895Y324227D01*
X989747Y323460D01*
X991752D01*
X993605Y324227D01*
X995023Y325645D01*
X995790Y327497D01*
Y329502D01*
X995023Y331355D01*
X993605Y332773D01*
X993383Y332864D01*
X993355Y334227D01*
X994773Y335645D01*
X995540Y337497D01*
Y339502D01*
X994773Y341355D01*
X993355Y342773D01*
X991503Y343540D01*
D02*
G37*
G36*
X916003Y333540D02*
X913997D01*
X912145Y332773D01*
X910727Y331355D01*
X909960Y329502D01*
Y327497D01*
X910727Y325645D01*
X912145Y324227D01*
X913997Y323460D01*
X916003D01*
X917855Y324227D01*
X919273Y325645D01*
X920040Y327497D01*
Y329502D01*
X919273Y331355D01*
X917855Y332773D01*
X916003Y333540D01*
D02*
G37*
G36*
X1058252Y349040D02*
X1056247D01*
X1054395Y348273D01*
X1052977Y346855D01*
X1052210Y345003D01*
Y342998D01*
X1052977Y341145D01*
X1054395Y339727D01*
X1056247Y338960D01*
X1058252D01*
X1058787Y339181D01*
X1059037Y339090D01*
X1059960Y338293D01*
Y336748D01*
X1060727Y334895D01*
X1062145Y333477D01*
X1063997Y332710D01*
X1065960D01*
Y330747D01*
X1066727Y328895D01*
X1068145Y327477D01*
X1069997Y326710D01*
X1072002D01*
X1072971Y325737D01*
X1072460Y324502D01*
Y322497D01*
X1073227Y320645D01*
X1074645Y319227D01*
X1076497Y318460D01*
X1078503D01*
X1080355Y319227D01*
X1081773Y320645D01*
X1082540Y322497D01*
Y324502D01*
X1081773Y326355D01*
X1080355Y327773D01*
X1078503Y328540D01*
X1076497D01*
X1075529Y329513D01*
X1076040Y330747D01*
Y332752D01*
X1075273Y334605D01*
X1073855Y336023D01*
X1072002Y336790D01*
X1070040D01*
Y338753D01*
X1069273Y340605D01*
X1067855Y342023D01*
X1066003Y342790D01*
X1063997D01*
X1063463Y342569D01*
X1063213Y342660D01*
X1062290Y343457D01*
Y345003D01*
X1061523Y346855D01*
X1060105Y348273D01*
X1058252Y349040D01*
D02*
G37*
G36*
X1297003Y322790D02*
X1294998D01*
X1293145Y322023D01*
X1291727Y320605D01*
X1290960Y318752D01*
Y316747D01*
X1291727Y314895D01*
X1293145Y313477D01*
X1294998Y312710D01*
X1297003D01*
X1298855Y313477D01*
X1300273Y314895D01*
X1301040Y316747D01*
Y318752D01*
X1300273Y320605D01*
X1298855Y322023D01*
X1297003Y322790D01*
D02*
G37*
G36*
X1118002Y321040D02*
X1115997D01*
X1114145Y320273D01*
X1112727Y318855D01*
X1111960Y317003D01*
Y314998D01*
X1112727Y313145D01*
X1114145Y311727D01*
X1115997Y310960D01*
X1118002D01*
X1119855Y311727D01*
X1121273Y313145D01*
X1122040Y314998D01*
Y317003D01*
X1121273Y318855D01*
X1119855Y320273D01*
X1118002Y321040D01*
D02*
G37*
G36*
X1207753Y320540D02*
X1205748D01*
X1203895Y319773D01*
X1202477Y318355D01*
X1201710Y316502D01*
Y314498D01*
X1202477Y312645D01*
X1203895Y311227D01*
X1205748Y310460D01*
X1207753D01*
X1209605Y311227D01*
X1211023Y312645D01*
X1211790Y314498D01*
Y316502D01*
X1211023Y318355D01*
X1209605Y319773D01*
X1207753Y320540D01*
D02*
G37*
G36*
X935253Y316040D02*
X933248D01*
X931395Y315273D01*
X929977Y313855D01*
X929210Y312003D01*
Y309998D01*
X929977Y308145D01*
X931395Y306727D01*
X933248Y305960D01*
X935253D01*
X937105Y306727D01*
X938523Y308145D01*
X939290Y309998D01*
Y312003D01*
X938523Y313855D01*
X937105Y315273D01*
X935253Y316040D01*
D02*
G37*
G36*
X1007002Y315540D02*
X1004997D01*
X1003145Y314773D01*
X1001727Y313355D01*
X1000960Y311502D01*
Y309498D01*
X1001727Y307645D01*
X1003145Y306227D01*
X1004997Y305460D01*
X1007002D01*
X1008855Y306227D01*
X1010273Y307645D01*
X1011040Y309498D01*
Y311502D01*
X1010273Y313355D01*
X1008855Y314773D01*
X1007002Y315540D01*
D02*
G37*
G36*
X971003D02*
X968997D01*
X967145Y314773D01*
X965727Y313355D01*
X964960Y311502D01*
Y309498D01*
X965727Y307645D01*
X967145Y306227D01*
X968997Y305460D01*
X971003D01*
X972855Y306227D01*
X974273Y307645D01*
X975040Y309498D01*
Y311502D01*
X974273Y313355D01*
X972855Y314773D01*
X971003Y315540D01*
D02*
G37*
G36*
X1031003Y305540D02*
X1028997D01*
X1027145Y304773D01*
X1025727Y303355D01*
X1024960Y301502D01*
Y299498D01*
X1025727Y297645D01*
X1027145Y296227D01*
X1028997Y295460D01*
X1031003D01*
X1032855Y296227D01*
X1034273Y297645D01*
X1035040Y299498D01*
Y301502D01*
X1034273Y303355D01*
X1032855Y304773D01*
X1031003Y305540D01*
D02*
G37*
G36*
X1296752Y303540D02*
X1294747D01*
X1292895Y302773D01*
X1291477Y301355D01*
X1290710Y299503D01*
Y297498D01*
X1291477Y295645D01*
X1292895Y294227D01*
X1294747Y293460D01*
X1296752D01*
X1298605Y294227D01*
X1300023Y295645D01*
X1300790Y297498D01*
Y299503D01*
X1300023Y301355D01*
X1298605Y302773D01*
X1296752Y303540D01*
D02*
G37*
G36*
X1207753Y302540D02*
X1205748D01*
X1203895Y301773D01*
X1202477Y300355D01*
X1201710Y298503D01*
Y296497D01*
X1202477Y294645D01*
X1203895Y293227D01*
X1205748Y292460D01*
X1207753D01*
X1209605Y293227D01*
X1211023Y294645D01*
X1211790Y296497D01*
Y298503D01*
X1211023Y300355D01*
X1209605Y301773D01*
X1207753Y302540D01*
D02*
G37*
G36*
X1118252D02*
X1116247D01*
X1114395Y301773D01*
X1112977Y300355D01*
X1112210Y298503D01*
Y296497D01*
X1112977Y294645D01*
X1114395Y293227D01*
X1116247Y292460D01*
X1118252D01*
X1120105Y293227D01*
X1121523Y294645D01*
X1122290Y296497D01*
Y298503D01*
X1121523Y300355D01*
X1120105Y301773D01*
X1118252Y302540D01*
D02*
G37*
G36*
X1038753Y296040D02*
X1036748D01*
X1034895Y295273D01*
X1033477Y293855D01*
X1032710Y292003D01*
Y289998D01*
X1033477Y288145D01*
X1034895Y286727D01*
X1036748Y285960D01*
X1038085D01*
X1038972Y284781D01*
X1038960Y284753D01*
Y282747D01*
X1039727Y280895D01*
X1041145Y279477D01*
X1042998Y278710D01*
X1045003D01*
X1046855Y279477D01*
X1048273Y280895D01*
X1049040Y282747D01*
Y284753D01*
X1048273Y286605D01*
X1046855Y288023D01*
X1045003Y288790D01*
X1043664D01*
X1042778Y289969D01*
X1042790Y289998D01*
Y292003D01*
X1042023Y293855D01*
X1040605Y295273D01*
X1038753Y296040D01*
D02*
G37*
G36*
X1296752Y285540D02*
X1294747D01*
X1292895Y284773D01*
X1291477Y283355D01*
X1290710Y281502D01*
Y279498D01*
X1291477Y277645D01*
X1292895Y276227D01*
X1294747Y275460D01*
X1296752D01*
X1298605Y276227D01*
X1300023Y277645D01*
X1300790Y279498D01*
Y281502D01*
X1300023Y283355D01*
X1298605Y284773D01*
X1296752Y285540D01*
D02*
G37*
G36*
X1208252Y285290D02*
X1206247D01*
X1204395Y284523D01*
X1202977Y283105D01*
X1202210Y281252D01*
Y279247D01*
X1202977Y277395D01*
X1204395Y275977D01*
X1206247Y275210D01*
X1208252D01*
X1210105Y275977D01*
X1211523Y277395D01*
X1212290Y279247D01*
Y281252D01*
X1211523Y283105D01*
X1210105Y284523D01*
X1208252Y285290D01*
D02*
G37*
G36*
X1118503Y284790D02*
X1116497D01*
X1114645Y284023D01*
X1113227Y282605D01*
X1112460Y280753D01*
Y278748D01*
X1113227Y276895D01*
X1114645Y275477D01*
X1116497Y274710D01*
X1118503D01*
X1120355Y275477D01*
X1121773Y276895D01*
X1122540Y278748D01*
Y280753D01*
X1121773Y282605D01*
X1120355Y284023D01*
X1118503Y284790D01*
D02*
G37*
%LPD*%
D14*
X335250Y312000D02*
X355500D01*
X314000Y333250D02*
X335250Y312000D01*
X740880Y524588D02*
X741351Y524117D01*
X742024D01*
X747440Y453606D02*
Y518702D01*
X729426Y435592D02*
X747440Y453606D01*
X742024Y524117D02*
X747440Y518702D01*
X723176Y458092D02*
Y488516D01*
X741130Y506470D01*
Y516088D01*
X501750Y524500D02*
X502221Y524029D01*
X502894D01*
X508398Y518526D01*
Y453606D02*
Y518526D01*
X490384Y435592D02*
X508398Y453606D01*
X502000Y506382D02*
Y516000D01*
X484134Y488516D02*
X502000Y506382D01*
X484134Y458092D02*
Y488516D01*
X270000Y519174D02*
Y519369D01*
Y513326D02*
X270310Y513636D01*
X251500Y435750D02*
X270000Y454250D01*
X263771Y525599D02*
X270000Y519369D01*
Y454250D02*
Y513326D01*
X270310Y513636D02*
Y518864D01*
X270000Y519174D02*
X270310Y518864D01*
X245250Y488674D02*
X264000Y507424D01*
X245250Y458250D02*
Y488674D01*
X264000Y507424D02*
Y516250D01*
D104*
X1155970Y547800D02*
D03*
X1247370D02*
D03*
X1133070D02*
D03*
X1270270D02*
D03*
X1196570Y596000D02*
D03*
X1206770Y613800D02*
D03*
X1186370D02*
D03*
X1216970Y596000D02*
D03*
X1176170D02*
D03*
X1227170Y613800D02*
D03*
X1165970D02*
D03*
X1237370Y596000D02*
D03*
X945970Y548000D02*
D03*
X1037370D02*
D03*
X923070D02*
D03*
X1060270D02*
D03*
X986570Y596200D02*
D03*
X996770Y614000D02*
D03*
X976370D02*
D03*
X1006970Y596200D02*
D03*
X966170D02*
D03*
X1017170Y614000D02*
D03*
X955970D02*
D03*
X1027370Y596200D02*
D03*
D106*
X1120420Y604900D02*
D03*
X1282920D02*
D03*
X910420Y605100D02*
D03*
X1072920D02*
D03*
D107*
X1138170Y639200D02*
D03*
X1265170D02*
D03*
X928170Y639400D02*
D03*
X1055170D02*
D03*
D108*
X1263750Y144000D02*
D03*
X1289150D02*
D03*
X1339950D02*
D03*
X1365350D02*
D03*
X1314550D02*
D03*
X1338500Y547950D02*
D03*
Y598750D02*
D03*
Y624150D02*
D03*
Y573350D02*
D03*
X1384000Y548200D02*
D03*
Y599000D02*
D03*
Y624400D02*
D03*
Y573600D02*
D03*
X861600Y130000D02*
D03*
X836200D02*
D03*
X785400D02*
D03*
X760000D02*
D03*
X810800D02*
D03*
D109*
X1390750Y144000D02*
D03*
X734600Y130000D02*
D03*
D110*
X530800Y141900D02*
D03*
X480800D02*
D03*
D111*
X1338500Y649550D02*
D03*
X1384000Y649800D02*
D03*
D112*
X183000Y266000D02*
D03*
Y338000D02*
D03*
X316000Y186000D02*
D03*
X244000D02*
D03*
D113*
X123000Y234500D02*
D03*
Y369500D02*
D03*
D114*
X347500Y126000D02*
D03*
X212500D02*
D03*
D115*
X1549800Y150600D02*
D03*
Y650600D02*
D03*
X149800D02*
D03*
Y150600D02*
D03*
D117*
X362990Y635540D02*
D03*
Y660940D02*
D03*
Y686340D02*
D03*
X300144Y635330D02*
D03*
Y660730D02*
D03*
Y686130D02*
D03*
X331640Y635584D02*
D03*
Y660984D02*
D03*
Y686384D02*
D03*
X203878Y634822D02*
D03*
Y660222D02*
D03*
Y685622D02*
D03*
X236348Y635070D02*
D03*
Y660470D02*
D03*
Y685870D02*
D03*
X268140Y635330D02*
D03*
Y660730D02*
D03*
Y686130D02*
D03*
X539186Y635330D02*
D03*
Y660730D02*
D03*
Y686130D02*
D03*
X507182Y635330D02*
D03*
Y660730D02*
D03*
Y686130D02*
D03*
X442920Y634822D02*
D03*
Y660222D02*
D03*
Y685622D02*
D03*
X570682Y635584D02*
D03*
Y660984D02*
D03*
Y686384D02*
D03*
X475390Y635070D02*
D03*
Y660470D02*
D03*
Y685870D02*
D03*
X809724Y635584D02*
D03*
Y660984D02*
D03*
Y686384D02*
D03*
X778228Y635330D02*
D03*
Y660730D02*
D03*
Y686130D02*
D03*
X681962Y634822D02*
D03*
Y660222D02*
D03*
Y685622D02*
D03*
X714432Y635070D02*
D03*
Y660470D02*
D03*
Y685870D02*
D03*
X746224Y635330D02*
D03*
Y660730D02*
D03*
Y686130D02*
D03*
D118*
X1471250Y525500D02*
D03*
X1228000Y582750D02*
D03*
X1187250Y581250D02*
D03*
X1159250Y596000D02*
D03*
X1017500Y585000D02*
D03*
X958000Y572000D02*
D03*
X977250Y585250D02*
D03*
X951250Y595750D02*
D03*
X794000Y634250D02*
D03*
X762250D02*
D03*
X730500D02*
D03*
X698250D02*
D03*
X555000D02*
D03*
X523250D02*
D03*
X491500D02*
D03*
X459250Y634000D02*
D03*
X220250Y634500D02*
D03*
X252250Y634750D02*
D03*
X284250D02*
D03*
X316000D02*
D03*
X347500D02*
D03*
X343500Y612750D02*
D03*
X258000Y616000D02*
D03*
X225750D02*
D03*
X1026250Y404750D02*
D03*
X755750Y151750D02*
D03*
X767250Y535250D02*
D03*
X528000D02*
D03*
X289000Y535500D02*
D03*
X1513750Y200000D02*
D03*
X1467750Y198000D02*
D03*
X1467000Y228000D02*
D03*
X1100750Y190000D02*
D03*
X1100000Y251500D02*
D03*
X1002750Y262750D02*
D03*
X977500Y263000D02*
D03*
X1193000Y334000D02*
D03*
Y315750D02*
D03*
Y297750D02*
D03*
X1383250Y352000D02*
D03*
Y333750D02*
D03*
Y315750D02*
D03*
X1383500Y297750D02*
D03*
X1371000Y352250D02*
D03*
Y334000D02*
D03*
Y316000D02*
D03*
X1371250Y297750D02*
D03*
X1483250Y341500D02*
D03*
X1483000Y357000D02*
D03*
X1466500Y356750D02*
D03*
X1466250Y373250D02*
D03*
X1443250Y397750D02*
D03*
X1508500Y383500D02*
D03*
X1502500Y371250D02*
D03*
X1484500Y390500D02*
D03*
X1296500Y469750D02*
D03*
X1230000Y469250D02*
D03*
X1258500D02*
D03*
X1227250Y446250D02*
D03*
X658500Y130750D02*
D03*
X634750Y115500D02*
D03*
X610250Y130500D02*
D03*
X635000Y146750D02*
D03*
X498000Y210250D02*
D03*
X524500Y185000D02*
D03*
X483250Y184750D02*
D03*
X445250Y167500D02*
D03*
X564750Y231000D02*
D03*
X565250Y345000D02*
D03*
X980750Y420750D02*
D03*
X966500D02*
D03*
X1006000Y310500D02*
D03*
X990750Y328500D02*
D03*
X970000Y310500D02*
D03*
X934250Y311000D02*
D03*
X915000Y328500D02*
D03*
X921750Y348750D02*
D03*
X951500Y329000D02*
D03*
X990500Y338500D02*
D03*
X977500D02*
D03*
X977750Y352750D02*
D03*
X964750D02*
D03*
Y366000D02*
D03*
X965000Y338750D02*
D03*
X1344250Y492250D02*
D03*
X1297250D02*
D03*
X1247500Y491250D02*
D03*
X1227250Y383750D02*
D03*
X1258750Y401000D02*
D03*
X1258500Y415000D02*
D03*
X1258750Y430000D02*
D03*
X1227250Y432500D02*
D03*
X1259000Y445250D02*
D03*
X1489250Y623250D02*
D03*
X1489500Y593000D02*
D03*
X1469500Y608250D02*
D03*
X1456750Y593250D02*
D03*
X1443250Y609000D02*
D03*
X1456750Y623750D02*
D03*
X1426750Y629500D02*
D03*
X1404500Y650750D02*
D03*
X1127000Y400750D02*
D03*
X1088000Y396000D02*
D03*
X1101250Y400750D02*
D03*
X1165250Y434250D02*
D03*
X1147000Y416250D02*
D03*
X1138250Y407500D02*
D03*
X1131000Y454500D02*
D03*
X1073000Y454000D02*
D03*
X1131250Y421000D02*
D03*
X1079500Y398750D02*
D03*
X1062750D02*
D03*
X994500Y410250D02*
D03*
X994750Y425000D02*
D03*
X911000Y401750D02*
D03*
X887000Y286750D02*
D03*
X1173750Y130250D02*
D03*
X1150250Y145250D02*
D03*
X1197250D02*
D03*
X1575000Y680000D02*
D03*
Y620000D02*
D03*
X1560000Y110000D02*
D03*
X1530000D02*
D03*
X1515000Y680000D02*
D03*
Y140000D02*
D03*
X1500000Y110000D02*
D03*
X1485000Y680000D02*
D03*
X1470000Y110000D02*
D03*
X1380000Y470000D02*
D03*
X1395000Y440000D02*
D03*
X1365000Y620000D02*
D03*
X1350000Y590000D02*
D03*
X1365000Y560000D02*
D03*
X1320000Y590000D02*
D03*
X1305000Y680000D02*
D03*
X1290000Y650000D02*
D03*
X1305000Y620000D02*
D03*
Y560000D02*
D03*
X1275000Y680000D02*
D03*
X1260000Y590000D02*
D03*
X1275000Y560000D02*
D03*
X1245000Y680000D02*
D03*
X1230000Y650000D02*
D03*
X1245000Y620000D02*
D03*
Y560000D02*
D03*
X1215000Y680000D02*
D03*
X1200000Y650000D02*
D03*
X1215000Y560000D02*
D03*
X1185000Y680000D02*
D03*
X1170000Y650000D02*
D03*
X1185000Y560000D02*
D03*
X1155000Y680000D02*
D03*
X1140000Y590000D02*
D03*
X1125000Y680000D02*
D03*
X1110000Y650000D02*
D03*
X1095000Y680000D02*
D03*
X1080000Y650000D02*
D03*
X1095000Y620000D02*
D03*
Y560000D02*
D03*
X1065000Y680000D02*
D03*
X1050000Y590000D02*
D03*
X1065000Y560000D02*
D03*
Y440000D02*
D03*
X1035000Y680000D02*
D03*
X1020000Y650000D02*
D03*
X1035000Y620000D02*
D03*
Y560000D02*
D03*
X1020000Y530000D02*
D03*
Y470000D02*
D03*
X1035000Y440000D02*
D03*
X1005000Y680000D02*
D03*
X990000Y650000D02*
D03*
X1005000Y560000D02*
D03*
X990000Y530000D02*
D03*
X1005000Y500000D02*
D03*
X990000Y470000D02*
D03*
X1005000Y440000D02*
D03*
X975000Y680000D02*
D03*
X960000Y650000D02*
D03*
X975000Y560000D02*
D03*
X960000Y530000D02*
D03*
X975000Y500000D02*
D03*
Y440000D02*
D03*
X945000Y680000D02*
D03*
X930000Y590000D02*
D03*
X945000Y500000D02*
D03*
X915000Y680000D02*
D03*
X900000Y650000D02*
D03*
X915000Y560000D02*
D03*
X900000Y530000D02*
D03*
Y290000D02*
D03*
X915000Y260000D02*
D03*
X885000Y680000D02*
D03*
X870000Y650000D02*
D03*
X885000Y500000D02*
D03*
Y440000D02*
D03*
X855000Y680000D02*
D03*
Y620000D02*
D03*
Y560000D02*
D03*
Y500000D02*
D03*
Y440000D02*
D03*
X825000Y680000D02*
D03*
Y560000D02*
D03*
X795000Y680000D02*
D03*
Y560000D02*
D03*
X765000Y620000D02*
D03*
X690000Y530000D02*
D03*
X660000Y650000D02*
D03*
X675000Y620000D02*
D03*
X660000Y530000D02*
D03*
X675000Y500000D02*
D03*
X660000Y470000D02*
D03*
X675000Y440000D02*
D03*
X645000Y680000D02*
D03*
X630000Y650000D02*
D03*
X645000Y620000D02*
D03*
X630000Y590000D02*
D03*
Y530000D02*
D03*
Y470000D02*
D03*
X615000Y680000D02*
D03*
Y560000D02*
D03*
Y500000D02*
D03*
X585000Y680000D02*
D03*
Y560000D02*
D03*
X555000Y680000D02*
D03*
Y560000D02*
D03*
X540000Y230000D02*
D03*
X525000Y680000D02*
D03*
Y620000D02*
D03*
X510000Y230000D02*
D03*
X495000Y620000D02*
D03*
X450000Y530000D02*
D03*
X465000Y140000D02*
D03*
X450000Y110000D02*
D03*
X420000Y650000D02*
D03*
X435000Y620000D02*
D03*
X420000Y530000D02*
D03*
X435000Y500000D02*
D03*
X420000Y470000D02*
D03*
X435000Y440000D02*
D03*
Y200000D02*
D03*
X420000Y170000D02*
D03*
X435000Y140000D02*
D03*
X420000Y110000D02*
D03*
X405000Y680000D02*
D03*
X390000Y530000D02*
D03*
Y470000D02*
D03*
Y350000D02*
D03*
Y230000D02*
D03*
X405000Y200000D02*
D03*
X390000Y170000D02*
D03*
Y110000D02*
D03*
X375000Y560000D02*
D03*
Y500000D02*
D03*
X360000Y230000D02*
D03*
X375000Y200000D02*
D03*
X360000Y170000D02*
D03*
X375000Y140000D02*
D03*
X360000Y110000D02*
D03*
X345000Y680000D02*
D03*
Y560000D02*
D03*
X330000Y350000D02*
D03*
Y230000D02*
D03*
X345000Y200000D02*
D03*
X330000Y110000D02*
D03*
X315000Y680000D02*
D03*
Y560000D02*
D03*
Y140000D02*
D03*
X300000Y110000D02*
D03*
X285000Y680000D02*
D03*
Y620000D02*
D03*
Y200000D02*
D03*
Y140000D02*
D03*
X270000Y110000D02*
D03*
X255000Y140000D02*
D03*
X240000Y110000D02*
D03*
X210000Y530000D02*
D03*
Y170000D02*
D03*
X225000Y140000D02*
D03*
X195000Y620000D02*
D03*
X180000Y530000D02*
D03*
X195000Y500000D02*
D03*
X180000Y470000D02*
D03*
X195000Y440000D02*
D03*
X180000Y410000D02*
D03*
Y230000D02*
D03*
X195000Y200000D02*
D03*
X180000Y170000D02*
D03*
X195000Y140000D02*
D03*
X180000Y110000D02*
D03*
X150000Y590000D02*
D03*
X165000Y560000D02*
D03*
X150000Y530000D02*
D03*
X165000Y500000D02*
D03*
X150000Y470000D02*
D03*
X165000Y440000D02*
D03*
X150000Y410000D02*
D03*
Y350000D02*
D03*
Y290000D02*
D03*
Y230000D02*
D03*
X165000Y200000D02*
D03*
X150000Y110000D02*
D03*
X120000Y530000D02*
D03*
X135000Y500000D02*
D03*
X120000Y470000D02*
D03*
Y410000D02*
D03*
Y350000D02*
D03*
X135000Y320000D02*
D03*
X120000Y290000D02*
D03*
X135000Y260000D02*
D03*
Y200000D02*
D03*
X120000Y170000D02*
D03*
X728500Y276250D02*
D03*
X747500Y267500D02*
D03*
X750000Y232500D02*
D03*
X730750Y227750D02*
D03*
X732500Y210500D02*
D03*
X749250D02*
D03*
X721750Y211000D02*
D03*
X711000Y211500D02*
D03*
X710250Y227000D02*
D03*
X700000Y226750D02*
D03*
X703500Y206750D02*
D03*
X691750Y219000D02*
D03*
X695250Y198500D02*
D03*
X683500Y211000D02*
D03*
X685750Y189250D02*
D03*
X674250Y201500D02*
D03*
X677000Y180250D02*
D03*
X665000Y172000D02*
D03*
X664750Y192500D02*
D03*
X653000Y172500D02*
D03*
X652750Y188750D02*
D03*
X641500Y172500D02*
D03*
X641250Y188750D02*
D03*
X630000Y172500D02*
D03*
X629750Y188750D02*
D03*
X617750Y172500D02*
D03*
Y188500D02*
D03*
X604750Y172500D02*
D03*
Y188500D02*
D03*
X592000Y172750D02*
D03*
Y188500D02*
D03*
X579000Y172750D02*
D03*
Y188500D02*
D03*
X442750Y233750D02*
D03*
X423500Y232500D02*
D03*
X399250D02*
D03*
X490750Y235000D02*
D03*
X473750Y234750D02*
D03*
X559250Y182000D02*
D03*
X566750Y196750D02*
D03*
X558500Y205250D02*
D03*
X548750Y190250D02*
D03*
X549500Y211750D02*
D03*
X538000Y193750D02*
D03*
Y211750D02*
D03*
X526750Y194000D02*
D03*
X526500Y211750D02*
D03*
X506750Y215250D02*
D03*
X492500Y200000D02*
D03*
X1002000Y196750D02*
D03*
X1580250Y192000D02*
D03*
X1579750Y253750D02*
D03*
X1443250Y335750D02*
D03*
Y306000D02*
D03*
X1343500Y433750D02*
D03*
X1376750Y452250D02*
D03*
X1165750Y455000D02*
D03*
X923000Y492000D02*
D03*
X1037500Y491750D02*
D03*
X1213750Y372750D02*
D03*
X1450250Y563500D02*
D03*
X1426750Y588750D02*
D03*
X1463000Y652000D02*
D03*
X1448250D02*
D03*
X1439250Y651750D02*
D03*
X1482500Y532750D02*
D03*
X1493000Y518000D02*
D03*
X1437250Y563500D02*
D03*
X1565750Y601750D02*
D03*
Y562250D02*
D03*
X328750Y253000D02*
D03*
X304250D02*
D03*
X284250Y253250D02*
D03*
X422500Y317750D02*
D03*
X398750Y317250D02*
D03*
X378250Y313000D02*
D03*
X366000Y284750D02*
D03*
X330000Y333250D02*
D03*
X375827Y344310D02*
D03*
X1206250Y520000D02*
D03*
X1148750Y509500D02*
D03*
X1454000Y506500D02*
D03*
Y489250D02*
D03*
X1377000Y409750D02*
D03*
X482750Y346250D02*
D03*
X1286652Y472155D02*
D03*
X1206735Y478985D02*
D03*
X1172735D02*
D03*
X1190485Y441985D02*
D03*
X1287000Y377750D02*
D03*
X1206750Y315500D02*
D03*
X1289750Y388000D02*
D03*
X1206750Y297500D02*
D03*
X1291750Y396500D02*
D03*
X1296750Y402500D02*
D03*
X1302500Y409500D02*
D03*
X1308250Y416000D02*
D03*
X1312000Y423750D02*
D03*
X1312750Y432750D02*
D03*
X1207250Y280250D02*
D03*
X1194250Y395750D02*
D03*
X1295750Y280500D02*
D03*
X1194500Y406460D02*
D03*
X1295750Y298500D02*
D03*
X1194500Y414000D02*
D03*
X1296000Y317750D02*
D03*
X1194500Y421750D02*
D03*
Y429500D02*
D03*
X1296000Y334500D02*
D03*
X1295750Y352250D02*
D03*
X1116500Y346000D02*
D03*
X1116750Y333750D02*
D03*
X1117000Y316000D02*
D03*
X1117250Y297500D02*
D03*
X1453750Y391250D02*
D03*
X1493500Y380750D02*
D03*
X1286906Y462941D02*
D03*
X1287000Y452750D02*
D03*
X1141500Y486750D02*
D03*
X1083750Y511750D02*
D03*
X1483249Y267702D02*
D03*
X1554000Y505250D02*
D03*
X1490750Y505500D02*
D03*
X1076250Y465750D02*
D03*
X1118000Y465000D02*
D03*
X1115250Y407250D02*
D03*
X1068000Y420750D02*
D03*
X1197250Y570750D02*
D03*
X986000D02*
D03*
X1176750Y579000D02*
D03*
X966750D02*
D03*
X1095500Y369500D02*
D03*
X1140750Y388500D02*
D03*
X1141250Y370250D02*
D03*
X930250Y402500D02*
D03*
X935000Y426250D02*
D03*
X900250Y425750D02*
D03*
X932750Y339500D02*
D03*
X937500Y352750D02*
D03*
X856750Y334500D02*
D03*
X862750Y327250D02*
D03*
X868500Y319250D02*
D03*
X874750Y311000D02*
D03*
X881250Y303000D02*
D03*
X887000Y295750D02*
D03*
X1030000Y300500D02*
D03*
X770500Y286750D02*
D03*
X1037750Y291000D02*
D03*
X1045750Y347000D02*
D03*
X1057250Y344000D02*
D03*
X1065000Y337750D02*
D03*
X1071000Y331750D02*
D03*
X1077500Y323500D02*
D03*
X1044000Y283750D02*
D03*
X1092250Y144500D02*
D03*
X1016500Y145000D02*
D03*
X1463500Y267250D02*
D03*
X1371750Y279750D02*
D03*
X1282000Y280000D02*
D03*
X1192500D02*
D03*
X1160750Y383500D02*
D03*
X1022750Y425000D02*
D03*
X458250Y276250D02*
D03*
X442500Y286250D02*
D03*
X474000Y276500D02*
D03*
X491000D02*
D03*
X508500D02*
D03*
X525000Y274000D02*
D03*
X1513250Y270500D02*
D03*
X1529250Y214000D02*
D03*
X1552250Y223250D02*
D03*
X1523000Y270750D02*
D03*
X1552500Y242250D02*
D03*
X1543750Y271000D02*
D03*
X1093000Y181500D02*
D03*
X1467750Y214000D02*
D03*
X992250Y187500D02*
D03*
X974250Y221000D02*
D03*
X1583250Y485250D02*
D03*
X1091250Y244000D02*
D03*
X774750Y155250D02*
D03*
X806000Y268500D02*
D03*
X799250Y276250D02*
D03*
X887180Y156320D02*
D03*
X927500Y212750D02*
D03*
X803500Y170750D02*
D03*
X833000Y185750D02*
D03*
X902500Y174500D02*
D03*
X939250Y213000D02*
D03*
X1048750Y206750D02*
D03*
X871250Y270000D02*
D03*
X852000Y286250D02*
D03*
X833000Y253750D02*
D03*
X849000Y238000D02*
D03*
Y198250D02*
D03*
X735500Y166500D02*
D03*
X458250Y186250D02*
D03*
X741250Y232500D02*
D03*
X741000Y205000D02*
D03*
X506770Y206230D02*
D03*
X501500Y200250D02*
D03*
X665250Y282750D02*
D03*
X641250Y283000D02*
D03*
X606000Y264250D02*
D03*
X588250Y278500D02*
D03*
X575500Y265250D02*
D03*
X559750Y278500D02*
D03*
X606500Y248750D02*
D03*
Y230750D02*
D03*
X606750Y213000D02*
D03*
X355500Y312000D02*
D03*
X314000Y333250D02*
D03*
X733880Y538796D02*
D03*
X732750Y514750D02*
D03*
X741130Y497546D02*
D03*
X729130Y451546D02*
D03*
X687630Y464296D02*
D03*
X749630Y549046D02*
D03*
X769880D02*
D03*
X494838Y538796D02*
D03*
X494000Y514750D02*
D03*
X502088Y497546D02*
D03*
X490088Y451546D02*
D03*
X448588Y464296D02*
D03*
X510588Y549046D02*
D03*
X530838D02*
D03*
X723176Y458092D02*
D03*
X729426Y435592D02*
D03*
X484134Y458092D02*
D03*
X490384Y435592D02*
D03*
X741130Y516088D02*
D03*
X740880Y524588D02*
D03*
X501750Y524500D02*
D03*
X502000Y516000D02*
D03*
X263771Y525599D02*
D03*
X251500Y435750D02*
D03*
X245250Y458250D02*
D03*
X264000Y516250D02*
D03*
X292000Y549250D02*
D03*
X271750D02*
D03*
X209750Y464500D02*
D03*
X251250Y451750D02*
D03*
X263250Y497750D02*
D03*
X256250Y514750D02*
D03*
X256000Y539000D02*
D03*
X1117500Y279750D02*
D03*
M02*
