G04*
G04 #@! TF.GenerationSoftware,Altium Limited,Altium Designer,22.4.2 (48)*
G04*
G04 Layer_Physical_Order=4*
G04 Layer_Color=13888217*
%FSLAX44Y44*%
%MOMM*%
G71*
G04*
G04 #@! TF.SameCoordinates,B701488B-7258-471B-98CB-2349E65484A3*
G04*
G04*
G04 #@! TF.FilePolarity,Positive*
G04*
G01*
G75*
%ADD14C,0.2540*%
G04:AMPARAMS|DCode=25|XSize=1mm|YSize=1.1mm|CornerRadius=0.075mm|HoleSize=0mm|Usage=FLASHONLY|Rotation=180.000|XOffset=0mm|YOffset=0mm|HoleType=Round|Shape=RoundedRectangle|*
%AMROUNDEDRECTD25*
21,1,1.0000,0.9500,0,0,180.0*
21,1,0.8500,1.1000,0,0,180.0*
1,1,0.1500,-0.4250,0.4750*
1,1,0.1500,0.4250,0.4750*
1,1,0.1500,0.4250,-0.4750*
1,1,0.1500,-0.4250,-0.4750*
%
%ADD25ROUNDEDRECTD25*%
%ADD104C,1.4080*%
%ADD105R,1.4080X1.4080*%
%ADD106C,2.4000*%
%ADD107C,3.2000*%
%ADD108C,1.6000*%
G04:AMPARAMS|DCode=109|XSize=1.6mm|YSize=1.6mm|CornerRadius=0.4mm|HoleSize=0mm|Usage=FLASHONLY|Rotation=180.000|XOffset=0mm|YOffset=0mm|HoleType=Round|Shape=RoundedRectangle|*
%AMROUNDEDRECTD109*
21,1,1.6000,0.8000,0,0,180.0*
21,1,0.8000,1.6000,0,0,180.0*
1,1,0.8000,-0.4000,0.4000*
1,1,0.8000,0.4000,0.4000*
1,1,0.8000,0.4000,-0.4000*
1,1,0.8000,-0.4000,-0.4000*
%
%ADD109ROUNDEDRECTD109*%
%ADD110C,1.4500*%
G04:AMPARAMS|DCode=111|XSize=1.6mm|YSize=1.6mm|CornerRadius=0.4mm|HoleSize=0mm|Usage=FLASHONLY|Rotation=270.000|XOffset=0mm|YOffset=0mm|HoleType=Round|Shape=RoundedRectangle|*
%AMROUNDEDRECTD111*
21,1,1.6000,0.8000,0,0,270.0*
21,1,0.8000,1.6000,0,0,270.0*
1,1,0.8000,-0.4000,-0.4000*
1,1,0.8000,-0.4000,0.4000*
1,1,0.8000,0.4000,0.4000*
1,1,0.8000,0.4000,-0.4000*
%
%ADD111ROUNDEDRECTD111*%
%ADD112C,3.7000*%
G04:AMPARAMS|DCode=113|XSize=1.5mm|YSize=3mm|CornerRadius=0.375mm|HoleSize=0mm|Usage=FLASHONLY|Rotation=90.000|XOffset=0mm|YOffset=0mm|HoleType=Round|Shape=RoundedRectangle|*
%AMROUNDEDRECTD113*
21,1,1.5000,2.2500,0,0,90.0*
21,1,0.7500,3.0000,0,0,90.0*
1,1,0.7500,1.1250,0.3750*
1,1,0.7500,1.1250,-0.3750*
1,1,0.7500,-1.1250,-0.3750*
1,1,0.7500,-1.1250,0.3750*
%
%ADD113ROUNDEDRECTD113*%
G04:AMPARAMS|DCode=114|XSize=1.5mm|YSize=3mm|CornerRadius=0.375mm|HoleSize=0mm|Usage=FLASHONLY|Rotation=180.000|XOffset=0mm|YOffset=0mm|HoleType=Round|Shape=RoundedRectangle|*
%AMROUNDEDRECTD114*
21,1,1.5000,2.2500,0,0,180.0*
21,1,0.7500,3.0000,0,0,180.0*
1,1,0.7500,-0.3750,1.1250*
1,1,0.7500,0.3750,1.1250*
1,1,0.7500,0.3750,-1.1250*
1,1,0.7500,-0.3750,-1.1250*
%
%ADD114ROUNDEDRECTD114*%
%ADD115C,6.0000*%
%ADD116R,1.6500X1.6500*%
%ADD117C,1.6500*%
%ADD118C,0.5000*%
D14*
X1471250Y525500D02*
X1490250D01*
X1133000Y393250D02*
X1192500Y452750D01*
X1090750Y393250D02*
X1133000D01*
X1088000Y396000D02*
X1090750Y393250D01*
X1185250Y463000D02*
X1286847D01*
X1129500Y407250D02*
X1185250Y463000D01*
X1115250Y407250D02*
X1129500D01*
X686000Y251250D02*
X716000D01*
X751500Y286750D02*
X770500D01*
X716000Y251250D02*
X751500Y286750D01*
X507435Y206230D02*
X509376Y204290D01*
X550173D02*
X571923Y182540D01*
X506770Y206230D02*
X507435D01*
X509376Y204290D02*
X550173D01*
X1448250Y652000D02*
X1499750Y600500D01*
Y535000D02*
Y600500D01*
X1490250Y525500D02*
X1499750Y535000D01*
X1482500Y532750D02*
Y608500D01*
X1439250Y651750D02*
X1482500Y608500D01*
X1460250Y518000D02*
X1493000D01*
X1437250Y541000D02*
X1460250Y518000D01*
X1437250Y541000D02*
Y563500D01*
X370140Y379860D02*
Y402570D01*
Y379860D02*
X447000Y303000D01*
X881250D01*
X1311500Y274250D02*
Y353250D01*
X1304500Y267250D02*
X1311500Y274250D01*
X1287000Y377750D02*
X1311500Y353250D01*
X1229000Y267250D02*
X1304500D01*
X1221750Y274500D02*
Y300500D01*
Y274500D02*
X1229000Y267250D01*
X1213750Y269250D02*
X1221698Y261302D01*
X1304948D02*
X1304948Y261302D01*
X1221698Y261302D02*
X1304948D01*
X1304948Y261302D02*
X1310052D01*
X1319500Y270750D02*
Y358250D01*
X1310052Y261302D02*
X1319500Y270750D01*
X1289750Y388000D02*
X1319500Y358250D01*
X1291750Y396500D02*
X1326500Y361750D01*
X1317250Y255250D02*
X1326500Y264500D01*
Y361750D01*
X1216250Y255250D02*
X1317250D01*
X1333000Y257500D02*
Y366250D01*
X1323000Y247500D02*
X1333000Y257500D01*
X1170750Y247500D02*
X1323000D01*
X1296750Y402500D02*
X1333000Y366250D01*
X1328250Y240500D02*
X1339750Y252000D01*
Y372250D01*
X1165500Y240500D02*
X1328250D01*
X1302500Y409500D02*
X1339750Y372250D01*
X1161000Y233250D02*
X1332500D01*
X1347500Y248250D02*
Y376750D01*
X1332500Y233250D02*
X1347500Y248250D01*
X1336250Y224750D02*
X1355000Y243500D01*
X1156250Y224750D02*
X1336250D01*
X1355000Y243500D02*
Y380750D01*
X1308250Y416000D02*
X1347500Y376750D01*
X1312000Y423750D02*
X1355000Y380750D01*
X1337750Y216250D02*
X1362500Y241000D01*
X1312750Y432750D02*
X1362500Y383000D01*
Y241000D02*
Y383000D01*
X1206750Y315500D02*
X1221750Y300500D01*
X1213750Y269250D02*
Y290500D01*
X1206750Y297500D02*
X1213750Y290500D01*
X1207250Y264250D02*
Y280250D01*
Y264250D02*
X1216250Y255250D01*
X1117500Y250750D02*
Y279750D01*
X1152000Y216250D02*
X1337750D01*
X1117500Y250750D02*
X1152000Y216250D01*
X1147250Y271000D02*
Y315250D01*
X1116500Y346000D02*
X1147250Y315250D01*
Y271000D02*
X1170750Y247500D01*
X1140000Y266000D02*
X1165500Y240500D01*
X1116750Y333750D02*
X1140000Y310500D01*
Y266000D02*
Y310500D01*
X1117000Y316000D02*
X1133000Y300000D01*
Y261250D02*
Y300000D01*
Y261250D02*
X1161000Y233250D01*
X1124750Y256250D02*
X1156250Y224750D01*
X1117250Y297500D02*
X1124750Y290000D01*
Y256250D02*
Y290000D01*
X1091250Y244000D02*
X1139000Y196250D01*
X1358250D02*
X1583250Y421250D01*
X1139000Y196250D02*
X1358250D01*
X1296000Y317750D02*
Y325250D01*
X1207721Y413529D02*
X1296000Y325250D01*
X1194971Y413529D02*
X1207721D01*
X1296000Y334500D02*
Y338750D01*
X1213000Y421750D02*
X1296000Y338750D01*
X1194500Y421750D02*
X1213000D01*
X1194500Y429500D02*
X1218500D01*
X1295750Y352250D01*
X1194250Y382000D02*
Y395750D01*
Y382000D02*
X1295750Y280500D01*
Y298500D02*
Y305210D01*
X1194500Y406460D02*
X1295750Y305210D01*
X1194500Y414000D02*
X1194971Y413529D01*
X1583250Y421250D02*
Y485250D01*
X1093000Y181500D02*
X1435250D01*
X1467750Y214000D01*
X1286906Y462941D02*
X1334482D01*
X1406173Y391250D02*
X1453750D01*
X1334482Y462941D02*
X1406173Y391250D01*
X1381500Y380750D02*
X1493500D01*
X1309500Y452750D02*
X1381500Y380750D01*
X1287000Y452750D02*
X1309500D01*
X1192500D02*
X1287000D01*
X1286847Y463000D02*
X1286906Y462941D01*
X1081500Y407250D02*
X1115250D01*
X1068000Y420750D02*
X1081500Y407250D01*
X986000Y570750D02*
X1197250D01*
X966750Y579000D02*
X1176750D01*
X871390Y407320D02*
X874070Y410000D01*
X982750D02*
X1045750Y347000D01*
X874070Y410000D02*
X982750D01*
X840710Y383000D02*
X969500D01*
X1028000Y324500D01*
X820620Y403090D02*
X840710Y383000D01*
X802620Y403090D02*
X829710Y376000D01*
X966000D01*
X1025000Y317000D01*
X667640Y406820D02*
X705460Y369000D01*
X921250D01*
X937500Y352750D01*
X673750Y362500D02*
X883750D01*
X906750Y339500D02*
X932750D01*
X883750Y362500D02*
X906750Y339500D01*
X649390Y386860D02*
X673750Y362500D01*
X649390Y386860D02*
Y407320D01*
X838870Y403090D02*
X852210Y389750D01*
X972000D01*
X1030000Y331750D01*
X857370Y403090D02*
X864210Y396250D01*
X975250D02*
X1033250Y338250D01*
X864210Y396250D02*
X975250D01*
X660000Y356250D02*
X873000D01*
X928750Y300500D01*
X631140Y385110D02*
X660000Y356250D01*
X928750Y300500D02*
X1030000D01*
X868250Y350000D02*
X927250Y291000D01*
X612890Y382110D02*
X645000Y350000D01*
X868250D01*
X927250Y291000D02*
X1037750D01*
X632250Y342500D02*
X863750D01*
X922500Y283750D01*
X1044000D01*
X594640Y380110D02*
X632250Y342500D01*
X443250Y437500D02*
X546250Y334500D01*
X856750D01*
X485500Y327250D02*
X862750D01*
X426390Y386360D02*
X485500Y327250D01*
X407640Y384110D02*
X472500Y319250D01*
X868500D01*
X456000Y311000D02*
X874750D01*
X388890Y378110D02*
X456000Y311000D01*
X351140Y377860D02*
X433250Y295750D01*
X887000D01*
X612890Y382110D02*
Y407320D01*
X631140Y385110D02*
Y407320D01*
X657750Y223000D02*
X686000Y251250D01*
X1033250Y338250D02*
X1051500D01*
X1057250Y344000D01*
X1059000Y331750D02*
X1065000Y337750D01*
X1030000Y331750D02*
X1059000D01*
X1063750Y324500D02*
X1071000Y331750D01*
X1028000Y324500D02*
X1063750D01*
X1025000Y317000D02*
X1071000D01*
X1077500Y323500D01*
X594640Y380110D02*
Y407320D01*
X798390Y406820D02*
Y407320D01*
Y406820D02*
X802120Y403090D01*
X802620D01*
X816390Y406820D02*
Y407320D01*
Y406820D02*
X820120Y403090D01*
X820620D01*
X853140Y406820D02*
Y407320D01*
Y406820D02*
X856870Y403090D01*
X857370D01*
X834640Y406820D02*
Y407320D01*
Y406820D02*
X838370Y403090D01*
X838870D01*
X426390Y386360D02*
Y402570D01*
X407640Y384110D02*
Y402570D01*
X388890Y378110D02*
Y402570D01*
X351140Y377860D02*
Y402570D01*
X1513250Y230000D02*
X1529250Y214000D01*
X1513250Y230000D02*
Y270500D01*
X1537625Y237875D02*
Y237875D01*
X1523000Y252500D02*
Y270750D01*
Y252500D02*
X1537625Y237875D01*
Y237875D02*
X1552250Y223250D01*
X1543750Y251000D02*
X1552500Y242250D01*
X1543750Y251000D02*
Y271000D01*
X974250Y221000D02*
X992250Y203000D01*
Y187500D02*
Y203000D01*
X774750Y155250D02*
Y172250D01*
X756750Y191750D02*
X806000Y241000D01*
X756750Y160750D02*
Y191750D01*
Y160750D02*
X768500Y149000D01*
X791800D01*
X810800Y130000D01*
X806000Y241000D02*
Y268500D01*
X799250Y276250D02*
X833750D01*
X862500Y247500D01*
X886860Y156000D02*
X887180Y156320D01*
X844500Y156000D02*
X886860D01*
X816500Y184000D02*
X844500Y156000D01*
X786500Y184000D02*
X816500D01*
X774750Y172250D02*
X786500Y184000D01*
X902500Y156250D02*
Y174500D01*
X891250Y145000D02*
X902500Y156250D01*
X851200Y145000D02*
X891250D01*
X888250Y130000D02*
X927500Y169250D01*
Y212750D01*
X861600Y130000D02*
X888250D01*
X824000Y122250D02*
Y150250D01*
X803500Y170750D02*
X824000Y150250D01*
Y122250D02*
X830000Y116250D01*
X849500D01*
X861600Y128350D01*
Y130000D01*
X836200D02*
X851200Y145000D01*
X904750Y247500D02*
X939250Y213000D01*
X862500Y247500D02*
X904750D01*
X862750Y433430D02*
Y582750D01*
X798308Y615250D02*
X830250D01*
X862750Y582750D01*
X871390Y423320D02*
Y586860D01*
X822666Y635584D02*
X871390Y586860D01*
X809724Y635584D02*
X822666D01*
X778228Y635330D02*
X798308Y615250D01*
X853140Y423820D02*
X862750Y433430D01*
X853140Y423320D02*
Y423820D01*
X697500Y511000D02*
Y618138D01*
Y511000D02*
X763000Y445500D01*
X794710D01*
X697500Y618138D02*
X714432Y635070D01*
X719000Y507250D02*
X765250Y461000D01*
X719000Y608106D02*
X746224Y635330D01*
X719000Y507250D02*
Y608106D01*
X765250Y461000D02*
X797460D01*
X834640Y423820D01*
Y423320D02*
Y423820D01*
X767930Y423320D02*
X798390D01*
X681962Y509288D02*
Y634822D01*
Y509288D02*
X767930Y423320D01*
X794710Y445500D02*
X816390Y423820D01*
Y423320D02*
Y423820D01*
X487500Y496500D02*
Y560003D01*
Y496500D02*
X514750Y469250D01*
X487500Y560003D02*
X507182Y579684D01*
X539186Y635330D02*
X568766Y605750D01*
X606500D02*
X649390Y562860D01*
Y423320D02*
Y562860D01*
X568766Y605750D02*
X606500D01*
X571640Y635584D02*
X595416D01*
X667640Y423320D02*
Y563360D01*
X595416Y635584D02*
X667640Y563360D01*
X570682Y635584D02*
X571640D01*
X585710Y469250D02*
X631140Y423820D01*
X514750Y469250D02*
X585710D01*
X631140Y423320D02*
Y423820D01*
X507182Y579684D02*
Y635330D01*
X475390Y493360D02*
X519500Y449250D01*
X587460D01*
X612890Y423820D01*
X475390Y493360D02*
Y634070D01*
X529180Y423320D02*
X594640D01*
X461500Y491000D02*
X529180Y423320D01*
X461500Y491000D02*
Y616242D01*
X612890Y423320D02*
Y423820D01*
X442920Y634822D02*
X461500Y616242D01*
X443250Y437500D02*
Y584000D01*
X378750Y605250D02*
X407640Y576360D01*
Y418570D02*
Y576360D01*
X369640Y418570D02*
Y419570D01*
X365910Y422800D02*
X366410D01*
X369640Y419570D01*
X344710Y444000D02*
X365910Y422800D01*
X287750Y444000D02*
X344710D01*
X389750Y617000D02*
X426390Y580360D01*
Y418320D02*
Y580360D01*
X350224Y617000D02*
X389750D01*
X391710Y635540D02*
X443250Y584000D01*
X330224Y605250D02*
X378750D01*
X300144Y635330D02*
X330224Y605250D01*
X331640Y635584D02*
X350224Y617000D01*
X217000Y514750D02*
Y615722D01*
Y514750D02*
X287750Y444000D01*
X231500Y515500D02*
Y598690D01*
Y515500D02*
X284317Y462683D01*
X345276D01*
X231500Y598690D02*
X268140Y635330D01*
X388890Y418570D02*
Y419070D01*
X345276Y462683D02*
X388890Y419070D01*
X217000Y615722D02*
X236348Y635070D01*
X296930Y418570D02*
X351140D01*
X203878Y511622D02*
Y634822D01*
Y511622D02*
X296930Y418570D01*
X362990Y635540D02*
X391710D01*
X667640Y406820D02*
Y407320D01*
X495000Y223000D02*
X657750D01*
X458250Y186250D02*
X495000Y223000D01*
X737500Y221040D02*
X741250Y224790D01*
Y232500D01*
X665077Y182540D02*
X703577Y221040D01*
X737500D01*
X571923Y182540D02*
X665077D01*
X740750Y205250D02*
Y214500D01*
Y205250D02*
X741000Y205000D01*
X738250Y217000D02*
X740750Y214500D01*
X705250Y217000D02*
X738250D01*
X666750Y178500D02*
X705250Y217000D01*
X570250Y178500D02*
X666750D01*
X548500Y200250D02*
X570250Y178500D01*
X501500Y200250D02*
X548500D01*
X507182Y635330D02*
X507890Y634622D01*
X475390Y635070D02*
X476390Y634070D01*
D25*
X853140Y423320D02*
D03*
Y407320D02*
D03*
X871390Y423320D02*
D03*
Y407320D02*
D03*
X816390Y423320D02*
D03*
Y407320D02*
D03*
X798390Y423320D02*
D03*
Y407320D02*
D03*
X834640Y423320D02*
D03*
Y407320D02*
D03*
X649390Y423320D02*
D03*
Y407320D02*
D03*
X594640Y423320D02*
D03*
Y407320D02*
D03*
X667640Y423320D02*
D03*
Y407320D02*
D03*
X631140Y423320D02*
D03*
Y407320D02*
D03*
X612890Y423320D02*
D03*
Y407320D02*
D03*
X351140Y418570D02*
D03*
Y402570D02*
D03*
X370140Y418570D02*
D03*
Y402570D02*
D03*
X426390Y418570D02*
D03*
Y402570D02*
D03*
X388890Y418570D02*
D03*
Y402570D02*
D03*
X407640Y418570D02*
D03*
Y402570D02*
D03*
D104*
X1155970Y547800D02*
D03*
X1247370D02*
D03*
X1133070D02*
D03*
X1270270D02*
D03*
X1196570Y596000D02*
D03*
X1206770Y613800D02*
D03*
X1186370D02*
D03*
X1216970Y596000D02*
D03*
X1176170D02*
D03*
X1227170Y613800D02*
D03*
X1237370Y596000D02*
D03*
X945970Y548000D02*
D03*
X1037370D02*
D03*
X923070D02*
D03*
X1060270D02*
D03*
X986570Y596200D02*
D03*
X996770Y614000D02*
D03*
X976370D02*
D03*
X1006970Y596200D02*
D03*
X966170D02*
D03*
X1017170Y614000D02*
D03*
X1027370Y596200D02*
D03*
D105*
X1165970Y613800D02*
D03*
X955970Y614000D02*
D03*
D106*
X1120420Y604900D02*
D03*
X1282920D02*
D03*
X910420Y605100D02*
D03*
X1072920D02*
D03*
D107*
X1138170Y639200D02*
D03*
X1265170D02*
D03*
X928170Y639400D02*
D03*
X1055170D02*
D03*
D108*
X1263750Y144000D02*
D03*
X1289150D02*
D03*
X1339950D02*
D03*
X1365350D02*
D03*
X1314550D02*
D03*
X1338500Y547950D02*
D03*
Y598750D02*
D03*
Y624150D02*
D03*
Y573350D02*
D03*
X1384000Y548200D02*
D03*
Y599000D02*
D03*
Y624400D02*
D03*
Y573600D02*
D03*
X861600Y130000D02*
D03*
X836200D02*
D03*
X785400D02*
D03*
X760000D02*
D03*
X810800D02*
D03*
D109*
X1390750Y144000D02*
D03*
X734600Y130000D02*
D03*
D110*
X530800Y141900D02*
D03*
X480800D02*
D03*
D111*
X1338500Y649550D02*
D03*
X1384000Y649800D02*
D03*
D112*
X183000Y266000D02*
D03*
Y338000D02*
D03*
X316000Y186000D02*
D03*
X244000D02*
D03*
D113*
X123000Y234500D02*
D03*
Y369500D02*
D03*
D114*
X347500Y126000D02*
D03*
X212500D02*
D03*
D115*
X1549800Y150600D02*
D03*
Y650600D02*
D03*
X149800D02*
D03*
Y150600D02*
D03*
D116*
X362990Y635540D02*
D03*
X300144Y635330D02*
D03*
X331640Y635584D02*
D03*
X203878Y634822D02*
D03*
X236348Y635070D02*
D03*
X268140Y635330D02*
D03*
X539186D02*
D03*
X507182D02*
D03*
X442920Y634822D02*
D03*
X570682Y635584D02*
D03*
X475390Y635070D02*
D03*
X809724Y635584D02*
D03*
X778228Y635330D02*
D03*
X681962Y634822D02*
D03*
X714432Y635070D02*
D03*
X746224Y635330D02*
D03*
D117*
X362990Y660940D02*
D03*
Y686340D02*
D03*
X300144Y660730D02*
D03*
Y686130D02*
D03*
X331640Y660984D02*
D03*
Y686384D02*
D03*
X203878Y660222D02*
D03*
Y685622D02*
D03*
X236348Y660470D02*
D03*
Y685870D02*
D03*
X268140Y660730D02*
D03*
Y686130D02*
D03*
X539186Y660730D02*
D03*
Y686130D02*
D03*
X507182Y660730D02*
D03*
Y686130D02*
D03*
X442920Y660222D02*
D03*
Y685622D02*
D03*
X570682Y660984D02*
D03*
Y686384D02*
D03*
X475390Y660470D02*
D03*
Y685870D02*
D03*
X809724Y660984D02*
D03*
Y686384D02*
D03*
X778228Y660730D02*
D03*
Y686130D02*
D03*
X681962Y660222D02*
D03*
Y685622D02*
D03*
X714432Y660470D02*
D03*
Y685870D02*
D03*
X746224Y660730D02*
D03*
Y686130D02*
D03*
D118*
X1471250Y525500D02*
D03*
X1228000Y582750D02*
D03*
X1187250Y581250D02*
D03*
X1159250Y596000D02*
D03*
X1017500Y585000D02*
D03*
X958000Y572000D02*
D03*
X977250Y585250D02*
D03*
X951250Y595750D02*
D03*
X794000Y634250D02*
D03*
X762250D02*
D03*
X730500D02*
D03*
X698250D02*
D03*
X555000D02*
D03*
X523250D02*
D03*
X491500D02*
D03*
X459250Y634000D02*
D03*
X220250Y634500D02*
D03*
X252250Y634750D02*
D03*
X284250D02*
D03*
X316000D02*
D03*
X347500D02*
D03*
X343500Y612750D02*
D03*
X258000Y616000D02*
D03*
X225750D02*
D03*
X1026250Y404750D02*
D03*
X755750Y151750D02*
D03*
X767250Y535250D02*
D03*
X528000D02*
D03*
X289000Y535500D02*
D03*
X1513750Y200000D02*
D03*
X1467750Y198000D02*
D03*
X1467000Y228000D02*
D03*
X1100750Y190000D02*
D03*
X1100000Y251500D02*
D03*
X1002750Y262750D02*
D03*
X977500Y263000D02*
D03*
X1193000Y334000D02*
D03*
Y315750D02*
D03*
Y297750D02*
D03*
X1383250Y352000D02*
D03*
Y333750D02*
D03*
Y315750D02*
D03*
X1383500Y297750D02*
D03*
X1371000Y352250D02*
D03*
Y334000D02*
D03*
Y316000D02*
D03*
X1371250Y297750D02*
D03*
X1483250Y341500D02*
D03*
X1483000Y357000D02*
D03*
X1466500Y356750D02*
D03*
X1466250Y373250D02*
D03*
X1443250Y397750D02*
D03*
X1508500Y383500D02*
D03*
X1502500Y371250D02*
D03*
X1484500Y390500D02*
D03*
X1296500Y469750D02*
D03*
X1230000Y469250D02*
D03*
X1258500D02*
D03*
X1227250Y446250D02*
D03*
X658500Y130750D02*
D03*
X634750Y115500D02*
D03*
X610250Y130500D02*
D03*
X635000Y146750D02*
D03*
X498000Y210250D02*
D03*
X524500Y185000D02*
D03*
X483250Y184750D02*
D03*
X445250Y167500D02*
D03*
X564750Y231000D02*
D03*
X565250Y345000D02*
D03*
X980750Y420750D02*
D03*
X966500D02*
D03*
X1006000Y310500D02*
D03*
X990750Y328500D02*
D03*
X970000Y310500D02*
D03*
X934250Y311000D02*
D03*
X915000Y328500D02*
D03*
X921750Y348750D02*
D03*
X951500Y329000D02*
D03*
X990500Y338500D02*
D03*
X977500D02*
D03*
X977750Y352750D02*
D03*
X964750D02*
D03*
Y366000D02*
D03*
X965000Y338750D02*
D03*
X1344250Y492250D02*
D03*
X1297250D02*
D03*
X1247500Y491250D02*
D03*
X1227250Y383750D02*
D03*
X1258750Y401000D02*
D03*
X1258500Y415000D02*
D03*
X1258750Y430000D02*
D03*
X1227250Y432500D02*
D03*
X1259000Y445250D02*
D03*
X1489250Y623250D02*
D03*
X1489500Y593000D02*
D03*
X1469500Y608250D02*
D03*
X1456750Y593250D02*
D03*
X1443250Y609000D02*
D03*
X1456750Y623750D02*
D03*
X1426750Y629500D02*
D03*
X1404500Y650750D02*
D03*
X1127000Y400750D02*
D03*
X1088000Y396000D02*
D03*
X1101250Y400750D02*
D03*
X1165250Y434250D02*
D03*
X1147000Y416250D02*
D03*
X1138250Y407500D02*
D03*
X1131000Y454500D02*
D03*
X1073000Y454000D02*
D03*
X1131250Y421000D02*
D03*
X1079500Y398750D02*
D03*
X1062750D02*
D03*
X994500Y410250D02*
D03*
X994750Y425000D02*
D03*
X911000Y401750D02*
D03*
X887000Y286750D02*
D03*
X1173750Y130250D02*
D03*
X1150250Y145250D02*
D03*
X1197250D02*
D03*
X1575000Y680000D02*
D03*
Y620000D02*
D03*
X1560000Y110000D02*
D03*
X1530000D02*
D03*
X1515000Y680000D02*
D03*
Y140000D02*
D03*
X1500000Y110000D02*
D03*
X1485000Y680000D02*
D03*
X1470000Y110000D02*
D03*
X1380000Y470000D02*
D03*
X1395000Y440000D02*
D03*
X1365000Y620000D02*
D03*
X1350000Y590000D02*
D03*
X1365000Y560000D02*
D03*
X1320000Y590000D02*
D03*
X1305000Y680000D02*
D03*
X1290000Y650000D02*
D03*
X1305000Y620000D02*
D03*
Y560000D02*
D03*
X1275000Y680000D02*
D03*
X1260000Y590000D02*
D03*
X1275000Y560000D02*
D03*
X1245000Y680000D02*
D03*
X1230000Y650000D02*
D03*
X1245000Y620000D02*
D03*
Y560000D02*
D03*
X1215000Y680000D02*
D03*
X1200000Y650000D02*
D03*
X1215000Y560000D02*
D03*
X1185000Y680000D02*
D03*
X1170000Y650000D02*
D03*
X1185000Y560000D02*
D03*
X1155000Y680000D02*
D03*
X1140000Y590000D02*
D03*
X1125000Y680000D02*
D03*
X1110000Y650000D02*
D03*
X1095000Y680000D02*
D03*
X1080000Y650000D02*
D03*
X1095000Y620000D02*
D03*
Y560000D02*
D03*
X1065000Y680000D02*
D03*
X1050000Y590000D02*
D03*
X1065000Y560000D02*
D03*
Y440000D02*
D03*
X1035000Y680000D02*
D03*
X1020000Y650000D02*
D03*
X1035000Y620000D02*
D03*
Y560000D02*
D03*
X1020000Y530000D02*
D03*
Y470000D02*
D03*
X1035000Y440000D02*
D03*
X1005000Y680000D02*
D03*
X990000Y650000D02*
D03*
X1005000Y560000D02*
D03*
X990000Y530000D02*
D03*
X1005000Y500000D02*
D03*
X990000Y470000D02*
D03*
X1005000Y440000D02*
D03*
X975000Y680000D02*
D03*
X960000Y650000D02*
D03*
X975000Y560000D02*
D03*
X960000Y530000D02*
D03*
X975000Y500000D02*
D03*
Y440000D02*
D03*
X945000Y680000D02*
D03*
X930000Y590000D02*
D03*
X945000Y500000D02*
D03*
X915000Y680000D02*
D03*
X900000Y650000D02*
D03*
X915000Y560000D02*
D03*
X900000Y530000D02*
D03*
Y290000D02*
D03*
X915000Y260000D02*
D03*
X885000Y680000D02*
D03*
X870000Y650000D02*
D03*
X885000Y500000D02*
D03*
Y440000D02*
D03*
X855000Y680000D02*
D03*
Y620000D02*
D03*
Y560000D02*
D03*
Y500000D02*
D03*
Y440000D02*
D03*
X825000Y680000D02*
D03*
Y560000D02*
D03*
X795000Y680000D02*
D03*
Y560000D02*
D03*
X765000Y620000D02*
D03*
X690000Y530000D02*
D03*
X660000Y650000D02*
D03*
X675000Y620000D02*
D03*
X660000Y530000D02*
D03*
X675000Y500000D02*
D03*
X660000Y470000D02*
D03*
X675000Y440000D02*
D03*
X645000Y680000D02*
D03*
X630000Y650000D02*
D03*
X645000Y620000D02*
D03*
X630000Y590000D02*
D03*
Y530000D02*
D03*
Y470000D02*
D03*
X615000Y680000D02*
D03*
Y560000D02*
D03*
Y500000D02*
D03*
X585000Y680000D02*
D03*
Y560000D02*
D03*
X555000Y680000D02*
D03*
Y560000D02*
D03*
X540000Y230000D02*
D03*
X525000Y680000D02*
D03*
Y620000D02*
D03*
X510000Y230000D02*
D03*
X495000Y620000D02*
D03*
X450000Y530000D02*
D03*
X465000Y140000D02*
D03*
X450000Y110000D02*
D03*
X420000Y650000D02*
D03*
X435000Y620000D02*
D03*
X420000Y530000D02*
D03*
X435000Y500000D02*
D03*
X420000Y470000D02*
D03*
X435000Y440000D02*
D03*
Y200000D02*
D03*
X420000Y170000D02*
D03*
X435000Y140000D02*
D03*
X420000Y110000D02*
D03*
X405000Y680000D02*
D03*
X390000Y530000D02*
D03*
Y470000D02*
D03*
Y350000D02*
D03*
Y230000D02*
D03*
X405000Y200000D02*
D03*
X390000Y170000D02*
D03*
Y110000D02*
D03*
X375000Y560000D02*
D03*
Y500000D02*
D03*
X360000Y230000D02*
D03*
X375000Y200000D02*
D03*
X360000Y170000D02*
D03*
X375000Y140000D02*
D03*
X360000Y110000D02*
D03*
X345000Y680000D02*
D03*
Y560000D02*
D03*
X330000Y350000D02*
D03*
Y230000D02*
D03*
X345000Y200000D02*
D03*
X330000Y110000D02*
D03*
X315000Y680000D02*
D03*
Y560000D02*
D03*
Y140000D02*
D03*
X300000Y110000D02*
D03*
X285000Y680000D02*
D03*
Y620000D02*
D03*
Y200000D02*
D03*
Y140000D02*
D03*
X270000Y110000D02*
D03*
X255000Y140000D02*
D03*
X240000Y110000D02*
D03*
X210000Y530000D02*
D03*
Y170000D02*
D03*
X225000Y140000D02*
D03*
X195000Y620000D02*
D03*
X180000Y530000D02*
D03*
X195000Y500000D02*
D03*
X180000Y470000D02*
D03*
X195000Y440000D02*
D03*
X180000Y410000D02*
D03*
Y230000D02*
D03*
X195000Y200000D02*
D03*
X180000Y170000D02*
D03*
X195000Y140000D02*
D03*
X180000Y110000D02*
D03*
X150000Y590000D02*
D03*
X165000Y560000D02*
D03*
X150000Y530000D02*
D03*
X165000Y500000D02*
D03*
X150000Y470000D02*
D03*
X165000Y440000D02*
D03*
X150000Y410000D02*
D03*
Y350000D02*
D03*
Y290000D02*
D03*
Y230000D02*
D03*
X165000Y200000D02*
D03*
X150000Y110000D02*
D03*
X120000Y530000D02*
D03*
X135000Y500000D02*
D03*
X120000Y470000D02*
D03*
Y410000D02*
D03*
Y350000D02*
D03*
X135000Y320000D02*
D03*
X120000Y290000D02*
D03*
X135000Y260000D02*
D03*
Y200000D02*
D03*
X120000Y170000D02*
D03*
X728500Y276250D02*
D03*
X747500Y267500D02*
D03*
X750000Y232500D02*
D03*
X730750Y227750D02*
D03*
X732500Y210500D02*
D03*
X749250D02*
D03*
X721750Y211000D02*
D03*
X711000Y211500D02*
D03*
X710250Y227000D02*
D03*
X700000Y226750D02*
D03*
X703500Y206750D02*
D03*
X691750Y219000D02*
D03*
X695250Y198500D02*
D03*
X683500Y211000D02*
D03*
X685750Y189250D02*
D03*
X674250Y201500D02*
D03*
X677000Y180250D02*
D03*
X665000Y172000D02*
D03*
X664750Y192500D02*
D03*
X653000Y172500D02*
D03*
X652750Y188750D02*
D03*
X641500Y172500D02*
D03*
X641250Y188750D02*
D03*
X630000Y172500D02*
D03*
X629750Y188750D02*
D03*
X617750Y172500D02*
D03*
Y188500D02*
D03*
X604750Y172500D02*
D03*
Y188500D02*
D03*
X592000Y172750D02*
D03*
Y188500D02*
D03*
X579000Y172750D02*
D03*
Y188500D02*
D03*
X442750Y233750D02*
D03*
X423500Y232500D02*
D03*
X399250D02*
D03*
X490750Y235000D02*
D03*
X473750Y234750D02*
D03*
X559250Y182000D02*
D03*
X566750Y196750D02*
D03*
X558500Y205250D02*
D03*
X548750Y190250D02*
D03*
X549500Y211750D02*
D03*
X538000Y193750D02*
D03*
Y211750D02*
D03*
X526750Y194000D02*
D03*
X526500Y211750D02*
D03*
X506750Y215250D02*
D03*
X492500Y200000D02*
D03*
X1002000Y196750D02*
D03*
X1580250Y192000D02*
D03*
X1579750Y253750D02*
D03*
X1443250Y335750D02*
D03*
Y306000D02*
D03*
X1343500Y433750D02*
D03*
X1376750Y452250D02*
D03*
X1165750Y455000D02*
D03*
X923000Y492000D02*
D03*
X1037500Y491750D02*
D03*
X1213750Y372750D02*
D03*
X1450250Y563500D02*
D03*
X1426750Y588750D02*
D03*
X1463000Y652000D02*
D03*
X1448250D02*
D03*
X1439250Y651750D02*
D03*
X1482500Y532750D02*
D03*
X1493000Y518000D02*
D03*
X1437250Y563500D02*
D03*
X1565750Y601750D02*
D03*
Y562250D02*
D03*
X328750Y253000D02*
D03*
X304250D02*
D03*
X284250Y253250D02*
D03*
X422500Y317750D02*
D03*
X398750Y317250D02*
D03*
X378250Y313000D02*
D03*
X366000Y284750D02*
D03*
X330000Y333250D02*
D03*
X375827Y344310D02*
D03*
X1206250Y520000D02*
D03*
X1148750Y509500D02*
D03*
X1454000Y506500D02*
D03*
Y489250D02*
D03*
X1377000Y409750D02*
D03*
X482750Y346250D02*
D03*
X1286652Y472155D02*
D03*
X1206735Y478985D02*
D03*
X1172735D02*
D03*
X1190485Y441985D02*
D03*
X1287000Y377750D02*
D03*
X1206750Y315500D02*
D03*
X1289750Y388000D02*
D03*
X1206750Y297500D02*
D03*
X1291750Y396500D02*
D03*
X1296750Y402500D02*
D03*
X1302500Y409500D02*
D03*
X1308250Y416000D02*
D03*
X1312000Y423750D02*
D03*
X1312750Y432750D02*
D03*
X1207250Y280250D02*
D03*
X1194250Y395750D02*
D03*
X1295750Y280500D02*
D03*
X1194500Y406460D02*
D03*
X1295750Y298500D02*
D03*
X1194500Y414000D02*
D03*
X1296000Y317750D02*
D03*
X1194500Y421750D02*
D03*
Y429500D02*
D03*
X1296000Y334500D02*
D03*
X1295750Y352250D02*
D03*
X1116500Y346000D02*
D03*
X1116750Y333750D02*
D03*
X1117000Y316000D02*
D03*
X1117250Y297500D02*
D03*
X1453750Y391250D02*
D03*
X1493500Y380750D02*
D03*
X1286906Y462941D02*
D03*
X1287000Y452750D02*
D03*
X1141500Y486750D02*
D03*
X1083750Y511750D02*
D03*
X1483249Y267702D02*
D03*
X1554000Y505250D02*
D03*
X1490750Y505500D02*
D03*
X1076250Y465750D02*
D03*
X1118000Y465000D02*
D03*
X1115250Y407250D02*
D03*
X1068000Y420750D02*
D03*
X1197250Y570750D02*
D03*
X986000D02*
D03*
X1176750Y579000D02*
D03*
X966750D02*
D03*
X1095500Y369500D02*
D03*
X1140750Y388500D02*
D03*
X1141250Y370250D02*
D03*
X930250Y402500D02*
D03*
X935000Y426250D02*
D03*
X900250Y425750D02*
D03*
X932750Y339500D02*
D03*
X937500Y352750D02*
D03*
X856750Y334500D02*
D03*
X862750Y327250D02*
D03*
X868500Y319250D02*
D03*
X874750Y311000D02*
D03*
X881250Y303000D02*
D03*
X887000Y295750D02*
D03*
X1030000Y300500D02*
D03*
X770500Y286750D02*
D03*
X1037750Y291000D02*
D03*
X1045750Y347000D02*
D03*
X1057250Y344000D02*
D03*
X1065000Y337750D02*
D03*
X1071000Y331750D02*
D03*
X1077500Y323500D02*
D03*
X1044000Y283750D02*
D03*
X1092250Y144500D02*
D03*
X1016500Y145000D02*
D03*
X1463500Y267250D02*
D03*
X1371750Y279750D02*
D03*
X1282000Y280000D02*
D03*
X1192500D02*
D03*
X1160750Y383500D02*
D03*
X1022750Y425000D02*
D03*
X458250Y276250D02*
D03*
X442500Y286250D02*
D03*
X474000Y276500D02*
D03*
X491000D02*
D03*
X508500D02*
D03*
X525000Y274000D02*
D03*
X1513250Y270500D02*
D03*
X1529250Y214000D02*
D03*
X1552250Y223250D02*
D03*
X1523000Y270750D02*
D03*
X1552500Y242250D02*
D03*
X1543750Y271000D02*
D03*
X1093000Y181500D02*
D03*
X1467750Y214000D02*
D03*
X992250Y187500D02*
D03*
X974250Y221000D02*
D03*
X1583250Y485250D02*
D03*
X1091250Y244000D02*
D03*
X774750Y155250D02*
D03*
X806000Y268500D02*
D03*
X799250Y276250D02*
D03*
X887180Y156320D02*
D03*
X927500Y212750D02*
D03*
X803500Y170750D02*
D03*
X833000Y185750D02*
D03*
X902500Y174500D02*
D03*
X939250Y213000D02*
D03*
X1048750Y206750D02*
D03*
X871250Y270000D02*
D03*
X852000Y286250D02*
D03*
X833000Y253750D02*
D03*
X849000Y238000D02*
D03*
Y198250D02*
D03*
X735500Y166500D02*
D03*
X458250Y186250D02*
D03*
X741250Y232500D02*
D03*
X741000Y205000D02*
D03*
X506770Y206230D02*
D03*
X501500Y200250D02*
D03*
X665250Y282750D02*
D03*
X641250Y283000D02*
D03*
X606000Y264250D02*
D03*
X588250Y278500D02*
D03*
X575500Y265250D02*
D03*
X559750Y278500D02*
D03*
X606500Y248750D02*
D03*
Y230750D02*
D03*
X606750Y213000D02*
D03*
X355500Y312000D02*
D03*
X314000Y333250D02*
D03*
X733880Y538796D02*
D03*
X732750Y514750D02*
D03*
X741130Y497546D02*
D03*
X729130Y451546D02*
D03*
X687630Y464296D02*
D03*
X749630Y549046D02*
D03*
X769880D02*
D03*
X494838Y538796D02*
D03*
X494000Y514750D02*
D03*
X502088Y497546D02*
D03*
X490088Y451546D02*
D03*
X448588Y464296D02*
D03*
X510588Y549046D02*
D03*
X530838D02*
D03*
X723176Y458092D02*
D03*
X729426Y435592D02*
D03*
X484134Y458092D02*
D03*
X490384Y435592D02*
D03*
X741130Y516088D02*
D03*
X740880Y524588D02*
D03*
X501750Y524500D02*
D03*
X502000Y516000D02*
D03*
X263771Y525599D02*
D03*
X251500Y435750D02*
D03*
X245250Y458250D02*
D03*
X264000Y516250D02*
D03*
X292000Y549250D02*
D03*
X271750D02*
D03*
X209750Y464500D02*
D03*
X251250Y451750D02*
D03*
X263250Y497750D02*
D03*
X256250Y514750D02*
D03*
X256000Y539000D02*
D03*
X1117500Y279750D02*
D03*
M02*
