G04*
G04 #@! TF.GenerationSoftware,Altium Limited,Altium Designer,22.4.2 (48)*
G04*
G04 Layer_Color=128*
%FSLAX44Y44*%
%MOMM*%
G71*
G04*
G04 #@! TF.SameCoordinates,C02FB5F5-7DDD-4E4A-B98E-A3E591FA83C8*
G04*
G04*
G04 #@! TF.FilePolarity,Positive*
G04*
G01*
G75*
G04:AMPARAMS|DCode=25|XSize=1mm|YSize=1.1mm|CornerRadius=0.075mm|HoleSize=0mm|Usage=FLASHONLY|Rotation=180.000|XOffset=0mm|YOffset=0mm|HoleType=Round|Shape=RoundedRectangle|*
%AMROUNDEDRECTD25*
21,1,1.0000,0.9500,0,0,180.0*
21,1,0.8500,1.1000,0,0,180.0*
1,1,0.1500,-0.4250,0.4750*
1,1,0.1500,0.4250,0.4750*
1,1,0.1500,0.4250,-0.4750*
1,1,0.1500,-0.4250,-0.4750*
%
%ADD25ROUNDEDRECTD25*%
D25*
X853140Y423320D02*
D03*
Y407320D02*
D03*
X871390Y423320D02*
D03*
Y407320D02*
D03*
X816390Y423320D02*
D03*
Y407320D02*
D03*
X798390Y423320D02*
D03*
Y407320D02*
D03*
X834640Y423320D02*
D03*
Y407320D02*
D03*
X649390Y423320D02*
D03*
Y407320D02*
D03*
X594640Y423320D02*
D03*
Y407320D02*
D03*
X667640Y423320D02*
D03*
Y407320D02*
D03*
X631140Y423320D02*
D03*
Y407320D02*
D03*
X612890Y423320D02*
D03*
Y407320D02*
D03*
X351140Y418570D02*
D03*
Y402570D02*
D03*
X370140Y418570D02*
D03*
Y402570D02*
D03*
X426390Y418570D02*
D03*
Y402570D02*
D03*
X388890Y418570D02*
D03*
Y402570D02*
D03*
X407640Y418570D02*
D03*
Y402570D02*
D03*
M02*
