G04*
G04 #@! TF.GenerationSoftware,Altium Limited,Altium Designer,25.1.2 (22)*
G04*
G04 Layer_Color=16711935*
%FSLAX44Y44*%
%MOMM*%
G71*
G04*
G04 #@! TF.SameCoordinates,EAE4AFCB-A03C-4493-83DD-10631851BCDC*
G04*
G04*
G04 #@! TF.FilePolarity,Positive*
G04*
G01*
G75*
%ADD10C,0.2540*%
%ADD15C,0.1000*%
D10*
X1600000Y849000D02*
G03*
X1548997Y900003I-51002J0D01*
G01*
X1549000Y99998D02*
G03*
X1600000Y150500I0J51002D01*
G01*
X151003Y900003D02*
G03*
X100000Y849000I0J-51002D01*
G01*
X99998Y151000D02*
G03*
X151000Y99998I51002J0D01*
G01*
X245500Y900000D02*
X1548995D01*
X1600000Y594000D02*
Y849000D01*
X1600000Y150500D02*
Y201250D01*
X151000Y99998D02*
X1549000D01*
X151005Y900000D02*
X245500D01*
X99997Y849000D02*
X99998Y151000D01*
X1600000Y594000D02*
X1600000Y201250D01*
D15*
X99900Y215550D02*
Y307200D01*
X98900Y332200D02*
X101899D01*
Y330700D01*
X101399Y330201D01*
X100400D01*
X99900Y330700D01*
Y332200D01*
X101399Y327201D02*
X101899Y327701D01*
Y328701D01*
X101399Y329201D01*
X99400D01*
X98900Y328701D01*
Y327701D01*
X99400Y327201D01*
X101899Y326202D02*
X98900D01*
Y324702D01*
X99400Y324202D01*
X99900D01*
X100400Y324702D01*
Y326202D01*
Y324702D01*
X100899Y324202D01*
X101399D01*
X101899Y324702D01*
Y326202D01*
Y318204D02*
Y320204D01*
X98900D01*
Y318204D01*
X100400Y320204D02*
Y319204D01*
X101899Y317205D02*
X98900D01*
Y315705D01*
X99400Y315205D01*
X101399D01*
X101899Y315705D01*
Y317205D01*
X101399Y312206D02*
X101899Y312706D01*
Y313706D01*
X101399Y314206D01*
X99400D01*
X98900Y313706D01*
Y312706D01*
X99400Y312206D01*
X100400D01*
Y313206D01*
X101899Y309207D02*
Y311207D01*
X98900D01*
Y309207D01*
X100400Y311207D02*
Y310207D01*
M02*
