G04*
G04 #@! TF.GenerationSoftware,Altium Limited,Altium Designer,25.1.2 (22)*
G04*
G04 Layer_Color=8388736*
%FSLAX44Y44*%
%MOMM*%
G71*
G04*
G04 #@! TF.SameCoordinates,570CD7C3-0CC6-4732-88E4-A0A25D5D6109*
G04*
G04*
G04 #@! TF.FilePolarity,Negative*
G04*
G01*
G75*
%ADD56C,0.7032*%
%ADD57O,0.6000X1.6500*%
%ADD58R,0.6000X1.6500*%
G04:AMPARAMS|DCode=59|XSize=3.5032mm|YSize=1.9032mm|CornerRadius=0.3141mm|HoleSize=0mm|Usage=FLASHONLY|Rotation=180.000|XOffset=0mm|YOffset=0mm|HoleType=Round|Shape=RoundedRectangle|*
%AMROUNDEDRECTD59*
21,1,3.5032,1.2750,0,0,180.0*
21,1,2.8750,1.9032,0,0,180.0*
1,1,0.6282,-1.4375,0.6375*
1,1,0.6282,1.4375,0.6375*
1,1,0.6282,1.4375,-0.6375*
1,1,0.6282,-1.4375,-0.6375*
%
%ADD59ROUNDEDRECTD59*%
G04:AMPARAMS|DCode=60|XSize=3.5032mm|YSize=1.9032mm|CornerRadius=0.3141mm|HoleSize=0mm|Usage=FLASHONLY|Rotation=90.000|XOffset=0mm|YOffset=0mm|HoleType=Round|Shape=RoundedRectangle|*
%AMROUNDEDRECTD60*
21,1,3.5032,1.2750,0,0,90.0*
21,1,2.8750,1.9032,0,0,90.0*
1,1,0.6282,0.6375,1.4375*
1,1,0.6282,0.6375,-1.4375*
1,1,0.6282,-0.6375,-1.4375*
1,1,0.6282,-0.6375,1.4375*
%
%ADD60ROUNDEDRECTD60*%
G04:AMPARAMS|DCode=61|XSize=1.2032mm|YSize=1.3032mm|CornerRadius=0.1766mm|HoleSize=0mm|Usage=FLASHONLY|Rotation=0.000|XOffset=0mm|YOffset=0mm|HoleType=Round|Shape=RoundedRectangle|*
%AMROUNDEDRECTD61*
21,1,1.2032,0.9500,0,0,0.0*
21,1,0.8500,1.3032,0,0,0.0*
1,1,0.3532,0.4250,-0.4750*
1,1,0.3532,-0.4250,-0.4750*
1,1,0.3532,-0.4250,0.4750*
1,1,0.3532,0.4250,0.4750*
%
%ADD61ROUNDEDRECTD61*%
G04:AMPARAMS|DCode=62|XSize=1.2032mm|YSize=1.3032mm|CornerRadius=0.1766mm|HoleSize=0mm|Usage=FLASHONLY|Rotation=90.000|XOffset=0mm|YOffset=0mm|HoleType=Round|Shape=RoundedRectangle|*
%AMROUNDEDRECTD62*
21,1,1.2032,0.9500,0,0,90.0*
21,1,0.8500,1.3032,0,0,90.0*
1,1,0.3532,0.4750,0.4250*
1,1,0.3532,0.4750,-0.4250*
1,1,0.3532,-0.4750,-0.4250*
1,1,0.3532,-0.4750,0.4250*
%
%ADD62ROUNDEDRECTD62*%
%ADD63R,1.8032X0.6032*%
%ADD64R,1.8032X0.8032*%
G04:AMPARAMS|DCode=65|XSize=1.3032mm|YSize=1.2032mm|CornerRadius=0.1766mm|HoleSize=0mm|Usage=FLASHONLY|Rotation=180.000|XOffset=0mm|YOffset=0mm|HoleType=Round|Shape=RoundedRectangle|*
%AMROUNDEDRECTD65*
21,1,1.3032,0.8500,0,0,180.0*
21,1,0.9500,1.2032,0,0,180.0*
1,1,0.3532,-0.4750,0.4250*
1,1,0.3532,0.4750,0.4250*
1,1,0.3532,0.4750,-0.4250*
1,1,0.3532,-0.4750,-0.4250*
%
%ADD65ROUNDEDRECTD65*%
G04:AMPARAMS|DCode=66|XSize=1.3032mm|YSize=1.2032mm|CornerRadius=0.1766mm|HoleSize=0mm|Usage=FLASHONLY|Rotation=270.000|XOffset=0mm|YOffset=0mm|HoleType=Round|Shape=RoundedRectangle|*
%AMROUNDEDRECTD66*
21,1,1.3032,0.8500,0,0,270.0*
21,1,0.9500,1.2032,0,0,270.0*
1,1,0.3532,-0.4250,-0.4750*
1,1,0.3532,-0.4250,0.4750*
1,1,0.3532,0.4250,0.4750*
1,1,0.3532,0.4250,-0.4750*
%
%ADD66ROUNDEDRECTD66*%
%ADD67R,1.2032X2.7032*%
%ADD68R,1.9532X1.2032*%
%ADD69O,0.6532X2.2032*%
G04:AMPARAMS|DCode=70|XSize=0.7932mm|YSize=0.6532mm|CornerRadius=0.1354mm|HoleSize=0mm|Usage=FLASHONLY|Rotation=180.000|XOffset=0mm|YOffset=0mm|HoleType=Round|Shape=RoundedRectangle|*
%AMROUNDEDRECTD70*
21,1,0.7932,0.3825,0,0,180.0*
21,1,0.5225,0.6532,0,0,180.0*
1,1,0.2707,-0.2612,0.1913*
1,1,0.2707,0.2612,0.1913*
1,1,0.2707,0.2612,-0.1913*
1,1,0.2707,-0.2612,-0.1913*
%
%ADD70ROUNDEDRECTD70*%
G04:AMPARAMS|DCode=71|XSize=1.75mm|YSize=1.2mm|CornerRadius=0.175mm|HoleSize=0mm|Usage=FLASHONLY|Rotation=90.000|XOffset=0mm|YOffset=0mm|HoleType=Round|Shape=RoundedRectangle|*
%AMROUNDEDRECTD71*
21,1,1.7500,0.8500,0,0,90.0*
21,1,1.4000,1.2000,0,0,90.0*
1,1,0.3500,0.4250,0.7000*
1,1,0.3500,0.4250,-0.7000*
1,1,0.3500,-0.4250,-0.7000*
1,1,0.3500,-0.4250,0.7000*
%
%ADD71ROUNDEDRECTD71*%
%ADD72R,0.6032X0.6832*%
%ADD73O,0.8200X0.4500*%
%ADD74R,0.8200X0.4500*%
%ADD75R,5.8032X1.8532*%
G04:AMPARAMS|DCode=76|XSize=1.3032mm|YSize=1.2032mm|CornerRadius=0.2016mm|HoleSize=0mm|Usage=FLASHONLY|Rotation=180.000|XOffset=0mm|YOffset=0mm|HoleType=Round|Shape=RoundedRectangle|*
%AMROUNDEDRECTD76*
21,1,1.3032,0.8000,0,0,180.0*
21,1,0.9000,1.2032,0,0,180.0*
1,1,0.4032,-0.4500,0.4000*
1,1,0.4032,0.4500,0.4000*
1,1,0.4032,0.4500,-0.4000*
1,1,0.4032,-0.4500,-0.4000*
%
%ADD76ROUNDEDRECTD76*%
G04:AMPARAMS|DCode=77|XSize=1.5032mm|YSize=1.7032mm|CornerRadius=0.1991mm|HoleSize=0mm|Usage=FLASHONLY|Rotation=180.000|XOffset=0mm|YOffset=0mm|HoleType=Round|Shape=RoundedRectangle|*
%AMROUNDEDRECTD77*
21,1,1.5032,1.3050,0,0,180.0*
21,1,1.1050,1.7032,0,0,180.0*
1,1,0.3982,-0.5525,0.6525*
1,1,0.3982,0.5525,0.6525*
1,1,0.3982,0.5525,-0.6525*
1,1,0.3982,-0.5525,-0.6525*
%
%ADD77ROUNDEDRECTD77*%
G04:AMPARAMS|DCode=78|XSize=1.5032mm|YSize=1.7032mm|CornerRadius=0.1991mm|HoleSize=0mm|Usage=FLASHONLY|Rotation=90.000|XOffset=0mm|YOffset=0mm|HoleType=Round|Shape=RoundedRectangle|*
%AMROUNDEDRECTD78*
21,1,1.5032,1.3050,0,0,90.0*
21,1,1.1050,1.7032,0,0,90.0*
1,1,0.3982,0.6525,0.5525*
1,1,0.3982,0.6525,-0.5525*
1,1,0.3982,-0.6525,-0.5525*
1,1,0.3982,-0.6525,0.5525*
%
%ADD78ROUNDEDRECTD78*%
%ADD79R,2.7032X1.9032*%
G04:AMPARAMS|DCode=80|XSize=0.8032mm|YSize=1.1032mm|CornerRadius=0.1466mm|HoleSize=0mm|Usage=FLASHONLY|Rotation=270.000|XOffset=0mm|YOffset=0mm|HoleType=Round|Shape=RoundedRectangle|*
%AMROUNDEDRECTD80*
21,1,0.8032,0.8100,0,0,270.0*
21,1,0.5100,1.1032,0,0,270.0*
1,1,0.2932,-0.4050,-0.2550*
1,1,0.2932,-0.4050,0.2550*
1,1,0.2932,0.4050,0.2550*
1,1,0.2932,0.4050,-0.2550*
%
%ADD80ROUNDEDRECTD80*%
G04:AMPARAMS|DCode=81|XSize=1.3032mm|YSize=1.2032mm|CornerRadius=0.2016mm|HoleSize=0mm|Usage=FLASHONLY|Rotation=90.000|XOffset=0mm|YOffset=0mm|HoleType=Round|Shape=RoundedRectangle|*
%AMROUNDEDRECTD81*
21,1,1.3032,0.8000,0,0,90.0*
21,1,0.9000,1.2032,0,0,90.0*
1,1,0.4032,0.4000,0.4500*
1,1,0.4032,0.4000,-0.4500*
1,1,0.4032,-0.4000,-0.4500*
1,1,0.4032,-0.4000,0.4500*
%
%ADD81ROUNDEDRECTD81*%
%ADD82R,1.5532X0.6032*%
%ADD83R,2.1032X1.7032*%
%ADD84R,0.7932X0.6532*%
G04:AMPARAMS|DCode=85|XSize=0.7932mm|YSize=0.6532mm|CornerRadius=0.1354mm|HoleSize=0mm|Usage=FLASHONLY|Rotation=90.000|XOffset=0mm|YOffset=0mm|HoleType=Round|Shape=RoundedRectangle|*
%AMROUNDEDRECTD85*
21,1,0.7932,0.3825,0,0,90.0*
21,1,0.5225,0.6532,0,0,90.0*
1,1,0.2707,0.1913,0.2612*
1,1,0.2707,0.1913,-0.2612*
1,1,0.2707,-0.1913,-0.2612*
1,1,0.2707,-0.1913,0.2612*
%
%ADD85ROUNDEDRECTD85*%
G04:AMPARAMS|DCode=86|XSize=1.3032mm|YSize=0.8032mm|CornerRadius=0.1316mm|HoleSize=0mm|Usage=FLASHONLY|Rotation=0.000|XOffset=0mm|YOffset=0mm|HoleType=Round|Shape=RoundedRectangle|*
%AMROUNDEDRECTD86*
21,1,1.3032,0.5400,0,0,0.0*
21,1,1.0400,0.8032,0,0,0.0*
1,1,0.2632,0.5200,-0.2700*
1,1,0.2632,-0.5200,-0.2700*
1,1,0.2632,-0.5200,0.2700*
1,1,0.2632,0.5200,0.2700*
%
%ADD86ROUNDEDRECTD86*%
%ADD87R,0.4500X0.8200*%
%ADD88O,0.4500X0.8200*%
%ADD89R,1.0032X2.9032*%
%ADD90R,0.6532X0.7932*%
%ADD91C,1.8032*%
%ADD92R,1.8032X1.8032*%
%ADD93R,1.8032X1.8032*%
%ADD94C,1.6000*%
%ADD95C,1.8000*%
G04:AMPARAMS|DCode=96|XSize=1.8mm|YSize=1.8mm|CornerRadius=0.5mm|HoleSize=0mm|Usage=FLASHONLY|Rotation=270.000|XOffset=0mm|YOffset=0mm|HoleType=Round|Shape=RoundedRectangle|*
%AMROUNDEDRECTD96*
21,1,1.8000,0.8000,0,0,270.0*
21,1,0.8000,1.8000,0,0,270.0*
1,1,1.0000,-0.4000,-0.4000*
1,1,1.0000,-0.4000,0.4000*
1,1,1.0000,0.4000,0.4000*
1,1,1.0000,0.4000,-0.4000*
%
%ADD96ROUNDEDRECTD96*%
G04:AMPARAMS|DCode=97|XSize=1.7032mm|YSize=3.2032mm|CornerRadius=0.4766mm|HoleSize=0mm|Usage=FLASHONLY|Rotation=270.000|XOffset=0mm|YOffset=0mm|HoleType=Round|Shape=RoundedRectangle|*
%AMROUNDEDRECTD97*
21,1,1.7032,2.2500,0,0,270.0*
21,1,0.7500,3.2032,0,0,270.0*
1,1,0.9532,-1.1250,-0.3750*
1,1,0.9532,-1.1250,0.3750*
1,1,0.9532,1.1250,0.3750*
1,1,0.9532,1.1250,-0.3750*
%
%ADD97ROUNDEDRECTD97*%
%ADD98C,3.9032*%
%ADD99C,6.2032*%
%ADD100C,1.6112*%
%ADD101R,1.6112X1.6112*%
%ADD102C,2.6032*%
%ADD103C,3.4032*%
%ADD104C,1.6532*%
G04:AMPARAMS|DCode=105|XSize=1.8mm|YSize=1.8mm|CornerRadius=0.5mm|HoleSize=0mm|Usage=FLASHONLY|Rotation=0.000|XOffset=0mm|YOffset=0mm|HoleType=Round|Shape=RoundedRectangle|*
%AMROUNDEDRECTD105*
21,1,1.8000,0.8000,0,0,0.0*
21,1,0.8000,1.8000,0,0,0.0*
1,1,1.0000,0.4000,-0.4000*
1,1,1.0000,-0.4000,-0.4000*
1,1,1.0000,-0.4000,0.4000*
1,1,1.0000,0.4000,0.4000*
%
%ADD105ROUNDEDRECTD105*%
G36*
X124033Y238209D02*
X124164Y238183D01*
X124290Y238141D01*
X124409Y238082D01*
X124520Y238008D01*
X124620Y237920D01*
X124708Y237820D01*
X124782Y237709D01*
X124841Y237590D01*
X124883Y237463D01*
X124909Y237333D01*
X124918Y237200D01*
Y224200D01*
X124909Y224067D01*
X124883Y223936D01*
X124841Y223810D01*
X124782Y223691D01*
X124708Y223580D01*
X124620Y223480D01*
X124520Y223392D01*
X124409Y223318D01*
X124290Y223259D01*
X124164Y223216D01*
X124033Y223190D01*
X123900Y223182D01*
X119918D01*
Y219200D01*
X119910Y219067D01*
X119884Y218937D01*
X119841Y218811D01*
X119812Y218752D01*
X119782Y218691D01*
X119708Y218580D01*
X119620Y218480D01*
X119620D01*
Y218480D01*
X119520Y218392D01*
X119409Y218318D01*
X119349Y218289D01*
X119290Y218260D01*
X119164Y218217D01*
X119033Y218191D01*
X118900Y218182D01*
X109900Y218182D01*
X109900D01*
D01*
X109767Y218190D01*
X109636Y218216D01*
X109510Y218259D01*
X109452Y218288D01*
X109391Y218318D01*
X109280Y218392D01*
X109180Y218480D01*
Y218480D01*
X109180D01*
X109092Y218580D01*
X109018Y218691D01*
X108988Y218751D01*
X108959Y218810D01*
X108917Y218936D01*
X108890Y219067D01*
X108882Y219200D01*
Y219200D01*
D01*
Y223182D01*
X104900D01*
X104767Y223190D01*
X104636Y223216D01*
X104510Y223259D01*
X104391Y223318D01*
X104280Y223392D01*
X104180Y223480D01*
X104092Y223580D01*
X104018Y223691D01*
X103959Y223810D01*
X103917Y223936D01*
X103890Y224067D01*
X103882Y224200D01*
Y237200D01*
X103890Y237333D01*
X103917Y237463D01*
X103959Y237590D01*
X104018Y237709D01*
X104092Y237820D01*
X104180Y237920D01*
X104280Y238008D01*
X104391Y238082D01*
X104510Y238141D01*
X104636Y238183D01*
X104767Y238209D01*
X104900Y238218D01*
X123900D01*
X124033Y238209D01*
D02*
G37*
G36*
X119033Y302209D02*
X119164Y302183D01*
X119290Y302141D01*
X119348Y302112D01*
X119409Y302082D01*
X119520Y302008D01*
X119620Y301920D01*
Y301920D01*
X119620D01*
X119708Y301820D01*
X119782Y301709D01*
X119812Y301649D01*
X119841Y301590D01*
X119883Y301464D01*
X119909Y301333D01*
X119918Y301200D01*
Y301200D01*
D01*
Y297218D01*
X123900D01*
X124033Y297209D01*
X124164Y297183D01*
X124290Y297141D01*
X124409Y297082D01*
X124520Y297008D01*
X124620Y296920D01*
X124708Y296820D01*
X124782Y296709D01*
X124841Y296590D01*
X124883Y296464D01*
X124909Y296333D01*
X124918Y296200D01*
Y283200D01*
X124909Y283067D01*
X124883Y282936D01*
X124841Y282810D01*
X124782Y282691D01*
X124708Y282580D01*
X124620Y282480D01*
X124520Y282392D01*
X124409Y282318D01*
X124290Y282259D01*
X124164Y282216D01*
X124033Y282190D01*
X123900Y282182D01*
X104900D01*
X104767Y282190D01*
X104636Y282216D01*
X104510Y282259D01*
X104391Y282318D01*
X104280Y282392D01*
X104180Y282480D01*
X104092Y282580D01*
X104018Y282691D01*
X103959Y282810D01*
X103917Y282936D01*
X103890Y283067D01*
X103882Y283200D01*
Y296200D01*
X103890Y296333D01*
X103917Y296464D01*
X103959Y296590D01*
X104018Y296709D01*
X104092Y296820D01*
X104180Y296920D01*
X104280Y297008D01*
X104391Y297082D01*
X104510Y297141D01*
X104636Y297183D01*
X104767Y297209D01*
X104900Y297218D01*
X108882D01*
Y301200D01*
X108890Y301333D01*
X108916Y301463D01*
X108959Y301589D01*
X108988Y301648D01*
X109018Y301709D01*
X109092Y301820D01*
X109180Y301920D01*
X109180D01*
Y301920D01*
X109280Y302008D01*
X109391Y302082D01*
X109451Y302111D01*
X109510Y302140D01*
X109636Y302183D01*
X109767Y302209D01*
X109900Y302218D01*
X118900Y302218D01*
X118900D01*
D01*
X119033Y302209D01*
D02*
G37*
D56*
X112400Y296200D02*
G03*
X112400Y296200I-2500J0D01*
G01*
X121400D02*
G03*
X121400Y296200I-2500J0D01*
G01*
X112400Y224200D02*
G03*
X112400Y224200I-2500J0D01*
G01*
X121400D02*
G03*
X121400Y224200I-2500J0D01*
G01*
D57*
X1389250Y263500D02*
D03*
X1382750D02*
D03*
X1376250D02*
D03*
X1369750D02*
D03*
X1363250D02*
D03*
X1356750D02*
D03*
X1350250D02*
D03*
X1343750D02*
D03*
X1389250Y205500D02*
D03*
X1382750D02*
D03*
X1376250D02*
D03*
X1369750D02*
D03*
X1363250D02*
D03*
X1356750D02*
D03*
X1350250D02*
D03*
D58*
X1343750D02*
D03*
D59*
X1173750Y145000D02*
D03*
X1167700Y430800D02*
D03*
X785550Y429200D02*
D03*
X634750Y130750D02*
D03*
X538000Y130750D02*
D03*
X224950Y827550D02*
D03*
X605500Y256000D02*
D03*
X605950Y449050D02*
D03*
X1437250Y509750D02*
D03*
X1437000Y558250D02*
D03*
X822750Y327250D02*
D03*
X752000D02*
D03*
X1066500Y244000D02*
D03*
X1067500Y183000D02*
D03*
X932500Y244000D02*
D03*
Y182000D02*
D03*
D60*
X136950Y778450D02*
D03*
X374540Y708250D02*
D03*
X902540Y704981D02*
D03*
X638050Y704550D02*
D03*
D61*
X1303610Y373070D02*
D03*
Y389070D02*
D03*
X1324610Y373070D02*
D03*
Y389070D02*
D03*
X325610Y772570D02*
D03*
Y756570D02*
D03*
X1073610D02*
D03*
Y772570D02*
D03*
X1033610Y756570D02*
D03*
Y772570D02*
D03*
X993610Y756570D02*
D03*
Y772570D02*
D03*
X953610Y756570D02*
D03*
Y772570D02*
D03*
X913610Y756570D02*
D03*
Y772570D02*
D03*
X810110Y756570D02*
D03*
Y772570D02*
D03*
X770110Y756570D02*
D03*
Y772570D02*
D03*
X730110Y756570D02*
D03*
Y772570D02*
D03*
X690110Y756570D02*
D03*
Y772570D02*
D03*
X650110Y756570D02*
D03*
Y772570D02*
D03*
X545610D02*
D03*
Y756570D02*
D03*
X505610Y772570D02*
D03*
Y756570D02*
D03*
X465610Y772570D02*
D03*
Y756570D02*
D03*
X425610Y772570D02*
D03*
Y756570D02*
D03*
X385610Y772570D02*
D03*
Y756570D02*
D03*
X1299860Y596570D02*
D03*
Y580570D02*
D03*
X1238110Y596320D02*
D03*
Y580320D02*
D03*
X1279110Y596320D02*
D03*
Y580320D02*
D03*
X1258610Y596320D02*
D03*
Y580320D02*
D03*
X455420Y616680D02*
D03*
Y600680D02*
D03*
X455170Y582390D02*
D03*
Y566390D02*
D03*
X421170Y566310D02*
D03*
Y582310D02*
D03*
X963500Y237000D02*
D03*
Y221000D02*
D03*
X963610Y186570D02*
D03*
Y202570D02*
D03*
X711610Y252570D02*
D03*
Y268570D02*
D03*
X819140Y301930D02*
D03*
Y285930D02*
D03*
X786390Y301680D02*
D03*
Y285680D02*
D03*
X949170Y582810D02*
D03*
Y566810D02*
D03*
X983170Y566890D02*
D03*
Y582890D02*
D03*
X983420Y601180D02*
D03*
Y617180D02*
D03*
X685670Y584160D02*
D03*
Y568160D02*
D03*
X719670Y568240D02*
D03*
Y584240D02*
D03*
X719920Y602530D02*
D03*
Y618530D02*
D03*
X1268140Y462180D02*
D03*
Y478180D02*
D03*
X571294Y346630D02*
D03*
Y362630D02*
D03*
X1381640Y371680D02*
D03*
Y387680D02*
D03*
X1036610Y244570D02*
D03*
Y228570D02*
D03*
D62*
X1447680Y165610D02*
D03*
X1463680D02*
D03*
X1463430Y183860D02*
D03*
X1447430D02*
D03*
X1447430Y202110D02*
D03*
X1463430D02*
D03*
X1469930Y820110D02*
D03*
X1485930D02*
D03*
X1469930Y840110D02*
D03*
X1485930D02*
D03*
X1469930Y860110D02*
D03*
X1485930D02*
D03*
X437230Y600870D02*
D03*
X421230D02*
D03*
X476700Y566550D02*
D03*
X492700D02*
D03*
X947180Y448610D02*
D03*
X963180D02*
D03*
X981500Y448500D02*
D03*
X997500D02*
D03*
X1159930Y355610D02*
D03*
X1175930D02*
D03*
X963320Y430140D02*
D03*
X947320D02*
D03*
X997820D02*
D03*
X981820D02*
D03*
X1126070Y365890D02*
D03*
X1142070D02*
D03*
X1176070Y373890D02*
D03*
X1160070D02*
D03*
X887180Y168010D02*
D03*
X871180D02*
D03*
X203430Y254860D02*
D03*
X187430D02*
D03*
X887180Y186010D02*
D03*
X871180D02*
D03*
X203430Y272610D02*
D03*
X187430D02*
D03*
X887180Y204010D02*
D03*
X871180D02*
D03*
X887180Y241010D02*
D03*
X871180D02*
D03*
X1020700Y567050D02*
D03*
X1004700D02*
D03*
X949230Y601370D02*
D03*
X965230D02*
D03*
X757200Y568400D02*
D03*
X741200D02*
D03*
X685730Y602720D02*
D03*
X701730D02*
D03*
X1361430Y415360D02*
D03*
X1345430D02*
D03*
X1361180Y434860D02*
D03*
X1345180D02*
D03*
X1268320Y444140D02*
D03*
X1284320D02*
D03*
X337680Y404360D02*
D03*
X353680D02*
D03*
X373180Y426360D02*
D03*
X389180D02*
D03*
X354070Y422890D02*
D03*
X338070D02*
D03*
X389320Y444140D02*
D03*
X373320D02*
D03*
X558929Y256215D02*
D03*
X574929D02*
D03*
X558680Y449110D02*
D03*
X574680D02*
D03*
X1020930Y207110D02*
D03*
X1036930D02*
D03*
D63*
X1058250Y389758D02*
D03*
Y396258D02*
D03*
Y402758D02*
D03*
Y383258D02*
D03*
Y376758D02*
D03*
X997250D02*
D03*
Y383258D02*
D03*
Y402758D02*
D03*
Y396258D02*
D03*
Y389758D02*
D03*
Y370258D02*
D03*
Y363758D02*
D03*
Y357258D02*
D03*
Y350758D02*
D03*
Y331258D02*
D03*
Y337757D02*
D03*
Y344258D02*
D03*
X1058250D02*
D03*
Y337757D02*
D03*
Y331258D02*
D03*
Y350758D02*
D03*
Y357258D02*
D03*
Y363758D02*
D03*
Y370258D02*
D03*
D64*
X997250Y410258D02*
D03*
Y323758D02*
D03*
X1058250D02*
D03*
Y410258D02*
D03*
D65*
X747480Y161800D02*
D03*
X764480D02*
D03*
X475270Y631950D02*
D03*
X492270D02*
D03*
X1020270Y632450D02*
D03*
X1003270D02*
D03*
X756770Y633800D02*
D03*
X739770D02*
D03*
X659730Y363050D02*
D03*
X642730D02*
D03*
X659730Y345550D02*
D03*
X642730D02*
D03*
X659730Y327800D02*
D03*
X642730D02*
D03*
D66*
X1327200Y226230D02*
D03*
Y243230D02*
D03*
X483820Y691060D02*
D03*
Y708060D02*
D03*
X1011820Y708560D02*
D03*
Y691560D02*
D03*
X748320Y709910D02*
D03*
Y692910D02*
D03*
X553704Y346470D02*
D03*
Y363470D02*
D03*
X536704Y346470D02*
D03*
Y363470D02*
D03*
X848950Y227230D02*
D03*
Y210230D02*
D03*
X693450Y269730D02*
D03*
Y252730D02*
D03*
X308050Y365520D02*
D03*
Y382520D02*
D03*
X402450Y401980D02*
D03*
Y384980D02*
D03*
X1401800Y371520D02*
D03*
Y388520D02*
D03*
X1018800Y228270D02*
D03*
Y245270D02*
D03*
D67*
X1583250Y385000D02*
D03*
X1443250D02*
D03*
X1463250D02*
D03*
X1483250D02*
D03*
X1503250D02*
D03*
X1523250D02*
D03*
X1543250D02*
D03*
X1563250D02*
D03*
X1583250Y235000D02*
D03*
X1563250D02*
D03*
X1543250D02*
D03*
X1523250D02*
D03*
X1503250D02*
D03*
X1483250D02*
D03*
X1463250D02*
D03*
X1443250D02*
D03*
D68*
X1431250Y260454D02*
D03*
Y280454D02*
D03*
Y300454D02*
D03*
Y320454D02*
D03*
Y340454D02*
D03*
Y360454D02*
D03*
D69*
X740996Y255500D02*
D03*
Y183500D02*
D03*
X747496Y255500D02*
D03*
Y183500D02*
D03*
X753996Y255500D02*
D03*
Y183500D02*
D03*
X760496Y255500D02*
D03*
Y183500D02*
D03*
X766996Y255500D02*
D03*
Y183500D02*
D03*
X773496Y255500D02*
D03*
Y183500D02*
D03*
X779996Y255500D02*
D03*
Y183500D02*
D03*
X786496Y255500D02*
D03*
Y183500D02*
D03*
X792996Y255500D02*
D03*
Y183500D02*
D03*
X799496Y255500D02*
D03*
Y183500D02*
D03*
X805996Y255500D02*
D03*
Y183500D02*
D03*
X812496Y255500D02*
D03*
Y183500D02*
D03*
X818996Y255500D02*
D03*
Y183500D02*
D03*
X825496Y255500D02*
D03*
Y183500D02*
D03*
D70*
X501700Y364850D02*
D03*
X480600D02*
D03*
D71*
X1168600Y232250D02*
D03*
Y284750D02*
D03*
X1200600Y232250D02*
D03*
Y284750D02*
D03*
X674600Y307500D02*
D03*
Y255000D02*
D03*
X642600Y307500D02*
D03*
Y255000D02*
D03*
D72*
X396130Y694710D02*
D03*
Y707910D02*
D03*
X924130Y708410D02*
D03*
Y695210D02*
D03*
X660630Y709760D02*
D03*
Y696560D02*
D03*
D73*
X466090Y656950D02*
D03*
Y651950D02*
D03*
Y646950D02*
D03*
X480890Y656950D02*
D03*
Y651950D02*
D03*
X1008890Y652450D02*
D03*
Y657450D02*
D03*
X994090Y647450D02*
D03*
Y652450D02*
D03*
Y657450D02*
D03*
X745390Y653800D02*
D03*
Y658800D02*
D03*
X730590Y648800D02*
D03*
Y653800D02*
D03*
Y658800D02*
D03*
D74*
X480890Y646950D02*
D03*
X1008890Y647450D02*
D03*
X745390Y648800D02*
D03*
D75*
X525160Y664810D02*
D03*
Y706310D02*
D03*
X1053160Y706810D02*
D03*
Y665310D02*
D03*
X789660Y708160D02*
D03*
Y666660D02*
D03*
D76*
X401870Y566630D02*
D03*
Y582630D02*
D03*
X838650Y286000D02*
D03*
Y302000D02*
D03*
X929870Y583130D02*
D03*
Y567130D02*
D03*
X666370Y584480D02*
D03*
Y568480D02*
D03*
D77*
X415280Y621700D02*
D03*
X434280D02*
D03*
X415280Y645830D02*
D03*
X434280D02*
D03*
X415280Y669850D02*
D03*
X434280D02*
D03*
X494190Y611590D02*
D03*
X475190D02*
D03*
X494190Y587460D02*
D03*
X475190D02*
D03*
X1003190Y612090D02*
D03*
X1022190D02*
D03*
X1003190Y587960D02*
D03*
X1022190D02*
D03*
X962280Y622200D02*
D03*
X943280D02*
D03*
X962280Y646330D02*
D03*
X943280D02*
D03*
X962280Y670350D02*
D03*
X943280D02*
D03*
X739690Y613440D02*
D03*
X758690D02*
D03*
X739690Y589310D02*
D03*
X758690D02*
D03*
X698780Y623550D02*
D03*
X679780D02*
D03*
X698780Y647680D02*
D03*
X679780D02*
D03*
X698780Y671700D02*
D03*
X679780D02*
D03*
D78*
X463840Y711380D02*
D03*
Y692380D02*
D03*
X440220Y711380D02*
D03*
Y692380D02*
D03*
X416600Y711380D02*
D03*
Y692380D02*
D03*
X991840Y692880D02*
D03*
Y711880D02*
D03*
X968220Y692880D02*
D03*
Y711880D02*
D03*
X944600Y692880D02*
D03*
Y711880D02*
D03*
X728340Y694230D02*
D03*
Y713230D02*
D03*
X704720Y694230D02*
D03*
Y713230D02*
D03*
X681100Y694230D02*
D03*
Y713230D02*
D03*
X423110Y405200D02*
D03*
Y386200D02*
D03*
X328390Y365300D02*
D03*
Y384300D02*
D03*
X352390Y365300D02*
D03*
Y384300D02*
D03*
X447110Y405200D02*
D03*
Y386200D02*
D03*
X447390Y345300D02*
D03*
Y364300D02*
D03*
X423390Y345300D02*
D03*
Y364300D02*
D03*
D79*
X225000Y779250D02*
D03*
X185000D02*
D03*
D80*
X1002460Y187270D02*
D03*
Y206270D02*
D03*
X979460Y196770D02*
D03*
X1002500Y228500D02*
D03*
Y247500D02*
D03*
X979500Y238000D02*
D03*
D81*
X871250Y222500D02*
D03*
X887250D02*
D03*
X871250Y259500D02*
D03*
X887250D02*
D03*
X1413250Y165150D02*
D03*
X1429250D02*
D03*
X524000Y256500D02*
D03*
X540000D02*
D03*
X524000Y449000D02*
D03*
X540000D02*
D03*
D82*
X141400Y273200D02*
D03*
Y266700D02*
D03*
Y260200D02*
D03*
Y253700D02*
D03*
Y247200D02*
D03*
D83*
X114400Y270200D02*
D03*
Y250200D02*
D03*
D84*
X504650Y344000D02*
D03*
X482850D02*
D03*
D85*
X519900Y343100D02*
D03*
Y364200D02*
D03*
D86*
X622404Y345200D02*
D03*
X596404Y364200D02*
D03*
Y354700D02*
D03*
Y345200D02*
D03*
X622404Y364200D02*
D03*
D87*
X370750Y384850D02*
D03*
D88*
X375750D02*
D03*
X380750D02*
D03*
X370750Y399650D02*
D03*
X375750D02*
D03*
X380750D02*
D03*
D89*
X380750Y357250D02*
D03*
X402750D02*
D03*
D90*
X466750Y365150D02*
D03*
Y343350D02*
D03*
D91*
X1175850Y585100D02*
D03*
X1129600Y210150D02*
D03*
X1282650Y625400D02*
D03*
X1175850Y624600D02*
D03*
X325500Y829750D02*
D03*
Y855150D02*
D03*
X953500Y829750D02*
D03*
Y855150D02*
D03*
X913500Y829750D02*
D03*
Y855150D02*
D03*
X690000Y829750D02*
D03*
Y855150D02*
D03*
X650000Y829750D02*
D03*
Y855150D02*
D03*
X425500Y829750D02*
D03*
Y855150D02*
D03*
X385500Y829750D02*
D03*
Y855150D02*
D03*
X1250000Y829750D02*
D03*
Y855150D02*
D03*
X1129600Y271150D02*
D03*
X1210000Y829750D02*
D03*
Y855150D02*
D03*
X1170000Y829750D02*
D03*
Y855150D02*
D03*
X1425000Y829750D02*
D03*
Y855150D02*
D03*
X1385000Y829750D02*
D03*
Y855150D02*
D03*
X1345000Y829750D02*
D03*
Y855150D02*
D03*
X1290000Y829750D02*
D03*
Y855150D02*
D03*
X993500Y829750D02*
D03*
Y855150D02*
D03*
X730000Y829750D02*
D03*
Y855150D02*
D03*
X465500Y829750D02*
D03*
Y855150D02*
D03*
X1033500Y829750D02*
D03*
Y855150D02*
D03*
X770000Y829750D02*
D03*
Y855150D02*
D03*
X505500Y829750D02*
D03*
Y855150D02*
D03*
X1073500Y829750D02*
D03*
Y855150D02*
D03*
X810000Y829750D02*
D03*
Y855150D02*
D03*
X545500Y829750D02*
D03*
Y855150D02*
D03*
D92*
X1201250Y585100D02*
D03*
X1257250Y625400D02*
D03*
X1201250Y624600D02*
D03*
D93*
X1129600Y184750D02*
D03*
X325500Y804350D02*
D03*
X953500Y804350D02*
D03*
X913500D02*
D03*
X690000D02*
D03*
X650000D02*
D03*
X425500Y804350D02*
D03*
X385500D02*
D03*
X1250000Y804350D02*
D03*
X1129600Y245750D02*
D03*
X1210000Y804350D02*
D03*
X1170000D02*
D03*
X1425000D02*
D03*
X1385000D02*
D03*
X1345000D02*
D03*
X1290000D02*
D03*
X993500D02*
D03*
X730000D02*
D03*
X465500Y804350D02*
D03*
X1033500Y804350D02*
D03*
X770000D02*
D03*
X505500Y804350D02*
D03*
X1073500Y804350D02*
D03*
X810000D02*
D03*
X545500Y804350D02*
D03*
D94*
X1113780Y830150D02*
D03*
X1133780D02*
D03*
X851280Y830900D02*
D03*
X871280D02*
D03*
X589030Y830650D02*
D03*
X609030D02*
D03*
D95*
X1246000Y212100D02*
D03*
Y262900D02*
D03*
Y237500D02*
D03*
Y186700D02*
D03*
X1290000Y212100D02*
D03*
Y262900D02*
D03*
Y237500D02*
D03*
Y186700D02*
D03*
X861600Y130000D02*
D03*
X836200D02*
D03*
X785400D02*
D03*
X760000D02*
D03*
X810800D02*
D03*
D96*
X1246000Y288300D02*
D03*
X1290000D02*
D03*
D97*
X1545000Y652500D02*
D03*
Y787500D02*
D03*
X164500Y725750D02*
D03*
Y590750D02*
D03*
D98*
X1485000Y684000D02*
D03*
Y756000D02*
D03*
X224500Y694250D02*
D03*
Y622250D02*
D03*
D99*
X1549800Y150600D02*
D03*
Y850600D02*
D03*
X149800D02*
D03*
Y150600D02*
D03*
D100*
X1478630Y564030D02*
D03*
Y472630D02*
D03*
Y586930D02*
D03*
Y449730D02*
D03*
X1526830Y523430D02*
D03*
X1544630Y513230D02*
D03*
Y533630D02*
D03*
X1526830Y503030D02*
D03*
Y543830D02*
D03*
X1544630Y492830D02*
D03*
X1526830Y482630D02*
D03*
D101*
X1544630Y554030D02*
D03*
D102*
X1535730Y599580D02*
D03*
Y437080D02*
D03*
D103*
X1570030Y581830D02*
D03*
Y454830D02*
D03*
D104*
X141400Y235200D02*
D03*
Y285200D02*
D03*
D105*
X734600Y130000D02*
D03*
M02*
